G04 #@! TF.FileFunction,Soldermask,Top*
%FSLAX46Y46*%
G04 Gerber Fmt 4.6, Leading zero omitted, Abs format (unit mm)*
G04 Created by KiCad (PCBNEW (2016-08-20 BZR 7083)-product) date Mon Jan  2 06:37:45 2017*
%MOMM*%
%LPD*%
G01*
G04 APERTURE LIST*
%ADD10C,0.100000*%
%ADD11C,1.800000*%
%ADD12R,1.800000X1.800000*%
%ADD13C,2.200000*%
%ADD14R,1.600000X1.600000*%
%ADD15C,1.600000*%
%ADD16C,1.400000*%
%ADD17O,2.200000X3.200000*%
%ADD18R,1.400000X1.400000*%
%ADD19R,2.400000X1.800000*%
%ADD20O,2.400000X1.800000*%
G04 APERTURE END LIST*
D10*
D11*
X13200000Y40700000D03*
X5600000Y40700000D03*
X18500000Y18500000D03*
X18500000Y26100000D03*
X5900000Y18500000D03*
X5900000Y26100000D03*
D12*
X7330000Y88520000D03*
D11*
X9870000Y88520000D03*
X7330000Y91060000D03*
X9870000Y91060000D03*
X7330000Y93600000D03*
X9870000Y93600000D03*
X7330000Y96140000D03*
X9870000Y96140000D03*
X7330000Y98680000D03*
X9870000Y98680000D03*
D13*
X19500000Y35698000D03*
X19500000Y43826000D03*
X19500000Y32650000D03*
X12000000Y20698000D03*
X12000000Y28826000D03*
X12000000Y17650000D03*
X27000000Y20698000D03*
X27000000Y28826000D03*
X27000000Y17650000D03*
X6500000Y5698000D03*
X6500000Y13826000D03*
X6500000Y2650000D03*
D14*
X12850000Y76800000D03*
D15*
X15350000Y76800000D03*
D14*
X35200000Y98650000D03*
D15*
X35200000Y96150000D03*
D14*
X28700000Y98650000D03*
D15*
X28700000Y96150000D03*
D16*
X37600000Y100860000D03*
X37600000Y105940000D03*
X32460000Y87600000D03*
X37540000Y87600000D03*
X7400000Y63740000D03*
X7400000Y58660000D03*
X25540000Y66200000D03*
X20460000Y66200000D03*
X27300000Y80760000D03*
X27300000Y85840000D03*
X30260000Y71600000D03*
X35340000Y71600000D03*
X25260000Y42900000D03*
X30340000Y42900000D03*
X37700000Y45460000D03*
X37700000Y50540000D03*
X27360000Y66200000D03*
X32440000Y66200000D03*
X37540000Y85600000D03*
X32460000Y85600000D03*
D15*
X30600000Y77500000D03*
X31626000Y75026000D03*
X34100000Y74000000D03*
X36574000Y75026000D03*
X37600000Y77500000D03*
X36574000Y79974000D03*
X34100000Y81000000D03*
X31626000Y79974000D03*
D13*
X24920000Y102000000D03*
X35080000Y102000000D03*
X27020000Y90100000D03*
X37180000Y90100000D03*
X1900000Y55400000D03*
X1900000Y65400000D03*
X4900000Y65400000D03*
X4900000Y55400000D03*
X4900000Y68000000D03*
X4900000Y78000000D03*
X1900000Y78000000D03*
X1900000Y68000000D03*
X14300000Y81500000D03*
X24300000Y81500000D03*
X25800000Y48100000D03*
X15800000Y48100000D03*
X17700000Y55500000D03*
X7700000Y55500000D03*
X13500000Y52400000D03*
X3500000Y52400000D03*
X11900000Y81500000D03*
X1900000Y81500000D03*
X13500000Y49300000D03*
X3500000Y49300000D03*
X2000000Y94300000D03*
X2000000Y104300000D03*
X36300000Y18900000D03*
X36300000Y28900000D03*
X34000000Y31900000D03*
X24000000Y31900000D03*
X25800000Y14700000D03*
X25800000Y4700000D03*
X13000000Y14500000D03*
X13000000Y4500000D03*
X25500000Y45400000D03*
X35500000Y45400000D03*
X16700000Y31900000D03*
X6700000Y31900000D03*
X26800000Y54100000D03*
X26800000Y64100000D03*
X32800000Y54100000D03*
X32800000Y64100000D03*
X20800000Y64100000D03*
X20800000Y54100000D03*
X23800000Y54100000D03*
X23800000Y64100000D03*
X29800000Y64100000D03*
X29800000Y54100000D03*
X23800000Y78400000D03*
X23800000Y68400000D03*
X20800000Y68400000D03*
X20800000Y78400000D03*
X26800000Y68400000D03*
X26800000Y78400000D03*
X3500000Y46000000D03*
X13500000Y46000000D03*
X33300000Y28800000D03*
X33300000Y18800000D03*
D11*
X7500000Y66100000D03*
X7500000Y73700000D03*
X23400000Y50700000D03*
X15800000Y50700000D03*
X3600000Y26100000D03*
X3600000Y18500000D03*
X20900000Y26100000D03*
X20900000Y18500000D03*
X25300000Y38700000D03*
X32900000Y38700000D03*
X32900000Y40800000D03*
X25300000Y40800000D03*
X35300000Y41900000D03*
X35300000Y34300000D03*
X5600000Y36500000D03*
X13200000Y36500000D03*
X13200000Y34400000D03*
X5600000Y34400000D03*
X25300000Y36600000D03*
X32900000Y36600000D03*
X5600000Y38600000D03*
X13200000Y38600000D03*
X32900000Y34500000D03*
X25300000Y34500000D03*
X15550000Y102850000D03*
X20650000Y101950000D03*
X14750000Y85650000D03*
X19850000Y84750000D03*
D16*
X3035000Y90600000D03*
X1765000Y89330000D03*
X1765000Y91870000D03*
X29500000Y47665000D03*
X28230000Y48935000D03*
X30770000Y48935000D03*
D13*
X19500000Y5698000D03*
X19500000Y13826000D03*
X19500000Y2650000D03*
X32500000Y5698000D03*
X32500000Y13826000D03*
X32500000Y2650000D03*
D11*
X37750000Y35190000D03*
X37750000Y37730000D03*
D12*
X37750000Y42810000D03*
D11*
X37750000Y40270000D03*
X1250000Y35190000D03*
X1250000Y37730000D03*
D12*
X1250000Y42810000D03*
D11*
X1250000Y40270000D03*
D17*
X24500000Y95000000D03*
X14500000Y95000000D03*
D11*
X22000000Y88000000D03*
X19500000Y88000000D03*
X17000000Y88000000D03*
D16*
X5230000Y105500000D03*
D18*
X7770000Y105500000D03*
D19*
X10090000Y73720000D03*
D20*
X10090000Y71180000D03*
X10090000Y68640000D03*
X10090000Y66100000D03*
X10090000Y63560000D03*
X10090000Y61020000D03*
X10090000Y58480000D03*
X17710000Y58480000D03*
X17710000Y61020000D03*
X17710000Y63560000D03*
X17710000Y66100000D03*
X17710000Y68640000D03*
X17710000Y71180000D03*
X17710000Y73720000D03*
D13*
X24920000Y104900000D03*
X35080000Y104900000D03*
X37180000Y93100000D03*
X27020000Y93100000D03*
D11*
X7500000Y76200000D03*
X9700000Y76300000D03*
X33600000Y48100000D03*
X32600000Y83300000D03*
X29400000Y73800000D03*
X29900000Y68400000D03*
X37700000Y82000000D03*
D13*
X30000000Y83300000D03*
X30000000Y86300000D03*
X35800000Y54100000D03*
X35800000Y64100000D03*
M02*
