G04 #@! TF.FileFunction,Legend,Bot*
%FSLAX46Y46*%
G04 Gerber Fmt 4.6, Leading zero omitted, Abs format (unit mm)*
G04 Created by KiCad (PCBNEW (2016-08-20 BZR 7083)-product) date Mon Jan  2 06:37:45 2017*
%MOMM*%
%LPD*%
G01*
G04 APERTURE LIST*
%ADD10C,0.100000*%
%ADD11C,0.200000*%
%ADD12C,0.150000*%
G04 APERTURE END LIST*
D10*
D11*
X4942857Y30414286D02*
X4800000Y30357143D01*
X4561904Y30357143D01*
X4466666Y30414286D01*
X4419047Y30471429D01*
X4371428Y30585715D01*
X4371428Y30700000D01*
X4419047Y30814286D01*
X4466666Y30871429D01*
X4561904Y30928572D01*
X4752380Y30985715D01*
X4847619Y31042858D01*
X4895238Y31100000D01*
X4942857Y31214286D01*
X4942857Y31328572D01*
X4895238Y31442858D01*
X4847619Y31500000D01*
X4752380Y31557143D01*
X4514285Y31557143D01*
X4371428Y31500000D01*
X3942857Y30357143D02*
X3942857Y31157143D01*
X3942857Y31557143D02*
X3990476Y31500000D01*
X3942857Y31442858D01*
X3895238Y31500000D01*
X3942857Y31557143D01*
X3942857Y31442858D01*
X3038095Y31157143D02*
X3038095Y30185715D01*
X3085714Y30071429D01*
X3133333Y30014286D01*
X3228571Y29957143D01*
X3371428Y29957143D01*
X3466666Y30014286D01*
X3038095Y30414286D02*
X3133333Y30357143D01*
X3323809Y30357143D01*
X3419047Y30414286D01*
X3466666Y30471429D01*
X3514285Y30585715D01*
X3514285Y30928572D01*
X3466666Y31042858D01*
X3419047Y31100000D01*
X3323809Y31157143D01*
X3133333Y31157143D01*
X3038095Y31100000D01*
X2561904Y31157143D02*
X2561904Y30357143D01*
X2561904Y31042858D02*
X2514285Y31100000D01*
X2419047Y31157143D01*
X2276190Y31157143D01*
X2180952Y31100000D01*
X2133333Y30985715D01*
X2133333Y30357143D01*
X1228571Y30357143D02*
X1228571Y30985715D01*
X1276190Y31100000D01*
X1371428Y31157143D01*
X1561904Y31157143D01*
X1657142Y31100000D01*
X1228571Y30414286D02*
X1323809Y30357143D01*
X1561904Y30357143D01*
X1657142Y30414286D01*
X1704761Y30528572D01*
X1704761Y30642858D01*
X1657142Y30757143D01*
X1561904Y30814286D01*
X1323809Y30814286D01*
X1228571Y30871429D01*
X609523Y30357143D02*
X704761Y30414286D01*
X752380Y30528572D01*
X752380Y31557143D01*
X38542857Y33476191D02*
X37342857Y33476191D01*
X37342857Y33095239D01*
X37400000Y33000000D01*
X37457142Y32952381D01*
X37571428Y32904762D01*
X37742857Y32904762D01*
X37857142Y32952381D01*
X37914285Y33000000D01*
X37971428Y33095239D01*
X37971428Y33476191D01*
X38542857Y32333334D02*
X38485714Y32428572D01*
X38428571Y32476191D01*
X38314285Y32523810D01*
X37971428Y32523810D01*
X37857142Y32476191D01*
X37800000Y32428572D01*
X37742857Y32333334D01*
X37742857Y32190477D01*
X37800000Y32095239D01*
X37857142Y32047620D01*
X37971428Y32000000D01*
X38314285Y32000000D01*
X38428571Y32047620D01*
X38485714Y32095239D01*
X38542857Y32190477D01*
X38542857Y32333334D01*
X37742857Y31666667D02*
X38542857Y31476191D01*
X37971428Y31285715D01*
X38542857Y31095239D01*
X37742857Y30904762D01*
X38485714Y30142858D02*
X38542857Y30238096D01*
X38542857Y30428572D01*
X38485714Y30523810D01*
X38371428Y30571429D01*
X37914285Y30571429D01*
X37800000Y30523810D01*
X37742857Y30428572D01*
X37742857Y30238096D01*
X37800000Y30142858D01*
X37914285Y30095239D01*
X38028571Y30095239D01*
X38142857Y30571429D01*
X38542857Y29666667D02*
X37742857Y29666667D01*
X37971428Y29666667D02*
X37857142Y29619048D01*
X37800000Y29571429D01*
X37742857Y29476191D01*
X37742857Y29380953D01*
D10*
X35800000Y43183334D02*
X36200000Y43183334D01*
X36000000Y43183334D02*
X36000000Y43883334D01*
X36066666Y43783334D01*
X36133333Y43716667D01*
X36200000Y43683334D01*
X2800000Y42383334D02*
X3200000Y42383334D01*
X3000000Y42383334D02*
X3000000Y43083334D01*
X3066666Y42983334D01*
X3133333Y42916667D01*
X3200000Y42883334D01*
X17950000Y1950000D02*
X17816666Y1483334D01*
X17683333Y1816667D01*
X17550000Y1483334D01*
X17416666Y1950000D01*
X17216666Y1950000D02*
X17083333Y1483334D01*
X16950000Y1816667D01*
X16816666Y1483334D01*
X16683333Y1950000D01*
X16483333Y1950000D02*
X16350000Y1483334D01*
X16216666Y1816667D01*
X16083333Y1483334D01*
X15950000Y1950000D01*
X15683333Y1550000D02*
X15650000Y1516667D01*
X15683333Y1483334D01*
X15716666Y1516667D01*
X15683333Y1550000D01*
X15683333Y1483334D01*
X15083333Y1516667D02*
X15150000Y1483334D01*
X15283333Y1483334D01*
X15350000Y1516667D01*
X15383333Y1583334D01*
X15383333Y1850000D01*
X15350000Y1916667D01*
X15283333Y1950000D01*
X15150000Y1950000D01*
X15083333Y1916667D01*
X15050000Y1850000D01*
X15050000Y1783334D01*
X15383333Y1716667D01*
X14750000Y1483334D02*
X14750000Y1950000D01*
X14750000Y1816667D02*
X14716666Y1883334D01*
X14683333Y1916667D01*
X14616666Y1950000D01*
X14550000Y1950000D01*
X14316666Y1483334D02*
X14316666Y1950000D01*
X14316666Y2183334D02*
X14350000Y2150000D01*
X14316666Y2116667D01*
X14283333Y2150000D01*
X14316666Y2183334D01*
X14316666Y2116667D01*
X13683333Y1516667D02*
X13750000Y1483334D01*
X13883333Y1483334D01*
X13950000Y1516667D01*
X13983333Y1550000D01*
X14016666Y1616667D01*
X14016666Y1816667D01*
X13983333Y1883334D01*
X13950000Y1916667D01*
X13883333Y1950000D01*
X13750000Y1950000D01*
X13683333Y1916667D01*
X13083333Y1483334D02*
X13083333Y1850000D01*
X13116666Y1916667D01*
X13183333Y1950000D01*
X13316666Y1950000D01*
X13383333Y1916667D01*
X13083333Y1516667D02*
X13150000Y1483334D01*
X13316666Y1483334D01*
X13383333Y1516667D01*
X13416666Y1583334D01*
X13416666Y1650000D01*
X13383333Y1716667D01*
X13316666Y1750000D01*
X13150000Y1750000D01*
X13083333Y1783334D01*
X12783333Y1516667D02*
X12716666Y1483334D01*
X12583333Y1483334D01*
X12516666Y1516667D01*
X12483333Y1583334D01*
X12483333Y1616667D01*
X12516666Y1683334D01*
X12583333Y1716667D01*
X12683333Y1716667D01*
X12750000Y1750000D01*
X12783333Y1816667D01*
X12783333Y1850000D01*
X12750000Y1916667D01*
X12683333Y1950000D01*
X12583333Y1950000D01*
X12516666Y1916667D01*
X12250000Y1950000D02*
X12083333Y1483334D01*
X11916666Y1950000D02*
X12083333Y1483334D01*
X12150000Y1316667D01*
X12183333Y1283334D01*
X12250000Y1250000D01*
X11650000Y1950000D02*
X11650000Y1483334D01*
X11650000Y1883334D02*
X11616666Y1916667D01*
X11550000Y1950000D01*
X11450000Y1950000D01*
X11383333Y1916667D01*
X11350000Y1850000D01*
X11350000Y1483334D01*
X11116666Y1950000D02*
X10850000Y1950000D01*
X11016666Y2183334D02*
X11016666Y1583334D01*
X10983333Y1516667D01*
X10916666Y1483334D01*
X10850000Y1483334D01*
X10616666Y1483334D02*
X10616666Y2183334D01*
X10316666Y1483334D02*
X10316666Y1850000D01*
X10350000Y1916667D01*
X10416666Y1950000D01*
X10516666Y1950000D01*
X10583333Y1916667D01*
X10616666Y1883334D01*
X10016666Y1516667D02*
X9950000Y1483334D01*
X9816666Y1483334D01*
X9750000Y1516667D01*
X9716666Y1583334D01*
X9716666Y1616667D01*
X9750000Y1683334D01*
X9816666Y1716667D01*
X9916666Y1716667D01*
X9983333Y1750000D01*
X10016666Y1816667D01*
X10016666Y1850000D01*
X9983333Y1916667D01*
X9916666Y1950000D01*
X9816666Y1950000D01*
X9750000Y1916667D01*
X9416666Y1550000D02*
X9383333Y1516667D01*
X9416666Y1483334D01*
X9450000Y1516667D01*
X9416666Y1550000D01*
X9416666Y1483334D01*
X8983333Y1483334D02*
X9050000Y1516667D01*
X9083333Y1583334D01*
X9083333Y2183334D01*
X8783333Y1950000D02*
X8616666Y1483334D01*
X8450000Y1950000D01*
D11*
X17814285Y90057143D02*
X16900000Y90057143D01*
X15700000Y89295239D02*
X16385714Y89295239D01*
X16042857Y89295239D02*
X16042857Y91295239D01*
X16157142Y91009524D01*
X16271428Y90819048D01*
X16385714Y90723810D01*
X15242857Y91104762D02*
X15185714Y91200000D01*
X15071428Y91295239D01*
X14785714Y91295239D01*
X14671428Y91200000D01*
X14614285Y91104762D01*
X14557142Y90914286D01*
X14557142Y90723810D01*
X14614285Y90438096D01*
X15300000Y89295239D01*
X14557142Y89295239D01*
X14214285Y91295239D02*
X13814285Y89295239D01*
X13414285Y91295239D01*
X14014285Y105057143D02*
X13100000Y105057143D01*
X13557142Y104295239D02*
X13557142Y105819048D01*
X11900000Y104295239D02*
X12585714Y104295239D01*
X12242857Y104295239D02*
X12242857Y106295239D01*
X12357142Y106009524D01*
X12471428Y105819048D01*
X12585714Y105723810D01*
X11442857Y106104762D02*
X11385714Y106200000D01*
X11271428Y106295239D01*
X10985714Y106295239D01*
X10871428Y106200000D01*
X10814285Y106104762D01*
X10757142Y105914286D01*
X10757142Y105723810D01*
X10814285Y105438096D01*
X11500000Y104295239D01*
X10757142Y104295239D01*
X10414285Y106295239D02*
X10014285Y104295239D01*
X9614285Y106295239D01*
D12*
X31876190Y61507143D02*
X31542857Y61507143D01*
X31400000Y60721429D02*
X31876190Y60721429D01*
X31876190Y62221429D01*
X31400000Y62221429D01*
X30971428Y60721429D02*
X30971428Y61721429D01*
X30971428Y61435715D02*
X30923809Y61578572D01*
X30876190Y61650000D01*
X30780952Y61721429D01*
X30685714Y61721429D01*
X30352380Y60721429D02*
X30352380Y61721429D01*
X30352380Y62221429D02*
X30400000Y62150000D01*
X30352380Y62078572D01*
X30304761Y62150000D01*
X30352380Y62221429D01*
X30352380Y62078572D01*
X29447619Y60792858D02*
X29542857Y60721429D01*
X29733333Y60721429D01*
X29828571Y60792858D01*
X29876190Y60864286D01*
X29923809Y61007143D01*
X29923809Y61435715D01*
X29876190Y61578572D01*
X29828571Y61650000D01*
X29733333Y61721429D01*
X29542857Y61721429D01*
X29447619Y61650000D01*
X28590476Y60721429D02*
X28590476Y61507143D01*
X28638095Y61650000D01*
X28733333Y61721429D01*
X28923809Y61721429D01*
X29019047Y61650000D01*
X28590476Y60792858D02*
X28685714Y60721429D01*
X28923809Y60721429D01*
X29019047Y60792858D01*
X29066666Y60935715D01*
X29066666Y61078572D01*
X29019047Y61221429D01*
X28923809Y61292858D01*
X28685714Y61292858D01*
X28590476Y61364286D01*
X27400000Y60792858D02*
X27257142Y60721429D01*
X27019047Y60721429D01*
X26923809Y60792858D01*
X26876190Y60864286D01*
X26828571Y61007143D01*
X26828571Y61150000D01*
X26876190Y61292858D01*
X26923809Y61364286D01*
X27019047Y61435715D01*
X27209523Y61507143D01*
X27304761Y61578572D01*
X27352380Y61650000D01*
X27400000Y61792858D01*
X27400000Y61935715D01*
X27352380Y62078572D01*
X27304761Y62150000D01*
X27209523Y62221429D01*
X26971428Y62221429D01*
X26828571Y62150000D01*
X26495238Y61721429D02*
X26257142Y60721429D01*
X26019047Y61721429D02*
X26257142Y60721429D01*
X26352380Y60364286D01*
X26400000Y60292858D01*
X26495238Y60221429D01*
X25638095Y61721429D02*
X25638095Y60721429D01*
X25638095Y61578572D02*
X25590476Y61650000D01*
X25495238Y61721429D01*
X25352380Y61721429D01*
X25257142Y61650000D01*
X25209523Y61507143D01*
X25209523Y60721429D01*
X24876190Y61721429D02*
X24495238Y61721429D01*
X24733333Y62221429D02*
X24733333Y60935715D01*
X24685714Y60792858D01*
X24590476Y60721429D01*
X24495238Y60721429D01*
X24161904Y60721429D02*
X24161904Y62221429D01*
X23733333Y60721429D02*
X23733333Y61507143D01*
X23780952Y61650000D01*
X23876190Y61721429D01*
X24019047Y61721429D01*
X24114285Y61650000D01*
X24161904Y61578572D01*
X23304761Y60792858D02*
X23209523Y60721429D01*
X23019047Y60721429D01*
X22923809Y60792858D01*
X22876190Y60935715D01*
X22876190Y61007143D01*
X22923809Y61150000D01*
X23019047Y61221429D01*
X23161904Y61221429D01*
X23257142Y61292858D01*
X23304761Y61435715D01*
X23304761Y61507143D01*
X23257142Y61650000D01*
X23161904Y61721429D01*
X23019047Y61721429D01*
X22923809Y61650000D01*
X32400000Y58321429D02*
X32400000Y59821429D01*
X32161904Y59821429D01*
X32019047Y59750000D01*
X31923809Y59607143D01*
X31876190Y59464286D01*
X31828571Y59178572D01*
X31828571Y58964286D01*
X31876190Y58678572D01*
X31923809Y58535715D01*
X32019047Y58392858D01*
X32161904Y58321429D01*
X32400000Y58321429D01*
X31400000Y58321429D02*
X31400000Y59821429D01*
X30733333Y59035715D02*
X30733333Y58321429D01*
X31066666Y59821429D02*
X30733333Y59035715D01*
X30400000Y59821429D01*
X29304761Y58321429D02*
X29304761Y59821429D01*
X28971428Y58750000D01*
X28638095Y59821429D01*
X28638095Y58321429D01*
X28019047Y58321429D02*
X28114285Y58392858D01*
X28161904Y58464286D01*
X28209523Y58607143D01*
X28209523Y59035715D01*
X28161904Y59178572D01*
X28114285Y59250000D01*
X28019047Y59321429D01*
X27876190Y59321429D01*
X27780952Y59250000D01*
X27733333Y59178572D01*
X27685714Y59035715D01*
X27685714Y58607143D01*
X27733333Y58464286D01*
X27780952Y58392858D01*
X27876190Y58321429D01*
X28019047Y58321429D01*
X26828571Y58321429D02*
X26828571Y59821429D01*
X26828571Y58392858D02*
X26923809Y58321429D01*
X27114285Y58321429D01*
X27209523Y58392858D01*
X27257142Y58464286D01*
X27304761Y58607143D01*
X27304761Y59035715D01*
X27257142Y59178572D01*
X27209523Y59250000D01*
X27114285Y59321429D01*
X26923809Y59321429D01*
X26828571Y59250000D01*
X25923809Y59321429D02*
X25923809Y58321429D01*
X26352380Y59321429D02*
X26352380Y58535715D01*
X26304761Y58392858D01*
X26209523Y58321429D01*
X26066666Y58321429D01*
X25971428Y58392858D01*
X25923809Y58464286D01*
X25304761Y58321429D02*
X25400000Y58392858D01*
X25447619Y58535715D01*
X25447619Y59821429D01*
X24495238Y58321429D02*
X24495238Y59107143D01*
X24542857Y59250000D01*
X24638095Y59321429D01*
X24828571Y59321429D01*
X24923809Y59250000D01*
X24495238Y58392858D02*
X24590476Y58321429D01*
X24828571Y58321429D01*
X24923809Y58392858D01*
X24971428Y58535715D01*
X24971428Y58678572D01*
X24923809Y58821429D01*
X24828571Y58892858D01*
X24590476Y58892858D01*
X24495238Y58964286D01*
X24161904Y59321429D02*
X23780952Y59321429D01*
X24019047Y59821429D02*
X24019047Y58535715D01*
X23971428Y58392858D01*
X23876190Y58321429D01*
X23780952Y58321429D01*
X23304761Y58321429D02*
X23400000Y58392858D01*
X23447619Y58464286D01*
X23495238Y58607143D01*
X23495238Y59035715D01*
X23447619Y59178572D01*
X23400000Y59250000D01*
X23304761Y59321429D01*
X23161904Y59321429D01*
X23066666Y59250000D01*
X23019047Y59178572D01*
X22971428Y59035715D01*
X22971428Y58607143D01*
X23019047Y58464286D01*
X23066666Y58392858D01*
X23161904Y58321429D01*
X23304761Y58321429D01*
X22542857Y58321429D02*
X22542857Y59321429D01*
X22542857Y59035715D02*
X22495238Y59178572D01*
X22447619Y59250000D01*
X22352380Y59321429D01*
X22257142Y59321429D01*
X33019047Y56921429D02*
X32780952Y55921429D01*
X32542857Y56921429D01*
X31638095Y55921429D02*
X32209523Y55921429D01*
X31923809Y55921429D02*
X31923809Y57421429D01*
X32019047Y57207143D01*
X32114285Y57064286D01*
X32209523Y56992858D01*
X31209523Y56064286D02*
X31161904Y55992858D01*
X31209523Y55921429D01*
X31257142Y55992858D01*
X31209523Y56064286D01*
X31209523Y55921429D01*
X30209523Y55921429D02*
X30780952Y55921429D01*
X30495238Y55921429D02*
X30495238Y57421429D01*
X30590476Y57207143D01*
X30685714Y57064286D01*
X30780952Y56992858D01*
X28733333Y57421429D02*
X28733333Y56350000D01*
X28780952Y56135715D01*
X28876190Y55992858D01*
X29019047Y55921429D01*
X29114285Y55921429D01*
X27828571Y55921429D02*
X27828571Y56707143D01*
X27876190Y56850000D01*
X27971428Y56921429D01*
X28161904Y56921429D01*
X28257142Y56850000D01*
X27828571Y55992858D02*
X27923809Y55921429D01*
X28161904Y55921429D01*
X28257142Y55992858D01*
X28304761Y56135715D01*
X28304761Y56278572D01*
X28257142Y56421429D01*
X28161904Y56492858D01*
X27923809Y56492858D01*
X27828571Y56564286D01*
X27352380Y56921429D02*
X27352380Y55921429D01*
X27352380Y56778572D02*
X27304761Y56850000D01*
X27209523Y56921429D01*
X27066666Y56921429D01*
X26971428Y56850000D01*
X26923809Y56707143D01*
X26923809Y55921429D01*
X26447619Y56064286D02*
X26400000Y55992858D01*
X26447619Y55921429D01*
X26495238Y55992858D01*
X26447619Y56064286D01*
X26447619Y55921429D01*
X25257142Y57278572D02*
X25209523Y57350000D01*
X25114285Y57421429D01*
X24876190Y57421429D01*
X24780952Y57350000D01*
X24733333Y57278572D01*
X24685714Y57135715D01*
X24685714Y56992858D01*
X24733333Y56778572D01*
X25304761Y55921429D01*
X24685714Y55921429D01*
X24066666Y57421429D02*
X23971428Y57421429D01*
X23876190Y57350000D01*
X23828571Y57278572D01*
X23780952Y57135715D01*
X23733333Y56850000D01*
X23733333Y56492858D01*
X23780952Y56207143D01*
X23828571Y56064286D01*
X23876190Y55992858D01*
X23971428Y55921429D01*
X24066666Y55921429D01*
X24161904Y55992858D01*
X24209523Y56064286D01*
X24257142Y56207143D01*
X24304761Y56492858D01*
X24304761Y56850000D01*
X24257142Y57135715D01*
X24209523Y57278572D01*
X24161904Y57350000D01*
X24066666Y57421429D01*
X22780952Y55921429D02*
X23352380Y55921429D01*
X23066666Y55921429D02*
X23066666Y57421429D01*
X23161904Y57207143D01*
X23257142Y57064286D01*
X23352380Y56992858D01*
X22447619Y57421429D02*
X21780952Y57421429D01*
X22209523Y55921429D01*
D10*
G36*
X22873353Y23167218D02*
X22703799Y23165400D01*
X22400886Y23156789D01*
X22180944Y23141861D01*
X22025429Y23118401D01*
X21915795Y23084192D01*
X21880751Y23067067D01*
X21719142Y22925096D01*
X21602781Y22716068D01*
X21540846Y22467910D01*
X21542517Y22208549D01*
X21564144Y22103906D01*
X21637983Y21927716D01*
X21737637Y21813744D01*
X21846498Y21778721D01*
X21879254Y21786410D01*
X21943717Y21832030D01*
X21956413Y21913507D01*
X21917482Y22051822D01*
X21881633Y22141853D01*
X21831146Y22302882D01*
X21836654Y22446384D01*
X21856466Y22523031D01*
X21925683Y22692123D01*
X22024488Y22791903D01*
X22151671Y22845688D01*
X22225415Y22861524D01*
X22241343Y22828718D01*
X22210023Y22724397D01*
X22209030Y22721547D01*
X22170459Y22509759D01*
X22182511Y22278460D01*
X22239427Y22067454D01*
X22323803Y21928277D01*
X22439707Y21817583D01*
X22555741Y21747431D01*
X22703226Y21705673D01*
X22913484Y21680163D01*
X22976596Y21675122D01*
X23247405Y21671375D01*
X23431332Y21706856D01*
X23525303Y21780700D01*
X23537600Y21833000D01*
X23492567Y21921884D01*
X23355903Y21979912D01*
X23125264Y22007845D01*
X22990014Y22010800D01*
X22784762Y22017267D01*
X22654443Y22040379D01*
X22572992Y22085700D01*
X22554874Y22103700D01*
X22489000Y22240915D01*
X22472327Y22422839D01*
X22503978Y22605781D01*
X22567424Y22728469D01*
X22628921Y22789434D01*
X22709807Y22827773D01*
X22835897Y22850457D01*
X23033011Y22864458D01*
X23079148Y22866645D01*
X23301418Y22881832D01*
X23439166Y22905316D01*
X23509364Y22940790D01*
X23524178Y22963494D01*
X23532381Y23043504D01*
X23480530Y23101634D01*
X23359494Y23140132D01*
X23160145Y23161244D01*
X22873353Y23167218D01*
X22873353Y23167218D01*
X22873353Y23167218D01*
G37*
X22873353Y23167218D02*
X22703799Y23165400D01*
X22400886Y23156789D01*
X22180944Y23141861D01*
X22025429Y23118401D01*
X21915795Y23084192D01*
X21880751Y23067067D01*
X21719142Y22925096D01*
X21602781Y22716068D01*
X21540846Y22467910D01*
X21542517Y22208549D01*
X21564144Y22103906D01*
X21637983Y21927716D01*
X21737637Y21813744D01*
X21846498Y21778721D01*
X21879254Y21786410D01*
X21943717Y21832030D01*
X21956413Y21913507D01*
X21917482Y22051822D01*
X21881633Y22141853D01*
X21831146Y22302882D01*
X21836654Y22446384D01*
X21856466Y22523031D01*
X21925683Y22692123D01*
X22024488Y22791903D01*
X22151671Y22845688D01*
X22225415Y22861524D01*
X22241343Y22828718D01*
X22210023Y22724397D01*
X22209030Y22721547D01*
X22170459Y22509759D01*
X22182511Y22278460D01*
X22239427Y22067454D01*
X22323803Y21928277D01*
X22439707Y21817583D01*
X22555741Y21747431D01*
X22703226Y21705673D01*
X22913484Y21680163D01*
X22976596Y21675122D01*
X23247405Y21671375D01*
X23431332Y21706856D01*
X23525303Y21780700D01*
X23537600Y21833000D01*
X23492567Y21921884D01*
X23355903Y21979912D01*
X23125264Y22007845D01*
X22990014Y22010800D01*
X22784762Y22017267D01*
X22654443Y22040379D01*
X22572992Y22085700D01*
X22554874Y22103700D01*
X22489000Y22240915D01*
X22472327Y22422839D01*
X22503978Y22605781D01*
X22567424Y22728469D01*
X22628921Y22789434D01*
X22709807Y22827773D01*
X22835897Y22850457D01*
X23033011Y22864458D01*
X23079148Y22866645D01*
X23301418Y22881832D01*
X23439166Y22905316D01*
X23509364Y22940790D01*
X23524178Y22963494D01*
X23532381Y23043504D01*
X23480530Y23101634D01*
X23359494Y23140132D01*
X23160145Y23161244D01*
X22873353Y23167218D01*
X22873353Y23167218D01*
G36*
X22621686Y21603460D02*
X22444341Y21562360D01*
X22295084Y21441543D01*
X22192140Y21248250D01*
X22140515Y21002828D01*
X22145211Y20725625D01*
X22186904Y20515519D01*
X22262646Y20314120D01*
X22351306Y20194862D01*
X22445506Y20164715D01*
X22515599Y20205026D01*
X22563248Y20287277D01*
X22538054Y20394666D01*
X22534715Y20402103D01*
X22475597Y20581940D01*
X22445455Y20780399D01*
X22443133Y20973081D01*
X22467474Y21135589D01*
X22517321Y21243525D01*
X22576055Y21274200D01*
X22615732Y21247329D01*
X22644497Y21156795D01*
X22665903Y20987715D01*
X22675790Y20856429D01*
X22715048Y20547443D01*
X22788529Y20329111D01*
X22899364Y20195357D01*
X23044812Y20140768D01*
X23232632Y20162398D01*
X23379863Y20271398D01*
X23481024Y20459796D01*
X23530635Y20719620D01*
X23534733Y20853468D01*
X23514999Y21092294D01*
X23466483Y21294058D01*
X23397112Y21445458D01*
X23314808Y21533188D01*
X23227497Y21543946D01*
X23157856Y21486177D01*
X23117173Y21406197D01*
X23126552Y21312814D01*
X23160832Y21221108D01*
X23211308Y21043173D01*
X23231747Y20845643D01*
X23222516Y20661803D01*
X23183980Y20524937D01*
X23152729Y20483586D01*
X23075900Y20450175D01*
X23022798Y20501554D01*
X22991415Y20642651D01*
X22979741Y20878392D01*
X22979578Y20908422D01*
X22954358Y21200948D01*
X22883240Y21418039D01*
X22770818Y21554080D01*
X22621686Y21603460D01*
X22621686Y21603460D01*
X22621686Y21603460D01*
G37*
X22621686Y21603460D02*
X22444341Y21562360D01*
X22295084Y21441543D01*
X22192140Y21248250D01*
X22140515Y21002828D01*
X22145211Y20725625D01*
X22186904Y20515519D01*
X22262646Y20314120D01*
X22351306Y20194862D01*
X22445506Y20164715D01*
X22515599Y20205026D01*
X22563248Y20287277D01*
X22538054Y20394666D01*
X22534715Y20402103D01*
X22475597Y20581940D01*
X22445455Y20780399D01*
X22443133Y20973081D01*
X22467474Y21135589D01*
X22517321Y21243525D01*
X22576055Y21274200D01*
X22615732Y21247329D01*
X22644497Y21156795D01*
X22665903Y20987715D01*
X22675790Y20856429D01*
X22715048Y20547443D01*
X22788529Y20329111D01*
X22899364Y20195357D01*
X23044812Y20140768D01*
X23232632Y20162398D01*
X23379863Y20271398D01*
X23481024Y20459796D01*
X23530635Y20719620D01*
X23534733Y20853468D01*
X23514999Y21092294D01*
X23466483Y21294058D01*
X23397112Y21445458D01*
X23314808Y21533188D01*
X23227497Y21543946D01*
X23157856Y21486177D01*
X23117173Y21406197D01*
X23126552Y21312814D01*
X23160832Y21221108D01*
X23211308Y21043173D01*
X23231747Y20845643D01*
X23222516Y20661803D01*
X23183980Y20524937D01*
X23152729Y20483586D01*
X23075900Y20450175D01*
X23022798Y20501554D01*
X22991415Y20642651D01*
X22979741Y20878392D01*
X22979578Y20908422D01*
X22954358Y21200948D01*
X22883240Y21418039D01*
X22770818Y21554080D01*
X22621686Y21603460D01*
X22621686Y21603460D01*
G36*
X22621686Y28867860D02*
X22444341Y28826760D01*
X22294735Y28705572D01*
X22191782Y28510785D01*
X22141083Y28261737D01*
X22148237Y27977766D01*
X22166639Y27867864D01*
X22229851Y27637520D01*
X22307461Y27500136D01*
X22404468Y27447508D01*
X22423382Y27446400D01*
X22517222Y27473176D01*
X22552602Y27560249D01*
X22531363Y27717734D01*
X22495192Y27841160D01*
X22453482Y28029845D01*
X22443979Y28219463D01*
X22463795Y28384456D01*
X22510042Y28499265D01*
X22574007Y28538600D01*
X22614561Y28513828D01*
X22643481Y28428893D01*
X22664699Y28267869D01*
X22675384Y28127854D01*
X22710924Y27828933D01*
X22775863Y27617646D01*
X22875442Y27482944D01*
X23014023Y27413995D01*
X23190626Y27417354D01*
X23346693Y27507179D01*
X23458300Y27668393D01*
X23471233Y27702114D01*
X23520100Y27910787D01*
X23533485Y28129660D01*
X23516269Y28342506D01*
X23473335Y28533098D01*
X23409563Y28685210D01*
X23329837Y28782614D01*
X23239037Y28809084D01*
X23152983Y28759954D01*
X23102304Y28695020D01*
X23104372Y28625634D01*
X23152030Y28522038D01*
X23207418Y28353032D01*
X23229884Y28150025D01*
X23219134Y27952779D01*
X23174875Y27801057D01*
X23157566Y27773609D01*
X23084056Y27714830D01*
X23029525Y27754524D01*
X22994623Y27891234D01*
X22980001Y28123500D01*
X22979578Y28172822D01*
X22954358Y28465348D01*
X22883240Y28682439D01*
X22770818Y28818480D01*
X22621686Y28867860D01*
X22621686Y28867860D01*
X22621686Y28867860D01*
G37*
X22621686Y28867860D02*
X22444341Y28826760D01*
X22294735Y28705572D01*
X22191782Y28510785D01*
X22141083Y28261737D01*
X22148237Y27977766D01*
X22166639Y27867864D01*
X22229851Y27637520D01*
X22307461Y27500136D01*
X22404468Y27447508D01*
X22423382Y27446400D01*
X22517222Y27473176D01*
X22552602Y27560249D01*
X22531363Y27717734D01*
X22495192Y27841160D01*
X22453482Y28029845D01*
X22443979Y28219463D01*
X22463795Y28384456D01*
X22510042Y28499265D01*
X22574007Y28538600D01*
X22614561Y28513828D01*
X22643481Y28428893D01*
X22664699Y28267869D01*
X22675384Y28127854D01*
X22710924Y27828933D01*
X22775863Y27617646D01*
X22875442Y27482944D01*
X23014023Y27413995D01*
X23190626Y27417354D01*
X23346693Y27507179D01*
X23458300Y27668393D01*
X23471233Y27702114D01*
X23520100Y27910787D01*
X23533485Y28129660D01*
X23516269Y28342506D01*
X23473335Y28533098D01*
X23409563Y28685210D01*
X23329837Y28782614D01*
X23239037Y28809084D01*
X23152983Y28759954D01*
X23102304Y28695020D01*
X23104372Y28625634D01*
X23152030Y28522038D01*
X23207418Y28353032D01*
X23229884Y28150025D01*
X23219134Y27952779D01*
X23174875Y27801057D01*
X23157566Y27773609D01*
X23084056Y27714830D01*
X23029525Y27754524D01*
X22994623Y27891234D01*
X22980001Y28123500D01*
X22979578Y28172822D01*
X22954358Y28465348D01*
X22883240Y28682439D01*
X22770818Y28818480D01*
X22621686Y28867860D01*
X22621686Y28867860D01*
G36*
X22482829Y24803259D02*
X22300841Y24784798D01*
X22200598Y24734348D01*
X22174102Y24649781D01*
X22175403Y24637904D01*
X22191586Y24582243D01*
X22234773Y24546265D01*
X22325801Y24523356D01*
X22485511Y24506899D01*
X22616794Y24497770D01*
X22883589Y24467616D01*
X23064242Y24411093D01*
X23172947Y24317808D01*
X23223897Y24177370D01*
X23232800Y24046751D01*
X23207450Y23860048D01*
X23123669Y23735240D01*
X22969859Y23663777D01*
X22734426Y23637110D01*
X22676176Y23636400D01*
X22440709Y23631260D01*
X22289331Y23611728D01*
X22204864Y23571633D01*
X22170131Y23504807D01*
X22166000Y23453164D01*
X22166000Y23331600D01*
X22827995Y23331600D01*
X23107121Y23333540D01*
X23300277Y23340514D01*
X23423037Y23354254D01*
X23490976Y23376490D01*
X23519478Y23408446D01*
X23515543Y23509539D01*
X23488959Y23557599D01*
X23455478Y23651712D01*
X23483275Y23731413D01*
X23530462Y23901416D01*
X23531260Y24113651D01*
X23488658Y24321551D01*
X23438236Y24433739D01*
X23301124Y24605592D01*
X23126064Y24715796D01*
X22889069Y24776915D01*
X22754559Y24791854D01*
X22482829Y24803259D01*
X22482829Y24803259D01*
X22482829Y24803259D01*
G37*
X22482829Y24803259D02*
X22300841Y24784798D01*
X22200598Y24734348D01*
X22174102Y24649781D01*
X22175403Y24637904D01*
X22191586Y24582243D01*
X22234773Y24546265D01*
X22325801Y24523356D01*
X22485511Y24506899D01*
X22616794Y24497770D01*
X22883589Y24467616D01*
X23064242Y24411093D01*
X23172947Y24317808D01*
X23223897Y24177370D01*
X23232800Y24046751D01*
X23207450Y23860048D01*
X23123669Y23735240D01*
X22969859Y23663777D01*
X22734426Y23637110D01*
X22676176Y23636400D01*
X22440709Y23631260D01*
X22289331Y23611728D01*
X22204864Y23571633D01*
X22170131Y23504807D01*
X22166000Y23453164D01*
X22166000Y23331600D01*
X22827995Y23331600D01*
X23107121Y23333540D01*
X23300277Y23340514D01*
X23423037Y23354254D01*
X23490976Y23376490D01*
X23519478Y23408446D01*
X23515543Y23509539D01*
X23488959Y23557599D01*
X23455478Y23651712D01*
X23483275Y23731413D01*
X23530462Y23901416D01*
X23531260Y24113651D01*
X23488658Y24321551D01*
X23438236Y24433739D01*
X23301124Y24605592D01*
X23126064Y24715796D01*
X22889069Y24776915D01*
X22754559Y24791854D01*
X22482829Y24803259D01*
X22482829Y24803259D01*
G36*
X22343561Y25744012D02*
X22248639Y25740041D01*
X22187297Y25668047D01*
X22165348Y25537902D01*
X22181853Y25384705D01*
X22235874Y25243556D01*
X22262960Y25204127D01*
X22324791Y25143025D01*
X22407014Y25103675D01*
X22535044Y25078986D01*
X22734296Y25061864D01*
X22783660Y25058800D01*
X22994122Y25043135D01*
X23120868Y25023981D01*
X23181779Y24996655D01*
X23194731Y24956471D01*
X23194030Y24951276D01*
X23219834Y24847784D01*
X23306483Y24782418D01*
X23401191Y24782818D01*
X23472212Y24853235D01*
X23496530Y24923395D01*
X23518513Y24986496D01*
X23578196Y25024418D01*
X23699999Y25047491D01*
X23816554Y25058800D01*
X23993331Y25079630D01*
X24091440Y25110504D01*
X24133802Y25160014D01*
X24139052Y25179712D01*
X24128072Y25273854D01*
X24044823Y25331995D01*
X23878718Y25359210D01*
X23757034Y25362822D01*
X23600704Y25368284D01*
X23518915Y25390855D01*
X23484790Y25441604D01*
X23477634Y25477900D01*
X23429873Y25575273D01*
X23346874Y25613501D01*
X23265559Y25588447D01*
X23224029Y25506318D01*
X23207882Y25444810D01*
X23165873Y25409636D01*
X23074865Y25393501D01*
X22911720Y25389116D01*
X22851800Y25389000D01*
X22665770Y25390860D01*
X22558169Y25402098D01*
X22505831Y25431198D01*
X22485589Y25486643D01*
X22480485Y25524982D01*
X22433158Y25669441D01*
X22343561Y25744012D01*
X22343561Y25744012D01*
X22343561Y25744012D01*
G37*
X22343561Y25744012D02*
X22248639Y25740041D01*
X22187297Y25668047D01*
X22165348Y25537902D01*
X22181853Y25384705D01*
X22235874Y25243556D01*
X22262960Y25204127D01*
X22324791Y25143025D01*
X22407014Y25103675D01*
X22535044Y25078986D01*
X22734296Y25061864D01*
X22783660Y25058800D01*
X22994122Y25043135D01*
X23120868Y25023981D01*
X23181779Y24996655D01*
X23194731Y24956471D01*
X23194030Y24951276D01*
X23219834Y24847784D01*
X23306483Y24782418D01*
X23401191Y24782818D01*
X23472212Y24853235D01*
X23496530Y24923395D01*
X23518513Y24986496D01*
X23578196Y25024418D01*
X23699999Y25047491D01*
X23816554Y25058800D01*
X23993331Y25079630D01*
X24091440Y25110504D01*
X24133802Y25160014D01*
X24139052Y25179712D01*
X24128072Y25273854D01*
X24044823Y25331995D01*
X23878718Y25359210D01*
X23757034Y25362822D01*
X23600704Y25368284D01*
X23518915Y25390855D01*
X23484790Y25441604D01*
X23477634Y25477900D01*
X23429873Y25575273D01*
X23346874Y25613501D01*
X23265559Y25588447D01*
X23224029Y25506318D01*
X23207882Y25444810D01*
X23165873Y25409636D01*
X23074865Y25393501D01*
X22911720Y25389116D01*
X22851800Y25389000D01*
X22665770Y25390860D01*
X22558169Y25402098D01*
X22505831Y25431198D01*
X22485589Y25486643D01*
X22480485Y25524982D01*
X22433158Y25669441D01*
X22343561Y25744012D01*
X22343561Y25744012D01*
G36*
X22463459Y27323494D02*
X22286294Y27293866D01*
X22190098Y27229060D01*
X22166000Y27145737D01*
X22192366Y27073334D01*
X22280015Y27025680D01*
X22441779Y26999115D01*
X22690487Y26989976D01*
X22712100Y26989893D01*
X22955294Y26969736D01*
X23115272Y26904469D01*
X23203815Y26785008D01*
X23232706Y26602270D01*
X23232800Y26588427D01*
X23214480Y26405575D01*
X23149877Y26278431D01*
X23024530Y26196181D01*
X22823976Y26148012D01*
X22616794Y26127829D01*
X22407570Y26111880D01*
X22279180Y26093118D01*
X22210920Y26065179D01*
X22182086Y26021699D01*
X22176015Y25992365D01*
X22197937Y25888932D01*
X22243669Y25852665D01*
X22320870Y25841863D01*
X22480442Y25832628D01*
X22703160Y25825637D01*
X22969798Y25821563D01*
X23151046Y25820800D01*
X23510880Y25824253D01*
X23779356Y25836125D01*
X23966529Y25858685D01*
X24082453Y25894202D01*
X24137185Y25944944D01*
X24140779Y26013181D01*
X24131649Y26042053D01*
X24091153Y26089090D01*
X24000554Y26115100D01*
X23838040Y26125017D01*
X23762360Y26125600D01*
X23583521Y26128264D01*
X23487075Y26140075D01*
X23453874Y26166756D01*
X23464767Y26214032D01*
X23464976Y26214500D01*
X23515911Y26413995D01*
X23520971Y26646909D01*
X23481168Y26861598D01*
X23450858Y26934788D01*
X23335816Y27108734D01*
X23192579Y27222561D01*
X22997421Y27288956D01*
X22729612Y27320430D01*
X22463459Y27323494D01*
X22463459Y27323494D01*
X22463459Y27323494D01*
G37*
X22463459Y27323494D02*
X22286294Y27293866D01*
X22190098Y27229060D01*
X22166000Y27145737D01*
X22192366Y27073334D01*
X22280015Y27025680D01*
X22441779Y26999115D01*
X22690487Y26989976D01*
X22712100Y26989893D01*
X22955294Y26969736D01*
X23115272Y26904469D01*
X23203815Y26785008D01*
X23232706Y26602270D01*
X23232800Y26588427D01*
X23214480Y26405575D01*
X23149877Y26278431D01*
X23024530Y26196181D01*
X22823976Y26148012D01*
X22616794Y26127829D01*
X22407570Y26111880D01*
X22279180Y26093118D01*
X22210920Y26065179D01*
X22182086Y26021699D01*
X22176015Y25992365D01*
X22197937Y25888932D01*
X22243669Y25852665D01*
X22320870Y25841863D01*
X22480442Y25832628D01*
X22703160Y25825637D01*
X22969798Y25821563D01*
X23151046Y25820800D01*
X23510880Y25824253D01*
X23779356Y25836125D01*
X23966529Y25858685D01*
X24082453Y25894202D01*
X24137185Y25944944D01*
X24140779Y26013181D01*
X24131649Y26042053D01*
X24091153Y26089090D01*
X24000554Y26115100D01*
X23838040Y26125017D01*
X23762360Y26125600D01*
X23583521Y26128264D01*
X23487075Y26140075D01*
X23453874Y26166756D01*
X23464767Y26214032D01*
X23464976Y26214500D01*
X23515911Y26413995D01*
X23520971Y26646909D01*
X23481168Y26861598D01*
X23450858Y26934788D01*
X23335816Y27108734D01*
X23192579Y27222561D01*
X22997421Y27288956D01*
X22729612Y27320430D01*
X22463459Y27323494D01*
X22463459Y27323494D01*
G36*
X25520121Y22649639D02*
X25370767Y22646759D01*
X25222795Y22585647D01*
X25120890Y22469472D01*
X25079969Y22348277D01*
X25392447Y22348277D01*
X25493005Y22345498D01*
X25568017Y22266786D01*
X25613455Y22135504D01*
X25625292Y21975014D01*
X25599501Y21808678D01*
X25532056Y21659860D01*
X25515113Y21636650D01*
X25430422Y21545229D01*
X25366207Y21503116D01*
X25362713Y21502800D01*
X25340874Y21549585D01*
X25324411Y21673950D01*
X25316093Y21851908D01*
X25315600Y21910794D01*
X25320074Y22126896D01*
X25335672Y22260289D01*
X25365659Y22329558D01*
X25392447Y22348277D01*
X25079969Y22348277D01*
X25058558Y22284865D01*
X25029303Y22018459D01*
X25026411Y21938117D01*
X25013083Y21702375D01*
X24985862Y21563350D01*
X24942248Y21516799D01*
X24879742Y21558479D01*
X24836977Y21616601D01*
X24734621Y21858734D01*
X24731933Y22120422D01*
X24779403Y22289944D01*
X24832506Y22465957D01*
X24825031Y22570558D01*
X24754051Y22615993D01*
X24700410Y22620400D01*
X24605726Y22574135D01*
X24531024Y22450802D01*
X24479836Y22273592D01*
X24455696Y22065696D01*
X24462134Y21850304D01*
X24502684Y21650609D01*
X24538864Y21559771D01*
X24681435Y21373619D01*
X24877481Y21253882D01*
X25103569Y21200818D01*
X25336267Y21214682D01*
X25552141Y21295732D01*
X25727759Y21444224D01*
X25794281Y21546020D01*
X25880675Y21783573D01*
X25905372Y22022709D01*
X25875020Y22246156D01*
X25796264Y22436641D01*
X25675749Y22576893D01*
X25520121Y22649639D01*
X25520121Y22649639D01*
X25520121Y22649639D01*
G37*
X25520121Y22649639D02*
X25370767Y22646759D01*
X25222795Y22585647D01*
X25120890Y22469472D01*
X25079969Y22348277D01*
X25392447Y22348277D01*
X25493005Y22345498D01*
X25568017Y22266786D01*
X25613455Y22135504D01*
X25625292Y21975014D01*
X25599501Y21808678D01*
X25532056Y21659860D01*
X25515113Y21636650D01*
X25430422Y21545229D01*
X25366207Y21503116D01*
X25362713Y21502800D01*
X25340874Y21549585D01*
X25324411Y21673950D01*
X25316093Y21851908D01*
X25315600Y21910794D01*
X25320074Y22126896D01*
X25335672Y22260289D01*
X25365659Y22329558D01*
X25392447Y22348277D01*
X25079969Y22348277D01*
X25058558Y22284865D01*
X25029303Y22018459D01*
X25026411Y21938117D01*
X25013083Y21702375D01*
X24985862Y21563350D01*
X24942248Y21516799D01*
X24879742Y21558479D01*
X24836977Y21616601D01*
X24734621Y21858734D01*
X24731933Y22120422D01*
X24779403Y22289944D01*
X24832506Y22465957D01*
X24825031Y22570558D01*
X24754051Y22615993D01*
X24700410Y22620400D01*
X24605726Y22574135D01*
X24531024Y22450802D01*
X24479836Y22273592D01*
X24455696Y22065696D01*
X24462134Y21850304D01*
X24502684Y21650609D01*
X24538864Y21559771D01*
X24681435Y21373619D01*
X24877481Y21253882D01*
X25103569Y21200818D01*
X25336267Y21214682D01*
X25552141Y21295732D01*
X25727759Y21444224D01*
X25794281Y21546020D01*
X25880675Y21783573D01*
X25905372Y22022709D01*
X25875020Y22246156D01*
X25796264Y22436641D01*
X25675749Y22576893D01*
X25520121Y22649639D01*
X25520121Y22649639D01*
G36*
X25634090Y24235365D02*
X25574541Y24219009D01*
X25538049Y24185419D01*
X25489333Y24121421D01*
X25493125Y24050725D01*
X25539630Y23950038D01*
X25601601Y23758211D01*
X25611565Y23548950D01*
X25574693Y23351213D01*
X25496154Y23193962D01*
X25389525Y23109156D01*
X25296590Y23092165D01*
X25139898Y23080434D01*
X24993946Y23076906D01*
X24806253Y23071634D01*
X24645216Y23058718D01*
X24566300Y23045581D01*
X24477337Y22981934D01*
X24450528Y22882829D01*
X24485867Y22806666D01*
X24546633Y22794103D01*
X24689016Y22783649D01*
X24893040Y22776263D01*
X25138728Y22772904D01*
X25191632Y22772800D01*
X25468090Y22774232D01*
X25659488Y22779896D01*
X25782342Y22791842D01*
X25853167Y22812119D01*
X25888481Y22842777D01*
X25897130Y22860359D01*
X25889033Y22963427D01*
X25847750Y23008596D01*
X25792734Y23085919D01*
X25813686Y23162336D01*
X25884266Y23374542D01*
X25903054Y23617805D01*
X25873345Y23859003D01*
X25798434Y24065016D01*
X25712623Y24178286D01*
X25634090Y24235365D01*
X25634090Y24235365D01*
X25634090Y24235365D01*
G37*
X25634090Y24235365D02*
X25574541Y24219009D01*
X25538049Y24185419D01*
X25489333Y24121421D01*
X25493125Y24050725D01*
X25539630Y23950038D01*
X25601601Y23758211D01*
X25611565Y23548950D01*
X25574693Y23351213D01*
X25496154Y23193962D01*
X25389525Y23109156D01*
X25296590Y23092165D01*
X25139898Y23080434D01*
X24993946Y23076906D01*
X24806253Y23071634D01*
X24645216Y23058718D01*
X24566300Y23045581D01*
X24477337Y22981934D01*
X24450528Y22882829D01*
X24485867Y22806666D01*
X24546633Y22794103D01*
X24689016Y22783649D01*
X24893040Y22776263D01*
X25138728Y22772904D01*
X25191632Y22772800D01*
X25468090Y22774232D01*
X25659488Y22779896D01*
X25782342Y22791842D01*
X25853167Y22812119D01*
X25888481Y22842777D01*
X25897130Y22860359D01*
X25889033Y22963427D01*
X25847750Y23008596D01*
X25792734Y23085919D01*
X25813686Y23162336D01*
X25884266Y23374542D01*
X25903054Y23617805D01*
X25873345Y23859003D01*
X25798434Y24065016D01*
X25712623Y24178286D01*
X25634090Y24235365D01*
X25634090Y24235365D01*
G36*
X25589917Y24594819D02*
X25369225Y24593850D01*
X25169930Y24590294D01*
X24892636Y24583855D01*
X24700726Y24575924D01*
X24577992Y24563714D01*
X24508228Y24544435D01*
X24475225Y24515301D01*
X24462776Y24473522D01*
X24462035Y24468521D01*
X24482538Y24372529D01*
X24563635Y24329515D01*
X24662255Y24316328D01*
X24835003Y24305735D01*
X25054418Y24299081D01*
X25216991Y24297493D01*
X25518682Y24304382D01*
X25728400Y24327813D01*
X25854834Y24370573D01*
X25906677Y24435450D01*
X25896595Y24515434D01*
X25873509Y24551151D01*
X25825644Y24575160D01*
X25736584Y24589152D01*
X25589917Y24594819D01*
X25589917Y24594819D01*
X25589917Y24594819D01*
G37*
X25589917Y24594819D02*
X25369225Y24593850D01*
X25169930Y24590294D01*
X24892636Y24583855D01*
X24700726Y24575924D01*
X24577992Y24563714D01*
X24508228Y24544435D01*
X24475225Y24515301D01*
X24462776Y24473522D01*
X24462035Y24468521D01*
X24482538Y24372529D01*
X24563635Y24329515D01*
X24662255Y24316328D01*
X24835003Y24305735D01*
X25054418Y24299081D01*
X25216991Y24297493D01*
X25518682Y24304382D01*
X25728400Y24327813D01*
X25854834Y24370573D01*
X25906677Y24435450D01*
X25896595Y24515434D01*
X25873509Y24551151D01*
X25825644Y24575160D01*
X25736584Y24589152D01*
X25589917Y24594819D01*
X25589917Y24594819D01*
G36*
X24700410Y26125600D02*
X24605315Y26079466D01*
X24530166Y25957067D01*
X24478512Y25782405D01*
X24453897Y25579482D01*
X24459870Y25372301D01*
X24499978Y25184863D01*
X24546517Y25084200D01*
X24692469Y24890076D01*
X24853491Y24776431D01*
X25060870Y24723445D01*
X25125888Y24717186D01*
X25401065Y24738243D01*
X25620844Y24842107D01*
X25779760Y25023104D01*
X25872349Y25275558D01*
X25895008Y25516000D01*
X25874044Y25755666D01*
X25815801Y25949473D01*
X25728391Y26077301D01*
X25652718Y26117042D01*
X25538118Y26109895D01*
X25495897Y26035841D01*
X25529327Y25902453D01*
X25545532Y25869024D01*
X25599999Y25689142D01*
X25609569Y25477629D01*
X25576939Y25275273D01*
X25504799Y25122861D01*
X25495541Y25111964D01*
X25335789Y24999813D01*
X25156685Y24972830D01*
X24982314Y25024333D01*
X24836762Y25147644D01*
X24748933Y25319025D01*
X24715590Y25465953D01*
X24721186Y25595413D01*
X24768659Y25759425D01*
X24774804Y25776863D01*
X24828234Y25958905D01*
X24827636Y26067632D01*
X24769895Y26117650D01*
X24700410Y26125600D01*
X24700410Y26125600D01*
X24700410Y26125600D01*
G37*
X24700410Y26125600D02*
X24605315Y26079466D01*
X24530166Y25957067D01*
X24478512Y25782405D01*
X24453897Y25579482D01*
X24459870Y25372301D01*
X24499978Y25184863D01*
X24546517Y25084200D01*
X24692469Y24890076D01*
X24853491Y24776431D01*
X25060870Y24723445D01*
X25125888Y24717186D01*
X25401065Y24738243D01*
X25620844Y24842107D01*
X25779760Y25023104D01*
X25872349Y25275558D01*
X25895008Y25516000D01*
X25874044Y25755666D01*
X25815801Y25949473D01*
X25728391Y26077301D01*
X25652718Y26117042D01*
X25538118Y26109895D01*
X25495897Y26035841D01*
X25529327Y25902453D01*
X25545532Y25869024D01*
X25599999Y25689142D01*
X25609569Y25477629D01*
X25576939Y25275273D01*
X25504799Y25122861D01*
X25495541Y25111964D01*
X25335789Y24999813D01*
X25156685Y24972830D01*
X24982314Y25024333D01*
X24836762Y25147644D01*
X24748933Y25319025D01*
X24715590Y25465953D01*
X24721186Y25595413D01*
X24768659Y25759425D01*
X24774804Y25776863D01*
X24828234Y25958905D01*
X24827636Y26067632D01*
X24769895Y26117650D01*
X24700410Y26125600D01*
X24700410Y26125600D01*
G36*
X25270202Y27809824D02*
X25035073Y27808400D01*
X24814329Y27798220D01*
X24631090Y27779318D01*
X24508474Y27751729D01*
X24470123Y27725153D01*
X24474666Y27625353D01*
X24504586Y27571248D01*
X24526790Y27520663D01*
X25226940Y27520663D01*
X25397334Y27463512D01*
X25532094Y27333390D01*
X25554665Y27294000D01*
X25617857Y27086282D01*
X25613185Y26874679D01*
X25550071Y26681836D01*
X25437935Y26530397D01*
X25286198Y26443011D01*
X25195388Y26430400D01*
X24987032Y26473323D01*
X24831435Y26591147D01*
X24736828Y26767446D01*
X24711442Y26985800D01*
X24763507Y27229784D01*
X24777284Y27264669D01*
X24889381Y27420202D01*
X25048444Y27505879D01*
X25226940Y27520663D01*
X24526790Y27520663D01*
X24542701Y27484411D01*
X24511615Y27369273D01*
X24510269Y27366305D01*
X24472197Y27215398D01*
X24457273Y27010408D01*
X24465566Y26796194D01*
X24497144Y26617618D01*
X24509072Y26582826D01*
X24647798Y26365649D01*
X24856089Y26215650D01*
X24973643Y26172726D01*
X25231729Y26143988D01*
X25463846Y26209434D01*
X25645778Y26335595D01*
X25790365Y26524491D01*
X25877642Y26768692D01*
X25902631Y27036415D01*
X25860352Y27295877D01*
X25814016Y27409499D01*
X25802957Y27516171D01*
X25844413Y27576069D01*
X25894537Y27669503D01*
X25892207Y27727270D01*
X25830720Y27761215D01*
X25691144Y27786266D01*
X25496599Y27802457D01*
X25270202Y27809824D01*
X25270202Y27809824D01*
X25270202Y27809824D01*
G37*
X25270202Y27809824D02*
X25035073Y27808400D01*
X24814329Y27798220D01*
X24631090Y27779318D01*
X24508474Y27751729D01*
X24470123Y27725153D01*
X24474666Y27625353D01*
X24504586Y27571248D01*
X24526790Y27520663D01*
X25226940Y27520663D01*
X25397334Y27463512D01*
X25532094Y27333390D01*
X25554665Y27294000D01*
X25617857Y27086282D01*
X25613185Y26874679D01*
X25550071Y26681836D01*
X25437935Y26530397D01*
X25286198Y26443011D01*
X25195388Y26430400D01*
X24987032Y26473323D01*
X24831435Y26591147D01*
X24736828Y26767446D01*
X24711442Y26985800D01*
X24763507Y27229784D01*
X24777284Y27264669D01*
X24889381Y27420202D01*
X25048444Y27505879D01*
X25226940Y27520663D01*
X24526790Y27520663D01*
X24542701Y27484411D01*
X24511615Y27369273D01*
X24510269Y27366305D01*
X24472197Y27215398D01*
X24457273Y27010408D01*
X24465566Y26796194D01*
X24497144Y26617618D01*
X24509072Y26582826D01*
X24647798Y26365649D01*
X24856089Y26215650D01*
X24973643Y26172726D01*
X25231729Y26143988D01*
X25463846Y26209434D01*
X25645778Y26335595D01*
X25790365Y26524491D01*
X25877642Y26768692D01*
X25902631Y27036415D01*
X25860352Y27295877D01*
X25814016Y27409499D01*
X25802957Y27516171D01*
X25844413Y27576069D01*
X25894537Y27669503D01*
X25892207Y27727270D01*
X25830720Y27761215D01*
X25691144Y27786266D01*
X25496599Y27802457D01*
X25270202Y27809824D01*
X25270202Y27809824D01*
G36*
X26328262Y24597689D02*
X26235025Y24558054D01*
X26210036Y24521245D01*
X26183474Y24442918D01*
X26200578Y24398167D01*
X26240160Y24357760D01*
X26343711Y24307177D01*
X26443901Y24330902D01*
X26508110Y24409071D01*
X26504842Y24518961D01*
X26434809Y24584529D01*
X26328262Y24597689D01*
X26328262Y24597689D01*
X26328262Y24597689D01*
G37*
X26328262Y24597689D02*
X26235025Y24558054D01*
X26210036Y24521245D01*
X26183474Y24442918D01*
X26200578Y24398167D01*
X26240160Y24357760D01*
X26343711Y24307177D01*
X26443901Y24330902D01*
X26508110Y24409071D01*
X26504842Y24518961D01*
X26434809Y24584529D01*
X26328262Y24597689D01*
X26328262Y24597689D01*
G36*
X31603810Y26863510D02*
X31164971Y26853688D01*
X31054440Y26836517D01*
X30642098Y26716045D01*
X30274293Y26517571D01*
X30148480Y26409283D01*
X31279063Y26409283D01*
X31613784Y26356680D01*
X31937085Y26236473D01*
X32225283Y26053548D01*
X32342078Y25947088D01*
X32573805Y25638902D01*
X32739732Y25270437D01*
X32837747Y24860576D01*
X32865733Y24428203D01*
X32821577Y23992201D01*
X32703165Y23571455D01*
X32627582Y23397232D01*
X32421709Y23075268D01*
X32160538Y22823859D01*
X31858744Y22646026D01*
X31531000Y22544792D01*
X31191981Y22523177D01*
X30856360Y22584203D01*
X30538811Y22730891D01*
X30301161Y22918225D01*
X29988418Y23282641D01*
X29764787Y23674751D01*
X29632435Y24084802D01*
X29593527Y24503037D01*
X29650230Y24919701D01*
X29778422Y25272074D01*
X29937683Y25549490D01*
X30140432Y25820863D01*
X30363762Y26059989D01*
X30584767Y26240664D01*
X30670083Y26292129D01*
X30956602Y26389395D01*
X31279063Y26409283D01*
X30148480Y26409283D01*
X29965368Y26251679D01*
X29729665Y25928954D01*
X29672724Y25816884D01*
X29604883Y25678464D01*
X29552051Y25587645D01*
X29532211Y25566800D01*
X29496068Y25607695D01*
X29431019Y25712675D01*
X29380946Y25803331D01*
X29274286Y25989342D01*
X29155010Y26176366D01*
X29114015Y26235131D01*
X29011917Y26358577D01*
X28916826Y26415796D01*
X28788234Y26430367D01*
X28778537Y26430400D01*
X28583668Y26388611D01*
X28440683Y26275322D01*
X28369100Y26108649D01*
X28364467Y26046125D01*
X28390804Y25919268D01*
X28457534Y25753173D01*
X28516000Y25643000D01*
X28597752Y25498302D01*
X28652826Y25387676D01*
X28667534Y25344686D01*
X28621097Y25327415D01*
X28496180Y25318801D01*
X28315619Y25319917D01*
X28223900Y25323796D01*
X27941882Y25348487D01*
X27726739Y25392846D01*
X27544530Y25463961D01*
X27538478Y25466949D01*
X27321952Y25544635D01*
X27146087Y25535047D01*
X26994923Y25435270D01*
X26927073Y25355322D01*
X26863371Y25210192D01*
X28646794Y25210192D01*
X28847996Y25207976D01*
X29027920Y25194215D01*
X29155981Y25168641D01*
X29179740Y25158612D01*
X29221192Y25127650D01*
X29249094Y25075271D01*
X29266074Y24983396D01*
X29274762Y24833946D01*
X29277786Y24608843D01*
X29278000Y24482972D01*
X29272639Y24161545D01*
X29256509Y23940376D01*
X29229541Y23818689D01*
X29217040Y23798959D01*
X29141588Y23772345D01*
X28994308Y23752450D01*
X28804805Y23740188D01*
X28602686Y23736472D01*
X28417557Y23742217D01*
X28279024Y23758335D01*
X28240755Y23768835D01*
X28206812Y23796618D01*
X28183738Y23860085D01*
X28169600Y23975479D01*
X28162466Y24159047D01*
X28160405Y24427034D01*
X28160400Y24444475D01*
X28165400Y24769351D01*
X28180506Y24994961D01*
X28205877Y25123151D01*
X28221360Y25150239D01*
X28302892Y25181056D01*
X28454898Y25201130D01*
X28646794Y25210192D01*
X26863371Y25210192D01*
X26853818Y25188429D01*
X26876485Y25023164D01*
X26989548Y24866746D01*
X27187483Y24726391D01*
X27464765Y24609319D01*
X27508688Y24595475D01*
X27699141Y24529419D01*
X27818097Y24471123D01*
X27858086Y24426540D01*
X27811639Y24401625D01*
X27755906Y24398400D01*
X27589286Y24369714D01*
X27384545Y24295847D01*
X27181409Y24195087D01*
X27019604Y24085718D01*
X26968709Y24036041D01*
X26869116Y23886268D01*
X26849329Y23746542D01*
X26890755Y23601620D01*
X26995778Y23460003D01*
X27157900Y23393553D01*
X27363353Y23404633D01*
X27576200Y23484000D01*
X27711482Y23538676D01*
X27871963Y23570468D01*
X28087939Y23584108D01*
X28226791Y23585600D01*
X28678099Y23585600D01*
X28520850Y23306969D01*
X28402220Y23046294D01*
X28369788Y22835396D01*
X28423262Y22670748D01*
X28463908Y22621692D01*
X28624887Y22503981D01*
X28783367Y22479216D01*
X28943336Y22549271D01*
X29108783Y22716020D01*
X29283699Y22981337D01*
X29303400Y23016104D01*
X29399914Y23183409D01*
X29478398Y23309851D01*
X29525676Y23374526D01*
X29532000Y23378766D01*
X29565419Y23336430D01*
X29625679Y23227420D01*
X29681512Y23113617D01*
X29897537Y22767343D01*
X30183990Y22483719D01*
X30526868Y22268879D01*
X30912169Y22128957D01*
X31325890Y22070086D01*
X31754029Y22098401D01*
X31918746Y22133592D01*
X32322779Y22287723D01*
X32676435Y22525958D01*
X32970867Y22839676D01*
X33197232Y23220257D01*
X33296391Y23476151D01*
X33377088Y23819064D01*
X33423593Y24212000D01*
X33434094Y24614926D01*
X33406778Y24987807D01*
X33373232Y25173100D01*
X33221185Y25634363D01*
X33001316Y26031476D01*
X32721636Y26358692D01*
X32390152Y26610267D01*
X32014874Y26780454D01*
X31603810Y26863510D01*
X31603810Y26863510D01*
X31603810Y26863510D01*
G37*
X31603810Y26863510D02*
X31164971Y26853688D01*
X31054440Y26836517D01*
X30642098Y26716045D01*
X30274293Y26517571D01*
X30148480Y26409283D01*
X31279063Y26409283D01*
X31613784Y26356680D01*
X31937085Y26236473D01*
X32225283Y26053548D01*
X32342078Y25947088D01*
X32573805Y25638902D01*
X32739732Y25270437D01*
X32837747Y24860576D01*
X32865733Y24428203D01*
X32821577Y23992201D01*
X32703165Y23571455D01*
X32627582Y23397232D01*
X32421709Y23075268D01*
X32160538Y22823859D01*
X31858744Y22646026D01*
X31531000Y22544792D01*
X31191981Y22523177D01*
X30856360Y22584203D01*
X30538811Y22730891D01*
X30301161Y22918225D01*
X29988418Y23282641D01*
X29764787Y23674751D01*
X29632435Y24084802D01*
X29593527Y24503037D01*
X29650230Y24919701D01*
X29778422Y25272074D01*
X29937683Y25549490D01*
X30140432Y25820863D01*
X30363762Y26059989D01*
X30584767Y26240664D01*
X30670083Y26292129D01*
X30956602Y26389395D01*
X31279063Y26409283D01*
X30148480Y26409283D01*
X29965368Y26251679D01*
X29729665Y25928954D01*
X29672724Y25816884D01*
X29604883Y25678464D01*
X29552051Y25587645D01*
X29532211Y25566800D01*
X29496068Y25607695D01*
X29431019Y25712675D01*
X29380946Y25803331D01*
X29274286Y25989342D01*
X29155010Y26176366D01*
X29114015Y26235131D01*
X29011917Y26358577D01*
X28916826Y26415796D01*
X28788234Y26430367D01*
X28778537Y26430400D01*
X28583668Y26388611D01*
X28440683Y26275322D01*
X28369100Y26108649D01*
X28364467Y26046125D01*
X28390804Y25919268D01*
X28457534Y25753173D01*
X28516000Y25643000D01*
X28597752Y25498302D01*
X28652826Y25387676D01*
X28667534Y25344686D01*
X28621097Y25327415D01*
X28496180Y25318801D01*
X28315619Y25319917D01*
X28223900Y25323796D01*
X27941882Y25348487D01*
X27726739Y25392846D01*
X27544530Y25463961D01*
X27538478Y25466949D01*
X27321952Y25544635D01*
X27146087Y25535047D01*
X26994923Y25435270D01*
X26927073Y25355322D01*
X26863371Y25210192D01*
X28646794Y25210192D01*
X28847996Y25207976D01*
X29027920Y25194215D01*
X29155981Y25168641D01*
X29179740Y25158612D01*
X29221192Y25127650D01*
X29249094Y25075271D01*
X29266074Y24983396D01*
X29274762Y24833946D01*
X29277786Y24608843D01*
X29278000Y24482972D01*
X29272639Y24161545D01*
X29256509Y23940376D01*
X29229541Y23818689D01*
X29217040Y23798959D01*
X29141588Y23772345D01*
X28994308Y23752450D01*
X28804805Y23740188D01*
X28602686Y23736472D01*
X28417557Y23742217D01*
X28279024Y23758335D01*
X28240755Y23768835D01*
X28206812Y23796618D01*
X28183738Y23860085D01*
X28169600Y23975479D01*
X28162466Y24159047D01*
X28160405Y24427034D01*
X28160400Y24444475D01*
X28165400Y24769351D01*
X28180506Y24994961D01*
X28205877Y25123151D01*
X28221360Y25150239D01*
X28302892Y25181056D01*
X28454898Y25201130D01*
X28646794Y25210192D01*
X26863371Y25210192D01*
X26853818Y25188429D01*
X26876485Y25023164D01*
X26989548Y24866746D01*
X27187483Y24726391D01*
X27464765Y24609319D01*
X27508688Y24595475D01*
X27699141Y24529419D01*
X27818097Y24471123D01*
X27858086Y24426540D01*
X27811639Y24401625D01*
X27755906Y24398400D01*
X27589286Y24369714D01*
X27384545Y24295847D01*
X27181409Y24195087D01*
X27019604Y24085718D01*
X26968709Y24036041D01*
X26869116Y23886268D01*
X26849329Y23746542D01*
X26890755Y23601620D01*
X26995778Y23460003D01*
X27157900Y23393553D01*
X27363353Y23404633D01*
X27576200Y23484000D01*
X27711482Y23538676D01*
X27871963Y23570468D01*
X28087939Y23584108D01*
X28226791Y23585600D01*
X28678099Y23585600D01*
X28520850Y23306969D01*
X28402220Y23046294D01*
X28369788Y22835396D01*
X28423262Y22670748D01*
X28463908Y22621692D01*
X28624887Y22503981D01*
X28783367Y22479216D01*
X28943336Y22549271D01*
X29108783Y22716020D01*
X29283699Y22981337D01*
X29303400Y23016104D01*
X29399914Y23183409D01*
X29478398Y23309851D01*
X29525676Y23374526D01*
X29532000Y23378766D01*
X29565419Y23336430D01*
X29625679Y23227420D01*
X29681512Y23113617D01*
X29897537Y22767343D01*
X30183990Y22483719D01*
X30526868Y22268879D01*
X30912169Y22128957D01*
X31325890Y22070086D01*
X31754029Y22098401D01*
X31918746Y22133592D01*
X32322779Y22287723D01*
X32676435Y22525958D01*
X32970867Y22839676D01*
X33197232Y23220257D01*
X33296391Y23476151D01*
X33377088Y23819064D01*
X33423593Y24212000D01*
X33434094Y24614926D01*
X33406778Y24987807D01*
X33373232Y25173100D01*
X33221185Y25634363D01*
X33001316Y26031476D01*
X32721636Y26358692D01*
X32390152Y26610267D01*
X32014874Y26780454D01*
X31603810Y26863510D01*
X31603810Y26863510D01*
G36*
X29995116Y24626580D02*
X29962791Y24619583D01*
X29878765Y24543573D01*
X29876683Y24430832D01*
X29909144Y24369683D01*
X30001206Y24310758D01*
X30102686Y24334426D01*
X30176407Y24429993D01*
X30166443Y24521640D01*
X30093624Y24598163D01*
X29995116Y24626580D01*
X29995116Y24626580D01*
X29995116Y24626580D01*
G37*
X29995116Y24626580D02*
X29962791Y24619583D01*
X29878765Y24543573D01*
X29876683Y24430832D01*
X29909144Y24369683D01*
X30001206Y24310758D01*
X30102686Y24334426D01*
X30176407Y24429993D01*
X30166443Y24521640D01*
X30093624Y24598163D01*
X29995116Y24626580D01*
X29995116Y24626580D01*
G36*
X30869528Y24051019D02*
X30666707Y23995692D01*
X30626360Y23972686D01*
X30517743Y23850850D01*
X30496641Y23698423D01*
X30562197Y23534944D01*
X30650010Y23432817D01*
X30886780Y23270678D01*
X31167506Y23170010D01*
X31460234Y23137341D01*
X31733014Y23179203D01*
X31789337Y23199962D01*
X31941779Y23299715D01*
X31998627Y23433247D01*
X31960878Y23603384D01*
X31944005Y23638325D01*
X31815340Y23788851D01*
X31615277Y23912561D01*
X31372097Y24002277D01*
X31114086Y24050822D01*
X30869528Y24051019D01*
X30869528Y24051019D01*
X30869528Y24051019D01*
G37*
X30869528Y24051019D02*
X30666707Y23995692D01*
X30626360Y23972686D01*
X30517743Y23850850D01*
X30496641Y23698423D01*
X30562197Y23534944D01*
X30650010Y23432817D01*
X30886780Y23270678D01*
X31167506Y23170010D01*
X31460234Y23137341D01*
X31733014Y23179203D01*
X31789337Y23199962D01*
X31941779Y23299715D01*
X31998627Y23433247D01*
X31960878Y23603384D01*
X31944005Y23638325D01*
X31815340Y23788851D01*
X31615277Y23912561D01*
X31372097Y24002277D01*
X31114086Y24050822D01*
X30869528Y24051019D01*
X30869528Y24051019D01*
G36*
X31506460Y25790465D02*
X31146549Y25750162D01*
X30844748Y25630830D01*
X30670643Y25505359D01*
X30538632Y25345099D01*
X30497294Y25184168D01*
X30548745Y25037061D01*
X30594858Y24986168D01*
X30762826Y24897337D01*
X30982160Y24868688D01*
X31228211Y24892987D01*
X31476333Y24963000D01*
X31701880Y25071492D01*
X31880205Y25211231D01*
X31986661Y25374981D01*
X31993671Y25396723D01*
X31983121Y25524943D01*
X31902003Y25648909D01*
X31813692Y25734807D01*
X31715725Y25777185D01*
X31568577Y25790188D01*
X31506460Y25790465D01*
X31506460Y25790465D01*
X31506460Y25790465D01*
G37*
X31506460Y25790465D02*
X31146549Y25750162D01*
X30844748Y25630830D01*
X30670643Y25505359D01*
X30538632Y25345099D01*
X30497294Y25184168D01*
X30548745Y25037061D01*
X30594858Y24986168D01*
X30762826Y24897337D01*
X30982160Y24868688D01*
X31228211Y24892987D01*
X31476333Y24963000D01*
X31701880Y25071492D01*
X31880205Y25211231D01*
X31986661Y25374981D01*
X31993671Y25396723D01*
X31983121Y25524943D01*
X31902003Y25648909D01*
X31813692Y25734807D01*
X31715725Y25777185D01*
X31568577Y25790188D01*
X31506460Y25790465D01*
X31506460Y25790465D01*
X4028000Y84329000D02*
X5044000Y83313000D01*
X4028000Y103887000D02*
X4028000Y84329000D01*
X13172000Y83313000D02*
X5044000Y83313000D01*
X13172000Y103887000D02*
X4028000Y103887000D01*
X13172000Y83313000D02*
X13172000Y103887000D01*
X16576500Y74831500D02*
X16576500Y78768500D01*
X17280710Y76800000D02*
G75*
G03X17280710Y76800000I-3180710J0D01*
G01*
X33231500Y94923500D02*
X37168500Y94923500D01*
X38380710Y97400000D02*
G75*
G03X38380710Y97400000I-3180710J0D01*
G01*
X26731500Y94923500D02*
X30668500Y94923500D01*
X31880710Y97400000D02*
G75*
G03X31880710Y97400000I-3180710J0D01*
G01*
X36480000Y33920000D02*
X36480000Y44080000D01*
X36480000Y44080000D02*
X38385000Y44080000D01*
X38385000Y44080000D02*
X39020000Y43445000D01*
X39020000Y43445000D02*
X39020000Y33920000D01*
X39020000Y33920000D02*
X36480000Y33920000D01*
X-20000Y33920000D02*
X-20000Y44080000D01*
X-20000Y44080000D02*
X1885000Y44080000D01*
X1885000Y44080000D02*
X2520000Y43445000D01*
X2520000Y43445000D02*
X2520000Y33920000D01*
X2520000Y33920000D02*
X-20000Y33920000D01*
D12*
X8450000Y76200000D02*
G75*
G03X8450000Y76200000I-950000J0D01*
G01*
X10650000Y76300000D02*
G75*
G03X10650000Y76300000I-950000J0D01*
G01*
X34550000Y48100000D02*
G75*
G03X34550000Y48100000I-950000J0D01*
G01*
X33550000Y83300000D02*
G75*
G03X33550000Y83300000I-950000J0D01*
G01*
X30350000Y73800000D02*
G75*
G03X30350000Y73800000I-950000J0D01*
G01*
X30850000Y68400000D02*
G75*
G03X30850000Y68400000I-950000J0D01*
G01*
X38650000Y82000000D02*
G75*
G03X38650000Y82000000I-950000J0D01*
G01*
D10*
X15516666Y99183334D02*
X15050000Y98483334D01*
X15050000Y99183334D02*
X15516666Y98483334D01*
X14783333Y98483334D02*
X14783333Y99183334D01*
X14516666Y99183334D01*
X14450000Y99150000D01*
X14416666Y99116667D01*
X14383333Y99050000D01*
X14383333Y98950000D01*
X14416666Y98883334D01*
X14450000Y98850000D01*
X14516666Y98816667D01*
X14783333Y98816667D01*
X13716666Y98483334D02*
X14116666Y98483334D01*
X13916666Y98483334D02*
X13916666Y99183334D01*
X13983333Y99083334D01*
X14050000Y99016667D01*
X14116666Y98983334D01*
X16533333Y73483334D02*
X16100000Y73483334D01*
X16333333Y73216667D01*
X16233333Y73216667D01*
X16166666Y73183334D01*
X16133333Y73150000D01*
X16100000Y73083334D01*
X16100000Y72916667D01*
X16133333Y72850000D01*
X16166666Y72816667D01*
X16233333Y72783334D01*
X16433333Y72783334D01*
X16500000Y72816667D01*
X16533333Y72850000D01*
X15866666Y73483334D02*
X15433333Y73483334D01*
X15666666Y73216667D01*
X15566666Y73216667D01*
X15500000Y73183334D01*
X15466666Y73150000D01*
X15433333Y73083334D01*
X15433333Y72916667D01*
X15466666Y72850000D01*
X15500000Y72816667D01*
X15566666Y72783334D01*
X15766666Y72783334D01*
X15833333Y72816667D01*
X15866666Y72850000D01*
X14833333Y73250000D02*
X14833333Y72783334D01*
X15133333Y73250000D02*
X15133333Y72883334D01*
X15100000Y72816667D01*
X15033333Y72783334D01*
X14933333Y72783334D01*
X14866666Y72816667D01*
X14833333Y72850000D01*
X14266666Y73150000D02*
X14500000Y73150000D01*
X14500000Y72783334D02*
X14500000Y73483334D01*
X14166666Y73483334D01*
X13966666Y72783334D02*
X13600000Y73250000D01*
X13966666Y73250000D02*
X13600000Y72783334D01*
X13366666Y73416667D02*
X13333333Y73450000D01*
X13266666Y73483334D01*
X13100000Y73483334D01*
X13033333Y73450000D01*
X13000000Y73416667D01*
X12966666Y73350000D01*
X12966666Y73283334D01*
X13000000Y73183334D01*
X13400000Y72783334D01*
X12966666Y72783334D01*
X12333333Y73483334D02*
X12666666Y73483334D01*
X12700000Y73150000D01*
X12666666Y73183334D01*
X12600000Y73216667D01*
X12433333Y73216667D01*
X12366666Y73183334D01*
X12333333Y73150000D01*
X12300000Y73083334D01*
X12300000Y72916667D01*
X12333333Y72850000D01*
X12366666Y72816667D01*
X12433333Y72783334D01*
X12600000Y72783334D01*
X12666666Y72816667D01*
X12700000Y72850000D01*
X12100000Y73483334D02*
X11866666Y72783334D01*
X11633333Y73483334D01*
X14216666Y71950000D02*
X14250000Y71916667D01*
X14350000Y71883334D01*
X14416666Y71883334D01*
X14516666Y71916667D01*
X14583333Y71983334D01*
X14616666Y72050000D01*
X14650000Y72183334D01*
X14650000Y72283334D01*
X14616666Y72416667D01*
X14583333Y72483334D01*
X14516666Y72550000D01*
X14416666Y72583334D01*
X14350000Y72583334D01*
X14250000Y72550000D01*
X14216666Y72516667D01*
X13550000Y71883334D02*
X13950000Y71883334D01*
X13750000Y71883334D02*
X13750000Y72583334D01*
X13816666Y72483334D01*
X13883333Y72416667D01*
X13950000Y72383334D01*
X34766666Y93050000D02*
X34766666Y92583334D01*
X34933333Y93316667D02*
X35100000Y92816667D01*
X34666666Y92816667D01*
X34466666Y93283334D02*
X34000000Y93283334D01*
X34300000Y92583334D01*
X33433333Y93050000D02*
X33433333Y92583334D01*
X33733333Y93050000D02*
X33733333Y92683334D01*
X33700000Y92616667D01*
X33633333Y92583334D01*
X33533333Y92583334D01*
X33466666Y92616667D01*
X33433333Y92650000D01*
X32866666Y92950000D02*
X33100000Y92950000D01*
X33100000Y92583334D02*
X33100000Y93283334D01*
X32766666Y93283334D01*
X32566666Y92583334D02*
X32200000Y93050000D01*
X32566666Y93050000D02*
X32200000Y92583334D01*
X31966666Y93216667D02*
X31933333Y93250000D01*
X31866666Y93283334D01*
X31700000Y93283334D01*
X31633333Y93250000D01*
X31600000Y93216667D01*
X31566666Y93150000D01*
X31566666Y93083334D01*
X31600000Y92983334D01*
X32000000Y92583334D01*
X31566666Y92583334D01*
X30933333Y93283334D02*
X31266666Y93283334D01*
X31300000Y92950000D01*
X31266666Y92983334D01*
X31200000Y93016667D01*
X31033333Y93016667D01*
X30966666Y92983334D01*
X30933333Y92950000D01*
X30900000Y92883334D01*
X30900000Y92716667D01*
X30933333Y92650000D01*
X30966666Y92616667D01*
X31033333Y92583334D01*
X31200000Y92583334D01*
X31266666Y92616667D01*
X31300000Y92650000D01*
X30700000Y93283334D02*
X30466666Y92583334D01*
X30233333Y93283334D01*
X33616666Y93550000D02*
X33650000Y93516667D01*
X33750000Y93483334D01*
X33816666Y93483334D01*
X33916666Y93516667D01*
X33983333Y93583334D01*
X34016666Y93650000D01*
X34050000Y93783334D01*
X34050000Y93883334D01*
X34016666Y94016667D01*
X33983333Y94083334D01*
X33916666Y94150000D01*
X33816666Y94183334D01*
X33750000Y94183334D01*
X33650000Y94150000D01*
X33616666Y94116667D01*
X33350000Y94116667D02*
X33316666Y94150000D01*
X33250000Y94183334D01*
X33083333Y94183334D01*
X33016666Y94150000D01*
X32983333Y94116667D01*
X32950000Y94050000D01*
X32950000Y93983334D01*
X32983333Y93883334D01*
X33383333Y93483334D01*
X32950000Y93483334D01*
X24966666Y97550000D02*
X24966666Y97083334D01*
X25133333Y97816667D02*
X25300000Y97316667D01*
X24866666Y97316667D01*
X24666666Y97783334D02*
X24200000Y97783334D01*
X24500000Y97083334D01*
X23633333Y97550000D02*
X23633333Y97083334D01*
X23933333Y97550000D02*
X23933333Y97183334D01*
X23900000Y97116667D01*
X23833333Y97083334D01*
X23733333Y97083334D01*
X23666666Y97116667D01*
X23633333Y97150000D01*
X23066666Y97450000D02*
X23300000Y97450000D01*
X23300000Y97083334D02*
X23300000Y97783334D01*
X22966666Y97783334D01*
X22766666Y97083334D02*
X22400000Y97550000D01*
X22766666Y97550000D02*
X22400000Y97083334D01*
X22166666Y97716667D02*
X22133333Y97750000D01*
X22066666Y97783334D01*
X21900000Y97783334D01*
X21833333Y97750000D01*
X21800000Y97716667D01*
X21766666Y97650000D01*
X21766666Y97583334D01*
X21800000Y97483334D01*
X22200000Y97083334D01*
X21766666Y97083334D01*
X21133333Y97783334D02*
X21466666Y97783334D01*
X21500000Y97450000D01*
X21466666Y97483334D01*
X21400000Y97516667D01*
X21233333Y97516667D01*
X21166666Y97483334D01*
X21133333Y97450000D01*
X21100000Y97383334D01*
X21100000Y97216667D01*
X21133333Y97150000D01*
X21166666Y97116667D01*
X21233333Y97083334D01*
X21400000Y97083334D01*
X21466666Y97116667D01*
X21500000Y97150000D01*
X20900000Y97783334D02*
X20666666Y97083334D01*
X20433333Y97783334D01*
X24116666Y98250000D02*
X24150000Y98216667D01*
X24250000Y98183334D01*
X24316666Y98183334D01*
X24416666Y98216667D01*
X24483333Y98283334D01*
X24516666Y98350000D01*
X24550000Y98483334D01*
X24550000Y98583334D01*
X24516666Y98716667D01*
X24483333Y98783334D01*
X24416666Y98850000D01*
X24316666Y98883334D01*
X24250000Y98883334D01*
X24150000Y98850000D01*
X24116666Y98816667D01*
X23883333Y98883334D02*
X23450000Y98883334D01*
X23683333Y98616667D01*
X23583333Y98616667D01*
X23516666Y98583334D01*
X23483333Y98550000D01*
X23450000Y98483334D01*
X23450000Y98316667D01*
X23483333Y98250000D01*
X23516666Y98216667D01*
X23583333Y98183334D01*
X23783333Y98183334D01*
X23850000Y98216667D01*
X23883333Y98250000D01*
X36200000Y39183334D02*
X35733333Y38483334D01*
X35733333Y39183334D02*
X36200000Y38483334D01*
X35500000Y38516667D02*
X35400000Y38483334D01*
X35233333Y38483334D01*
X35166666Y38516667D01*
X35133333Y38550000D01*
X35100000Y38616667D01*
X35100000Y38683334D01*
X35133333Y38750000D01*
X35166666Y38783334D01*
X35233333Y38816667D01*
X35366666Y38850000D01*
X35433333Y38883334D01*
X35466666Y38916667D01*
X35500000Y38983334D01*
X35500000Y39050000D01*
X35466666Y39116667D01*
X35433333Y39150000D01*
X35366666Y39183334D01*
X35200000Y39183334D01*
X35100000Y39150000D01*
X34866666Y39183334D02*
X34400000Y39183334D01*
X34700000Y38483334D01*
X2600000Y32683334D02*
X2133333Y31983334D01*
X2133333Y32683334D02*
X2600000Y31983334D01*
X1900000Y32016667D02*
X1800000Y31983334D01*
X1633333Y31983334D01*
X1566666Y32016667D01*
X1533333Y32050000D01*
X1500000Y32116667D01*
X1500000Y32183334D01*
X1533333Y32250000D01*
X1566666Y32283334D01*
X1633333Y32316667D01*
X1766666Y32350000D01*
X1833333Y32383334D01*
X1866666Y32416667D01*
X1900000Y32483334D01*
X1900000Y32550000D01*
X1866666Y32616667D01*
X1833333Y32650000D01*
X1766666Y32683334D01*
X1600000Y32683334D01*
X1500000Y32650000D01*
X1100000Y32383334D02*
X1166666Y32416667D01*
X1200000Y32450000D01*
X1233333Y32516667D01*
X1233333Y32550000D01*
X1200000Y32616667D01*
X1166666Y32650000D01*
X1100000Y32683334D01*
X966666Y32683334D01*
X900000Y32650000D01*
X866666Y32616667D01*
X833333Y32550000D01*
X833333Y32516667D01*
X866666Y32450000D01*
X900000Y32416667D01*
X966666Y32383334D01*
X1100000Y32383334D01*
X1166666Y32350000D01*
X1200000Y32316667D01*
X1233333Y32250000D01*
X1233333Y32116667D01*
X1200000Y32050000D01*
X1166666Y32016667D01*
X1100000Y31983334D01*
X966666Y31983334D01*
X900000Y32016667D01*
X866666Y32050000D01*
X833333Y32116667D01*
X833333Y32250000D01*
X866666Y32316667D01*
X900000Y32350000D01*
X966666Y32383334D01*
X8083333Y78183334D02*
X7683333Y78183334D01*
X7883333Y77483334D02*
X7883333Y78183334D01*
X7450000Y77483334D02*
X7450000Y78183334D01*
X7183333Y78183334D01*
X7116666Y78150000D01*
X7083333Y78116667D01*
X7050000Y78050000D01*
X7050000Y77950000D01*
X7083333Y77883334D01*
X7116666Y77850000D01*
X7183333Y77816667D01*
X7450000Y77816667D01*
X6383333Y77483334D02*
X6783333Y77483334D01*
X6583333Y77483334D02*
X6583333Y78183334D01*
X6650000Y78083334D01*
X6716666Y78016667D01*
X6783333Y77983334D01*
X10583333Y78283334D02*
X10183333Y78283334D01*
X10383333Y77583334D02*
X10383333Y78283334D01*
X9950000Y77583334D02*
X9950000Y78283334D01*
X9683333Y78283334D01*
X9616666Y78250000D01*
X9583333Y78216667D01*
X9550000Y78150000D01*
X9550000Y78050000D01*
X9583333Y77983334D01*
X9616666Y77950000D01*
X9683333Y77916667D01*
X9950000Y77916667D01*
X9283333Y78216667D02*
X9250000Y78250000D01*
X9183333Y78283334D01*
X9016666Y78283334D01*
X8950000Y78250000D01*
X8916666Y78216667D01*
X8883333Y78150000D01*
X8883333Y78083334D01*
X8916666Y77983334D01*
X9316666Y77583334D01*
X8883333Y77583334D01*
X34483333Y47083334D02*
X34083333Y47083334D01*
X34283333Y46383334D02*
X34283333Y47083334D01*
X33850000Y46383334D02*
X33850000Y47083334D01*
X33583333Y47083334D01*
X33516666Y47050000D01*
X33483333Y47016667D01*
X33450000Y46950000D01*
X33450000Y46850000D01*
X33483333Y46783334D01*
X33516666Y46750000D01*
X33583333Y46716667D01*
X33850000Y46716667D01*
X33216666Y47083334D02*
X32783333Y47083334D01*
X33016666Y46816667D01*
X32916666Y46816667D01*
X32850000Y46783334D01*
X32816666Y46750000D01*
X32783333Y46683334D01*
X32783333Y46516667D01*
X32816666Y46450000D01*
X32850000Y46416667D01*
X32916666Y46383334D01*
X33116666Y46383334D01*
X33183333Y46416667D01*
X33216666Y46450000D01*
X33483333Y82283334D02*
X33083333Y82283334D01*
X33283333Y81583334D02*
X33283333Y82283334D01*
X32850000Y81583334D02*
X32850000Y82283334D01*
X32583333Y82283334D01*
X32516666Y82250000D01*
X32483333Y82216667D01*
X32450000Y82150000D01*
X32450000Y82050000D01*
X32483333Y81983334D01*
X32516666Y81950000D01*
X32583333Y81916667D01*
X32850000Y81916667D01*
X31816666Y82283334D02*
X32150000Y82283334D01*
X32183333Y81950000D01*
X32150000Y81983334D01*
X32083333Y82016667D01*
X31916666Y82016667D01*
X31850000Y81983334D01*
X31816666Y81950000D01*
X31783333Y81883334D01*
X31783333Y81716667D01*
X31816666Y81650000D01*
X31850000Y81616667D01*
X31916666Y81583334D01*
X32083333Y81583334D01*
X32150000Y81616667D01*
X32183333Y81650000D01*
X28183333Y74183334D02*
X27783333Y74183334D01*
X27983333Y73483334D02*
X27983333Y74183334D01*
X27550000Y73483334D02*
X27550000Y74183334D01*
X27283333Y74183334D01*
X27216666Y74150000D01*
X27183333Y74116667D01*
X27150000Y74050000D01*
X27150000Y73950000D01*
X27183333Y73883334D01*
X27216666Y73850000D01*
X27283333Y73816667D01*
X27550000Y73816667D01*
X26916666Y74183334D02*
X26450000Y74183334D01*
X26750000Y73483334D01*
X30783333Y70183334D02*
X30383333Y70183334D01*
X30583333Y69483334D02*
X30583333Y70183334D01*
X30150000Y69483334D02*
X30150000Y70183334D01*
X29883333Y70183334D01*
X29816666Y70150000D01*
X29783333Y70116667D01*
X29750000Y70050000D01*
X29750000Y69950000D01*
X29783333Y69883334D01*
X29816666Y69850000D01*
X29883333Y69816667D01*
X30150000Y69816667D01*
X29350000Y69883334D02*
X29416666Y69916667D01*
X29450000Y69950000D01*
X29483333Y70016667D01*
X29483333Y70050000D01*
X29450000Y70116667D01*
X29416666Y70150000D01*
X29350000Y70183334D01*
X29216666Y70183334D01*
X29150000Y70150000D01*
X29116666Y70116667D01*
X29083333Y70050000D01*
X29083333Y70016667D01*
X29116666Y69950000D01*
X29150000Y69916667D01*
X29216666Y69883334D01*
X29350000Y69883334D01*
X29416666Y69850000D01*
X29450000Y69816667D01*
X29483333Y69750000D01*
X29483333Y69616667D01*
X29450000Y69550000D01*
X29416666Y69516667D01*
X29350000Y69483334D01*
X29216666Y69483334D01*
X29150000Y69516667D01*
X29116666Y69550000D01*
X29083333Y69616667D01*
X29083333Y69750000D01*
X29116666Y69816667D01*
X29150000Y69850000D01*
X29216666Y69883334D01*
X36683333Y82983334D02*
X36283333Y82983334D01*
X36483333Y82283334D02*
X36483333Y82983334D01*
X36050000Y82283334D02*
X36050000Y82983334D01*
X35783333Y82983334D01*
X35716666Y82950000D01*
X35683333Y82916667D01*
X35650000Y82850000D01*
X35650000Y82750000D01*
X35683333Y82683334D01*
X35716666Y82650000D01*
X35783333Y82616667D01*
X36050000Y82616667D01*
X35316666Y82283334D02*
X35183333Y82283334D01*
X35116666Y82316667D01*
X35083333Y82350000D01*
X35016666Y82450000D01*
X34983333Y82583334D01*
X34983333Y82850000D01*
X35016666Y82916667D01*
X35050000Y82950000D01*
X35116666Y82983334D01*
X35250000Y82983334D01*
X35316666Y82950000D01*
X35350000Y82916667D01*
X35383333Y82850000D01*
X35383333Y82683334D01*
X35350000Y82616667D01*
X35316666Y82583334D01*
X35250000Y82550000D01*
X35116666Y82550000D01*
X35050000Y82583334D01*
X35016666Y82616667D01*
X34983333Y82683334D01*
M02*
