G04 #@! TF.FileFunction,Legend,Top*
%FSLAX46Y46*%
G04 Gerber Fmt 4.6, Leading zero omitted, Abs format (unit mm)*
G04 Created by KiCad (PCBNEW (2016-08-20 BZR 7083)-product) date Tue Jan 10 11:24:28 2017*
%MOMM*%
%LPD*%
G01*
G04 APERTURE LIST*
%ADD10C,0.100000*%
%ADD11C,0.150000*%
%ADD12C,0.200000*%
%ADD13C,0.120000*%
G04 APERTURE END LIST*
D10*
X3116666Y91750000D02*
X3083333Y91716667D01*
X2983333Y91683334D01*
X2916666Y91683334D01*
X2816666Y91716667D01*
X2750000Y91783334D01*
X2716666Y91850000D01*
X2683333Y91983334D01*
X2683333Y92083334D01*
X2716666Y92216667D01*
X2750000Y92283334D01*
X2816666Y92350000D01*
X2916666Y92383334D01*
X2983333Y92383334D01*
X3083333Y92350000D01*
X3116666Y92316667D01*
X1750000Y90650000D02*
X1850000Y90616667D01*
X1883333Y90583334D01*
X1916666Y90516667D01*
X1916666Y90416667D01*
X1883333Y90350000D01*
X1850000Y90316667D01*
X1783333Y90283334D01*
X1516666Y90283334D01*
X1516666Y90983334D01*
X1750000Y90983334D01*
X1816666Y90950000D01*
X1850000Y90916667D01*
X1883333Y90850000D01*
X1883333Y90783334D01*
X1850000Y90716667D01*
X1816666Y90683334D01*
X1750000Y90650000D01*
X1516666Y90650000D01*
X2750000Y89250000D02*
X2983333Y89250000D01*
X3083333Y88883334D02*
X2750000Y88883334D01*
X2750000Y89583334D01*
X3083333Y89583334D01*
X800000Y87116667D02*
X833333Y87150000D01*
X900000Y87183334D01*
X1066666Y87183334D01*
X1133333Y87150000D01*
X1166666Y87116667D01*
X1200000Y87050000D01*
X1200000Y86983334D01*
X1166666Y86883334D01*
X766666Y86483334D01*
X1200000Y86483334D01*
X1500000Y86483334D02*
X1500000Y87183334D01*
X1900000Y86483334D01*
X1900000Y87183334D01*
X2166666Y87183334D02*
X2600000Y87183334D01*
X2366666Y86916667D01*
X2466666Y86916667D01*
X2533333Y86883334D01*
X2566666Y86850000D01*
X2600000Y86783334D01*
X2600000Y86616667D01*
X2566666Y86550000D01*
X2533333Y86516667D01*
X2466666Y86483334D01*
X2266666Y86483334D01*
X2200000Y86516667D01*
X2166666Y86550000D01*
X2933333Y86483334D02*
X3066666Y86483334D01*
X3133333Y86516667D01*
X3166666Y86550000D01*
X3233333Y86650000D01*
X3266666Y86783334D01*
X3266666Y87050000D01*
X3233333Y87116667D01*
X3200000Y87150000D01*
X3133333Y87183334D01*
X3000000Y87183334D01*
X2933333Y87150000D01*
X2900000Y87116667D01*
X2866666Y87050000D01*
X2866666Y86883334D01*
X2900000Y86816667D01*
X2933333Y86783334D01*
X3000000Y86750000D01*
X3133333Y86750000D01*
X3200000Y86783334D01*
X3233333Y86816667D01*
X3266666Y86883334D01*
X3700000Y87183334D02*
X3766666Y87183334D01*
X3833333Y87150000D01*
X3866666Y87116667D01*
X3900000Y87050000D01*
X3933333Y86916667D01*
X3933333Y86750000D01*
X3900000Y86616667D01*
X3866666Y86550000D01*
X3833333Y86516667D01*
X3766666Y86483334D01*
X3700000Y86483334D01*
X3633333Y86516667D01*
X3600000Y86550000D01*
X3566666Y86616667D01*
X3533333Y86750000D01*
X3533333Y86916667D01*
X3566666Y87050000D01*
X3600000Y87116667D01*
X3633333Y87150000D01*
X3700000Y87183334D01*
X4533333Y86950000D02*
X4533333Y86483334D01*
X4366666Y87216667D02*
X4200000Y86716667D01*
X4633333Y86716667D01*
X3650000Y35583334D02*
X4116666Y35583334D01*
X3383333Y35416667D02*
X3883333Y35250000D01*
X3883333Y35683334D01*
X4116666Y36416667D02*
X3650000Y36783334D01*
X3650000Y36416667D02*
X4116666Y36783334D01*
X17016666Y27816667D02*
X17050000Y27850000D01*
X17116666Y27883334D01*
X17283333Y27883334D01*
X17350000Y27850000D01*
X17383333Y27816667D01*
X17416666Y27750000D01*
X17416666Y27683334D01*
X17383333Y27583334D01*
X16983333Y27183334D01*
X17416666Y27183334D01*
X17650000Y27183334D02*
X18016666Y27650000D01*
X17650000Y27650000D02*
X18016666Y27183334D01*
X1250000Y27816667D02*
X1283333Y27850000D01*
X1350000Y27883334D01*
X1516666Y27883334D01*
X1583333Y27850000D01*
X1616666Y27816667D01*
X1650000Y27750000D01*
X1650000Y27683334D01*
X1616666Y27583334D01*
X1216666Y27183334D01*
X1650000Y27183334D01*
X2416666Y27183334D02*
X2783333Y27650000D01*
X2416666Y27650000D02*
X2783333Y27183334D01*
X17883333Y30850000D02*
X17883333Y30383334D01*
X17716666Y31116667D02*
X17550000Y30616667D01*
X17983333Y30616667D01*
X18716666Y30383334D02*
X19083333Y30850000D01*
X18716666Y30850000D02*
X19083333Y30383334D01*
X27850000Y47650000D02*
X28083333Y47650000D01*
X28183333Y47283334D02*
X27850000Y47283334D01*
X27850000Y47983334D01*
X28183333Y47983334D01*
X29450000Y49050000D02*
X29550000Y49016667D01*
X29583333Y48983334D01*
X29616666Y48916667D01*
X29616666Y48816667D01*
X29583333Y48750000D01*
X29550000Y48716667D01*
X29483333Y48683334D01*
X29216666Y48683334D01*
X29216666Y49383334D01*
X29450000Y49383334D01*
X29516666Y49350000D01*
X29550000Y49316667D01*
X29583333Y49250000D01*
X29583333Y49183334D01*
X29550000Y49116667D01*
X29516666Y49083334D01*
X29450000Y49050000D01*
X29216666Y49050000D01*
X31016666Y47350000D02*
X30983333Y47316667D01*
X30883333Y47283334D01*
X30816666Y47283334D01*
X30716666Y47316667D01*
X30650000Y47383334D01*
X30616666Y47450000D01*
X30583333Y47583334D01*
X30583333Y47683334D01*
X30616666Y47816667D01*
X30650000Y47883334D01*
X30716666Y47950000D01*
X30816666Y47983334D01*
X30883333Y47983334D01*
X30983333Y47950000D01*
X31016666Y47916667D01*
X27000000Y51316667D02*
X27033333Y51350000D01*
X27100000Y51383334D01*
X27266666Y51383334D01*
X27333333Y51350000D01*
X27366666Y51316667D01*
X27400000Y51250000D01*
X27400000Y51183334D01*
X27366666Y51083334D01*
X26966666Y50683334D01*
X27400000Y50683334D01*
X27700000Y50683334D02*
X27700000Y51383334D01*
X28100000Y50683334D01*
X28100000Y51383334D01*
X28366666Y51383334D02*
X28800000Y51383334D01*
X28566666Y51116667D01*
X28666666Y51116667D01*
X28733333Y51083334D01*
X28766666Y51050000D01*
X28800000Y50983334D01*
X28800000Y50816667D01*
X28766666Y50750000D01*
X28733333Y50716667D01*
X28666666Y50683334D01*
X28466666Y50683334D01*
X28400000Y50716667D01*
X28366666Y50750000D01*
X29133333Y50683334D02*
X29266666Y50683334D01*
X29333333Y50716667D01*
X29366666Y50750000D01*
X29433333Y50850000D01*
X29466666Y50983334D01*
X29466666Y51250000D01*
X29433333Y51316667D01*
X29400000Y51350000D01*
X29333333Y51383334D01*
X29200000Y51383334D01*
X29133333Y51350000D01*
X29100000Y51316667D01*
X29066666Y51250000D01*
X29066666Y51083334D01*
X29100000Y51016667D01*
X29133333Y50983334D01*
X29200000Y50950000D01*
X29333333Y50950000D01*
X29400000Y50983334D01*
X29433333Y51016667D01*
X29466666Y51083334D01*
X29900000Y51383334D02*
X29966666Y51383334D01*
X30033333Y51350000D01*
X30066666Y51316667D01*
X30100000Y51250000D01*
X30133333Y51116667D01*
X30133333Y50950000D01*
X30100000Y50816667D01*
X30066666Y50750000D01*
X30033333Y50716667D01*
X29966666Y50683334D01*
X29900000Y50683334D01*
X29833333Y50716667D01*
X29800000Y50750000D01*
X29766666Y50816667D01*
X29733333Y50950000D01*
X29733333Y51116667D01*
X29766666Y51250000D01*
X29800000Y51316667D01*
X29833333Y51350000D01*
X29900000Y51383334D01*
X30733333Y51150000D02*
X30733333Y50683334D01*
X30566666Y51416667D02*
X30400000Y50916667D01*
X30833333Y50916667D01*
D11*
X8700000Y78421429D02*
X8700000Y79921429D01*
X8938095Y79921429D01*
X9080952Y79850000D01*
X9176190Y79707143D01*
X9223809Y79564286D01*
X9271428Y79278572D01*
X9271428Y79064286D01*
X9223809Y78778572D01*
X9176190Y78635715D01*
X9080952Y78492858D01*
X8938095Y78421429D01*
X8700000Y78421429D01*
X9700000Y78421429D02*
X9700000Y79921429D01*
X10366666Y79135715D02*
X10366666Y78421429D01*
X10033333Y79921429D02*
X10366666Y79135715D01*
X10700000Y79921429D01*
X11795238Y78421429D02*
X11795238Y79921429D01*
X12128571Y78850000D01*
X12461904Y79921429D01*
X12461904Y78421429D01*
X13080952Y78421429D02*
X12985714Y78492858D01*
X12938095Y78564286D01*
X12890476Y78707143D01*
X12890476Y79135715D01*
X12938095Y79278572D01*
X12985714Y79350000D01*
X13080952Y79421429D01*
X13223809Y79421429D01*
X13319047Y79350000D01*
X13366666Y79278572D01*
X13414285Y79135715D01*
X13414285Y78707143D01*
X13366666Y78564286D01*
X13319047Y78492858D01*
X13223809Y78421429D01*
X13080952Y78421429D01*
X14271428Y78421429D02*
X14271428Y79921429D01*
X14271428Y78492858D02*
X14176190Y78421429D01*
X13985714Y78421429D01*
X13890476Y78492858D01*
X13842857Y78564286D01*
X13795238Y78707143D01*
X13795238Y79135715D01*
X13842857Y79278572D01*
X13890476Y79350000D01*
X13985714Y79421429D01*
X14176190Y79421429D01*
X14271428Y79350000D01*
X15176190Y79421429D02*
X15176190Y78421429D01*
X14747619Y79421429D02*
X14747619Y78635715D01*
X14795238Y78492858D01*
X14890476Y78421429D01*
X15033333Y78421429D01*
X15128571Y78492858D01*
X15176190Y78564286D01*
X15795238Y78421429D02*
X15700000Y78492858D01*
X15652380Y78635715D01*
X15652380Y79921429D01*
X16604761Y78421429D02*
X16604761Y79207143D01*
X16557142Y79350000D01*
X16461904Y79421429D01*
X16271428Y79421429D01*
X16176190Y79350000D01*
X16604761Y78492858D02*
X16509523Y78421429D01*
X16271428Y78421429D01*
X16176190Y78492858D01*
X16128571Y78635715D01*
X16128571Y78778572D01*
X16176190Y78921429D01*
X16271428Y78992858D01*
X16509523Y78992858D01*
X16604761Y79064286D01*
X16938095Y79421429D02*
X17319047Y79421429D01*
X17080952Y79921429D02*
X17080952Y78635715D01*
X17128571Y78492858D01*
X17223809Y78421429D01*
X17319047Y78421429D01*
X17795238Y78421429D02*
X17700000Y78492858D01*
X17652380Y78564286D01*
X17604761Y78707143D01*
X17604761Y79135715D01*
X17652380Y79278572D01*
X17700000Y79350000D01*
X17795238Y79421429D01*
X17938095Y79421429D01*
X18033333Y79350000D01*
X18080952Y79278572D01*
X18128571Y79135715D01*
X18128571Y78707143D01*
X18080952Y78564286D01*
X18033333Y78492858D01*
X17938095Y78421429D01*
X17795238Y78421429D01*
X18557142Y78421429D02*
X18557142Y79421429D01*
X18557142Y79135715D02*
X18604761Y79278572D01*
X18652380Y79350000D01*
X18747619Y79421429D01*
X18842857Y79421429D01*
D10*
X8150000Y2050000D02*
X8283333Y1583334D01*
X8416666Y1916667D01*
X8550000Y1583334D01*
X8683333Y2050000D01*
X8883333Y2050000D02*
X9016666Y1583334D01*
X9150000Y1916667D01*
X9283333Y1583334D01*
X9416666Y2050000D01*
X9616666Y2050000D02*
X9750000Y1583334D01*
X9883333Y1916667D01*
X10016666Y1583334D01*
X10150000Y2050000D01*
X10416666Y1650000D02*
X10450000Y1616667D01*
X10416666Y1583334D01*
X10383333Y1616667D01*
X10416666Y1650000D01*
X10416666Y1583334D01*
X11016666Y1616667D02*
X10950000Y1583334D01*
X10816666Y1583334D01*
X10750000Y1616667D01*
X10716666Y1683334D01*
X10716666Y1950000D01*
X10750000Y2016667D01*
X10816666Y2050000D01*
X10950000Y2050000D01*
X11016666Y2016667D01*
X11050000Y1950000D01*
X11050000Y1883334D01*
X10716666Y1816667D01*
X11350000Y1583334D02*
X11350000Y2050000D01*
X11350000Y1916667D02*
X11383333Y1983334D01*
X11416666Y2016667D01*
X11483333Y2050000D01*
X11550000Y2050000D01*
X11783333Y1583334D02*
X11783333Y2050000D01*
X11783333Y2283334D02*
X11750000Y2250000D01*
X11783333Y2216667D01*
X11816666Y2250000D01*
X11783333Y2283334D01*
X11783333Y2216667D01*
X12416666Y1616667D02*
X12350000Y1583334D01*
X12216666Y1583334D01*
X12150000Y1616667D01*
X12116666Y1650000D01*
X12083333Y1716667D01*
X12083333Y1916667D01*
X12116666Y1983334D01*
X12150000Y2016667D01*
X12216666Y2050000D01*
X12350000Y2050000D01*
X12416666Y2016667D01*
X13016666Y1583334D02*
X13016666Y1950000D01*
X12983333Y2016667D01*
X12916666Y2050000D01*
X12783333Y2050000D01*
X12716666Y2016667D01*
X13016666Y1616667D02*
X12950000Y1583334D01*
X12783333Y1583334D01*
X12716666Y1616667D01*
X12683333Y1683334D01*
X12683333Y1750000D01*
X12716666Y1816667D01*
X12783333Y1850000D01*
X12950000Y1850000D01*
X13016666Y1883334D01*
X13316666Y1616667D02*
X13383333Y1583334D01*
X13516666Y1583334D01*
X13583333Y1616667D01*
X13616666Y1683334D01*
X13616666Y1716667D01*
X13583333Y1783334D01*
X13516666Y1816667D01*
X13416666Y1816667D01*
X13350000Y1850000D01*
X13316666Y1916667D01*
X13316666Y1950000D01*
X13350000Y2016667D01*
X13416666Y2050000D01*
X13516666Y2050000D01*
X13583333Y2016667D01*
X13850000Y2050000D02*
X14016666Y1583334D01*
X14183333Y2050000D02*
X14016666Y1583334D01*
X13950000Y1416667D01*
X13916666Y1383334D01*
X13850000Y1350000D01*
X14450000Y2050000D02*
X14450000Y1583334D01*
X14450000Y1983334D02*
X14483333Y2016667D01*
X14550000Y2050000D01*
X14650000Y2050000D01*
X14716666Y2016667D01*
X14750000Y1950000D01*
X14750000Y1583334D01*
X14983333Y2050000D02*
X15250000Y2050000D01*
X15083333Y2283334D02*
X15083333Y1683334D01*
X15116666Y1616667D01*
X15183333Y1583334D01*
X15250000Y1583334D01*
X15483333Y1583334D02*
X15483333Y2283334D01*
X15783333Y1583334D02*
X15783333Y1950000D01*
X15750000Y2016667D01*
X15683333Y2050000D01*
X15583333Y2050000D01*
X15516666Y2016667D01*
X15483333Y1983334D01*
X16083333Y1616667D02*
X16150000Y1583334D01*
X16283333Y1583334D01*
X16350000Y1616667D01*
X16383333Y1683334D01*
X16383333Y1716667D01*
X16350000Y1783334D01*
X16283333Y1816667D01*
X16183333Y1816667D01*
X16116666Y1850000D01*
X16083333Y1916667D01*
X16083333Y1950000D01*
X16116666Y2016667D01*
X16183333Y2050000D01*
X16283333Y2050000D01*
X16350000Y2016667D01*
X16683333Y1650000D02*
X16716666Y1616667D01*
X16683333Y1583334D01*
X16650000Y1616667D01*
X16683333Y1650000D01*
X16683333Y1583334D01*
X17116666Y1583334D02*
X17050000Y1616667D01*
X17016666Y1683334D01*
X17016666Y2283334D01*
X17316666Y2050000D02*
X17483333Y1583334D01*
X17650000Y2050000D01*
D12*
X6014285Y42421429D02*
X6014285Y43921429D01*
X6585714Y42421429D01*
X6585714Y43921429D01*
X7252380Y43921429D02*
X7442857Y43921429D01*
X7538095Y43850000D01*
X7633333Y43707143D01*
X7680952Y43421429D01*
X7680952Y42921429D01*
X7633333Y42635715D01*
X7538095Y42492858D01*
X7442857Y42421429D01*
X7252380Y42421429D01*
X7157142Y42492858D01*
X7061904Y42635715D01*
X7014285Y42921429D01*
X7014285Y43421429D01*
X7061904Y43707143D01*
X7157142Y43850000D01*
X7252380Y43921429D01*
X8109523Y42421429D02*
X8109523Y43921429D01*
X8538095Y42492858D02*
X8680952Y42421429D01*
X8919047Y42421429D01*
X9014285Y42492858D01*
X9061904Y42564286D01*
X9109523Y42707143D01*
X9109523Y42850000D01*
X9061904Y42992858D01*
X9014285Y43064286D01*
X8919047Y43135715D01*
X8728571Y43207143D01*
X8633333Y43278572D01*
X8585714Y43350000D01*
X8538095Y43492858D01*
X8538095Y43635715D01*
X8585714Y43778572D01*
X8633333Y43850000D01*
X8728571Y43921429D01*
X8966666Y43921429D01*
X9109523Y43850000D01*
X9538095Y43207143D02*
X9871428Y43207143D01*
X10014285Y42421429D02*
X9538095Y42421429D01*
X9538095Y43921429D01*
X10014285Y43921429D01*
X11395238Y43921429D02*
X11585714Y43921429D01*
X11680952Y43850000D01*
X11776190Y43707143D01*
X11823809Y43421429D01*
X11823809Y42921429D01*
X11776190Y42635715D01*
X11680952Y42492858D01*
X11585714Y42421429D01*
X11395238Y42421429D01*
X11300000Y42492858D01*
X11204761Y42635715D01*
X11157142Y42921429D01*
X11157142Y43421429D01*
X11204761Y43707143D01*
X11300000Y43850000D01*
X11395238Y43921429D01*
X12252380Y43921429D02*
X12252380Y42707143D01*
X12300000Y42564286D01*
X12347619Y42492858D01*
X12442857Y42421429D01*
X12633333Y42421429D01*
X12728571Y42492858D01*
X12776190Y42564286D01*
X12823809Y42707143D01*
X12823809Y43921429D01*
X13157142Y43921429D02*
X13728571Y43921429D01*
X13442857Y42421429D02*
X13442857Y43921429D01*
X457142Y17221429D02*
X1028571Y17221429D01*
X742857Y15721429D02*
X742857Y17221429D01*
X1933333Y15721429D02*
X1600000Y16435715D01*
X1361904Y15721429D02*
X1361904Y17221429D01*
X1742857Y17221429D01*
X1838095Y17150000D01*
X1885714Y17078572D01*
X1933333Y16935715D01*
X1933333Y16721429D01*
X1885714Y16578572D01*
X1838095Y16507143D01*
X1742857Y16435715D01*
X1361904Y16435715D01*
X2361904Y15721429D02*
X2361904Y17221429D01*
X2790476Y16150000D02*
X3266666Y16150000D01*
X2695238Y15721429D02*
X3028571Y17221429D01*
X3361904Y15721429D01*
X3695238Y15721429D02*
X3695238Y17221429D01*
X4266666Y15721429D01*
X4266666Y17221429D01*
X5266666Y17150000D02*
X5171428Y17221429D01*
X5028571Y17221429D01*
X4885714Y17150000D01*
X4790476Y17007143D01*
X4742857Y16864286D01*
X4695238Y16578572D01*
X4695238Y16364286D01*
X4742857Y16078572D01*
X4790476Y15935715D01*
X4885714Y15792858D01*
X5028571Y15721429D01*
X5123809Y15721429D01*
X5266666Y15792858D01*
X5314285Y15864286D01*
X5314285Y16364286D01*
X5123809Y16364286D01*
X6219047Y15721429D02*
X5742857Y15721429D01*
X5742857Y17221429D01*
X6552380Y16507143D02*
X6885714Y16507143D01*
X7028571Y15721429D02*
X6552380Y15721429D01*
X6552380Y17221429D01*
X7028571Y17221429D01*
X8409523Y17221429D02*
X8600000Y17221429D01*
X8695238Y17150000D01*
X8790476Y17007143D01*
X8838095Y16721429D01*
X8838095Y16221429D01*
X8790476Y15935715D01*
X8695238Y15792858D01*
X8600000Y15721429D01*
X8409523Y15721429D01*
X8314285Y15792858D01*
X8219047Y15935715D01*
X8171428Y16221429D01*
X8171428Y16721429D01*
X8219047Y17007143D01*
X8314285Y17150000D01*
X8409523Y17221429D01*
X9266666Y17221429D02*
X9266666Y16007143D01*
X9314285Y15864286D01*
X9361904Y15792858D01*
X9457142Y15721429D01*
X9647619Y15721429D01*
X9742857Y15792858D01*
X9790476Y15864286D01*
X9838095Y16007143D01*
X9838095Y17221429D01*
X10171428Y17221429D02*
X10742857Y17221429D01*
X10457142Y15721429D02*
X10457142Y17221429D01*
X17014285Y104521429D02*
X16538095Y104521429D01*
X16538095Y106021429D01*
X17680952Y105307143D02*
X17347619Y105307143D01*
X17347619Y104521429D02*
X17347619Y106021429D01*
X17823809Y106021429D01*
X18395238Y106021429D02*
X18585714Y106021429D01*
X18680952Y105950000D01*
X18776190Y105807143D01*
X18823809Y105521429D01*
X18823809Y105021429D01*
X18776190Y104735715D01*
X18680952Y104592858D01*
X18585714Y104521429D01*
X18395238Y104521429D01*
X18300000Y104592858D01*
X18204761Y104735715D01*
X18157142Y105021429D01*
X18157142Y105521429D01*
X18204761Y105807143D01*
X18300000Y105950000D01*
X18395238Y106021429D01*
X20585714Y104521429D02*
X20252380Y105235715D01*
X20014285Y104521429D02*
X20014285Y106021429D01*
X20395238Y106021429D01*
X20490476Y105950000D01*
X20538095Y105878572D01*
X20585714Y105735715D01*
X20585714Y105521429D01*
X20538095Y105378572D01*
X20490476Y105307143D01*
X20395238Y105235715D01*
X20014285Y105235715D01*
X20966666Y104950000D02*
X21442857Y104950000D01*
X20871428Y104521429D02*
X21204761Y106021429D01*
X21538095Y104521429D01*
X21728571Y106021429D02*
X22300000Y106021429D01*
X22014285Y104521429D02*
X22014285Y106021429D01*
X22633333Y105307143D02*
X22966666Y105307143D01*
X23109523Y104521429D02*
X22633333Y104521429D01*
X22633333Y106021429D01*
X23109523Y106021429D01*
X16380952Y15892858D02*
X16523809Y15821429D01*
X16761904Y15821429D01*
X16857142Y15892858D01*
X16904761Y15964286D01*
X16952380Y16107143D01*
X16952380Y16250000D01*
X16904761Y16392858D01*
X16857142Y16464286D01*
X16761904Y16535715D01*
X16571428Y16607143D01*
X16476190Y16678572D01*
X16428571Y16750000D01*
X16380952Y16892858D01*
X16380952Y17035715D01*
X16428571Y17178572D01*
X16476190Y17250000D01*
X16571428Y17321429D01*
X16809523Y17321429D01*
X16952380Y17250000D01*
X18047619Y15678572D02*
X17952380Y15750000D01*
X17857142Y15892858D01*
X17714285Y16107143D01*
X17619047Y16178572D01*
X17523809Y16178572D01*
X17571428Y15821429D02*
X17476190Y15892858D01*
X17380952Y16035715D01*
X17333333Y16321429D01*
X17333333Y16821429D01*
X17380952Y17107143D01*
X17476190Y17250000D01*
X17571428Y17321429D01*
X17761904Y17321429D01*
X17857142Y17250000D01*
X17952380Y17107143D01*
X18000000Y16821429D01*
X18000000Y16321429D01*
X17952380Y16035715D01*
X17857142Y15892858D01*
X17761904Y15821429D01*
X17571428Y15821429D01*
X19000000Y15821429D02*
X18666666Y16535715D01*
X18428571Y15821429D02*
X18428571Y17321429D01*
X18809523Y17321429D01*
X18904761Y17250000D01*
X18952380Y17178572D01*
X19000000Y17035715D01*
X19000000Y16821429D01*
X18952380Y16678572D01*
X18904761Y16607143D01*
X18809523Y16535715D01*
X18428571Y16535715D01*
X20380952Y17321429D02*
X20571428Y17321429D01*
X20666666Y17250000D01*
X20761904Y17107143D01*
X20809523Y16821429D01*
X20809523Y16321429D01*
X20761904Y16035715D01*
X20666666Y15892858D01*
X20571428Y15821429D01*
X20380952Y15821429D01*
X20285714Y15892858D01*
X20190476Y16035715D01*
X20142857Y16321429D01*
X20142857Y16821429D01*
X20190476Y17107143D01*
X20285714Y17250000D01*
X20380952Y17321429D01*
X21238095Y17321429D02*
X21238095Y16107143D01*
X21285714Y15964286D01*
X21333333Y15892858D01*
X21428571Y15821429D01*
X21619047Y15821429D01*
X21714285Y15892858D01*
X21761904Y15964286D01*
X21809523Y16107143D01*
X21809523Y17321429D01*
X22142857Y17321429D02*
X22714285Y17321429D01*
X22428571Y15821429D02*
X22428571Y17321429D01*
X28261904Y15892858D02*
X28404761Y15821429D01*
X28642857Y15821429D01*
X28738095Y15892858D01*
X28785714Y15964286D01*
X28833333Y16107143D01*
X28833333Y16250000D01*
X28785714Y16392858D01*
X28738095Y16464286D01*
X28642857Y16535715D01*
X28452380Y16607143D01*
X28357142Y16678572D01*
X28309523Y16750000D01*
X28261904Y16892858D01*
X28261904Y17035715D01*
X28309523Y17178572D01*
X28357142Y17250000D01*
X28452380Y17321429D01*
X28690476Y17321429D01*
X28833333Y17250000D01*
X30071428Y15821429D02*
X30023809Y15821429D01*
X29928571Y15892858D01*
X29785714Y16107143D01*
X29547619Y16535715D01*
X29452380Y16750000D01*
X29404761Y16964286D01*
X29404761Y17107143D01*
X29452380Y17250000D01*
X29547619Y17321429D01*
X29595238Y17321429D01*
X29690476Y17250000D01*
X29738095Y17107143D01*
X29738095Y17035715D01*
X29690476Y16892858D01*
X29642857Y16821429D01*
X29357142Y16535715D01*
X29309523Y16464286D01*
X29261904Y16321429D01*
X29261904Y16107143D01*
X29309523Y15964286D01*
X29357142Y15892858D01*
X29452380Y15821429D01*
X29595238Y15821429D01*
X29690476Y15892858D01*
X29738095Y15964286D01*
X29880952Y16250000D01*
X29928571Y16464286D01*
X29928571Y16607143D01*
X30500000Y15821429D02*
X30500000Y17321429D01*
X30500000Y16607143D02*
X31071428Y16607143D01*
X31071428Y15821429D02*
X31071428Y17321429D01*
X32500000Y17321429D02*
X32690476Y17321429D01*
X32785714Y17250000D01*
X32880952Y17107143D01*
X32928571Y16821429D01*
X32928571Y16321429D01*
X32880952Y16035715D01*
X32785714Y15892858D01*
X32690476Y15821429D01*
X32500000Y15821429D01*
X32404761Y15892858D01*
X32309523Y16035715D01*
X32261904Y16321429D01*
X32261904Y16821429D01*
X32309523Y17107143D01*
X32404761Y17250000D01*
X32500000Y17321429D01*
X33357142Y17321429D02*
X33357142Y16107143D01*
X33404761Y15964286D01*
X33452380Y15892858D01*
X33547619Y15821429D01*
X33738095Y15821429D01*
X33833333Y15892858D01*
X33880952Y15964286D01*
X33928571Y16107143D01*
X33928571Y17321429D01*
X34261904Y17321429D02*
X34833333Y17321429D01*
X34547619Y15821429D02*
X34547619Y17321429D01*
X17861904Y28764286D02*
X17814285Y28692858D01*
X17671428Y28621429D01*
X17576190Y28621429D01*
X17433333Y28692858D01*
X17338095Y28835715D01*
X17290476Y28978572D01*
X17242857Y29264286D01*
X17242857Y29478572D01*
X17290476Y29764286D01*
X17338095Y29907143D01*
X17433333Y30050000D01*
X17576190Y30121429D01*
X17671428Y30121429D01*
X17814285Y30050000D01*
X17861904Y29978572D01*
X18766666Y28621429D02*
X18290476Y28621429D01*
X18290476Y30121429D01*
X19100000Y28621429D02*
X19100000Y30121429D01*
X19671428Y28621429D02*
X19242857Y29478572D01*
X19671428Y30121429D02*
X19100000Y29264286D01*
X20861904Y28621429D02*
X20861904Y30121429D01*
X21338095Y28621429D02*
X21338095Y30121429D01*
X21909523Y28621429D01*
X21909523Y30121429D01*
X3638095Y28664286D02*
X3590476Y28592858D01*
X3447619Y28521429D01*
X3352380Y28521429D01*
X3209523Y28592858D01*
X3114285Y28735715D01*
X3066666Y28878572D01*
X3019047Y29164286D01*
X3019047Y29378572D01*
X3066666Y29664286D01*
X3114285Y29807143D01*
X3209523Y29950000D01*
X3352380Y30021429D01*
X3447619Y30021429D01*
X3590476Y29950000D01*
X3638095Y29878572D01*
X3923809Y30021429D02*
X4257142Y28521429D01*
X4590476Y30021429D01*
X5685714Y28521429D02*
X5685714Y30021429D01*
X6161904Y28521429D02*
X6161904Y30021429D01*
X6733333Y28521429D01*
X6733333Y30021429D01*
X9038095Y86292858D02*
X9800000Y86292858D01*
X10800000Y85721429D02*
X10228571Y85721429D01*
X10514285Y85721429D02*
X10514285Y87221429D01*
X10419047Y87007143D01*
X10323809Y86864286D01*
X10228571Y86792858D01*
X11180952Y87078572D02*
X11228571Y87150000D01*
X11323809Y87221429D01*
X11561904Y87221429D01*
X11657142Y87150000D01*
X11704761Y87078572D01*
X11752380Y86935715D01*
X11752380Y86792858D01*
X11704761Y86578572D01*
X11133333Y85721429D01*
X11752380Y85721429D01*
X12038095Y87221429D02*
X12371428Y85721429D01*
X12704761Y87221429D01*
X6385714Y100757143D02*
X7300000Y100757143D01*
X6842857Y99995239D02*
X6842857Y101519048D01*
X8500000Y99995239D02*
X7814285Y99995239D01*
X8157142Y99995239D02*
X8157142Y101995239D01*
X8042857Y101709524D01*
X7928571Y101519048D01*
X7814285Y101423810D01*
X8957142Y101804762D02*
X9014285Y101900000D01*
X9128571Y101995239D01*
X9414285Y101995239D01*
X9528571Y101900000D01*
X9585714Y101804762D01*
X9642857Y101614286D01*
X9642857Y101423810D01*
X9585714Y101138096D01*
X8900000Y99995239D01*
X9642857Y99995239D01*
X9985714Y101995239D02*
X10385714Y99995239D01*
X10785714Y101995239D01*
D11*
X3723809Y84507143D02*
X4057142Y84507143D01*
X4200000Y83721429D02*
X3723809Y83721429D01*
X3723809Y85221429D01*
X4200000Y85221429D01*
X4628571Y83721429D02*
X4628571Y84721429D01*
X4628571Y84435715D02*
X4676190Y84578572D01*
X4723809Y84650000D01*
X4819047Y84721429D01*
X4914285Y84721429D01*
X5247619Y83721429D02*
X5247619Y84721429D01*
X5247619Y85221429D02*
X5200000Y85150000D01*
X5247619Y85078572D01*
X5295238Y85150000D01*
X5247619Y85221429D01*
X5247619Y85078572D01*
X6152380Y83792858D02*
X6057142Y83721429D01*
X5866666Y83721429D01*
X5771428Y83792858D01*
X5723809Y83864286D01*
X5676190Y84007143D01*
X5676190Y84435715D01*
X5723809Y84578572D01*
X5771428Y84650000D01*
X5866666Y84721429D01*
X6057142Y84721429D01*
X6152380Y84650000D01*
X7009523Y83721429D02*
X7009523Y84507143D01*
X6961904Y84650000D01*
X6866666Y84721429D01*
X6676190Y84721429D01*
X6580952Y84650000D01*
X7009523Y83792858D02*
X6914285Y83721429D01*
X6676190Y83721429D01*
X6580952Y83792858D01*
X6533333Y83935715D01*
X6533333Y84078572D01*
X6580952Y84221429D01*
X6676190Y84292858D01*
X6914285Y84292858D01*
X7009523Y84364286D01*
X8200000Y83792858D02*
X8342857Y83721429D01*
X8580952Y83721429D01*
X8676190Y83792858D01*
X8723809Y83864286D01*
X8771428Y84007143D01*
X8771428Y84150000D01*
X8723809Y84292858D01*
X8676190Y84364286D01*
X8580952Y84435715D01*
X8390476Y84507143D01*
X8295238Y84578572D01*
X8247619Y84650000D01*
X8200000Y84792858D01*
X8200000Y84935715D01*
X8247619Y85078572D01*
X8295238Y85150000D01*
X8390476Y85221429D01*
X8628571Y85221429D01*
X8771428Y85150000D01*
X9104761Y84721429D02*
X9342857Y83721429D01*
X9580952Y84721429D02*
X9342857Y83721429D01*
X9247619Y83364286D01*
X9200000Y83292858D01*
X9104761Y83221429D01*
X9961904Y84721429D02*
X9961904Y83721429D01*
X9961904Y84578572D02*
X10009523Y84650000D01*
X10104761Y84721429D01*
X10247619Y84721429D01*
X10342857Y84650000D01*
X10390476Y84507143D01*
X10390476Y83721429D01*
X10723809Y84721429D02*
X11104761Y84721429D01*
X10866666Y85221429D02*
X10866666Y83935715D01*
X10914285Y83792858D01*
X11009523Y83721429D01*
X11104761Y83721429D01*
X11438095Y83721429D02*
X11438095Y85221429D01*
X11866666Y83721429D02*
X11866666Y84507143D01*
X11819047Y84650000D01*
X11723809Y84721429D01*
X11580952Y84721429D01*
X11485714Y84650000D01*
X11438095Y84578572D01*
X12295238Y83792858D02*
X12390476Y83721429D01*
X12580952Y83721429D01*
X12676190Y83792858D01*
X12723809Y83935715D01*
X12723809Y84007143D01*
X12676190Y84150000D01*
X12580952Y84221429D01*
X12438095Y84221429D01*
X12342857Y84292858D01*
X12295238Y84435715D01*
X12295238Y84507143D01*
X12342857Y84650000D01*
X12438095Y84721429D01*
X12580952Y84721429D01*
X12676190Y84650000D01*
D10*
X10670000Y41652500D02*
X10670000Y39747500D01*
X10987500Y41652500D02*
X10987500Y39747500D01*
X7177500Y40700000D02*
X6500000Y40700000D01*
X11622500Y40700000D02*
X12300000Y40700000D01*
X7177500Y41652500D02*
X11622500Y41652500D01*
X11622500Y41652500D02*
X11622500Y39747500D01*
X11622500Y39747500D02*
X7177500Y39747500D01*
X7177500Y39747500D02*
X7177500Y41652500D01*
X19452500Y21030000D02*
X17547500Y21030000D01*
X19452500Y20712500D02*
X17547500Y20712500D01*
X18500000Y24522500D02*
X18500000Y25200000D01*
X18500000Y20077500D02*
X18500000Y19400000D01*
X19452500Y24522500D02*
X19452500Y20077500D01*
X19452500Y20077500D02*
X17547500Y20077500D01*
X17547500Y20077500D02*
X17547500Y24522500D01*
X17547500Y24522500D02*
X19452500Y24522500D01*
X6852500Y21030000D02*
X4947500Y21030000D01*
X6852500Y20712500D02*
X4947500Y20712500D01*
X5900000Y24522500D02*
X5900000Y25200000D01*
X5900000Y20077500D02*
X5900000Y19400000D01*
X6852500Y24522500D02*
X6852500Y20077500D01*
X6852500Y20077500D02*
X4947500Y20077500D01*
X4947500Y20077500D02*
X4947500Y24522500D01*
X4947500Y24522500D02*
X6852500Y24522500D01*
X18611000Y34301000D02*
X14801000Y34301000D01*
X14801000Y34301000D02*
X14801000Y45223000D01*
X14801000Y45223000D02*
X24199000Y45223000D01*
X24199000Y45223000D02*
X24199000Y34301000D01*
X24199000Y34301000D02*
X20389000Y34301000D01*
X11111000Y19301000D02*
X7301000Y19301000D01*
X7301000Y19301000D02*
X7301000Y30223000D01*
X7301000Y30223000D02*
X16699000Y30223000D01*
X16699000Y30223000D02*
X16699000Y19301000D01*
X16699000Y19301000D02*
X12889000Y19301000D01*
X26111000Y19301000D02*
X22301000Y19301000D01*
X22301000Y19301000D02*
X22301000Y30223000D01*
X22301000Y30223000D02*
X31699000Y30223000D01*
X31699000Y30223000D02*
X31699000Y19301000D01*
X31699000Y19301000D02*
X27889000Y19301000D01*
X5611000Y4301000D02*
X1801000Y4301000D01*
X1801000Y4301000D02*
X1801000Y15223000D01*
X1801000Y15223000D02*
X11199000Y15223000D01*
X11199000Y15223000D02*
X11199000Y4301000D01*
X11199000Y4301000D02*
X7389000Y4301000D01*
X37600000Y103200000D02*
X37600000Y101700000D01*
X37600000Y103600000D02*
X37600000Y105100000D01*
X37000000Y103600000D02*
X38200000Y103600000D01*
X37000000Y103200000D02*
X38200000Y103200000D01*
X36700000Y100100000D02*
X36700000Y106700000D01*
X36700000Y106700000D02*
X38500000Y106700000D01*
X38500000Y106700000D02*
X38500000Y100100000D01*
X38500000Y100100000D02*
X36700000Y100100000D01*
X34800000Y87600000D02*
X33300000Y87600000D01*
X35200000Y87600000D02*
X36700000Y87600000D01*
X35200000Y88200000D02*
X35200000Y87000000D01*
X34800000Y88200000D02*
X34800000Y87000000D01*
X31700000Y88500000D02*
X38300000Y88500000D01*
X38300000Y88500000D02*
X38300000Y86700000D01*
X38300000Y86700000D02*
X31700000Y86700000D01*
X31700000Y86700000D02*
X31700000Y88500000D01*
X7400000Y61400000D02*
X7400000Y62900000D01*
X7400000Y61000000D02*
X7400000Y59500000D01*
X8000000Y61000000D02*
X6800000Y61000000D01*
X8000000Y61400000D02*
X6800000Y61400000D01*
X8300000Y64500000D02*
X8300000Y57900000D01*
X8300000Y57900000D02*
X6500000Y57900000D01*
X6500000Y57900000D02*
X6500000Y64500000D01*
X6500000Y64500000D02*
X8300000Y64500000D01*
X23200000Y66200000D02*
X24700000Y66200000D01*
X22800000Y66200000D02*
X21300000Y66200000D01*
X22800000Y65600000D02*
X22800000Y66800000D01*
X23200000Y65600000D02*
X23200000Y66800000D01*
X26300000Y65300000D02*
X19700000Y65300000D01*
X19700000Y65300000D02*
X19700000Y67100000D01*
X19700000Y67100000D02*
X26300000Y67100000D01*
X26300000Y67100000D02*
X26300000Y65300000D01*
X27300000Y83100000D02*
X27300000Y81600000D01*
X27300000Y83500000D02*
X27300000Y85000000D01*
X26700000Y83500000D02*
X27900000Y83500000D01*
X26700000Y83100000D02*
X27900000Y83100000D01*
X26400000Y80000000D02*
X26400000Y86600000D01*
X26400000Y86600000D02*
X28200000Y86600000D01*
X28200000Y86600000D02*
X28200000Y80000000D01*
X28200000Y80000000D02*
X26400000Y80000000D01*
X32600000Y71600000D02*
X31100000Y71600000D01*
X33000000Y71600000D02*
X34500000Y71600000D01*
X33000000Y72200000D02*
X33000000Y71000000D01*
X32600000Y72200000D02*
X32600000Y71000000D01*
X29500000Y72500000D02*
X36100000Y72500000D01*
X36100000Y72500000D02*
X36100000Y70700000D01*
X36100000Y70700000D02*
X29500000Y70700000D01*
X29500000Y70700000D02*
X29500000Y72500000D01*
X27600000Y42900000D02*
X26100000Y42900000D01*
X28000000Y42900000D02*
X29500000Y42900000D01*
X28000000Y43500000D02*
X28000000Y42300000D01*
X27600000Y43500000D02*
X27600000Y42300000D01*
X24500000Y43800000D02*
X31100000Y43800000D01*
X31100000Y43800000D02*
X31100000Y42000000D01*
X31100000Y42000000D02*
X24500000Y42000000D01*
X24500000Y42000000D02*
X24500000Y43800000D01*
X37700000Y47800000D02*
X37700000Y46300000D01*
X37700000Y48200000D02*
X37700000Y49700000D01*
X37100000Y48200000D02*
X38300000Y48200000D01*
X37100000Y47800000D02*
X38300000Y47800000D01*
X36800000Y44700000D02*
X36800000Y51300000D01*
X36800000Y51300000D02*
X38600000Y51300000D01*
X38600000Y51300000D02*
X38600000Y44700000D01*
X38600000Y44700000D02*
X36800000Y44700000D01*
X29700000Y66200000D02*
X28200000Y66200000D01*
X30100000Y66200000D02*
X31600000Y66200000D01*
X30100000Y66800000D02*
X30100000Y65600000D01*
X29700000Y66800000D02*
X29700000Y65600000D01*
X26600000Y67100000D02*
X33200000Y67100000D01*
X33200000Y67100000D02*
X33200000Y65300000D01*
X33200000Y65300000D02*
X26600000Y65300000D01*
X26600000Y65300000D02*
X26600000Y67100000D01*
X35200000Y85600000D02*
X36700000Y85600000D01*
X34800000Y85600000D02*
X33300000Y85600000D01*
X34800000Y85000000D02*
X34800000Y86200000D01*
X35200000Y85000000D02*
X35200000Y86200000D01*
X38300000Y84700000D02*
X31700000Y84700000D01*
X31700000Y84700000D02*
X31700000Y86500000D01*
X31700000Y86500000D02*
X38300000Y86500000D01*
X38300000Y86500000D02*
X38300000Y84700000D01*
X29351407Y77035390D02*
G75*
G03X29350000Y77950000I4748593J464610D01*
G01*
X29337500Y77944500D02*
X28194500Y77944500D01*
X28194500Y77944500D02*
X28194500Y77055500D01*
X28194500Y77055500D02*
X29337500Y77055500D01*
X26063000Y100603000D02*
X27333000Y100603000D01*
X27333000Y100603000D02*
X27333000Y100857000D01*
X27333000Y100857000D02*
X32667000Y100857000D01*
X32667000Y100857000D02*
X32667000Y100603000D01*
X32667000Y100603000D02*
X33937000Y100603000D01*
X33937000Y100603000D02*
X33937000Y101492000D01*
X26063000Y101492000D02*
X26063000Y100603000D01*
X26063000Y103397000D02*
X26063000Y102508000D01*
X26063000Y103397000D02*
X27333000Y103397000D01*
X27333000Y103397000D02*
X27333000Y103143000D01*
X27333000Y103143000D02*
X32667000Y103143000D01*
X32667000Y103143000D02*
X32667000Y103397000D01*
X32667000Y103397000D02*
X33937000Y103397000D01*
X33937000Y103397000D02*
X33937000Y102508000D01*
X28163000Y88703000D02*
X29433000Y88703000D01*
X29433000Y88703000D02*
X29433000Y88957000D01*
X29433000Y88957000D02*
X34767000Y88957000D01*
X34767000Y88957000D02*
X34767000Y88703000D01*
X34767000Y88703000D02*
X36037000Y88703000D01*
X36037000Y88703000D02*
X36037000Y89592000D01*
X28163000Y89592000D02*
X28163000Y88703000D01*
X28163000Y91497000D02*
X28163000Y90608000D01*
X28163000Y91497000D02*
X29433000Y91497000D01*
X29433000Y91497000D02*
X29433000Y91243000D01*
X29433000Y91243000D02*
X34767000Y91243000D01*
X34767000Y91243000D02*
X34767000Y91497000D01*
X34767000Y91497000D02*
X36037000Y91497000D01*
X36037000Y91497000D02*
X36037000Y90608000D01*
X1900000Y63400000D02*
X1900000Y64200000D01*
X1900000Y57400000D02*
X1900000Y56600000D01*
X500000Y63400000D02*
X3300000Y63400000D01*
X3300000Y63400000D02*
X3300000Y57400000D01*
X3300000Y57400000D02*
X500000Y57400000D01*
X500000Y57400000D02*
X500000Y63400000D01*
X4900000Y57400000D02*
X4900000Y56600000D01*
X4900000Y63400000D02*
X4900000Y64200000D01*
X6300000Y57400000D02*
X3500000Y57400000D01*
X3500000Y57400000D02*
X3500000Y63400000D01*
X3500000Y63400000D02*
X6300000Y63400000D01*
X6300000Y63400000D02*
X6300000Y57400000D01*
X4900000Y76000000D02*
X4900000Y76800000D01*
X4900000Y70000000D02*
X4900000Y69200000D01*
X3500000Y76000000D02*
X6300000Y76000000D01*
X6300000Y76000000D02*
X6300000Y70000000D01*
X6300000Y70000000D02*
X3500000Y70000000D01*
X3500000Y70000000D02*
X3500000Y76000000D01*
X1900000Y70000000D02*
X1900000Y69200000D01*
X1900000Y76000000D02*
X1900000Y76800000D01*
X3300000Y70000000D02*
X500000Y70000000D01*
X500000Y70000000D02*
X500000Y76000000D01*
X500000Y76000000D02*
X3300000Y76000000D01*
X3300000Y76000000D02*
X3300000Y70000000D01*
X22300000Y81500000D02*
X23100000Y81500000D01*
X16300000Y81500000D02*
X15500000Y81500000D01*
X22300000Y82900000D02*
X22300000Y80100000D01*
X22300000Y80100000D02*
X16300000Y80100000D01*
X16300000Y80100000D02*
X16300000Y82900000D01*
X16300000Y82900000D02*
X22300000Y82900000D01*
X17800000Y48100000D02*
X17000000Y48100000D01*
X23800000Y48100000D02*
X24600000Y48100000D01*
X17800000Y46700000D02*
X17800000Y49500000D01*
X17800000Y49500000D02*
X23800000Y49500000D01*
X23800000Y49500000D02*
X23800000Y46700000D01*
X23800000Y46700000D02*
X17800000Y46700000D01*
X9700000Y55500000D02*
X8900000Y55500000D01*
X15700000Y55500000D02*
X16500000Y55500000D01*
X9700000Y54100000D02*
X9700000Y56900000D01*
X9700000Y56900000D02*
X15700000Y56900000D01*
X15700000Y56900000D02*
X15700000Y54100000D01*
X15700000Y54100000D02*
X9700000Y54100000D01*
X5500000Y52400000D02*
X4700000Y52400000D01*
X11500000Y52400000D02*
X12300000Y52400000D01*
X5500000Y51000000D02*
X5500000Y53800000D01*
X5500000Y53800000D02*
X11500000Y53800000D01*
X11500000Y53800000D02*
X11500000Y51000000D01*
X11500000Y51000000D02*
X5500000Y51000000D01*
X3900000Y81500000D02*
X3100000Y81500000D01*
X9900000Y81500000D02*
X10700000Y81500000D01*
X3900000Y80100000D02*
X3900000Y82900000D01*
X3900000Y82900000D02*
X9900000Y82900000D01*
X9900000Y82900000D02*
X9900000Y80100000D01*
X9900000Y80100000D02*
X3900000Y80100000D01*
X5500000Y49300000D02*
X4700000Y49300000D01*
X11500000Y49300000D02*
X12300000Y49300000D01*
X5500000Y47900000D02*
X5500000Y50700000D01*
X5500000Y50700000D02*
X11500000Y50700000D01*
X11500000Y50700000D02*
X11500000Y47900000D01*
X11500000Y47900000D02*
X5500000Y47900000D01*
X2000000Y102300000D02*
X2000000Y103100000D01*
X2000000Y96300000D02*
X2000000Y95500000D01*
X600000Y102300000D02*
X3400000Y102300000D01*
X3400000Y102300000D02*
X3400000Y96300000D01*
X3400000Y96300000D02*
X600000Y96300000D01*
X600000Y96300000D02*
X600000Y102300000D01*
X36300000Y26900000D02*
X36300000Y27700000D01*
X36300000Y20900000D02*
X36300000Y20100000D01*
X34900000Y26900000D02*
X37700000Y26900000D01*
X37700000Y26900000D02*
X37700000Y20900000D01*
X37700000Y20900000D02*
X34900000Y20900000D01*
X34900000Y20900000D02*
X34900000Y26900000D01*
X26000000Y31900000D02*
X25200000Y31900000D01*
X32000000Y31900000D02*
X32800000Y31900000D01*
X26000000Y30500000D02*
X26000000Y33300000D01*
X26000000Y33300000D02*
X32000000Y33300000D01*
X32000000Y33300000D02*
X32000000Y30500000D01*
X32000000Y30500000D02*
X26000000Y30500000D01*
X25800000Y6700000D02*
X25800000Y5900000D01*
X25800000Y12700000D02*
X25800000Y13500000D01*
X27200000Y6700000D02*
X24400000Y6700000D01*
X24400000Y6700000D02*
X24400000Y12700000D01*
X24400000Y12700000D02*
X27200000Y12700000D01*
X27200000Y12700000D02*
X27200000Y6700000D01*
X13000000Y6500000D02*
X13000000Y5700000D01*
X13000000Y12500000D02*
X13000000Y13300000D01*
X14400000Y6500000D02*
X11600000Y6500000D01*
X11600000Y6500000D02*
X11600000Y12500000D01*
X11600000Y12500000D02*
X14400000Y12500000D01*
X14400000Y12500000D02*
X14400000Y6500000D01*
X33500000Y45400000D02*
X34300000Y45400000D01*
X27500000Y45400000D02*
X26700000Y45400000D01*
X33500000Y46800000D02*
X33500000Y44000000D01*
X33500000Y44000000D02*
X27500000Y44000000D01*
X27500000Y44000000D02*
X27500000Y46800000D01*
X27500000Y46800000D02*
X33500000Y46800000D01*
X8700000Y31900000D02*
X7900000Y31900000D01*
X14700000Y31900000D02*
X15500000Y31900000D01*
X8700000Y30500000D02*
X8700000Y33300000D01*
X8700000Y33300000D02*
X14700000Y33300000D01*
X14700000Y33300000D02*
X14700000Y30500000D01*
X14700000Y30500000D02*
X8700000Y30500000D01*
X26800000Y62100000D02*
X26800000Y62900000D01*
X26800000Y56100000D02*
X26800000Y55300000D01*
X25400000Y62100000D02*
X28200000Y62100000D01*
X28200000Y62100000D02*
X28200000Y56100000D01*
X28200000Y56100000D02*
X25400000Y56100000D01*
X25400000Y56100000D02*
X25400000Y62100000D01*
X32800000Y62100000D02*
X32800000Y62900000D01*
X32800000Y56100000D02*
X32800000Y55300000D01*
X31400000Y62100000D02*
X34200000Y62100000D01*
X34200000Y62100000D02*
X34200000Y56100000D01*
X34200000Y56100000D02*
X31400000Y56100000D01*
X31400000Y56100000D02*
X31400000Y62100000D01*
X20800000Y56100000D02*
X20800000Y55300000D01*
X20800000Y62100000D02*
X20800000Y62900000D01*
X22200000Y56100000D02*
X19400000Y56100000D01*
X19400000Y56100000D02*
X19400000Y62100000D01*
X19400000Y62100000D02*
X22200000Y62100000D01*
X22200000Y62100000D02*
X22200000Y56100000D01*
X23800000Y62100000D02*
X23800000Y62900000D01*
X23800000Y56100000D02*
X23800000Y55300000D01*
X22400000Y62100000D02*
X25200000Y62100000D01*
X25200000Y62100000D02*
X25200000Y56100000D01*
X25200000Y56100000D02*
X22400000Y56100000D01*
X22400000Y56100000D02*
X22400000Y62100000D01*
X29800000Y56100000D02*
X29800000Y55300000D01*
X29800000Y62100000D02*
X29800000Y62900000D01*
X31200000Y56100000D02*
X28400000Y56100000D01*
X28400000Y56100000D02*
X28400000Y62100000D01*
X28400000Y62100000D02*
X31200000Y62100000D01*
X31200000Y62100000D02*
X31200000Y56100000D01*
X23800000Y70400000D02*
X23800000Y69600000D01*
X23800000Y76400000D02*
X23800000Y77200000D01*
X25200000Y70400000D02*
X22400000Y70400000D01*
X22400000Y70400000D02*
X22400000Y76400000D01*
X22400000Y76400000D02*
X25200000Y76400000D01*
X25200000Y76400000D02*
X25200000Y70400000D01*
X20800000Y76400000D02*
X20800000Y77200000D01*
X20800000Y70400000D02*
X20800000Y69600000D01*
X19400000Y76400000D02*
X22200000Y76400000D01*
X22200000Y76400000D02*
X22200000Y70400000D01*
X22200000Y70400000D02*
X19400000Y70400000D01*
X19400000Y70400000D02*
X19400000Y76400000D01*
X26800000Y76400000D02*
X26800000Y77200000D01*
X26800000Y70400000D02*
X26800000Y69600000D01*
X25400000Y76400000D02*
X28200000Y76400000D01*
X28200000Y76400000D02*
X28200000Y70400000D01*
X28200000Y70400000D02*
X25400000Y70400000D01*
X25400000Y70400000D02*
X25400000Y76400000D01*
X11500000Y46000000D02*
X12300000Y46000000D01*
X5500000Y46000000D02*
X4700000Y46000000D01*
X11500000Y47400000D02*
X11500000Y44600000D01*
X11500000Y44600000D02*
X5500000Y44600000D01*
X5500000Y44600000D02*
X5500000Y47400000D01*
X5500000Y47400000D02*
X11500000Y47400000D01*
X33300000Y20800000D02*
X33300000Y20000000D01*
X33300000Y26800000D02*
X33300000Y27600000D01*
X34700000Y20800000D02*
X31900000Y20800000D01*
X31900000Y20800000D02*
X31900000Y26800000D01*
X31900000Y26800000D02*
X34700000Y26800000D01*
X34700000Y26800000D02*
X34700000Y20800000D01*
X8452500Y68630000D02*
X6547500Y68630000D01*
X8452500Y68312500D02*
X6547500Y68312500D01*
X7500000Y72122500D02*
X7500000Y72800000D01*
X7500000Y67677500D02*
X7500000Y67000000D01*
X8452500Y72122500D02*
X8452500Y67677500D01*
X8452500Y67677500D02*
X6547500Y67677500D01*
X6547500Y67677500D02*
X6547500Y72122500D01*
X6547500Y72122500D02*
X8452500Y72122500D01*
X20870000Y51652500D02*
X20870000Y49747500D01*
X21187500Y51652500D02*
X21187500Y49747500D01*
X17377500Y50700000D02*
X16700000Y50700000D01*
X21822500Y50700000D02*
X22500000Y50700000D01*
X17377500Y51652500D02*
X21822500Y51652500D01*
X21822500Y51652500D02*
X21822500Y49747500D01*
X21822500Y49747500D02*
X17377500Y49747500D01*
X17377500Y49747500D02*
X17377500Y51652500D01*
X2647500Y23570000D02*
X4552500Y23570000D01*
X2647500Y23887500D02*
X4552500Y23887500D01*
X3600000Y20077500D02*
X3600000Y19400000D01*
X3600000Y24522500D02*
X3600000Y25200000D01*
X2647500Y20077500D02*
X2647500Y24522500D01*
X2647500Y24522500D02*
X4552500Y24522500D01*
X4552500Y24522500D02*
X4552500Y20077500D01*
X4552500Y20077500D02*
X2647500Y20077500D01*
X19947500Y23570000D02*
X21852500Y23570000D01*
X19947500Y23887500D02*
X21852500Y23887500D01*
X20900000Y20077500D02*
X20900000Y19400000D01*
X20900000Y24522500D02*
X20900000Y25200000D01*
X19947500Y20077500D02*
X19947500Y24522500D01*
X19947500Y24522500D02*
X21852500Y24522500D01*
X21852500Y24522500D02*
X21852500Y20077500D01*
X21852500Y20077500D02*
X19947500Y20077500D01*
X27830000Y37747500D02*
X27830000Y39652500D01*
X27512500Y37747500D02*
X27512500Y39652500D01*
X31322500Y38700000D02*
X32000000Y38700000D01*
X26877500Y38700000D02*
X26200000Y38700000D01*
X31322500Y37747500D02*
X26877500Y37747500D01*
X26877500Y37747500D02*
X26877500Y39652500D01*
X26877500Y39652500D02*
X31322500Y39652500D01*
X31322500Y39652500D02*
X31322500Y37747500D01*
X30370000Y41752500D02*
X30370000Y39847500D01*
X30687500Y41752500D02*
X30687500Y39847500D01*
X26877500Y40800000D02*
X26200000Y40800000D01*
X31322500Y40800000D02*
X32000000Y40800000D01*
X26877500Y41752500D02*
X31322500Y41752500D01*
X31322500Y41752500D02*
X31322500Y39847500D01*
X31322500Y39847500D02*
X26877500Y39847500D01*
X26877500Y39847500D02*
X26877500Y41752500D01*
X34347500Y39370000D02*
X36252500Y39370000D01*
X34347500Y39687500D02*
X36252500Y39687500D01*
X35300000Y35877500D02*
X35300000Y35200000D01*
X35300000Y40322500D02*
X35300000Y41000000D01*
X34347500Y35877500D02*
X34347500Y40322500D01*
X34347500Y40322500D02*
X36252500Y40322500D01*
X36252500Y40322500D02*
X36252500Y35877500D01*
X36252500Y35877500D02*
X34347500Y35877500D01*
X8130000Y35547500D02*
X8130000Y37452500D01*
X7812500Y35547500D02*
X7812500Y37452500D01*
X11622500Y36500000D02*
X12300000Y36500000D01*
X7177500Y36500000D02*
X6500000Y36500000D01*
X11622500Y35547500D02*
X7177500Y35547500D01*
X7177500Y35547500D02*
X7177500Y37452500D01*
X7177500Y37452500D02*
X11622500Y37452500D01*
X11622500Y37452500D02*
X11622500Y35547500D01*
X10670000Y35352500D02*
X10670000Y33447500D01*
X10987500Y35352500D02*
X10987500Y33447500D01*
X7177500Y34400000D02*
X6500000Y34400000D01*
X11622500Y34400000D02*
X12300000Y34400000D01*
X7177500Y35352500D02*
X11622500Y35352500D01*
X11622500Y35352500D02*
X11622500Y33447500D01*
X11622500Y33447500D02*
X7177500Y33447500D01*
X7177500Y33447500D02*
X7177500Y35352500D01*
X27830000Y35647500D02*
X27830000Y37552500D01*
X27512500Y35647500D02*
X27512500Y37552500D01*
X31322500Y36600000D02*
X32000000Y36600000D01*
X26877500Y36600000D02*
X26200000Y36600000D01*
X31322500Y35647500D02*
X26877500Y35647500D01*
X26877500Y35647500D02*
X26877500Y37552500D01*
X26877500Y37552500D02*
X31322500Y37552500D01*
X31322500Y37552500D02*
X31322500Y35647500D01*
X8130000Y37647500D02*
X8130000Y39552500D01*
X7812500Y37647500D02*
X7812500Y39552500D01*
X11622500Y38600000D02*
X12300000Y38600000D01*
X7177500Y38600000D02*
X6500000Y38600000D01*
X11622500Y37647500D02*
X7177500Y37647500D01*
X7177500Y37647500D02*
X7177500Y39552500D01*
X7177500Y39552500D02*
X11622500Y39552500D01*
X11622500Y39552500D02*
X11622500Y37647500D01*
X30370000Y35452500D02*
X30370000Y33547500D01*
X30687500Y35452500D02*
X30687500Y33547500D01*
X26877500Y34500000D02*
X26200000Y34500000D01*
X31322500Y34500000D02*
X32000000Y34500000D01*
X26877500Y35452500D02*
X31322500Y35452500D01*
X31322500Y35452500D02*
X31322500Y33547500D01*
X31322500Y33547500D02*
X26877500Y33547500D01*
X26877500Y33547500D02*
X26877500Y35452500D01*
X21846500Y103987500D02*
X14353500Y103987500D01*
X14353500Y103987500D02*
X14353500Y100812500D01*
X14353500Y100812500D02*
X21846500Y100812500D01*
X21846500Y100812500D02*
X21846500Y103987500D01*
X21046500Y86787500D02*
X13553500Y86787500D01*
X13553500Y86787500D02*
X13553500Y83612500D01*
X13553500Y83612500D02*
X21046500Y83612500D01*
X21046500Y83612500D02*
X21046500Y86787500D01*
X3670000Y88695000D02*
X3670000Y92505000D01*
X3673983Y92502339D02*
G75*
G03X3670000Y88695000I-1273983J-1902339D01*
G01*
X27595000Y47030000D02*
X31405000Y47030000D01*
X31402339Y47026017D02*
G75*
G03X27595000Y47030000I-1902339J1273983D01*
G01*
X18611000Y4301000D02*
X14801000Y4301000D01*
X14801000Y4301000D02*
X14801000Y15223000D01*
X14801000Y15223000D02*
X24199000Y15223000D01*
X24199000Y15223000D02*
X24199000Y4301000D01*
X24199000Y4301000D02*
X20389000Y4301000D01*
X31611000Y4301000D02*
X27801000Y4301000D01*
X27801000Y4301000D02*
X27801000Y15223000D01*
X27801000Y15223000D02*
X37199000Y15223000D01*
X37199000Y15223000D02*
X37199000Y4301000D01*
X37199000Y4301000D02*
X33389000Y4301000D01*
X24453000Y93349000D02*
X24453000Y88269000D01*
X24453000Y88269000D02*
X23056000Y88269000D01*
X14547000Y93349000D02*
X14547000Y88269000D01*
X14547000Y88269000D02*
X15944000Y88269000D01*
X14547000Y96651000D02*
X14547000Y100080000D01*
X14547000Y100080000D02*
X24453000Y100080000D01*
X24453000Y100080000D02*
X24453000Y96651000D01*
X5005100Y104481876D02*
G75*
G03X8180000Y104830000I1494900J1018124D01*
G01*
X8167827Y106184364D02*
G75*
G03X5000000Y106500000I-1667827J-684364D01*
G01*
X5000000Y104500000D02*
X5000000Y104850000D01*
X5000000Y106500000D02*
X5000000Y106150000D01*
X13201500Y75117000D02*
X9328000Y75117000D01*
X9328000Y75117000D02*
X8693000Y74482000D01*
X8693000Y74482000D02*
X8693000Y57083000D01*
X14598500Y75117000D02*
X19107000Y75117000D01*
X13201500Y75117000D02*
G75*
G03X13900000Y74418500I698500J0D01*
G01*
X13900000Y74418500D02*
G75*
G03X14598500Y75117000I0J698500D01*
G01*
X19107000Y57083000D02*
X8693000Y57083000D01*
X19107000Y57083000D02*
X19107000Y75117000D01*
X27333000Y105408000D02*
X27333000Y106297000D01*
X27333000Y103503000D02*
X27333000Y104392000D01*
X32667000Y105408000D02*
X32667000Y106297000D01*
X32667000Y103503000D02*
X32667000Y104392000D01*
X28222000Y103503000D02*
X28222000Y106297000D01*
X27968000Y103503000D02*
X27968000Y106297000D01*
X32667000Y103503000D02*
X27333000Y103503000D01*
X27333000Y106297000D02*
X32667000Y106297000D01*
X34767000Y92592000D02*
X34767000Y91703000D01*
X34767000Y94497000D02*
X34767000Y93608000D01*
X29433000Y92592000D02*
X29433000Y91703000D01*
X29433000Y94497000D02*
X29433000Y93608000D01*
X33878000Y94497000D02*
X33878000Y91703000D01*
X34132000Y94497000D02*
X34132000Y91703000D01*
X29433000Y94497000D02*
X34767000Y94497000D01*
X34767000Y91703000D02*
X29433000Y91703000D01*
D11*
X8450000Y76200000D02*
G75*
G03X8450000Y76200000I-950000J0D01*
G01*
X10650000Y76300000D02*
G75*
G03X10650000Y76300000I-950000J0D01*
G01*
X34550000Y48100000D02*
G75*
G03X34550000Y48100000I-950000J0D01*
G01*
X33550000Y83300000D02*
G75*
G03X33550000Y83300000I-950000J0D01*
G01*
X30350000Y73800000D02*
G75*
G03X30350000Y73800000I-950000J0D01*
G01*
X30850000Y68400000D02*
G75*
G03X30850000Y68400000I-950000J0D01*
G01*
X38650000Y82000000D02*
G75*
G03X38650000Y82000000I-950000J0D01*
G01*
D13*
X30000000Y84700000D02*
X30000000Y85100000D01*
X31400000Y83300000D02*
G75*
G03X31400000Y83300000I-1400000J0D01*
G01*
D10*
X35800000Y62100000D02*
X35800000Y62900000D01*
X35800000Y56100000D02*
X35800000Y55300000D01*
X34400000Y62100000D02*
X37200000Y62100000D01*
X37200000Y62100000D02*
X37200000Y56100000D01*
X37200000Y56100000D02*
X34400000Y56100000D01*
X34400000Y56100000D02*
X34400000Y62100000D01*
X4116666Y37700000D02*
X4116666Y37300000D01*
X4116666Y37500000D02*
X3416666Y37500000D01*
X3516666Y37433334D01*
X3583333Y37366667D01*
X3616666Y37300000D01*
X4116666Y38000000D02*
X3416666Y38000000D01*
X4116666Y38400000D01*
X3416666Y38400000D01*
X3650000Y39033334D02*
X4116666Y39033334D01*
X3383333Y38866667D02*
X3883333Y38700000D01*
X3883333Y39133334D01*
X4116666Y39766667D02*
X4116666Y39366667D01*
X4116666Y39566667D02*
X3416666Y39566667D01*
X3516666Y39500000D01*
X3583333Y39433334D01*
X3616666Y39366667D01*
X3650000Y40366667D02*
X4116666Y40366667D01*
X3383333Y40200000D02*
X3883333Y40033334D01*
X3883333Y40466667D01*
X3716666Y40833334D02*
X3683333Y40766667D01*
X3650000Y40733334D01*
X3583333Y40700000D01*
X3550000Y40700000D01*
X3483333Y40733334D01*
X3450000Y40766667D01*
X3416666Y40833334D01*
X3416666Y40966667D01*
X3450000Y41033334D01*
X3483333Y41066667D01*
X3550000Y41100000D01*
X3583333Y41100000D01*
X3650000Y41066667D01*
X3683333Y41033334D01*
X3716666Y40966667D01*
X3716666Y40833334D01*
X3750000Y40766667D01*
X3783333Y40733334D01*
X3850000Y40700000D01*
X3983333Y40700000D01*
X4050000Y40733334D01*
X4083333Y40766667D01*
X4116666Y40833334D01*
X4116666Y40966667D01*
X4083333Y41033334D01*
X4050000Y41066667D01*
X3983333Y41100000D01*
X3850000Y41100000D01*
X3783333Y41066667D01*
X3750000Y41033334D01*
X3716666Y40966667D01*
X7750000Y41083334D02*
X7983333Y40383334D01*
X8216666Y41083334D01*
X8450000Y40383334D02*
X8450000Y41083334D01*
X8616666Y41083334D01*
X8716666Y41050000D01*
X8783333Y40983334D01*
X8816666Y40916667D01*
X8850000Y40783334D01*
X8850000Y40683334D01*
X8816666Y40550000D01*
X8783333Y40483334D01*
X8716666Y40416667D01*
X8616666Y40383334D01*
X8450000Y40383334D01*
X9516666Y40383334D02*
X9116666Y40383334D01*
X9316666Y40383334D02*
X9316666Y41083334D01*
X9250000Y40983334D01*
X9183333Y40916667D01*
X9116666Y40883334D01*
X9916666Y40783334D02*
X9850000Y40816667D01*
X9816666Y40850000D01*
X9783333Y40916667D01*
X9783333Y40950000D01*
X9816666Y41016667D01*
X9850000Y41050000D01*
X9916666Y41083334D01*
X10050000Y41083334D01*
X10116666Y41050000D01*
X10150000Y41016667D01*
X10183333Y40950000D01*
X10183333Y40916667D01*
X10150000Y40850000D01*
X10116666Y40816667D01*
X10050000Y40783334D01*
X9916666Y40783334D01*
X9850000Y40750000D01*
X9816666Y40716667D01*
X9783333Y40650000D01*
X9783333Y40516667D01*
X9816666Y40450000D01*
X9850000Y40416667D01*
X9916666Y40383334D01*
X10050000Y40383334D01*
X10116666Y40416667D01*
X10150000Y40450000D01*
X10183333Y40516667D01*
X10183333Y40650000D01*
X10150000Y40716667D01*
X10116666Y40750000D01*
X10050000Y40783334D01*
X18700000Y27183334D02*
X18300000Y27183334D01*
X18500000Y27183334D02*
X18500000Y27883334D01*
X18433333Y27783334D01*
X18366666Y27716667D01*
X18300000Y27683334D01*
X19000000Y27183334D02*
X19000000Y27883334D01*
X19400000Y27183334D01*
X19400000Y27883334D01*
X20033333Y27650000D02*
X20033333Y27183334D01*
X19866666Y27916667D02*
X19700000Y27416667D01*
X20133333Y27416667D01*
X20766666Y27183334D02*
X20366666Y27183334D01*
X20566666Y27183334D02*
X20566666Y27883334D01*
X20500000Y27783334D01*
X20433333Y27716667D01*
X20366666Y27683334D01*
X21366666Y27650000D02*
X21366666Y27183334D01*
X21200000Y27916667D02*
X21033333Y27416667D01*
X21466666Y27416667D01*
X21833333Y27583334D02*
X21766666Y27616667D01*
X21733333Y27650000D01*
X21700000Y27716667D01*
X21700000Y27750000D01*
X21733333Y27816667D01*
X21766666Y27850000D01*
X21833333Y27883334D01*
X21966666Y27883334D01*
X22033333Y27850000D01*
X22066666Y27816667D01*
X22100000Y27750000D01*
X22100000Y27716667D01*
X22066666Y27650000D01*
X22033333Y27616667D01*
X21966666Y27583334D01*
X21833333Y27583334D01*
X21766666Y27550000D01*
X21733333Y27516667D01*
X21700000Y27450000D01*
X21700000Y27316667D01*
X21733333Y27250000D01*
X21766666Y27216667D01*
X21833333Y27183334D01*
X21966666Y27183334D01*
X22033333Y27216667D01*
X22066666Y27250000D01*
X22100000Y27316667D01*
X22100000Y27450000D01*
X22066666Y27516667D01*
X22033333Y27550000D01*
X21966666Y27583334D01*
X15783333Y18183334D02*
X16016666Y17483334D01*
X16250000Y18183334D01*
X16483333Y17483334D02*
X16483333Y18183334D01*
X16650000Y18183334D01*
X16750000Y18150000D01*
X16816666Y18083334D01*
X16850000Y18016667D01*
X16883333Y17883334D01*
X16883333Y17783334D01*
X16850000Y17650000D01*
X16816666Y17583334D01*
X16750000Y17516667D01*
X16650000Y17483334D01*
X16483333Y17483334D01*
X17116666Y18183334D02*
X17583333Y18183334D01*
X17283333Y17483334D01*
X3500000Y27183334D02*
X3100000Y27183334D01*
X3300000Y27183334D02*
X3300000Y27883334D01*
X3233333Y27783334D01*
X3166666Y27716667D01*
X3100000Y27683334D01*
X3800000Y27183334D02*
X3800000Y27883334D01*
X4200000Y27183334D01*
X4200000Y27883334D01*
X4833333Y27650000D02*
X4833333Y27183334D01*
X4666666Y27916667D02*
X4500000Y27416667D01*
X4933333Y27416667D01*
X5566666Y27183334D02*
X5166666Y27183334D01*
X5366666Y27183334D02*
X5366666Y27883334D01*
X5300000Y27783334D01*
X5233333Y27716667D01*
X5166666Y27683334D01*
X6166666Y27650000D02*
X6166666Y27183334D01*
X6000000Y27916667D02*
X5833333Y27416667D01*
X6266666Y27416667D01*
X6633333Y27583334D02*
X6566666Y27616667D01*
X6533333Y27650000D01*
X6500000Y27716667D01*
X6500000Y27750000D01*
X6533333Y27816667D01*
X6566666Y27850000D01*
X6633333Y27883334D01*
X6766666Y27883334D01*
X6833333Y27850000D01*
X6866666Y27816667D01*
X6900000Y27750000D01*
X6900000Y27716667D01*
X6866666Y27650000D01*
X6833333Y27616667D01*
X6766666Y27583334D01*
X6633333Y27583334D01*
X6566666Y27550000D01*
X6533333Y27516667D01*
X6500000Y27450000D01*
X6500000Y27316667D01*
X6533333Y27250000D01*
X6566666Y27216667D01*
X6633333Y27183334D01*
X6766666Y27183334D01*
X6833333Y27216667D01*
X6866666Y27250000D01*
X6900000Y27316667D01*
X6900000Y27450000D01*
X6866666Y27516667D01*
X6833333Y27550000D01*
X6766666Y27583334D01*
X7283333Y18983334D02*
X7516666Y18283334D01*
X7750000Y18983334D01*
X7983333Y18283334D02*
X7983333Y18983334D01*
X8150000Y18983334D01*
X8250000Y18950000D01*
X8316666Y18883334D01*
X8350000Y18816667D01*
X8383333Y18683334D01*
X8383333Y18583334D01*
X8350000Y18450000D01*
X8316666Y18383334D01*
X8250000Y18316667D01*
X8150000Y18283334D01*
X7983333Y18283334D01*
X8983333Y18983334D02*
X8850000Y18983334D01*
X8783333Y18950000D01*
X8750000Y18916667D01*
X8683333Y18816667D01*
X8650000Y18683334D01*
X8650000Y18416667D01*
X8683333Y18350000D01*
X8716666Y18316667D01*
X8783333Y18283334D01*
X8916666Y18283334D01*
X8983333Y18316667D01*
X9016666Y18350000D01*
X9050000Y18416667D01*
X9050000Y18583334D01*
X9016666Y18650000D01*
X8983333Y18683334D01*
X8916666Y18716667D01*
X8783333Y18716667D01*
X8716666Y18683334D01*
X8683333Y18650000D01*
X8650000Y18583334D01*
X21902000Y34049334D02*
X22368666Y33349334D01*
X22368666Y34049334D02*
X21902000Y33349334D01*
X22602000Y33382667D02*
X22702000Y33349334D01*
X22868666Y33349334D01*
X22935333Y33382667D01*
X22968666Y33416000D01*
X23002000Y33482667D01*
X23002000Y33549334D01*
X22968666Y33616000D01*
X22935333Y33649334D01*
X22868666Y33682667D01*
X22735333Y33716000D01*
X22668666Y33749334D01*
X22635333Y33782667D01*
X22602000Y33849334D01*
X22602000Y33916000D01*
X22635333Y33982667D01*
X22668666Y34016000D01*
X22735333Y34049334D01*
X22902000Y34049334D01*
X23002000Y34016000D01*
X23668666Y33349334D02*
X23268666Y33349334D01*
X23468666Y33349334D02*
X23468666Y34049334D01*
X23402000Y33949334D01*
X23335333Y33882667D01*
X23268666Y33849334D01*
X14698000Y19066334D02*
X15164666Y18366334D01*
X15164666Y19066334D02*
X14698000Y18366334D01*
X15398000Y18399667D02*
X15498000Y18366334D01*
X15664666Y18366334D01*
X15731333Y18399667D01*
X15764666Y18433000D01*
X15798000Y18499667D01*
X15798000Y18566334D01*
X15764666Y18633000D01*
X15731333Y18666334D01*
X15664666Y18699667D01*
X15531333Y18733000D01*
X15464666Y18766334D01*
X15431333Y18799667D01*
X15398000Y18866334D01*
X15398000Y18933000D01*
X15431333Y18999667D01*
X15464666Y19033000D01*
X15531333Y19066334D01*
X15698000Y19066334D01*
X15798000Y19033000D01*
X16064666Y18999667D02*
X16098000Y19033000D01*
X16164666Y19066334D01*
X16331333Y19066334D01*
X16398000Y19033000D01*
X16431333Y18999667D01*
X16464666Y18933000D01*
X16464666Y18866334D01*
X16431333Y18766334D01*
X16031333Y18366334D01*
X16464666Y18366334D01*
X28998000Y19132334D02*
X29464666Y18432334D01*
X29464666Y19132334D02*
X28998000Y18432334D01*
X29698000Y18465667D02*
X29798000Y18432334D01*
X29964666Y18432334D01*
X30031333Y18465667D01*
X30064666Y18499000D01*
X30098000Y18565667D01*
X30098000Y18632334D01*
X30064666Y18699000D01*
X30031333Y18732334D01*
X29964666Y18765667D01*
X29831333Y18799000D01*
X29764666Y18832334D01*
X29731333Y18865667D01*
X29698000Y18932334D01*
X29698000Y18999000D01*
X29731333Y19065667D01*
X29764666Y19099000D01*
X29831333Y19132334D01*
X29998000Y19132334D01*
X30098000Y19099000D01*
X30331333Y19132334D02*
X30764666Y19132334D01*
X30531333Y18865667D01*
X30631333Y18865667D01*
X30698000Y18832334D01*
X30731333Y18799000D01*
X30764666Y18732334D01*
X30764666Y18565667D01*
X30731333Y18499000D01*
X30698000Y18465667D01*
X30631333Y18432334D01*
X30431333Y18432334D01*
X30364666Y18465667D01*
X30331333Y18499000D01*
X8783000Y4066334D02*
X9249666Y3366334D01*
X9249666Y4066334D02*
X8783000Y3366334D01*
X9483000Y3399667D02*
X9583000Y3366334D01*
X9749666Y3366334D01*
X9816333Y3399667D01*
X9849666Y3433000D01*
X9883000Y3499667D01*
X9883000Y3566334D01*
X9849666Y3633000D01*
X9816333Y3666334D01*
X9749666Y3699667D01*
X9616333Y3733000D01*
X9549666Y3766334D01*
X9516333Y3799667D01*
X9483000Y3866334D01*
X9483000Y3933000D01*
X9516333Y3999667D01*
X9549666Y4033000D01*
X9616333Y4066334D01*
X9783000Y4066334D01*
X9883000Y4033000D01*
X10483000Y3833000D02*
X10483000Y3366334D01*
X10316333Y4099667D02*
X10149666Y3599667D01*
X10583000Y3599667D01*
X37116666Y96450000D02*
X37116666Y96516667D01*
X37150000Y96583334D01*
X37183333Y96616667D01*
X37250000Y96650000D01*
X37383333Y96683334D01*
X37550000Y96683334D01*
X37683333Y96650000D01*
X37750000Y96616667D01*
X37783333Y96583334D01*
X37816666Y96516667D01*
X37816666Y96450000D01*
X37783333Y96383334D01*
X37750000Y96350000D01*
X37683333Y96316667D01*
X37550000Y96283334D01*
X37383333Y96283334D01*
X37250000Y96316667D01*
X37183333Y96350000D01*
X37150000Y96383334D01*
X37116666Y96450000D01*
X37750000Y96983334D02*
X37783333Y97016667D01*
X37816666Y96983334D01*
X37783333Y96950000D01*
X37750000Y96983334D01*
X37816666Y96983334D01*
X37816666Y97683334D02*
X37816666Y97283334D01*
X37816666Y97483334D02*
X37116666Y97483334D01*
X37216666Y97416667D01*
X37283333Y97350000D01*
X37316666Y97283334D01*
X37350000Y98283334D02*
X37816666Y98283334D01*
X37350000Y97983334D02*
X37716666Y97983334D01*
X37783333Y98016667D01*
X37816666Y98083334D01*
X37816666Y98183334D01*
X37783333Y98250000D01*
X37750000Y98283334D01*
X37450000Y98850000D02*
X37450000Y98616667D01*
X37816666Y98616667D02*
X37116666Y98616667D01*
X37116666Y98950000D01*
X37283333Y99350000D02*
X37250000Y99316667D01*
X37150000Y99283334D01*
X37083333Y99283334D01*
X36983333Y99316667D01*
X36916666Y99383334D01*
X36883333Y99450000D01*
X36850000Y99583334D01*
X36850000Y99683334D01*
X36883333Y99816667D01*
X36916666Y99883334D01*
X36983333Y99950000D01*
X37083333Y99983334D01*
X37150000Y99983334D01*
X37250000Y99950000D01*
X37283333Y99916667D01*
X37883333Y99750000D02*
X37883333Y99283334D01*
X37716666Y100016667D02*
X37550000Y99516667D01*
X37983333Y99516667D01*
X29150000Y88183334D02*
X29216666Y88183334D01*
X29283333Y88150000D01*
X29316666Y88116667D01*
X29350000Y88050000D01*
X29383333Y87916667D01*
X29383333Y87750000D01*
X29350000Y87616667D01*
X29316666Y87550000D01*
X29283333Y87516667D01*
X29216666Y87483334D01*
X29150000Y87483334D01*
X29083333Y87516667D01*
X29050000Y87550000D01*
X29016666Y87616667D01*
X28983333Y87750000D01*
X28983333Y87916667D01*
X29016666Y88050000D01*
X29050000Y88116667D01*
X29083333Y88150000D01*
X29150000Y88183334D01*
X29683333Y87550000D02*
X29716666Y87516667D01*
X29683333Y87483334D01*
X29650000Y87516667D01*
X29683333Y87550000D01*
X29683333Y87483334D01*
X30383333Y87483334D02*
X29983333Y87483334D01*
X30183333Y87483334D02*
X30183333Y88183334D01*
X30116666Y88083334D01*
X30050000Y88016667D01*
X29983333Y87983334D01*
X30983333Y87950000D02*
X30983333Y87483334D01*
X30683333Y87950000D02*
X30683333Y87583334D01*
X30716666Y87516667D01*
X30783333Y87483334D01*
X30883333Y87483334D01*
X30950000Y87516667D01*
X30983333Y87550000D01*
X31550000Y87850000D02*
X31316666Y87850000D01*
X31316666Y87483334D02*
X31316666Y88183334D01*
X31650000Y88183334D01*
X27783333Y87550000D02*
X27750000Y87516667D01*
X27650000Y87483334D01*
X27583333Y87483334D01*
X27483333Y87516667D01*
X27416666Y87583334D01*
X27383333Y87650000D01*
X27350000Y87783334D01*
X27350000Y87883334D01*
X27383333Y88016667D01*
X27416666Y88083334D01*
X27483333Y88150000D01*
X27583333Y88183334D01*
X27650000Y88183334D01*
X27750000Y88150000D01*
X27783333Y88116667D01*
X28416666Y88183334D02*
X28083333Y88183334D01*
X28050000Y87850000D01*
X28083333Y87883334D01*
X28150000Y87916667D01*
X28316666Y87916667D01*
X28383333Y87883334D01*
X28416666Y87850000D01*
X28450000Y87783334D01*
X28450000Y87616667D01*
X28416666Y87550000D01*
X28383333Y87516667D01*
X28316666Y87483334D01*
X28150000Y87483334D01*
X28083333Y87516667D01*
X28050000Y87550000D01*
X6250000Y57783334D02*
X6316666Y57783334D01*
X6383333Y57750000D01*
X6416666Y57716667D01*
X6450000Y57650000D01*
X6483333Y57516667D01*
X6483333Y57350000D01*
X6450000Y57216667D01*
X6416666Y57150000D01*
X6383333Y57116667D01*
X6316666Y57083334D01*
X6250000Y57083334D01*
X6183333Y57116667D01*
X6150000Y57150000D01*
X6116666Y57216667D01*
X6083333Y57350000D01*
X6083333Y57516667D01*
X6116666Y57650000D01*
X6150000Y57716667D01*
X6183333Y57750000D01*
X6250000Y57783334D01*
X6783333Y57150000D02*
X6816666Y57116667D01*
X6783333Y57083334D01*
X6750000Y57116667D01*
X6783333Y57150000D01*
X6783333Y57083334D01*
X7483333Y57083334D02*
X7083333Y57083334D01*
X7283333Y57083334D02*
X7283333Y57783334D01*
X7216666Y57683334D01*
X7150000Y57616667D01*
X7083333Y57583334D01*
X8083333Y57550000D02*
X8083333Y57083334D01*
X7783333Y57550000D02*
X7783333Y57183334D01*
X7816666Y57116667D01*
X7883333Y57083334D01*
X7983333Y57083334D01*
X8050000Y57116667D01*
X8083333Y57150000D01*
X8650000Y57450000D02*
X8416666Y57450000D01*
X8416666Y57083334D02*
X8416666Y57783334D01*
X8750000Y57783334D01*
X6583333Y64550000D02*
X6550000Y64516667D01*
X6450000Y64483334D01*
X6383333Y64483334D01*
X6283333Y64516667D01*
X6216666Y64583334D01*
X6183333Y64650000D01*
X6150000Y64783334D01*
X6150000Y64883334D01*
X6183333Y65016667D01*
X6216666Y65083334D01*
X6283333Y65150000D01*
X6383333Y65183334D01*
X6450000Y65183334D01*
X6550000Y65150000D01*
X6583333Y65116667D01*
X6983333Y64883334D02*
X6916666Y64916667D01*
X6883333Y64950000D01*
X6850000Y65016667D01*
X6850000Y65050000D01*
X6883333Y65116667D01*
X6916666Y65150000D01*
X6983333Y65183334D01*
X7116666Y65183334D01*
X7183333Y65150000D01*
X7216666Y65116667D01*
X7250000Y65050000D01*
X7250000Y65016667D01*
X7216666Y64950000D01*
X7183333Y64916667D01*
X7116666Y64883334D01*
X6983333Y64883334D01*
X6916666Y64850000D01*
X6883333Y64816667D01*
X6850000Y64750000D01*
X6850000Y64616667D01*
X6883333Y64550000D01*
X6916666Y64516667D01*
X6983333Y64483334D01*
X7116666Y64483334D01*
X7183333Y64516667D01*
X7216666Y64550000D01*
X7250000Y64616667D01*
X7250000Y64750000D01*
X7216666Y64816667D01*
X7183333Y64850000D01*
X7116666Y64883334D01*
X24916666Y67350000D02*
X24916666Y67416667D01*
X24950000Y67483334D01*
X24983333Y67516667D01*
X25050000Y67550000D01*
X25183333Y67583334D01*
X25350000Y67583334D01*
X25483333Y67550000D01*
X25550000Y67516667D01*
X25583333Y67483334D01*
X25616666Y67416667D01*
X25616666Y67350000D01*
X25583333Y67283334D01*
X25550000Y67250000D01*
X25483333Y67216667D01*
X25350000Y67183334D01*
X25183333Y67183334D01*
X25050000Y67216667D01*
X24983333Y67250000D01*
X24950000Y67283334D01*
X24916666Y67350000D01*
X25550000Y67883334D02*
X25583333Y67916667D01*
X25616666Y67883334D01*
X25583333Y67850000D01*
X25550000Y67883334D01*
X25616666Y67883334D01*
X25616666Y68583334D02*
X25616666Y68183334D01*
X25616666Y68383334D02*
X24916666Y68383334D01*
X25016666Y68316667D01*
X25083333Y68250000D01*
X25116666Y68183334D01*
X25150000Y69183334D02*
X25616666Y69183334D01*
X25150000Y68883334D02*
X25516666Y68883334D01*
X25583333Y68916667D01*
X25616666Y68983334D01*
X25616666Y69083334D01*
X25583333Y69150000D01*
X25550000Y69183334D01*
X25250000Y69750000D02*
X25250000Y69516667D01*
X25616666Y69516667D02*
X24916666Y69516667D01*
X24916666Y69850000D01*
X22183333Y67250000D02*
X22150000Y67216667D01*
X22050000Y67183334D01*
X21983333Y67183334D01*
X21883333Y67216667D01*
X21816666Y67283334D01*
X21783333Y67350000D01*
X21750000Y67483334D01*
X21750000Y67583334D01*
X21783333Y67716667D01*
X21816666Y67783334D01*
X21883333Y67850000D01*
X21983333Y67883334D01*
X22050000Y67883334D01*
X22150000Y67850000D01*
X22183333Y67816667D01*
X22516666Y67183334D02*
X22650000Y67183334D01*
X22716666Y67216667D01*
X22750000Y67250000D01*
X22816666Y67350000D01*
X22850000Y67483334D01*
X22850000Y67750000D01*
X22816666Y67816667D01*
X22783333Y67850000D01*
X22716666Y67883334D01*
X22583333Y67883334D01*
X22516666Y67850000D01*
X22483333Y67816667D01*
X22450000Y67750000D01*
X22450000Y67583334D01*
X22483333Y67516667D01*
X22516666Y67483334D01*
X22583333Y67450000D01*
X22716666Y67450000D01*
X22783333Y67483334D01*
X22816666Y67516667D01*
X22850000Y67583334D01*
X25519666Y83864500D02*
X25519666Y83931167D01*
X25553000Y83997834D01*
X25586333Y84031167D01*
X25653000Y84064500D01*
X25786333Y84097834D01*
X25953000Y84097834D01*
X26086333Y84064500D01*
X26153000Y84031167D01*
X26186333Y83997834D01*
X26219666Y83931167D01*
X26219666Y83864500D01*
X26186333Y83797834D01*
X26153000Y83764500D01*
X26086333Y83731167D01*
X25953000Y83697834D01*
X25786333Y83697834D01*
X25653000Y83731167D01*
X25586333Y83764500D01*
X25553000Y83797834D01*
X25519666Y83864500D01*
X26153000Y84397834D02*
X26186333Y84431167D01*
X26219666Y84397834D01*
X26186333Y84364500D01*
X26153000Y84397834D01*
X26219666Y84397834D01*
X26219666Y85097834D02*
X26219666Y84697834D01*
X26219666Y84897834D02*
X25519666Y84897834D01*
X25619666Y84831167D01*
X25686333Y84764500D01*
X25719666Y84697834D01*
X25753000Y85697834D02*
X26219666Y85697834D01*
X25753000Y85397834D02*
X26119666Y85397834D01*
X26186333Y85431167D01*
X26219666Y85497834D01*
X26219666Y85597834D01*
X26186333Y85664500D01*
X26153000Y85697834D01*
X25853000Y86264500D02*
X25853000Y86031167D01*
X26219666Y86031167D02*
X25519666Y86031167D01*
X25519666Y86364500D01*
X25850000Y86850000D02*
X25816666Y86816667D01*
X25716666Y86783334D01*
X25650000Y86783334D01*
X25550000Y86816667D01*
X25483333Y86883334D01*
X25450000Y86950000D01*
X25416666Y87083334D01*
X25416666Y87183334D01*
X25450000Y87316667D01*
X25483333Y87383334D01*
X25550000Y87450000D01*
X25650000Y87483334D01*
X25716666Y87483334D01*
X25816666Y87450000D01*
X25850000Y87416667D01*
X26516666Y86783334D02*
X26116666Y86783334D01*
X26316666Y86783334D02*
X26316666Y87483334D01*
X26250000Y87383334D01*
X26183333Y87316667D01*
X26116666Y87283334D01*
X26783333Y87416667D02*
X26816666Y87450000D01*
X26883333Y87483334D01*
X27050000Y87483334D01*
X27116666Y87450000D01*
X27150000Y87416667D01*
X27183333Y87350000D01*
X27183333Y87283334D01*
X27150000Y87183334D01*
X26750000Y86783334D01*
X27183333Y86783334D01*
X32050000Y69683334D02*
X32116666Y69683334D01*
X32183333Y69650000D01*
X32216666Y69616667D01*
X32250000Y69550000D01*
X32283333Y69416667D01*
X32283333Y69250000D01*
X32250000Y69116667D01*
X32216666Y69050000D01*
X32183333Y69016667D01*
X32116666Y68983334D01*
X32050000Y68983334D01*
X31983333Y69016667D01*
X31950000Y69050000D01*
X31916666Y69116667D01*
X31883333Y69250000D01*
X31883333Y69416667D01*
X31916666Y69550000D01*
X31950000Y69616667D01*
X31983333Y69650000D01*
X32050000Y69683334D01*
X32583333Y69050000D02*
X32616666Y69016667D01*
X32583333Y68983334D01*
X32550000Y69016667D01*
X32583333Y69050000D01*
X32583333Y68983334D01*
X33283333Y68983334D02*
X32883333Y68983334D01*
X33083333Y68983334D02*
X33083333Y69683334D01*
X33016666Y69583334D01*
X32950000Y69516667D01*
X32883333Y69483334D01*
X33883333Y69450000D02*
X33883333Y68983334D01*
X33583333Y69450000D02*
X33583333Y69083334D01*
X33616666Y69016667D01*
X33683333Y68983334D01*
X33783333Y68983334D01*
X33850000Y69016667D01*
X33883333Y69050000D01*
X34450000Y69350000D02*
X34216666Y69350000D01*
X34216666Y68983334D02*
X34216666Y69683334D01*
X34550000Y69683334D01*
X32450000Y69950000D02*
X32416666Y69916667D01*
X32316666Y69883334D01*
X32250000Y69883334D01*
X32150000Y69916667D01*
X32083333Y69983334D01*
X32050000Y70050000D01*
X32016666Y70183334D01*
X32016666Y70283334D01*
X32050000Y70416667D01*
X32083333Y70483334D01*
X32150000Y70550000D01*
X32250000Y70583334D01*
X32316666Y70583334D01*
X32416666Y70550000D01*
X32450000Y70516667D01*
X33116666Y69883334D02*
X32716666Y69883334D01*
X32916666Y69883334D02*
X32916666Y70583334D01*
X32850000Y70483334D01*
X32783333Y70416667D01*
X32716666Y70383334D01*
X33350000Y70583334D02*
X33783333Y70583334D01*
X33550000Y70316667D01*
X33650000Y70316667D01*
X33716666Y70283334D01*
X33750000Y70250000D01*
X33783333Y70183334D01*
X33783333Y70016667D01*
X33750000Y69950000D01*
X33716666Y69916667D01*
X33650000Y69883334D01*
X33450000Y69883334D01*
X33383333Y69916667D01*
X33350000Y69950000D01*
X31330533Y42902934D02*
X31763866Y42902934D01*
X31530533Y42636267D01*
X31630533Y42636267D01*
X31697200Y42602934D01*
X31730533Y42569600D01*
X31763866Y42502934D01*
X31763866Y42336267D01*
X31730533Y42269600D01*
X31697200Y42236267D01*
X31630533Y42202934D01*
X31430533Y42202934D01*
X31363866Y42236267D01*
X31330533Y42269600D01*
X31997200Y42902934D02*
X32430533Y42902934D01*
X32197200Y42636267D01*
X32297200Y42636267D01*
X32363866Y42602934D01*
X32397200Y42569600D01*
X32430533Y42502934D01*
X32430533Y42336267D01*
X32397200Y42269600D01*
X32363866Y42236267D01*
X32297200Y42202934D01*
X32097200Y42202934D01*
X32030533Y42236267D01*
X31997200Y42269600D01*
X32863866Y42902934D02*
X32930533Y42902934D01*
X32997200Y42869600D01*
X33030533Y42836267D01*
X33063866Y42769600D01*
X33097200Y42636267D01*
X33097200Y42469600D01*
X33063866Y42336267D01*
X33030533Y42269600D01*
X32997200Y42236267D01*
X32930533Y42202934D01*
X32863866Y42202934D01*
X32797200Y42236267D01*
X32763866Y42269600D01*
X32730533Y42336267D01*
X32697200Y42469600D01*
X32697200Y42636267D01*
X32730533Y42769600D01*
X32763866Y42836267D01*
X32797200Y42869600D01*
X32863866Y42902934D01*
X33397200Y42669600D02*
X33397200Y41969600D01*
X33397200Y42636267D02*
X33463866Y42669600D01*
X33597200Y42669600D01*
X33663866Y42636267D01*
X33697200Y42602934D01*
X33730533Y42536267D01*
X33730533Y42336267D01*
X33697200Y42269600D01*
X33663866Y42236267D01*
X33597200Y42202934D01*
X33463866Y42202934D01*
X33397200Y42236267D01*
X34263866Y42569600D02*
X34030533Y42569600D01*
X34030533Y42202934D02*
X34030533Y42902934D01*
X34363866Y42902934D01*
X31650000Y43150000D02*
X31616666Y43116667D01*
X31516666Y43083334D01*
X31450000Y43083334D01*
X31350000Y43116667D01*
X31283333Y43183334D01*
X31250000Y43250000D01*
X31216666Y43383334D01*
X31216666Y43483334D01*
X31250000Y43616667D01*
X31283333Y43683334D01*
X31350000Y43750000D01*
X31450000Y43783334D01*
X31516666Y43783334D01*
X31616666Y43750000D01*
X31650000Y43716667D01*
X32316666Y43083334D02*
X31916666Y43083334D01*
X32116666Y43083334D02*
X32116666Y43783334D01*
X32050000Y43683334D01*
X31983333Y43616667D01*
X31916666Y43583334D01*
X32950000Y43783334D02*
X32616666Y43783334D01*
X32583333Y43450000D01*
X32616666Y43483334D01*
X32683333Y43516667D01*
X32850000Y43516667D01*
X32916666Y43483334D01*
X32950000Y43450000D01*
X32983333Y43383334D01*
X32983333Y43216667D01*
X32950000Y43150000D01*
X32916666Y43116667D01*
X32850000Y43083334D01*
X32683333Y43083334D01*
X32616666Y43116667D01*
X32583333Y43150000D01*
X35919666Y48564500D02*
X35919666Y48631167D01*
X35953000Y48697834D01*
X35986333Y48731167D01*
X36053000Y48764500D01*
X36186333Y48797834D01*
X36353000Y48797834D01*
X36486333Y48764500D01*
X36553000Y48731167D01*
X36586333Y48697834D01*
X36619666Y48631167D01*
X36619666Y48564500D01*
X36586333Y48497834D01*
X36553000Y48464500D01*
X36486333Y48431167D01*
X36353000Y48397834D01*
X36186333Y48397834D01*
X36053000Y48431167D01*
X35986333Y48464500D01*
X35953000Y48497834D01*
X35919666Y48564500D01*
X36553000Y49097834D02*
X36586333Y49131167D01*
X36619666Y49097834D01*
X36586333Y49064500D01*
X36553000Y49097834D01*
X36619666Y49097834D01*
X36619666Y49797834D02*
X36619666Y49397834D01*
X36619666Y49597834D02*
X35919666Y49597834D01*
X36019666Y49531167D01*
X36086333Y49464500D01*
X36119666Y49397834D01*
X36153000Y50397834D02*
X36619666Y50397834D01*
X36153000Y50097834D02*
X36519666Y50097834D01*
X36586333Y50131167D01*
X36619666Y50197834D01*
X36619666Y50297834D01*
X36586333Y50364500D01*
X36553000Y50397834D01*
X36253000Y50964500D02*
X36253000Y50731167D01*
X36619666Y50731167D02*
X35919666Y50731167D01*
X35919666Y51064500D01*
X37150000Y43950000D02*
X37116666Y43916667D01*
X37016666Y43883334D01*
X36950000Y43883334D01*
X36850000Y43916667D01*
X36783333Y43983334D01*
X36750000Y44050000D01*
X36716666Y44183334D01*
X36716666Y44283334D01*
X36750000Y44416667D01*
X36783333Y44483334D01*
X36850000Y44550000D01*
X36950000Y44583334D01*
X37016666Y44583334D01*
X37116666Y44550000D01*
X37150000Y44516667D01*
X37816666Y43883334D02*
X37416666Y43883334D01*
X37616666Y43883334D02*
X37616666Y44583334D01*
X37550000Y44483334D01*
X37483333Y44416667D01*
X37416666Y44383334D01*
X38050000Y44583334D02*
X38516666Y44583334D01*
X38216666Y43883334D01*
X33650000Y65883334D02*
X34116666Y65883334D01*
X33383333Y65716667D02*
X33883333Y65550000D01*
X33883333Y65983334D01*
X33416666Y66183334D02*
X33416666Y66650000D01*
X34116666Y66350000D01*
X33650000Y66916667D02*
X34350000Y66916667D01*
X33683333Y66916667D02*
X33650000Y66983334D01*
X33650000Y67116667D01*
X33683333Y67183334D01*
X33716666Y67216667D01*
X33783333Y67250000D01*
X33983333Y67250000D01*
X34050000Y67216667D01*
X34083333Y67183334D01*
X34116666Y67116667D01*
X34116666Y66983334D01*
X34083333Y66916667D01*
X33750000Y67783334D02*
X33750000Y67550000D01*
X34116666Y67550000D02*
X33416666Y67550000D01*
X33416666Y67883334D01*
X31350000Y67450000D02*
X31316666Y67416667D01*
X31216666Y67383334D01*
X31150000Y67383334D01*
X31050000Y67416667D01*
X30983333Y67483334D01*
X30950000Y67550000D01*
X30916666Y67683334D01*
X30916666Y67783334D01*
X30950000Y67916667D01*
X30983333Y67983334D01*
X31050000Y68050000D01*
X31150000Y68083334D01*
X31216666Y68083334D01*
X31316666Y68050000D01*
X31350000Y68016667D01*
X31616666Y68016667D02*
X31650000Y68050000D01*
X31716666Y68083334D01*
X31883333Y68083334D01*
X31950000Y68050000D01*
X31983333Y68016667D01*
X32016666Y67950000D01*
X32016666Y67883334D01*
X31983333Y67783334D01*
X31583333Y67383334D01*
X32016666Y67383334D01*
X32450000Y68083334D02*
X32516666Y68083334D01*
X32583333Y68050000D01*
X32616666Y68016667D01*
X32650000Y67950000D01*
X32683333Y67816667D01*
X32683333Y67650000D01*
X32650000Y67516667D01*
X32616666Y67450000D01*
X32583333Y67416667D01*
X32516666Y67383334D01*
X32450000Y67383334D01*
X32383333Y67416667D01*
X32350000Y67450000D01*
X32316666Y67516667D01*
X32283333Y67650000D01*
X32283333Y67816667D01*
X32316666Y67950000D01*
X32350000Y68016667D01*
X32383333Y68050000D01*
X32450000Y68083334D01*
X33533333Y83716667D02*
X33566666Y83750000D01*
X33633333Y83783334D01*
X33800000Y83783334D01*
X33866666Y83750000D01*
X33900000Y83716667D01*
X33933333Y83650000D01*
X33933333Y83583334D01*
X33900000Y83483334D01*
X33500000Y83083334D01*
X33933333Y83083334D01*
X34200000Y83716667D02*
X34233333Y83750000D01*
X34300000Y83783334D01*
X34466666Y83783334D01*
X34533333Y83750000D01*
X34566666Y83716667D01*
X34600000Y83650000D01*
X34600000Y83583334D01*
X34566666Y83483334D01*
X34166666Y83083334D01*
X34600000Y83083334D01*
X34900000Y83550000D02*
X34900000Y83083334D01*
X34900000Y83483334D02*
X34933333Y83516667D01*
X35000000Y83550000D01*
X35100000Y83550000D01*
X35166666Y83516667D01*
X35200000Y83450000D01*
X35200000Y83083334D01*
X35766666Y83450000D02*
X35533333Y83450000D01*
X35533333Y83083334D02*
X35533333Y83783334D01*
X35866666Y83783334D01*
X36900000Y83450000D02*
X36666666Y83450000D01*
X36666666Y83083334D02*
X36666666Y83783334D01*
X37000000Y83783334D01*
X37266666Y83083334D02*
X37266666Y83783334D01*
X37933333Y83083334D02*
X37600000Y83083334D01*
X37600000Y83783334D01*
X38166666Y83083334D02*
X38166666Y83783334D01*
X38400000Y83283334D01*
X38633333Y83783334D01*
X38633333Y83083334D01*
X36772500Y83953000D02*
X36739166Y83919667D01*
X36639166Y83886334D01*
X36572500Y83886334D01*
X36472500Y83919667D01*
X36405833Y83986334D01*
X36372500Y84053000D01*
X36339166Y84186334D01*
X36339166Y84286334D01*
X36372500Y84419667D01*
X36405833Y84486334D01*
X36472500Y84553000D01*
X36572500Y84586334D01*
X36639166Y84586334D01*
X36739166Y84553000D01*
X36772500Y84519667D01*
X37039166Y84519667D02*
X37072500Y84553000D01*
X37139166Y84586334D01*
X37305833Y84586334D01*
X37372500Y84553000D01*
X37405833Y84519667D01*
X37439166Y84453000D01*
X37439166Y84386334D01*
X37405833Y84286334D01*
X37005833Y83886334D01*
X37439166Y83886334D01*
X37705833Y84519667D02*
X37739166Y84553000D01*
X37805833Y84586334D01*
X37972500Y84586334D01*
X38039166Y84553000D01*
X38072500Y84519667D01*
X38105833Y84453000D01*
X38105833Y84386334D01*
X38072500Y84286334D01*
X37672500Y83886334D01*
X38105833Y83886334D01*
X27683333Y79083334D02*
X27683333Y79783334D01*
X27850000Y79783334D01*
X27950000Y79750000D01*
X28016666Y79683334D01*
X28050000Y79616667D01*
X28083333Y79483334D01*
X28083333Y79383334D01*
X28050000Y79250000D01*
X28016666Y79183334D01*
X27950000Y79116667D01*
X27850000Y79083334D01*
X27683333Y79083334D01*
X28350000Y79283334D02*
X28683333Y79283334D01*
X28283333Y79083334D02*
X28516666Y79783334D01*
X28750000Y79083334D01*
X28916666Y79783334D02*
X29350000Y79783334D01*
X29116666Y79516667D01*
X29216666Y79516667D01*
X29283333Y79483334D01*
X29316666Y79450000D01*
X29350000Y79383334D01*
X29350000Y79216667D01*
X29316666Y79150000D01*
X29283333Y79116667D01*
X29216666Y79083334D01*
X29016666Y79083334D01*
X28950000Y79116667D01*
X28916666Y79150000D01*
X28850000Y101683334D02*
X28450000Y101683334D01*
X28650000Y101683334D02*
X28650000Y102383334D01*
X28583333Y102283334D01*
X28516666Y102216667D01*
X28450000Y102183334D01*
X29283333Y102383334D02*
X29350000Y102383334D01*
X29416666Y102350000D01*
X29450000Y102316667D01*
X29483333Y102250000D01*
X29516666Y102116667D01*
X29516666Y101950000D01*
X29483333Y101816667D01*
X29450000Y101750000D01*
X29416666Y101716667D01*
X29350000Y101683334D01*
X29283333Y101683334D01*
X29216666Y101716667D01*
X29183333Y101750000D01*
X29150000Y101816667D01*
X29116666Y101950000D01*
X29116666Y102116667D01*
X29150000Y102250000D01*
X29183333Y102316667D01*
X29216666Y102350000D01*
X29283333Y102383334D01*
X29950000Y102383334D02*
X30016666Y102383334D01*
X30083333Y102350000D01*
X30116666Y102316667D01*
X30150000Y102250000D01*
X30183333Y102116667D01*
X30183333Y101950000D01*
X30150000Y101816667D01*
X30116666Y101750000D01*
X30083333Y101716667D01*
X30016666Y101683334D01*
X29950000Y101683334D01*
X29883333Y101716667D01*
X29850000Y101750000D01*
X29816666Y101816667D01*
X29783333Y101950000D01*
X29783333Y102116667D01*
X29816666Y102250000D01*
X29850000Y102316667D01*
X29883333Y102350000D01*
X29950000Y102383334D01*
X30783333Y102150000D02*
X30783333Y101683334D01*
X30483333Y102150000D02*
X30483333Y101783334D01*
X30516666Y101716667D01*
X30583333Y101683334D01*
X30683333Y101683334D01*
X30750000Y101716667D01*
X30783333Y101750000D01*
X31116666Y101683334D02*
X31116666Y102383334D01*
X31116666Y102050000D02*
X31516666Y102050000D01*
X31516666Y101683334D02*
X31516666Y102383334D01*
X29883333Y99983334D02*
X29550000Y99983334D01*
X29550000Y100683334D01*
X30483333Y99983334D02*
X30083333Y99983334D01*
X30283333Y99983334D02*
X30283333Y100683334D01*
X30216666Y100583334D01*
X30150000Y100516667D01*
X30083333Y100483334D01*
X30950000Y89783334D02*
X30550000Y89783334D01*
X30750000Y89783334D02*
X30750000Y90483334D01*
X30683333Y90383334D01*
X30616666Y90316667D01*
X30550000Y90283334D01*
X31383333Y90483334D02*
X31450000Y90483334D01*
X31516666Y90450000D01*
X31550000Y90416667D01*
X31583333Y90350000D01*
X31616666Y90216667D01*
X31616666Y90050000D01*
X31583333Y89916667D01*
X31550000Y89850000D01*
X31516666Y89816667D01*
X31450000Y89783334D01*
X31383333Y89783334D01*
X31316666Y89816667D01*
X31283333Y89850000D01*
X31250000Y89916667D01*
X31216666Y90050000D01*
X31216666Y90216667D01*
X31250000Y90350000D01*
X31283333Y90416667D01*
X31316666Y90450000D01*
X31383333Y90483334D01*
X32050000Y90483334D02*
X32116666Y90483334D01*
X32183333Y90450000D01*
X32216666Y90416667D01*
X32250000Y90350000D01*
X32283333Y90216667D01*
X32283333Y90050000D01*
X32250000Y89916667D01*
X32216666Y89850000D01*
X32183333Y89816667D01*
X32116666Y89783334D01*
X32050000Y89783334D01*
X31983333Y89816667D01*
X31950000Y89850000D01*
X31916666Y89916667D01*
X31883333Y90050000D01*
X31883333Y90216667D01*
X31916666Y90350000D01*
X31950000Y90416667D01*
X31983333Y90450000D01*
X32050000Y90483334D01*
X32883333Y90250000D02*
X32883333Y89783334D01*
X32583333Y90250000D02*
X32583333Y89883334D01*
X32616666Y89816667D01*
X32683333Y89783334D01*
X32783333Y89783334D01*
X32850000Y89816667D01*
X32883333Y89850000D01*
X33216666Y89783334D02*
X33216666Y90483334D01*
X33216666Y90150000D02*
X33616666Y90150000D01*
X33616666Y89783334D02*
X33616666Y90483334D01*
X25583333Y91183334D02*
X25250000Y91183334D01*
X25250000Y91883334D01*
X25783333Y91816667D02*
X25816666Y91850000D01*
X25883333Y91883334D01*
X26050000Y91883334D01*
X26116666Y91850000D01*
X26150000Y91816667D01*
X26183333Y91750000D01*
X26183333Y91683334D01*
X26150000Y91583334D01*
X25750000Y91183334D01*
X26183333Y91183334D01*
X883333Y63483334D02*
X650000Y63816667D01*
X483333Y63483334D02*
X483333Y64183334D01*
X750000Y64183334D01*
X816666Y64150000D01*
X850000Y64116667D01*
X883333Y64050000D01*
X883333Y63950000D01*
X850000Y63883334D01*
X816666Y63850000D01*
X750000Y63816667D01*
X483333Y63816667D01*
X1150000Y64116667D02*
X1183333Y64150000D01*
X1250000Y64183334D01*
X1416666Y64183334D01*
X1483333Y64150000D01*
X1516666Y64116667D01*
X1550000Y64050000D01*
X1550000Y63983334D01*
X1516666Y63883334D01*
X1116666Y63483334D01*
X1550000Y63483334D01*
X1516666Y59783334D02*
X1516666Y59450000D01*
X1850000Y59416667D01*
X1816666Y59450000D01*
X1783333Y59516667D01*
X1783333Y59683334D01*
X1816666Y59750000D01*
X1850000Y59783334D01*
X1916666Y59816667D01*
X2083333Y59816667D01*
X2150000Y59783334D01*
X2183333Y59750000D01*
X2216666Y59683334D01*
X2216666Y59516667D01*
X2183333Y59450000D01*
X2150000Y59416667D01*
X2150000Y60116667D02*
X2183333Y60150000D01*
X2216666Y60116667D01*
X2183333Y60083334D01*
X2150000Y60116667D01*
X2216666Y60116667D01*
X1516666Y60750000D02*
X1516666Y60616667D01*
X1550000Y60550000D01*
X1583333Y60516667D01*
X1683333Y60450000D01*
X1816666Y60416667D01*
X2083333Y60416667D01*
X2150000Y60450000D01*
X2183333Y60483334D01*
X2216666Y60550000D01*
X2216666Y60683334D01*
X2183333Y60750000D01*
X2150000Y60783334D01*
X2083333Y60816667D01*
X1916666Y60816667D01*
X1850000Y60783334D01*
X1816666Y60750000D01*
X1783333Y60683334D01*
X1783333Y60550000D01*
X1816666Y60483334D01*
X1850000Y60450000D01*
X1916666Y60416667D01*
X2216666Y61116667D02*
X1516666Y61116667D01*
X1950000Y61183334D02*
X2216666Y61383334D01*
X1750000Y61383334D02*
X2016666Y61116667D01*
X3983333Y63483334D02*
X3750000Y63816667D01*
X3583333Y63483334D02*
X3583333Y64183334D01*
X3850000Y64183334D01*
X3916666Y64150000D01*
X3950000Y64116667D01*
X3983333Y64050000D01*
X3983333Y63950000D01*
X3950000Y63883334D01*
X3916666Y63850000D01*
X3850000Y63816667D01*
X3583333Y63816667D01*
X4216666Y64183334D02*
X4650000Y64183334D01*
X4416666Y63916667D01*
X4516666Y63916667D01*
X4583333Y63883334D01*
X4616666Y63850000D01*
X4650000Y63783334D01*
X4650000Y63616667D01*
X4616666Y63550000D01*
X4583333Y63516667D01*
X4516666Y63483334D01*
X4316666Y63483334D01*
X4250000Y63516667D01*
X4216666Y63550000D01*
X5216666Y59983334D02*
X5216666Y59583334D01*
X5216666Y59783334D02*
X4516666Y59783334D01*
X4616666Y59716667D01*
X4683333Y59650000D01*
X4716666Y59583334D01*
X4516666Y60616667D02*
X4516666Y60283334D01*
X4850000Y60250000D01*
X4816666Y60283334D01*
X4783333Y60350000D01*
X4783333Y60516667D01*
X4816666Y60583334D01*
X4850000Y60616667D01*
X4916666Y60650000D01*
X5083333Y60650000D01*
X5150000Y60616667D01*
X5183333Y60583334D01*
X5216666Y60516667D01*
X5216666Y60350000D01*
X5183333Y60283334D01*
X5150000Y60250000D01*
X5216666Y60950000D02*
X4516666Y60950000D01*
X4950000Y61016667D02*
X5216666Y61216667D01*
X4750000Y61216667D02*
X5016666Y60950000D01*
X6083333Y79083334D02*
X5850000Y79416667D01*
X5683333Y79083334D02*
X5683333Y79783334D01*
X5950000Y79783334D01*
X6016666Y79750000D01*
X6050000Y79716667D01*
X6083333Y79650000D01*
X6083333Y79550000D01*
X6050000Y79483334D01*
X6016666Y79450000D01*
X5950000Y79416667D01*
X5683333Y79416667D01*
X6683333Y79550000D02*
X6683333Y79083334D01*
X6516666Y79816667D02*
X6350000Y79316667D01*
X6783333Y79316667D01*
X5216666Y72250000D02*
X5216666Y71850000D01*
X5216666Y72050000D02*
X4516666Y72050000D01*
X4616666Y71983334D01*
X4683333Y71916667D01*
X4716666Y71850000D01*
X4516666Y72683334D02*
X4516666Y72750000D01*
X4550000Y72816667D01*
X4583333Y72850000D01*
X4650000Y72883334D01*
X4783333Y72916667D01*
X4950000Y72916667D01*
X5083333Y72883334D01*
X5150000Y72850000D01*
X5183333Y72816667D01*
X5216666Y72750000D01*
X5216666Y72683334D01*
X5183333Y72616667D01*
X5150000Y72583334D01*
X5083333Y72550000D01*
X4950000Y72516667D01*
X4783333Y72516667D01*
X4650000Y72550000D01*
X4583333Y72583334D01*
X4550000Y72616667D01*
X4516666Y72683334D01*
X4516666Y73350000D02*
X4516666Y73416667D01*
X4550000Y73483334D01*
X4583333Y73516667D01*
X4650000Y73550000D01*
X4783333Y73583334D01*
X4950000Y73583334D01*
X5083333Y73550000D01*
X5150000Y73516667D01*
X5183333Y73483334D01*
X5216666Y73416667D01*
X5216666Y73350000D01*
X5183333Y73283334D01*
X5150000Y73250000D01*
X5083333Y73216667D01*
X4950000Y73183334D01*
X4783333Y73183334D01*
X4650000Y73216667D01*
X4583333Y73250000D01*
X4550000Y73283334D01*
X4516666Y73350000D01*
X5216666Y73883334D02*
X4516666Y73883334D01*
X4950000Y73950000D02*
X5216666Y74150000D01*
X4750000Y74150000D02*
X5016666Y73883334D01*
X1783333Y79383334D02*
X1550000Y79716667D01*
X1383333Y79383334D02*
X1383333Y80083334D01*
X1650000Y80083334D01*
X1716666Y80050000D01*
X1750000Y80016667D01*
X1783333Y79950000D01*
X1783333Y79850000D01*
X1750000Y79783334D01*
X1716666Y79750000D01*
X1650000Y79716667D01*
X1383333Y79716667D01*
X2416666Y80083334D02*
X2083333Y80083334D01*
X2050000Y79750000D01*
X2083333Y79783334D01*
X2150000Y79816667D01*
X2316666Y79816667D01*
X2383333Y79783334D01*
X2416666Y79750000D01*
X2450000Y79683334D01*
X2450000Y79516667D01*
X2416666Y79450000D01*
X2383333Y79416667D01*
X2316666Y79383334D01*
X2150000Y79383334D01*
X2083333Y79416667D01*
X2050000Y79450000D01*
X2216666Y72583334D02*
X2216666Y72183334D01*
X2216666Y72383334D02*
X1516666Y72383334D01*
X1616666Y72316667D01*
X1683333Y72250000D01*
X1716666Y72183334D01*
X1516666Y73216667D02*
X1516666Y72883334D01*
X1850000Y72850000D01*
X1816666Y72883334D01*
X1783333Y72950000D01*
X1783333Y73116667D01*
X1816666Y73183334D01*
X1850000Y73216667D01*
X1916666Y73250000D01*
X2083333Y73250000D01*
X2150000Y73216667D01*
X2183333Y73183334D01*
X2216666Y73116667D01*
X2216666Y72950000D01*
X2183333Y72883334D01*
X2150000Y72850000D01*
X2216666Y73550000D02*
X1516666Y73550000D01*
X1950000Y73616667D02*
X2216666Y73816667D01*
X1750000Y73816667D02*
X2016666Y73550000D01*
X23883333Y82883334D02*
X23650000Y83216667D01*
X23483333Y82883334D02*
X23483333Y83583334D01*
X23750000Y83583334D01*
X23816666Y83550000D01*
X23850000Y83516667D01*
X23883333Y83450000D01*
X23883333Y83350000D01*
X23850000Y83283334D01*
X23816666Y83250000D01*
X23750000Y83216667D01*
X23483333Y83216667D01*
X24483333Y83583334D02*
X24350000Y83583334D01*
X24283333Y83550000D01*
X24250000Y83516667D01*
X24183333Y83416667D01*
X24150000Y83283334D01*
X24150000Y83016667D01*
X24183333Y82950000D01*
X24216666Y82916667D01*
X24283333Y82883334D01*
X24416666Y82883334D01*
X24483333Y82916667D01*
X24516666Y82950000D01*
X24550000Y83016667D01*
X24550000Y83183334D01*
X24516666Y83250000D01*
X24483333Y83283334D01*
X24416666Y83316667D01*
X24283333Y83316667D01*
X24216666Y83283334D01*
X24183333Y83250000D01*
X24150000Y83183334D01*
X18316666Y81816667D02*
X18350000Y81850000D01*
X18416666Y81883334D01*
X18583333Y81883334D01*
X18650000Y81850000D01*
X18683333Y81816667D01*
X18716666Y81750000D01*
X18716666Y81683334D01*
X18683333Y81583334D01*
X18283333Y81183334D01*
X18716666Y81183334D01*
X19016666Y81250000D02*
X19050000Y81216667D01*
X19016666Y81183334D01*
X18983333Y81216667D01*
X19016666Y81250000D01*
X19016666Y81183334D01*
X19316666Y81816667D02*
X19350000Y81850000D01*
X19416666Y81883334D01*
X19583333Y81883334D01*
X19650000Y81850000D01*
X19683333Y81816667D01*
X19716666Y81750000D01*
X19716666Y81683334D01*
X19683333Y81583334D01*
X19283333Y81183334D01*
X19716666Y81183334D01*
X20016666Y81183334D02*
X20016666Y81883334D01*
X20083333Y81450000D02*
X20283333Y81183334D01*
X20283333Y81650000D02*
X20016666Y81383334D01*
X18583333Y45683334D02*
X18350000Y46016667D01*
X18183333Y45683334D02*
X18183333Y46383334D01*
X18450000Y46383334D01*
X18516666Y46350000D01*
X18550000Y46316667D01*
X18583333Y46250000D01*
X18583333Y46150000D01*
X18550000Y46083334D01*
X18516666Y46050000D01*
X18450000Y46016667D01*
X18183333Y46016667D01*
X18816666Y46383334D02*
X19283333Y46383334D01*
X18983333Y45683334D01*
X19983333Y48416667D02*
X20016666Y48450000D01*
X20083333Y48483334D01*
X20250000Y48483334D01*
X20316666Y48450000D01*
X20350000Y48416667D01*
X20383333Y48350000D01*
X20383333Y48283334D01*
X20350000Y48183334D01*
X19950000Y47783334D01*
X20383333Y47783334D01*
X20650000Y48416667D02*
X20683333Y48450000D01*
X20750000Y48483334D01*
X20916666Y48483334D01*
X20983333Y48450000D01*
X21016666Y48416667D01*
X21050000Y48350000D01*
X21050000Y48283334D01*
X21016666Y48183334D01*
X20616666Y47783334D01*
X21050000Y47783334D01*
X21350000Y47783334D02*
X21350000Y48483334D01*
X21416666Y48050000D02*
X21616666Y47783334D01*
X21616666Y48250000D02*
X21350000Y47983334D01*
X15283333Y53183334D02*
X15050000Y53516667D01*
X14883333Y53183334D02*
X14883333Y53883334D01*
X15150000Y53883334D01*
X15216666Y53850000D01*
X15250000Y53816667D01*
X15283333Y53750000D01*
X15283333Y53650000D01*
X15250000Y53583334D01*
X15216666Y53550000D01*
X15150000Y53516667D01*
X14883333Y53516667D01*
X15683333Y53583334D02*
X15616666Y53616667D01*
X15583333Y53650000D01*
X15550000Y53716667D01*
X15550000Y53750000D01*
X15583333Y53816667D01*
X15616666Y53850000D01*
X15683333Y53883334D01*
X15816666Y53883334D01*
X15883333Y53850000D01*
X15916666Y53816667D01*
X15950000Y53750000D01*
X15950000Y53716667D01*
X15916666Y53650000D01*
X15883333Y53616667D01*
X15816666Y53583334D01*
X15683333Y53583334D01*
X15616666Y53550000D01*
X15583333Y53516667D01*
X15550000Y53450000D01*
X15550000Y53316667D01*
X15583333Y53250000D01*
X15616666Y53216667D01*
X15683333Y53183334D01*
X15816666Y53183334D01*
X15883333Y53216667D01*
X15916666Y53250000D01*
X15950000Y53316667D01*
X15950000Y53450000D01*
X15916666Y53516667D01*
X15883333Y53550000D01*
X15816666Y53583334D01*
X12283333Y55183334D02*
X11883333Y55183334D01*
X12083333Y55183334D02*
X12083333Y55883334D01*
X12016666Y55783334D01*
X11950000Y55716667D01*
X11883333Y55683334D01*
X12916666Y55883334D02*
X12583333Y55883334D01*
X12550000Y55550000D01*
X12583333Y55583334D01*
X12650000Y55616667D01*
X12816666Y55616667D01*
X12883333Y55583334D01*
X12916666Y55550000D01*
X12950000Y55483334D01*
X12950000Y55316667D01*
X12916666Y55250000D01*
X12883333Y55216667D01*
X12816666Y55183334D01*
X12650000Y55183334D01*
X12583333Y55216667D01*
X12550000Y55250000D01*
X13250000Y55183334D02*
X13250000Y55883334D01*
X13316666Y55450000D02*
X13516666Y55183334D01*
X13516666Y55650000D02*
X13250000Y55383334D01*
X1383333Y51983334D02*
X1150000Y52316667D01*
X983333Y51983334D02*
X983333Y52683334D01*
X1250000Y52683334D01*
X1316666Y52650000D01*
X1350000Y52616667D01*
X1383333Y52550000D01*
X1383333Y52450000D01*
X1350000Y52383334D01*
X1316666Y52350000D01*
X1250000Y52316667D01*
X983333Y52316667D01*
X1716666Y51983334D02*
X1850000Y51983334D01*
X1916666Y52016667D01*
X1950000Y52050000D01*
X2016666Y52150000D01*
X2050000Y52283334D01*
X2050000Y52550000D01*
X2016666Y52616667D01*
X1983333Y52650000D01*
X1916666Y52683334D01*
X1783333Y52683334D01*
X1716666Y52650000D01*
X1683333Y52616667D01*
X1650000Y52550000D01*
X1650000Y52383334D01*
X1683333Y52316667D01*
X1716666Y52283334D01*
X1783333Y52250000D01*
X1916666Y52250000D01*
X1983333Y52283334D01*
X2016666Y52316667D01*
X2050000Y52383334D01*
X7350000Y52716667D02*
X7383333Y52750000D01*
X7450000Y52783334D01*
X7616666Y52783334D01*
X7683333Y52750000D01*
X7716666Y52716667D01*
X7750000Y52650000D01*
X7750000Y52583334D01*
X7716666Y52483334D01*
X7316666Y52083334D01*
X7750000Y52083334D01*
X8016666Y52716667D02*
X8050000Y52750000D01*
X8116666Y52783334D01*
X8283333Y52783334D01*
X8350000Y52750000D01*
X8383333Y52716667D01*
X8416666Y52650000D01*
X8416666Y52583334D01*
X8383333Y52483334D01*
X7983333Y52083334D01*
X8416666Y52083334D01*
X8850000Y52783334D02*
X8916666Y52783334D01*
X8983333Y52750000D01*
X9016666Y52716667D01*
X9050000Y52650000D01*
X9083333Y52516667D01*
X9083333Y52350000D01*
X9050000Y52216667D01*
X9016666Y52150000D01*
X8983333Y52116667D01*
X8916666Y52083334D01*
X8850000Y52083334D01*
X8783333Y52116667D01*
X8750000Y52150000D01*
X8716666Y52216667D01*
X8683333Y52350000D01*
X8683333Y52516667D01*
X8716666Y52650000D01*
X8750000Y52716667D01*
X8783333Y52750000D01*
X8850000Y52783334D01*
X9383333Y52083334D02*
X9383333Y52783334D01*
X9450000Y52350000D02*
X9650000Y52083334D01*
X9650000Y52550000D02*
X9383333Y52283334D01*
X1750000Y82883334D02*
X1516666Y83216667D01*
X1350000Y82883334D02*
X1350000Y83583334D01*
X1616666Y83583334D01*
X1683333Y83550000D01*
X1716666Y83516667D01*
X1750000Y83450000D01*
X1750000Y83350000D01*
X1716666Y83283334D01*
X1683333Y83250000D01*
X1616666Y83216667D01*
X1350000Y83216667D01*
X2416666Y82883334D02*
X2016666Y82883334D01*
X2216666Y82883334D02*
X2216666Y83583334D01*
X2150000Y83483334D01*
X2083333Y83416667D01*
X2016666Y83383334D01*
X2850000Y83583334D02*
X2916666Y83583334D01*
X2983333Y83550000D01*
X3016666Y83516667D01*
X3050000Y83450000D01*
X3083333Y83316667D01*
X3083333Y83150000D01*
X3050000Y83016667D01*
X3016666Y82950000D01*
X2983333Y82916667D01*
X2916666Y82883334D01*
X2850000Y82883334D01*
X2783333Y82916667D01*
X2750000Y82950000D01*
X2716666Y83016667D01*
X2683333Y83150000D01*
X2683333Y83316667D01*
X2716666Y83450000D01*
X2750000Y83516667D01*
X2783333Y83550000D01*
X2850000Y83583334D01*
X6150000Y81183334D02*
X5750000Y81183334D01*
X5950000Y81183334D02*
X5950000Y81883334D01*
X5883333Y81783334D01*
X5816666Y81716667D01*
X5750000Y81683334D01*
X6583333Y81883334D02*
X6650000Y81883334D01*
X6716666Y81850000D01*
X6750000Y81816667D01*
X6783333Y81750000D01*
X6816666Y81616667D01*
X6816666Y81450000D01*
X6783333Y81316667D01*
X6750000Y81250000D01*
X6716666Y81216667D01*
X6650000Y81183334D01*
X6583333Y81183334D01*
X6516666Y81216667D01*
X6483333Y81250000D01*
X6450000Y81316667D01*
X6416666Y81450000D01*
X6416666Y81616667D01*
X6450000Y81750000D01*
X6483333Y81816667D01*
X6516666Y81850000D01*
X6583333Y81883334D01*
X7250000Y81883334D02*
X7316666Y81883334D01*
X7383333Y81850000D01*
X7416666Y81816667D01*
X7450000Y81750000D01*
X7483333Y81616667D01*
X7483333Y81450000D01*
X7450000Y81316667D01*
X7416666Y81250000D01*
X7383333Y81216667D01*
X7316666Y81183334D01*
X7250000Y81183334D01*
X7183333Y81216667D01*
X7150000Y81250000D01*
X7116666Y81316667D01*
X7083333Y81450000D01*
X7083333Y81616667D01*
X7116666Y81750000D01*
X7150000Y81816667D01*
X7183333Y81850000D01*
X7250000Y81883334D01*
X7783333Y81183334D02*
X7783333Y81883334D01*
X7850000Y81450000D02*
X8050000Y81183334D01*
X8050000Y81650000D02*
X7783333Y81383334D01*
X1250000Y50183334D02*
X1016666Y50516667D01*
X850000Y50183334D02*
X850000Y50883334D01*
X1116666Y50883334D01*
X1183333Y50850000D01*
X1216666Y50816667D01*
X1250000Y50750000D01*
X1250000Y50650000D01*
X1216666Y50583334D01*
X1183333Y50550000D01*
X1116666Y50516667D01*
X850000Y50516667D01*
X1916666Y50183334D02*
X1516666Y50183334D01*
X1716666Y50183334D02*
X1716666Y50883334D01*
X1650000Y50783334D01*
X1583333Y50716667D01*
X1516666Y50683334D01*
X2583333Y50183334D02*
X2183333Y50183334D01*
X2383333Y50183334D02*
X2383333Y50883334D01*
X2316666Y50783334D01*
X2250000Y50716667D01*
X2183333Y50683334D01*
X8083333Y48983334D02*
X7683333Y48983334D01*
X7883333Y48983334D02*
X7883333Y49683334D01*
X7816666Y49583334D01*
X7750000Y49516667D01*
X7683333Y49483334D01*
X8516666Y49683334D02*
X8583333Y49683334D01*
X8650000Y49650000D01*
X8683333Y49616667D01*
X8716666Y49550000D01*
X8750000Y49416667D01*
X8750000Y49250000D01*
X8716666Y49116667D01*
X8683333Y49050000D01*
X8650000Y49016667D01*
X8583333Y48983334D01*
X8516666Y48983334D01*
X8450000Y49016667D01*
X8416666Y49050000D01*
X8383333Y49116667D01*
X8350000Y49250000D01*
X8350000Y49416667D01*
X8383333Y49550000D01*
X8416666Y49616667D01*
X8450000Y49650000D01*
X8516666Y49683334D01*
X9050000Y48983334D02*
X9050000Y49683334D01*
X9116666Y49250000D02*
X9316666Y48983334D01*
X9316666Y49450000D02*
X9050000Y49183334D01*
X950000Y105583334D02*
X716666Y105916667D01*
X550000Y105583334D02*
X550000Y106283334D01*
X816666Y106283334D01*
X883333Y106250000D01*
X916666Y106216667D01*
X950000Y106150000D01*
X950000Y106050000D01*
X916666Y105983334D01*
X883333Y105950000D01*
X816666Y105916667D01*
X550000Y105916667D01*
X1616666Y105583334D02*
X1216666Y105583334D01*
X1416666Y105583334D02*
X1416666Y106283334D01*
X1350000Y106183334D01*
X1283333Y106116667D01*
X1216666Y106083334D01*
X1850000Y106283334D02*
X2283333Y106283334D01*
X2050000Y106016667D01*
X2150000Y106016667D01*
X2216666Y105983334D01*
X2250000Y105950000D01*
X2283333Y105883334D01*
X2283333Y105716667D01*
X2250000Y105650000D01*
X2216666Y105616667D01*
X2150000Y105583334D01*
X1950000Y105583334D01*
X1883333Y105616667D01*
X1850000Y105650000D01*
X1683333Y98316667D02*
X1650000Y98350000D01*
X1616666Y98416667D01*
X1616666Y98583334D01*
X1650000Y98650000D01*
X1683333Y98683334D01*
X1750000Y98716667D01*
X1816666Y98716667D01*
X1916666Y98683334D01*
X2316666Y98283334D01*
X2316666Y98716667D01*
X2250000Y99016667D02*
X2283333Y99050000D01*
X2316666Y99016667D01*
X2283333Y98983334D01*
X2250000Y99016667D01*
X2316666Y99016667D01*
X1683333Y99316667D02*
X1650000Y99350000D01*
X1616666Y99416667D01*
X1616666Y99583334D01*
X1650000Y99650000D01*
X1683333Y99683334D01*
X1750000Y99716667D01*
X1816666Y99716667D01*
X1916666Y99683334D01*
X2316666Y99283334D01*
X2316666Y99716667D01*
X2316666Y100016667D02*
X1616666Y100016667D01*
X2050000Y100083334D02*
X2316666Y100283334D01*
X1850000Y100283334D02*
X2116666Y100016667D01*
X35850000Y30183334D02*
X35616666Y30516667D01*
X35450000Y30183334D02*
X35450000Y30883334D01*
X35716666Y30883334D01*
X35783333Y30850000D01*
X35816666Y30816667D01*
X35850000Y30750000D01*
X35850000Y30650000D01*
X35816666Y30583334D01*
X35783333Y30550000D01*
X35716666Y30516667D01*
X35450000Y30516667D01*
X36516666Y30183334D02*
X36116666Y30183334D01*
X36316666Y30183334D02*
X36316666Y30883334D01*
X36250000Y30783334D01*
X36183333Y30716667D01*
X36116666Y30683334D01*
X37116666Y30650000D02*
X37116666Y30183334D01*
X36950000Y30916667D02*
X36783333Y30416667D01*
X37216666Y30416667D01*
X36616666Y23150000D02*
X36616666Y22750000D01*
X36616666Y22950000D02*
X35916666Y22950000D01*
X36016666Y22883334D01*
X36083333Y22816667D01*
X36116666Y22750000D01*
X35916666Y23583334D02*
X35916666Y23650000D01*
X35950000Y23716667D01*
X35983333Y23750000D01*
X36050000Y23783334D01*
X36183333Y23816667D01*
X36350000Y23816667D01*
X36483333Y23783334D01*
X36550000Y23750000D01*
X36583333Y23716667D01*
X36616666Y23650000D01*
X36616666Y23583334D01*
X36583333Y23516667D01*
X36550000Y23483334D01*
X36483333Y23450000D01*
X36350000Y23416667D01*
X36183333Y23416667D01*
X36050000Y23450000D01*
X35983333Y23483334D01*
X35950000Y23516667D01*
X35916666Y23583334D01*
X35916666Y24250000D02*
X35916666Y24316667D01*
X35950000Y24383334D01*
X35983333Y24416667D01*
X36050000Y24450000D01*
X36183333Y24483334D01*
X36350000Y24483334D01*
X36483333Y24450000D01*
X36550000Y24416667D01*
X36583333Y24383334D01*
X36616666Y24316667D01*
X36616666Y24250000D01*
X36583333Y24183334D01*
X36550000Y24150000D01*
X36483333Y24116667D01*
X36350000Y24083334D01*
X36183333Y24083334D01*
X36050000Y24116667D01*
X35983333Y24150000D01*
X35950000Y24183334D01*
X35916666Y24250000D01*
X36616666Y24783334D02*
X35916666Y24783334D01*
X36350000Y24850000D02*
X36616666Y25050000D01*
X36150000Y25050000D02*
X36416666Y24783334D01*
X35850000Y31583334D02*
X35616666Y31916667D01*
X35450000Y31583334D02*
X35450000Y32283334D01*
X35716666Y32283334D01*
X35783333Y32250000D01*
X35816666Y32216667D01*
X35850000Y32150000D01*
X35850000Y32050000D01*
X35816666Y31983334D01*
X35783333Y31950000D01*
X35716666Y31916667D01*
X35450000Y31916667D01*
X36516666Y31583334D02*
X36116666Y31583334D01*
X36316666Y31583334D02*
X36316666Y32283334D01*
X36250000Y32183334D01*
X36183333Y32116667D01*
X36116666Y32083334D01*
X37150000Y32283334D02*
X36816666Y32283334D01*
X36783333Y31950000D01*
X36816666Y31983334D01*
X36883333Y32016667D01*
X37050000Y32016667D01*
X37116666Y31983334D01*
X37150000Y31950000D01*
X37183333Y31883334D01*
X37183333Y31716667D01*
X37150000Y31650000D01*
X37116666Y31616667D01*
X37050000Y31583334D01*
X36883333Y31583334D01*
X36816666Y31616667D01*
X36783333Y31650000D01*
X28583333Y31583334D02*
X28183333Y31583334D01*
X28383333Y31583334D02*
X28383333Y32283334D01*
X28316666Y32183334D01*
X28250000Y32116667D01*
X28183333Y32083334D01*
X29016666Y32283334D02*
X29083333Y32283334D01*
X29150000Y32250000D01*
X29183333Y32216667D01*
X29216666Y32150000D01*
X29250000Y32016667D01*
X29250000Y31850000D01*
X29216666Y31716667D01*
X29183333Y31650000D01*
X29150000Y31616667D01*
X29083333Y31583334D01*
X29016666Y31583334D01*
X28950000Y31616667D01*
X28916666Y31650000D01*
X28883333Y31716667D01*
X28850000Y31850000D01*
X28850000Y32016667D01*
X28883333Y32150000D01*
X28916666Y32216667D01*
X28950000Y32250000D01*
X29016666Y32283334D01*
X29550000Y31583334D02*
X29550000Y32283334D01*
X29616666Y31850000D02*
X29816666Y31583334D01*
X29816666Y32050000D02*
X29550000Y31783334D01*
X25350000Y2583334D02*
X25116666Y2916667D01*
X24950000Y2583334D02*
X24950000Y3283334D01*
X25216666Y3283334D01*
X25283333Y3250000D01*
X25316666Y3216667D01*
X25350000Y3150000D01*
X25350000Y3050000D01*
X25316666Y2983334D01*
X25283333Y2950000D01*
X25216666Y2916667D01*
X24950000Y2916667D01*
X26016666Y2583334D02*
X25616666Y2583334D01*
X25816666Y2583334D02*
X25816666Y3283334D01*
X25750000Y3183334D01*
X25683333Y3116667D01*
X25616666Y3083334D01*
X26250000Y3283334D02*
X26716666Y3283334D01*
X26416666Y2583334D01*
X25650000Y9166667D02*
X26116666Y9166667D01*
X25383333Y9000000D02*
X25883333Y8833334D01*
X25883333Y9266667D01*
X25416666Y9466667D02*
X25416666Y9933334D01*
X26116666Y9633334D01*
X25416666Y10333334D02*
X25416666Y10400000D01*
X25450000Y10466667D01*
X25483333Y10500000D01*
X25550000Y10533334D01*
X25683333Y10566667D01*
X25850000Y10566667D01*
X25983333Y10533334D01*
X26050000Y10500000D01*
X26083333Y10466667D01*
X26116666Y10400000D01*
X26116666Y10333334D01*
X26083333Y10266667D01*
X26050000Y10233334D01*
X25983333Y10200000D01*
X25850000Y10166667D01*
X25683333Y10166667D01*
X25550000Y10200000D01*
X25483333Y10233334D01*
X25450000Y10266667D01*
X25416666Y10333334D01*
X14650000Y3183334D02*
X14416666Y3516667D01*
X14250000Y3183334D02*
X14250000Y3883334D01*
X14516666Y3883334D01*
X14583333Y3850000D01*
X14616666Y3816667D01*
X14650000Y3750000D01*
X14650000Y3650000D01*
X14616666Y3583334D01*
X14583333Y3550000D01*
X14516666Y3516667D01*
X14250000Y3516667D01*
X15316666Y3183334D02*
X14916666Y3183334D01*
X15116666Y3183334D02*
X15116666Y3883334D01*
X15050000Y3783334D01*
X14983333Y3716667D01*
X14916666Y3683334D01*
X15716666Y3583334D02*
X15650000Y3616667D01*
X15616666Y3650000D01*
X15583333Y3716667D01*
X15583333Y3750000D01*
X15616666Y3816667D01*
X15650000Y3850000D01*
X15716666Y3883334D01*
X15850000Y3883334D01*
X15916666Y3850000D01*
X15950000Y3816667D01*
X15983333Y3750000D01*
X15983333Y3716667D01*
X15950000Y3650000D01*
X15916666Y3616667D01*
X15850000Y3583334D01*
X15716666Y3583334D01*
X15650000Y3550000D01*
X15616666Y3516667D01*
X15583333Y3450000D01*
X15583333Y3316667D01*
X15616666Y3250000D01*
X15650000Y3216667D01*
X15716666Y3183334D01*
X15850000Y3183334D01*
X15916666Y3216667D01*
X15950000Y3250000D01*
X15983333Y3316667D01*
X15983333Y3450000D01*
X15950000Y3516667D01*
X15916666Y3550000D01*
X15850000Y3583334D01*
X12850000Y8966667D02*
X13316666Y8966667D01*
X12583333Y8800000D02*
X13083333Y8633334D01*
X13083333Y9066667D01*
X12616666Y9266667D02*
X12616666Y9733334D01*
X13316666Y9433334D01*
X12616666Y10133334D02*
X12616666Y10200000D01*
X12650000Y10266667D01*
X12683333Y10300000D01*
X12750000Y10333334D01*
X12883333Y10366667D01*
X13050000Y10366667D01*
X13183333Y10333334D01*
X13250000Y10300000D01*
X13283333Y10266667D01*
X13316666Y10200000D01*
X13316666Y10133334D01*
X13283333Y10066667D01*
X13250000Y10033334D01*
X13183333Y10000000D01*
X13050000Y9966667D01*
X12883333Y9966667D01*
X12750000Y10000000D01*
X12683333Y10033334D01*
X12650000Y10066667D01*
X12616666Y10133334D01*
X22950000Y45483334D02*
X22716666Y45816667D01*
X22550000Y45483334D02*
X22550000Y46183334D01*
X22816666Y46183334D01*
X22883333Y46150000D01*
X22916666Y46116667D01*
X22950000Y46050000D01*
X22950000Y45950000D01*
X22916666Y45883334D01*
X22883333Y45850000D01*
X22816666Y45816667D01*
X22550000Y45816667D01*
X23216666Y46116667D02*
X23250000Y46150000D01*
X23316666Y46183334D01*
X23483333Y46183334D01*
X23550000Y46150000D01*
X23583333Y46116667D01*
X23616666Y46050000D01*
X23616666Y45983334D01*
X23583333Y45883334D01*
X23183333Y45483334D01*
X23616666Y45483334D01*
X24283333Y45483334D02*
X23883333Y45483334D01*
X24083333Y45483334D02*
X24083333Y46183334D01*
X24016666Y46083334D01*
X23950000Y46016667D01*
X23883333Y45983334D01*
X29750000Y45083334D02*
X29350000Y45083334D01*
X29550000Y45083334D02*
X29550000Y45783334D01*
X29483333Y45683334D01*
X29416666Y45616667D01*
X29350000Y45583334D01*
X30183333Y45783334D02*
X30250000Y45783334D01*
X30316666Y45750000D01*
X30350000Y45716667D01*
X30383333Y45650000D01*
X30416666Y45516667D01*
X30416666Y45350000D01*
X30383333Y45216667D01*
X30350000Y45150000D01*
X30316666Y45116667D01*
X30250000Y45083334D01*
X30183333Y45083334D01*
X30116666Y45116667D01*
X30083333Y45150000D01*
X30050000Y45216667D01*
X30016666Y45350000D01*
X30016666Y45516667D01*
X30050000Y45650000D01*
X30083333Y45716667D01*
X30116666Y45750000D01*
X30183333Y45783334D01*
X30850000Y45783334D02*
X30916666Y45783334D01*
X30983333Y45750000D01*
X31016666Y45716667D01*
X31050000Y45650000D01*
X31083333Y45516667D01*
X31083333Y45350000D01*
X31050000Y45216667D01*
X31016666Y45150000D01*
X30983333Y45116667D01*
X30916666Y45083334D01*
X30850000Y45083334D01*
X30783333Y45116667D01*
X30750000Y45150000D01*
X30716666Y45216667D01*
X30683333Y45350000D01*
X30683333Y45516667D01*
X30716666Y45650000D01*
X30750000Y45716667D01*
X30783333Y45750000D01*
X30850000Y45783334D01*
X31383333Y45083334D02*
X31383333Y45783334D01*
X31450000Y45350000D02*
X31650000Y45083334D01*
X31650000Y45550000D02*
X31383333Y45283334D01*
X3950000Y31583334D02*
X3716666Y31916667D01*
X3550000Y31583334D02*
X3550000Y32283334D01*
X3816666Y32283334D01*
X3883333Y32250000D01*
X3916666Y32216667D01*
X3950000Y32150000D01*
X3950000Y32050000D01*
X3916666Y31983334D01*
X3883333Y31950000D01*
X3816666Y31916667D01*
X3550000Y31916667D01*
X4216666Y32216667D02*
X4250000Y32250000D01*
X4316666Y32283334D01*
X4483333Y32283334D01*
X4550000Y32250000D01*
X4583333Y32216667D01*
X4616666Y32150000D01*
X4616666Y32083334D01*
X4583333Y31983334D01*
X4183333Y31583334D01*
X4616666Y31583334D01*
X5250000Y32283334D02*
X4916666Y32283334D01*
X4883333Y31950000D01*
X4916666Y31983334D01*
X4983333Y32016667D01*
X5150000Y32016667D01*
X5216666Y31983334D01*
X5250000Y31950000D01*
X5283333Y31883334D01*
X5283333Y31716667D01*
X5250000Y31650000D01*
X5216666Y31616667D01*
X5150000Y31583334D01*
X4983333Y31583334D01*
X4916666Y31616667D01*
X4883333Y31650000D01*
X11616666Y31583334D02*
X11216666Y31583334D01*
X11416666Y31583334D02*
X11416666Y32283334D01*
X11350000Y32183334D01*
X11283333Y32116667D01*
X11216666Y32083334D01*
X11916666Y31583334D02*
X11916666Y32283334D01*
X11983333Y31850000D02*
X12183333Y31583334D01*
X12183333Y32050000D02*
X11916666Y31783334D01*
X25850000Y52183334D02*
X25616666Y52516667D01*
X25450000Y52183334D02*
X25450000Y52883334D01*
X25716666Y52883334D01*
X25783333Y52850000D01*
X25816666Y52816667D01*
X25850000Y52750000D01*
X25850000Y52650000D01*
X25816666Y52583334D01*
X25783333Y52550000D01*
X25716666Y52516667D01*
X25450000Y52516667D01*
X26116666Y52816667D02*
X26150000Y52850000D01*
X26216666Y52883334D01*
X26383333Y52883334D01*
X26450000Y52850000D01*
X26483333Y52816667D01*
X26516666Y52750000D01*
X26516666Y52683334D01*
X26483333Y52583334D01*
X26083333Y52183334D01*
X26516666Y52183334D01*
X26850000Y52183334D02*
X26983333Y52183334D01*
X27050000Y52216667D01*
X27083333Y52250000D01*
X27150000Y52350000D01*
X27183333Y52483334D01*
X27183333Y52750000D01*
X27150000Y52816667D01*
X27116666Y52850000D01*
X27050000Y52883334D01*
X26916666Y52883334D01*
X26850000Y52850000D01*
X26816666Y52816667D01*
X26783333Y52750000D01*
X26783333Y52583334D01*
X26816666Y52516667D01*
X26850000Y52483334D01*
X26916666Y52450000D01*
X27050000Y52450000D01*
X27116666Y52483334D01*
X27150000Y52516667D01*
X27183333Y52583334D01*
X27116666Y58350000D02*
X27116666Y57950000D01*
X27116666Y58150000D02*
X26416666Y58150000D01*
X26516666Y58083334D01*
X26583333Y58016667D01*
X26616666Y57950000D01*
X26416666Y58783334D02*
X26416666Y58850000D01*
X26450000Y58916667D01*
X26483333Y58950000D01*
X26550000Y58983334D01*
X26683333Y59016667D01*
X26850000Y59016667D01*
X26983333Y58983334D01*
X27050000Y58950000D01*
X27083333Y58916667D01*
X27116666Y58850000D01*
X27116666Y58783334D01*
X27083333Y58716667D01*
X27050000Y58683334D01*
X26983333Y58650000D01*
X26850000Y58616667D01*
X26683333Y58616667D01*
X26550000Y58650000D01*
X26483333Y58683334D01*
X26450000Y58716667D01*
X26416666Y58783334D01*
X26416666Y59450000D02*
X26416666Y59516667D01*
X26450000Y59583334D01*
X26483333Y59616667D01*
X26550000Y59650000D01*
X26683333Y59683334D01*
X26850000Y59683334D01*
X26983333Y59650000D01*
X27050000Y59616667D01*
X27083333Y59583334D01*
X27116666Y59516667D01*
X27116666Y59450000D01*
X27083333Y59383334D01*
X27050000Y59350000D01*
X26983333Y59316667D01*
X26850000Y59283334D01*
X26683333Y59283334D01*
X26550000Y59316667D01*
X26483333Y59350000D01*
X26450000Y59383334D01*
X26416666Y59450000D01*
X27116666Y59983334D02*
X26416666Y59983334D01*
X26850000Y60050000D02*
X27116666Y60250000D01*
X26650000Y60250000D02*
X26916666Y59983334D01*
X32250000Y52083334D02*
X32016666Y52416667D01*
X31850000Y52083334D02*
X31850000Y52783334D01*
X32116666Y52783334D01*
X32183333Y52750000D01*
X32216666Y52716667D01*
X32250000Y52650000D01*
X32250000Y52550000D01*
X32216666Y52483334D01*
X32183333Y52450000D01*
X32116666Y52416667D01*
X31850000Y52416667D01*
X32483333Y52783334D02*
X32916666Y52783334D01*
X32683333Y52516667D01*
X32783333Y52516667D01*
X32850000Y52483334D01*
X32883333Y52450000D01*
X32916666Y52383334D01*
X32916666Y52216667D01*
X32883333Y52150000D01*
X32850000Y52116667D01*
X32783333Y52083334D01*
X32583333Y52083334D01*
X32516666Y52116667D01*
X32483333Y52150000D01*
X33583333Y52083334D02*
X33183333Y52083334D01*
X33383333Y52083334D02*
X33383333Y52783334D01*
X33316666Y52683334D01*
X33250000Y52616667D01*
X33183333Y52583334D01*
X32483333Y58283334D02*
X32450000Y58316667D01*
X32416666Y58383334D01*
X32416666Y58550000D01*
X32450000Y58616667D01*
X32483333Y58650000D01*
X32550000Y58683334D01*
X32616666Y58683334D01*
X32716666Y58650000D01*
X33116666Y58250000D01*
X33116666Y58683334D01*
X32483333Y58950000D02*
X32450000Y58983334D01*
X32416666Y59050000D01*
X32416666Y59216667D01*
X32450000Y59283334D01*
X32483333Y59316667D01*
X32550000Y59350000D01*
X32616666Y59350000D01*
X32716666Y59316667D01*
X33116666Y58916667D01*
X33116666Y59350000D01*
X33116666Y59650000D02*
X32416666Y59650000D01*
X32850000Y59716667D02*
X33116666Y59916667D01*
X32650000Y59916667D02*
X32916666Y59650000D01*
X18450000Y52883334D02*
X18216666Y53216667D01*
X18050000Y52883334D02*
X18050000Y53583334D01*
X18316666Y53583334D01*
X18383333Y53550000D01*
X18416666Y53516667D01*
X18450000Y53450000D01*
X18450000Y53350000D01*
X18416666Y53283334D01*
X18383333Y53250000D01*
X18316666Y53216667D01*
X18050000Y53216667D01*
X18683333Y53583334D02*
X19116666Y53583334D01*
X18883333Y53316667D01*
X18983333Y53316667D01*
X19050000Y53283334D01*
X19083333Y53250000D01*
X19116666Y53183334D01*
X19116666Y53016667D01*
X19083333Y52950000D01*
X19050000Y52916667D01*
X18983333Y52883334D01*
X18783333Y52883334D01*
X18716666Y52916667D01*
X18683333Y52950000D01*
X19350000Y53583334D02*
X19783333Y53583334D01*
X19550000Y53316667D01*
X19650000Y53316667D01*
X19716666Y53283334D01*
X19750000Y53250000D01*
X19783333Y53183334D01*
X19783333Y53016667D01*
X19750000Y52950000D01*
X19716666Y52916667D01*
X19650000Y52883334D01*
X19450000Y52883334D01*
X19383333Y52916667D01*
X19350000Y52950000D01*
X21116666Y58683334D02*
X21116666Y58283334D01*
X21116666Y58483334D02*
X20416666Y58483334D01*
X20516666Y58416667D01*
X20583333Y58350000D01*
X20616666Y58283334D01*
X20416666Y59116667D02*
X20416666Y59183334D01*
X20450000Y59250000D01*
X20483333Y59283334D01*
X20550000Y59316667D01*
X20683333Y59350000D01*
X20850000Y59350000D01*
X20983333Y59316667D01*
X21050000Y59283334D01*
X21083333Y59250000D01*
X21116666Y59183334D01*
X21116666Y59116667D01*
X21083333Y59050000D01*
X21050000Y59016667D01*
X20983333Y58983334D01*
X20850000Y58950000D01*
X20683333Y58950000D01*
X20550000Y58983334D01*
X20483333Y59016667D01*
X20450000Y59050000D01*
X20416666Y59116667D01*
X21116666Y59650000D02*
X20416666Y59650000D01*
X20850000Y59716667D02*
X21116666Y59916667D01*
X20650000Y59916667D02*
X20916666Y59650000D01*
X23350000Y52183334D02*
X23116666Y52516667D01*
X22950000Y52183334D02*
X22950000Y52883334D01*
X23216666Y52883334D01*
X23283333Y52850000D01*
X23316666Y52816667D01*
X23350000Y52750000D01*
X23350000Y52650000D01*
X23316666Y52583334D01*
X23283333Y52550000D01*
X23216666Y52516667D01*
X22950000Y52516667D01*
X23583333Y52883334D02*
X24016666Y52883334D01*
X23783333Y52616667D01*
X23883333Y52616667D01*
X23950000Y52583334D01*
X23983333Y52550000D01*
X24016666Y52483334D01*
X24016666Y52316667D01*
X23983333Y52250000D01*
X23950000Y52216667D01*
X23883333Y52183334D01*
X23683333Y52183334D01*
X23616666Y52216667D01*
X23583333Y52250000D01*
X24616666Y52650000D02*
X24616666Y52183334D01*
X24450000Y52916667D02*
X24283333Y52416667D01*
X24716666Y52416667D01*
X24116666Y58533334D02*
X23416666Y58533334D01*
X24116666Y58933334D01*
X23416666Y58933334D01*
X23416666Y59266667D02*
X23983333Y59266667D01*
X24050000Y59300000D01*
X24083333Y59333334D01*
X24116666Y59400000D01*
X24116666Y59533334D01*
X24083333Y59600000D01*
X24050000Y59633334D01*
X23983333Y59666667D01*
X23416666Y59666667D01*
X28250000Y52183334D02*
X28016666Y52516667D01*
X27850000Y52183334D02*
X27850000Y52883334D01*
X28116666Y52883334D01*
X28183333Y52850000D01*
X28216666Y52816667D01*
X28250000Y52750000D01*
X28250000Y52650000D01*
X28216666Y52583334D01*
X28183333Y52550000D01*
X28116666Y52516667D01*
X27850000Y52516667D01*
X28483333Y52883334D02*
X28916666Y52883334D01*
X28683333Y52616667D01*
X28783333Y52616667D01*
X28850000Y52583334D01*
X28883333Y52550000D01*
X28916666Y52483334D01*
X28916666Y52316667D01*
X28883333Y52250000D01*
X28850000Y52216667D01*
X28783333Y52183334D01*
X28583333Y52183334D01*
X28516666Y52216667D01*
X28483333Y52250000D01*
X29516666Y52883334D02*
X29383333Y52883334D01*
X29316666Y52850000D01*
X29283333Y52816667D01*
X29216666Y52716667D01*
X29183333Y52583334D01*
X29183333Y52316667D01*
X29216666Y52250000D01*
X29250000Y52216667D01*
X29316666Y52183334D01*
X29450000Y52183334D01*
X29516666Y52216667D01*
X29550000Y52250000D01*
X29583333Y52316667D01*
X29583333Y52483334D01*
X29550000Y52550000D01*
X29516666Y52583334D01*
X29450000Y52616667D01*
X29316666Y52616667D01*
X29250000Y52583334D01*
X29216666Y52550000D01*
X29183333Y52483334D01*
X29416666Y58250000D02*
X29416666Y58683334D01*
X29683333Y58450000D01*
X29683333Y58550000D01*
X29716666Y58616667D01*
X29750000Y58650000D01*
X29816666Y58683334D01*
X29983333Y58683334D01*
X30050000Y58650000D01*
X30083333Y58616667D01*
X30116666Y58550000D01*
X30116666Y58350000D01*
X30083333Y58283334D01*
X30050000Y58250000D01*
X29416666Y58916667D02*
X29416666Y59350000D01*
X29683333Y59116667D01*
X29683333Y59216667D01*
X29716666Y59283334D01*
X29750000Y59316667D01*
X29816666Y59350000D01*
X29983333Y59350000D01*
X30050000Y59316667D01*
X30083333Y59283334D01*
X30116666Y59216667D01*
X30116666Y59016667D01*
X30083333Y58950000D01*
X30050000Y58916667D01*
X30116666Y59650000D02*
X29416666Y59650000D01*
X29850000Y59716667D02*
X30116666Y59916667D01*
X29650000Y59916667D02*
X29916666Y59650000D01*
X23450000Y79583334D02*
X23216666Y79916667D01*
X23050000Y79583334D02*
X23050000Y80283334D01*
X23316666Y80283334D01*
X23383333Y80250000D01*
X23416666Y80216667D01*
X23450000Y80150000D01*
X23450000Y80050000D01*
X23416666Y79983334D01*
X23383333Y79950000D01*
X23316666Y79916667D01*
X23050000Y79916667D01*
X23683333Y80283334D02*
X24116666Y80283334D01*
X23883333Y80016667D01*
X23983333Y80016667D01*
X24050000Y79983334D01*
X24083333Y79950000D01*
X24116666Y79883334D01*
X24116666Y79716667D01*
X24083333Y79650000D01*
X24050000Y79616667D01*
X23983333Y79583334D01*
X23783333Y79583334D01*
X23716666Y79616667D01*
X23683333Y79650000D01*
X24350000Y80283334D02*
X24816666Y80283334D01*
X24516666Y79583334D01*
X23483333Y72583334D02*
X23450000Y72616667D01*
X23416666Y72683334D01*
X23416666Y72850000D01*
X23450000Y72916667D01*
X23483333Y72950000D01*
X23550000Y72983334D01*
X23616666Y72983334D01*
X23716666Y72950000D01*
X24116666Y72550000D01*
X24116666Y72983334D01*
X23483333Y73250000D02*
X23450000Y73283334D01*
X23416666Y73350000D01*
X23416666Y73516667D01*
X23450000Y73583334D01*
X23483333Y73616667D01*
X23550000Y73650000D01*
X23616666Y73650000D01*
X23716666Y73616667D01*
X24116666Y73216667D01*
X24116666Y73650000D01*
X24116666Y73950000D02*
X23416666Y73950000D01*
X23850000Y74016667D02*
X24116666Y74216667D01*
X23650000Y74216667D02*
X23916666Y73950000D01*
X18250000Y77283334D02*
X18016666Y77616667D01*
X17850000Y77283334D02*
X17850000Y77983334D01*
X18116666Y77983334D01*
X18183333Y77950000D01*
X18216666Y77916667D01*
X18250000Y77850000D01*
X18250000Y77750000D01*
X18216666Y77683334D01*
X18183333Y77650000D01*
X18116666Y77616667D01*
X17850000Y77616667D01*
X18483333Y77983334D02*
X18916666Y77983334D01*
X18683333Y77716667D01*
X18783333Y77716667D01*
X18850000Y77683334D01*
X18883333Y77650000D01*
X18916666Y77583334D01*
X18916666Y77416667D01*
X18883333Y77350000D01*
X18850000Y77316667D01*
X18783333Y77283334D01*
X18583333Y77283334D01*
X18516666Y77316667D01*
X18483333Y77350000D01*
X19316666Y77683334D02*
X19250000Y77716667D01*
X19216666Y77750000D01*
X19183333Y77816667D01*
X19183333Y77850000D01*
X19216666Y77916667D01*
X19250000Y77950000D01*
X19316666Y77983334D01*
X19450000Y77983334D01*
X19516666Y77950000D01*
X19550000Y77916667D01*
X19583333Y77850000D01*
X19583333Y77816667D01*
X19550000Y77750000D01*
X19516666Y77716667D01*
X19450000Y77683334D01*
X19316666Y77683334D01*
X19250000Y77650000D01*
X19216666Y77616667D01*
X19183333Y77550000D01*
X19183333Y77416667D01*
X19216666Y77350000D01*
X19250000Y77316667D01*
X19316666Y77283334D01*
X19450000Y77283334D01*
X19516666Y77316667D01*
X19550000Y77350000D01*
X19583333Y77416667D01*
X19583333Y77550000D01*
X19550000Y77616667D01*
X19516666Y77650000D01*
X19450000Y77683334D01*
X20416666Y72550000D02*
X20416666Y72983334D01*
X20683333Y72750000D01*
X20683333Y72850000D01*
X20716666Y72916667D01*
X20750000Y72950000D01*
X20816666Y72983334D01*
X20983333Y72983334D01*
X21050000Y72950000D01*
X21083333Y72916667D01*
X21116666Y72850000D01*
X21116666Y72650000D01*
X21083333Y72583334D01*
X21050000Y72550000D01*
X20416666Y73216667D02*
X20416666Y73650000D01*
X20683333Y73416667D01*
X20683333Y73516667D01*
X20716666Y73583334D01*
X20750000Y73616667D01*
X20816666Y73650000D01*
X20983333Y73650000D01*
X21050000Y73616667D01*
X21083333Y73583334D01*
X21116666Y73516667D01*
X21116666Y73316667D01*
X21083333Y73250000D01*
X21050000Y73216667D01*
X21116666Y73950000D02*
X20416666Y73950000D01*
X20850000Y74016667D02*
X21116666Y74216667D01*
X20650000Y74216667D02*
X20916666Y73950000D01*
X29216666Y71150000D02*
X28883333Y70916667D01*
X29216666Y70750000D02*
X28516666Y70750000D01*
X28516666Y71016667D01*
X28550000Y71083334D01*
X28583333Y71116667D01*
X28650000Y71150000D01*
X28750000Y71150000D01*
X28816666Y71116667D01*
X28850000Y71083334D01*
X28883333Y71016667D01*
X28883333Y70750000D01*
X28516666Y71383334D02*
X28516666Y71816667D01*
X28783333Y71583334D01*
X28783333Y71683334D01*
X28816666Y71750000D01*
X28850000Y71783334D01*
X28916666Y71816667D01*
X29083333Y71816667D01*
X29150000Y71783334D01*
X29183333Y71750000D01*
X29216666Y71683334D01*
X29216666Y71483334D01*
X29183333Y71416667D01*
X29150000Y71383334D01*
X29216666Y72150000D02*
X29216666Y72283334D01*
X29183333Y72350000D01*
X29150000Y72383334D01*
X29050000Y72450000D01*
X28916666Y72483334D01*
X28650000Y72483334D01*
X28583333Y72450000D01*
X28550000Y72416667D01*
X28516666Y72350000D01*
X28516666Y72216667D01*
X28550000Y72150000D01*
X28583333Y72116667D01*
X28650000Y72083334D01*
X28816666Y72083334D01*
X28883333Y72116667D01*
X28916666Y72150000D01*
X28950000Y72216667D01*
X28950000Y72350000D01*
X28916666Y72416667D01*
X28883333Y72450000D01*
X28816666Y72483334D01*
X26416666Y72916667D02*
X26416666Y72783334D01*
X26450000Y72716667D01*
X26483333Y72683334D01*
X26583333Y72616667D01*
X26716666Y72583334D01*
X26983333Y72583334D01*
X27050000Y72616667D01*
X27083333Y72650000D01*
X27116666Y72716667D01*
X27116666Y72850000D01*
X27083333Y72916667D01*
X27050000Y72950000D01*
X26983333Y72983334D01*
X26816666Y72983334D01*
X26750000Y72950000D01*
X26716666Y72916667D01*
X26683333Y72850000D01*
X26683333Y72716667D01*
X26716666Y72650000D01*
X26750000Y72616667D01*
X26816666Y72583334D01*
X26716666Y73383334D02*
X26683333Y73316667D01*
X26650000Y73283334D01*
X26583333Y73250000D01*
X26550000Y73250000D01*
X26483333Y73283334D01*
X26450000Y73316667D01*
X26416666Y73383334D01*
X26416666Y73516667D01*
X26450000Y73583334D01*
X26483333Y73616667D01*
X26550000Y73650000D01*
X26583333Y73650000D01*
X26650000Y73616667D01*
X26683333Y73583334D01*
X26716666Y73516667D01*
X26716666Y73383334D01*
X26750000Y73316667D01*
X26783333Y73283334D01*
X26850000Y73250000D01*
X26983333Y73250000D01*
X27050000Y73283334D01*
X27083333Y73316667D01*
X27116666Y73383334D01*
X27116666Y73516667D01*
X27083333Y73583334D01*
X27050000Y73616667D01*
X26983333Y73650000D01*
X26850000Y73650000D01*
X26783333Y73616667D01*
X26750000Y73583334D01*
X26716666Y73516667D01*
X27116666Y73950000D02*
X26416666Y73950000D01*
X26850000Y74016667D02*
X27116666Y74216667D01*
X26650000Y74216667D02*
X26916666Y73950000D01*
X1250000Y46883334D02*
X1016666Y47216667D01*
X850000Y46883334D02*
X850000Y47583334D01*
X1116666Y47583334D01*
X1183333Y47550000D01*
X1216666Y47516667D01*
X1250000Y47450000D01*
X1250000Y47350000D01*
X1216666Y47283334D01*
X1183333Y47250000D01*
X1116666Y47216667D01*
X850000Y47216667D01*
X1850000Y47350000D02*
X1850000Y46883334D01*
X1683333Y47616667D02*
X1516666Y47116667D01*
X1950000Y47116667D01*
X2350000Y47583334D02*
X2416666Y47583334D01*
X2483333Y47550000D01*
X2516666Y47516667D01*
X2550000Y47450000D01*
X2583333Y47316667D01*
X2583333Y47150000D01*
X2550000Y47016667D01*
X2516666Y46950000D01*
X2483333Y46916667D01*
X2416666Y46883334D01*
X2350000Y46883334D01*
X2283333Y46916667D01*
X2250000Y46950000D01*
X2216666Y47016667D01*
X2183333Y47150000D01*
X2183333Y47316667D01*
X2216666Y47450000D01*
X2250000Y47516667D01*
X2283333Y47550000D01*
X2350000Y47583334D01*
X7966666Y46150000D02*
X7966666Y45683334D01*
X7800000Y46416667D02*
X7633333Y45916667D01*
X8066666Y45916667D01*
X8266666Y46383334D02*
X8733333Y46383334D01*
X8433333Y45683334D01*
X9133333Y46383334D02*
X9200000Y46383334D01*
X9266666Y46350000D01*
X9300000Y46316667D01*
X9333333Y46250000D01*
X9366666Y46116667D01*
X9366666Y45950000D01*
X9333333Y45816667D01*
X9300000Y45750000D01*
X9266666Y45716667D01*
X9200000Y45683334D01*
X9133333Y45683334D01*
X9066666Y45716667D01*
X9033333Y45750000D01*
X9000000Y45816667D01*
X8966666Y45950000D01*
X8966666Y46116667D01*
X9000000Y46250000D01*
X9033333Y46316667D01*
X9066666Y46350000D01*
X9133333Y46383334D01*
X33050000Y29983334D02*
X32816666Y30316667D01*
X32650000Y29983334D02*
X32650000Y30683334D01*
X32916666Y30683334D01*
X32983333Y30650000D01*
X33016666Y30616667D01*
X33050000Y30550000D01*
X33050000Y30450000D01*
X33016666Y30383334D01*
X32983333Y30350000D01*
X32916666Y30316667D01*
X32650000Y30316667D01*
X33650000Y30450000D02*
X33650000Y29983334D01*
X33483333Y30716667D02*
X33316666Y30216667D01*
X33750000Y30216667D01*
X34383333Y29983334D02*
X33983333Y29983334D01*
X34183333Y29983334D02*
X34183333Y30683334D01*
X34116666Y30583334D01*
X34050000Y30516667D01*
X33983333Y30483334D01*
X33150000Y23266667D02*
X33616666Y23266667D01*
X32883333Y23100000D02*
X33383333Y22933334D01*
X33383333Y23366667D01*
X32916666Y23566667D02*
X32916666Y24033334D01*
X33616666Y23733334D01*
X32916666Y24433334D02*
X32916666Y24500000D01*
X32950000Y24566667D01*
X32983333Y24600000D01*
X33050000Y24633334D01*
X33183333Y24666667D01*
X33350000Y24666667D01*
X33483333Y24633334D01*
X33550000Y24600000D01*
X33583333Y24566667D01*
X33616666Y24500000D01*
X33616666Y24433334D01*
X33583333Y24366667D01*
X33550000Y24333334D01*
X33483333Y24300000D01*
X33350000Y24266667D01*
X33183333Y24266667D01*
X33050000Y24300000D01*
X32983333Y24333334D01*
X32950000Y24366667D01*
X32916666Y24433334D01*
X7816666Y68400000D02*
X7816666Y68000000D01*
X7816666Y68200000D02*
X7116666Y68200000D01*
X7216666Y68133334D01*
X7283333Y68066667D01*
X7316666Y68000000D01*
X7816666Y68700000D02*
X7116666Y68700000D01*
X7816666Y69100000D01*
X7116666Y69100000D01*
X7350000Y69733334D02*
X7816666Y69733334D01*
X7083333Y69566667D02*
X7583333Y69400000D01*
X7583333Y69833334D01*
X7816666Y70466667D02*
X7816666Y70066667D01*
X7816666Y70266667D02*
X7116666Y70266667D01*
X7216666Y70200000D01*
X7283333Y70133334D01*
X7316666Y70066667D01*
X7350000Y71066667D02*
X7816666Y71066667D01*
X7083333Y70900000D02*
X7583333Y70733334D01*
X7583333Y71166667D01*
X7416666Y71533334D02*
X7383333Y71466667D01*
X7350000Y71433334D01*
X7283333Y71400000D01*
X7250000Y71400000D01*
X7183333Y71433334D01*
X7150000Y71466667D01*
X7116666Y71533334D01*
X7116666Y71666667D01*
X7150000Y71733334D01*
X7183333Y71766667D01*
X7250000Y71800000D01*
X7283333Y71800000D01*
X7350000Y71766667D01*
X7383333Y71733334D01*
X7416666Y71666667D01*
X7416666Y71533334D01*
X7450000Y71466667D01*
X7483333Y71433334D01*
X7550000Y71400000D01*
X7683333Y71400000D01*
X7750000Y71433334D01*
X7783333Y71466667D01*
X7816666Y71533334D01*
X7816666Y71666667D01*
X7783333Y71733334D01*
X7750000Y71766667D01*
X7683333Y71800000D01*
X7550000Y71800000D01*
X7483333Y71766667D01*
X7450000Y71733334D01*
X7416666Y71666667D01*
X6583333Y75283334D02*
X6816666Y74583334D01*
X7050000Y75283334D01*
X7283333Y74583334D02*
X7283333Y75283334D01*
X7450000Y75283334D01*
X7550000Y75250000D01*
X7616666Y75183334D01*
X7650000Y75116667D01*
X7683333Y74983334D01*
X7683333Y74883334D01*
X7650000Y74750000D01*
X7616666Y74683334D01*
X7550000Y74616667D01*
X7450000Y74583334D01*
X7283333Y74583334D01*
X7950000Y75216667D02*
X7983333Y75250000D01*
X8050000Y75283334D01*
X8216666Y75283334D01*
X8283333Y75250000D01*
X8316666Y75216667D01*
X8350000Y75150000D01*
X8350000Y75083334D01*
X8316666Y74983334D01*
X7916666Y74583334D01*
X8350000Y74583334D01*
X18500000Y51783334D02*
X18100000Y51783334D01*
X18300000Y51783334D02*
X18300000Y52483334D01*
X18233333Y52383334D01*
X18166666Y52316667D01*
X18100000Y52283334D01*
X18800000Y51783334D02*
X18800000Y52483334D01*
X19200000Y51783334D01*
X19200000Y52483334D01*
X19833333Y52250000D02*
X19833333Y51783334D01*
X19666666Y52516667D02*
X19500000Y52016667D01*
X19933333Y52016667D01*
X20566666Y51783334D02*
X20166666Y51783334D01*
X20366666Y51783334D02*
X20366666Y52483334D01*
X20300000Y52383334D01*
X20233333Y52316667D01*
X20166666Y52283334D01*
X21166666Y52250000D02*
X21166666Y51783334D01*
X21000000Y52516667D02*
X20833333Y52016667D01*
X21266666Y52016667D01*
X21633333Y52183334D02*
X21566666Y52216667D01*
X21533333Y52250000D01*
X21500000Y52316667D01*
X21500000Y52350000D01*
X21533333Y52416667D01*
X21566666Y52450000D01*
X21633333Y52483334D01*
X21766666Y52483334D01*
X21833333Y52450000D01*
X21866666Y52416667D01*
X21900000Y52350000D01*
X21900000Y52316667D01*
X21866666Y52250000D01*
X21833333Y52216667D01*
X21766666Y52183334D01*
X21633333Y52183334D01*
X21566666Y52150000D01*
X21533333Y52116667D01*
X21500000Y52050000D01*
X21500000Y51916667D01*
X21533333Y51850000D01*
X21566666Y51816667D01*
X21633333Y51783334D01*
X21766666Y51783334D01*
X21833333Y51816667D01*
X21866666Y51850000D01*
X21900000Y51916667D01*
X21900000Y52050000D01*
X21866666Y52116667D01*
X21833333Y52150000D01*
X21766666Y52183334D01*
X15683333Y52483334D02*
X15916666Y51783334D01*
X16150000Y52483334D01*
X16383333Y51783334D02*
X16383333Y52483334D01*
X16550000Y52483334D01*
X16650000Y52450000D01*
X16716666Y52383334D01*
X16750000Y52316667D01*
X16783333Y52183334D01*
X16783333Y52083334D01*
X16750000Y51950000D01*
X16716666Y51883334D01*
X16650000Y51816667D01*
X16550000Y51783334D01*
X16383333Y51783334D01*
X17416666Y52483334D02*
X17083333Y52483334D01*
X17050000Y52150000D01*
X17083333Y52183334D01*
X17150000Y52216667D01*
X17316666Y52216667D01*
X17383333Y52183334D01*
X17416666Y52150000D01*
X17450000Y52083334D01*
X17450000Y51916667D01*
X17416666Y51850000D01*
X17383333Y51816667D01*
X17316666Y51783334D01*
X17150000Y51783334D01*
X17083333Y51816667D01*
X17050000Y51850000D01*
X1616666Y22883334D02*
X2316666Y23116667D01*
X1616666Y23350000D01*
X2316666Y23583334D02*
X1616666Y23583334D01*
X1616666Y23750000D01*
X1650000Y23850000D01*
X1716666Y23916667D01*
X1783333Y23950000D01*
X1916666Y23983334D01*
X2016666Y23983334D01*
X2150000Y23950000D01*
X2216666Y23916667D01*
X2283333Y23850000D01*
X2316666Y23750000D01*
X2316666Y23583334D01*
X1916666Y24383334D02*
X1883333Y24316667D01*
X1850000Y24283334D01*
X1783333Y24250000D01*
X1750000Y24250000D01*
X1683333Y24283334D01*
X1650000Y24316667D01*
X1616666Y24383334D01*
X1616666Y24516667D01*
X1650000Y24583334D01*
X1683333Y24616667D01*
X1750000Y24650000D01*
X1783333Y24650000D01*
X1850000Y24616667D01*
X1883333Y24583334D01*
X1916666Y24516667D01*
X1916666Y24383334D01*
X1950000Y24316667D01*
X1983333Y24283334D01*
X2050000Y24250000D01*
X2183333Y24250000D01*
X2250000Y24283334D01*
X2283333Y24316667D01*
X2316666Y24383334D01*
X2316666Y24516667D01*
X2283333Y24583334D01*
X2250000Y24616667D01*
X2183333Y24650000D01*
X2050000Y24650000D01*
X1983333Y24616667D01*
X1950000Y24583334D01*
X1916666Y24516667D01*
X22383333Y18783334D02*
X22616666Y18083334D01*
X22850000Y18783334D01*
X23083333Y18083334D02*
X23083333Y18783334D01*
X23250000Y18783334D01*
X23350000Y18750000D01*
X23416666Y18683334D01*
X23450000Y18616667D01*
X23483333Y18483334D01*
X23483333Y18383334D01*
X23450000Y18250000D01*
X23416666Y18183334D01*
X23350000Y18116667D01*
X23250000Y18083334D01*
X23083333Y18083334D01*
X23816666Y18083334D02*
X23950000Y18083334D01*
X24016666Y18116667D01*
X24050000Y18150000D01*
X24116666Y18250000D01*
X24150000Y18383334D01*
X24150000Y18650000D01*
X24116666Y18716667D01*
X24083333Y18750000D01*
X24016666Y18783334D01*
X23883333Y18783334D01*
X23816666Y18750000D01*
X23783333Y18716667D01*
X23750000Y18650000D01*
X23750000Y18483334D01*
X23783333Y18416667D01*
X23816666Y18383334D01*
X23883333Y18350000D01*
X24016666Y18350000D01*
X24083333Y18383334D01*
X24116666Y18416667D01*
X24150000Y18483334D01*
X28150000Y38983334D02*
X28383333Y38283334D01*
X28616666Y38983334D01*
X28850000Y38283334D02*
X28850000Y38983334D01*
X29016666Y38983334D01*
X29116666Y38950000D01*
X29183333Y38883334D01*
X29216666Y38816667D01*
X29250000Y38683334D01*
X29250000Y38583334D01*
X29216666Y38450000D01*
X29183333Y38383334D01*
X29116666Y38316667D01*
X29016666Y38283334D01*
X28850000Y38283334D01*
X29916666Y38283334D02*
X29516666Y38283334D01*
X29716666Y38283334D02*
X29716666Y38983334D01*
X29650000Y38883334D01*
X29583333Y38816667D01*
X29516666Y38783334D01*
X30350000Y38983334D02*
X30416666Y38983334D01*
X30483333Y38950000D01*
X30516666Y38916667D01*
X30550000Y38850000D01*
X30583333Y38716667D01*
X30583333Y38550000D01*
X30550000Y38416667D01*
X30516666Y38350000D01*
X30483333Y38316667D01*
X30416666Y38283334D01*
X30350000Y38283334D01*
X30283333Y38316667D01*
X30250000Y38350000D01*
X30216666Y38416667D01*
X30183333Y38550000D01*
X30183333Y38716667D01*
X30216666Y38850000D01*
X30250000Y38916667D01*
X30283333Y38950000D01*
X30350000Y38983334D01*
X27850000Y41183334D02*
X28083333Y40483334D01*
X28316666Y41183334D01*
X28550000Y40483334D02*
X28550000Y41183334D01*
X28716666Y41183334D01*
X28816666Y41150000D01*
X28883333Y41083334D01*
X28916666Y41016667D01*
X28950000Y40883334D01*
X28950000Y40783334D01*
X28916666Y40650000D01*
X28883333Y40583334D01*
X28816666Y40516667D01*
X28716666Y40483334D01*
X28550000Y40483334D01*
X29616666Y40483334D02*
X29216666Y40483334D01*
X29416666Y40483334D02*
X29416666Y41183334D01*
X29350000Y41083334D01*
X29283333Y41016667D01*
X29216666Y40983334D01*
X30283333Y40483334D02*
X29883333Y40483334D01*
X30083333Y40483334D02*
X30083333Y41183334D01*
X30016666Y41083334D01*
X29950000Y41016667D01*
X29883333Y40983334D01*
X34916666Y36450000D02*
X35616666Y36683334D01*
X34916666Y36916667D01*
X35616666Y37150000D02*
X34916666Y37150000D01*
X34916666Y37316667D01*
X34950000Y37416667D01*
X35016666Y37483334D01*
X35083333Y37516667D01*
X35216666Y37550000D01*
X35316666Y37550000D01*
X35450000Y37516667D01*
X35516666Y37483334D01*
X35583333Y37416667D01*
X35616666Y37316667D01*
X35616666Y37150000D01*
X35616666Y38216667D02*
X35616666Y37816667D01*
X35616666Y38016667D02*
X34916666Y38016667D01*
X35016666Y37950000D01*
X35083333Y37883334D01*
X35116666Y37816667D01*
X34983333Y38483334D02*
X34950000Y38516667D01*
X34916666Y38583334D01*
X34916666Y38750000D01*
X34950000Y38816667D01*
X34983333Y38850000D01*
X35050000Y38883334D01*
X35116666Y38883334D01*
X35216666Y38850000D01*
X35616666Y38450000D01*
X35616666Y38883334D01*
X8350000Y36783334D02*
X8583333Y36083334D01*
X8816666Y36783334D01*
X9050000Y36083334D02*
X9050000Y36783334D01*
X9216666Y36783334D01*
X9316666Y36750000D01*
X9383333Y36683334D01*
X9416666Y36616667D01*
X9450000Y36483334D01*
X9450000Y36383334D01*
X9416666Y36250000D01*
X9383333Y36183334D01*
X9316666Y36116667D01*
X9216666Y36083334D01*
X9050000Y36083334D01*
X10116666Y36083334D02*
X9716666Y36083334D01*
X9916666Y36083334D02*
X9916666Y36783334D01*
X9850000Y36683334D01*
X9783333Y36616667D01*
X9716666Y36583334D01*
X10350000Y36783334D02*
X10783333Y36783334D01*
X10550000Y36516667D01*
X10650000Y36516667D01*
X10716666Y36483334D01*
X10750000Y36450000D01*
X10783333Y36383334D01*
X10783333Y36216667D01*
X10750000Y36150000D01*
X10716666Y36116667D01*
X10650000Y36083334D01*
X10450000Y36083334D01*
X10383333Y36116667D01*
X10350000Y36150000D01*
X7850000Y34783334D02*
X8083333Y34083334D01*
X8316666Y34783334D01*
X8550000Y34083334D02*
X8550000Y34783334D01*
X8716666Y34783334D01*
X8816666Y34750000D01*
X8883333Y34683334D01*
X8916666Y34616667D01*
X8950000Y34483334D01*
X8950000Y34383334D01*
X8916666Y34250000D01*
X8883333Y34183334D01*
X8816666Y34116667D01*
X8716666Y34083334D01*
X8550000Y34083334D01*
X9616666Y34083334D02*
X9216666Y34083334D01*
X9416666Y34083334D02*
X9416666Y34783334D01*
X9350000Y34683334D01*
X9283333Y34616667D01*
X9216666Y34583334D01*
X10216666Y34550000D02*
X10216666Y34083334D01*
X10050000Y34816667D02*
X9883333Y34316667D01*
X10316666Y34316667D01*
X28250000Y36983334D02*
X28483333Y36283334D01*
X28716666Y36983334D01*
X28950000Y36283334D02*
X28950000Y36983334D01*
X29116666Y36983334D01*
X29216666Y36950000D01*
X29283333Y36883334D01*
X29316666Y36816667D01*
X29350000Y36683334D01*
X29350000Y36583334D01*
X29316666Y36450000D01*
X29283333Y36383334D01*
X29216666Y36316667D01*
X29116666Y36283334D01*
X28950000Y36283334D01*
X30016666Y36283334D02*
X29616666Y36283334D01*
X29816666Y36283334D02*
X29816666Y36983334D01*
X29750000Y36883334D01*
X29683333Y36816667D01*
X29616666Y36783334D01*
X30650000Y36983334D02*
X30316666Y36983334D01*
X30283333Y36650000D01*
X30316666Y36683334D01*
X30383333Y36716667D01*
X30550000Y36716667D01*
X30616666Y36683334D01*
X30650000Y36650000D01*
X30683333Y36583334D01*
X30683333Y36416667D01*
X30650000Y36350000D01*
X30616666Y36316667D01*
X30550000Y36283334D01*
X30383333Y36283334D01*
X30316666Y36316667D01*
X30283333Y36350000D01*
X8550000Y38983334D02*
X8783333Y38283334D01*
X9016666Y38983334D01*
X9250000Y38283334D02*
X9250000Y38983334D01*
X9416666Y38983334D01*
X9516666Y38950000D01*
X9583333Y38883334D01*
X9616666Y38816667D01*
X9650000Y38683334D01*
X9650000Y38583334D01*
X9616666Y38450000D01*
X9583333Y38383334D01*
X9516666Y38316667D01*
X9416666Y38283334D01*
X9250000Y38283334D01*
X10316666Y38283334D02*
X9916666Y38283334D01*
X10116666Y38283334D02*
X10116666Y38983334D01*
X10050000Y38883334D01*
X9983333Y38816667D01*
X9916666Y38783334D01*
X10916666Y38983334D02*
X10783333Y38983334D01*
X10716666Y38950000D01*
X10683333Y38916667D01*
X10616666Y38816667D01*
X10583333Y38683334D01*
X10583333Y38416667D01*
X10616666Y38350000D01*
X10650000Y38316667D01*
X10716666Y38283334D01*
X10850000Y38283334D01*
X10916666Y38316667D01*
X10950000Y38350000D01*
X10983333Y38416667D01*
X10983333Y38583334D01*
X10950000Y38650000D01*
X10916666Y38683334D01*
X10850000Y38716667D01*
X10716666Y38716667D01*
X10650000Y38683334D01*
X10616666Y38650000D01*
X10583333Y38583334D01*
X19700000Y30383334D02*
X19300000Y30383334D01*
X19500000Y30383334D02*
X19500000Y31083334D01*
X19433333Y30983334D01*
X19366666Y30916667D01*
X19300000Y30883334D01*
X20000000Y30383334D02*
X20000000Y31083334D01*
X20400000Y30383334D01*
X20400000Y31083334D01*
X21033333Y30850000D02*
X21033333Y30383334D01*
X20866666Y31116667D02*
X20700000Y30616667D01*
X21133333Y30616667D01*
X21766666Y30383334D02*
X21366666Y30383334D01*
X21566666Y30383334D02*
X21566666Y31083334D01*
X21500000Y30983334D01*
X21433333Y30916667D01*
X21366666Y30883334D01*
X22366666Y30850000D02*
X22366666Y30383334D01*
X22200000Y31116667D02*
X22033333Y30616667D01*
X22466666Y30616667D01*
X22833333Y30783334D02*
X22766666Y30816667D01*
X22733333Y30850000D01*
X22700000Y30916667D01*
X22700000Y30950000D01*
X22733333Y31016667D01*
X22766666Y31050000D01*
X22833333Y31083334D01*
X22966666Y31083334D01*
X23033333Y31050000D01*
X23066666Y31016667D01*
X23100000Y30950000D01*
X23100000Y30916667D01*
X23066666Y30850000D01*
X23033333Y30816667D01*
X22966666Y30783334D01*
X22833333Y30783334D01*
X22766666Y30750000D01*
X22733333Y30716667D01*
X22700000Y30650000D01*
X22700000Y30516667D01*
X22733333Y30450000D01*
X22766666Y30416667D01*
X22833333Y30383334D01*
X22966666Y30383334D01*
X23033333Y30416667D01*
X23066666Y30450000D01*
X23100000Y30516667D01*
X23100000Y30650000D01*
X23066666Y30716667D01*
X23033333Y30750000D01*
X22966666Y30783334D01*
X27450000Y34883334D02*
X27683333Y34183334D01*
X27916666Y34883334D01*
X28150000Y34183334D02*
X28150000Y34883334D01*
X28316666Y34883334D01*
X28416666Y34850000D01*
X28483333Y34783334D01*
X28516666Y34716667D01*
X28550000Y34583334D01*
X28550000Y34483334D01*
X28516666Y34350000D01*
X28483333Y34283334D01*
X28416666Y34216667D01*
X28316666Y34183334D01*
X28150000Y34183334D01*
X29216666Y34183334D02*
X28816666Y34183334D01*
X29016666Y34183334D02*
X29016666Y34883334D01*
X28950000Y34783334D01*
X28883333Y34716667D01*
X28816666Y34683334D01*
X29450000Y34883334D02*
X29916666Y34883334D01*
X29616666Y34183334D01*
X13650000Y97033334D02*
X13650000Y97266667D01*
X14016666Y97366667D02*
X14016666Y97033334D01*
X13316666Y97033334D01*
X13316666Y97366667D01*
X14016666Y98066667D02*
X13683333Y97833334D01*
X14016666Y97666667D02*
X13316666Y97666667D01*
X13316666Y97933334D01*
X13350000Y98000000D01*
X13383333Y98033334D01*
X13450000Y98066667D01*
X13550000Y98066667D01*
X13616666Y98033334D01*
X13650000Y98000000D01*
X13683333Y97933334D01*
X13683333Y97666667D01*
X13650000Y98600000D02*
X13650000Y98366667D01*
X14016666Y98366667D02*
X13316666Y98366667D01*
X13316666Y98700000D01*
X13750000Y98966667D02*
X13750000Y99500000D01*
X14016666Y100233334D02*
X13683333Y100000000D01*
X14016666Y99833334D02*
X13316666Y99833334D01*
X13316666Y100100000D01*
X13350000Y100166667D01*
X13383333Y100200000D01*
X13450000Y100233334D01*
X13550000Y100233334D01*
X13616666Y100200000D01*
X13650000Y100166667D01*
X13683333Y100100000D01*
X13683333Y99833334D01*
X13650000Y100766667D02*
X13683333Y100866667D01*
X13716666Y100900000D01*
X13783333Y100933334D01*
X13883333Y100933334D01*
X13950000Y100900000D01*
X13983333Y100866667D01*
X14016666Y100800000D01*
X14016666Y100533334D01*
X13316666Y100533334D01*
X13316666Y100766667D01*
X13350000Y100833334D01*
X13383333Y100866667D01*
X13450000Y100900000D01*
X13516666Y100900000D01*
X13583333Y100866667D01*
X13616666Y100833334D01*
X13650000Y100766667D01*
X13650000Y100533334D01*
X13750000Y101233334D02*
X13750000Y101766667D01*
X13316666Y102233334D02*
X13316666Y102300000D01*
X13350000Y102366667D01*
X13383333Y102400000D01*
X13450000Y102433334D01*
X13583333Y102466667D01*
X13750000Y102466667D01*
X13883333Y102433334D01*
X13950000Y102400000D01*
X13983333Y102366667D01*
X14016666Y102300000D01*
X14016666Y102233334D01*
X13983333Y102166667D01*
X13950000Y102133334D01*
X13883333Y102100000D01*
X13750000Y102066667D01*
X13583333Y102066667D01*
X13450000Y102100000D01*
X13383333Y102133334D01*
X13350000Y102166667D01*
X13316666Y102233334D01*
X14016666Y102800000D02*
X14016666Y102933334D01*
X13983333Y103000000D01*
X13950000Y103033334D01*
X13850000Y103100000D01*
X13716666Y103133334D01*
X13450000Y103133334D01*
X13383333Y103100000D01*
X13350000Y103066667D01*
X13316666Y103000000D01*
X13316666Y102866667D01*
X13350000Y102800000D01*
X13383333Y102766667D01*
X13450000Y102733334D01*
X13616666Y102733334D01*
X13683333Y102766667D01*
X13716666Y102800000D01*
X13750000Y102866667D01*
X13750000Y103000000D01*
X13716666Y103066667D01*
X13683333Y103100000D01*
X13616666Y103133334D01*
X13316666Y103566667D02*
X13316666Y103633334D01*
X13350000Y103700000D01*
X13383333Y103733334D01*
X13450000Y103766667D01*
X13583333Y103800000D01*
X13750000Y103800000D01*
X13883333Y103766667D01*
X13950000Y103733334D01*
X13983333Y103700000D01*
X14016666Y103633334D01*
X14016666Y103566667D01*
X13983333Y103500000D01*
X13950000Y103466667D01*
X13883333Y103433334D01*
X13750000Y103400000D01*
X13583333Y103400000D01*
X13450000Y103433334D01*
X13383333Y103466667D01*
X13350000Y103500000D01*
X13316666Y103566667D01*
X13750000Y104100000D02*
X13750000Y104633334D01*
X13316666Y104900000D02*
X13316666Y105333334D01*
X13583333Y105100000D01*
X13583333Y105200000D01*
X13616666Y105266667D01*
X13650000Y105300000D01*
X13716666Y105333334D01*
X13883333Y105333334D01*
X13950000Y105300000D01*
X13983333Y105266667D01*
X14016666Y105200000D01*
X14016666Y105000000D01*
X13983333Y104933334D01*
X13950000Y104900000D01*
X13316666Y105766667D02*
X13316666Y105833334D01*
X13350000Y105900000D01*
X13383333Y105933334D01*
X13450000Y105966667D01*
X13583333Y106000000D01*
X13750000Y106000000D01*
X13883333Y105966667D01*
X13950000Y105933334D01*
X13983333Y105900000D01*
X14016666Y105833334D01*
X14016666Y105766667D01*
X13983333Y105700000D01*
X13950000Y105666667D01*
X13883333Y105633334D01*
X13750000Y105600000D01*
X13583333Y105600000D01*
X13450000Y105633334D01*
X13383333Y105666667D01*
X13350000Y105700000D01*
X13316666Y105766667D01*
X14183333Y104983334D02*
X14416666Y104283334D01*
X14650000Y104983334D01*
X15283333Y104283334D02*
X15050000Y104616667D01*
X14883333Y104283334D02*
X14883333Y104983334D01*
X15150000Y104983334D01*
X15216666Y104950000D01*
X15250000Y104916667D01*
X15283333Y104850000D01*
X15283333Y104750000D01*
X15250000Y104683334D01*
X15216666Y104650000D01*
X15150000Y104616667D01*
X14883333Y104616667D01*
X15950000Y104283334D02*
X15550000Y104283334D01*
X15750000Y104283334D02*
X15750000Y104983334D01*
X15683333Y104883334D01*
X15616666Y104816667D01*
X15550000Y104783334D01*
X12550000Y87733334D02*
X12550000Y87966667D01*
X12916666Y88066667D02*
X12916666Y87733334D01*
X12216666Y87733334D01*
X12216666Y88066667D01*
X12916666Y88766667D02*
X12583333Y88533334D01*
X12916666Y88366667D02*
X12216666Y88366667D01*
X12216666Y88633334D01*
X12250000Y88700000D01*
X12283333Y88733334D01*
X12350000Y88766667D01*
X12450000Y88766667D01*
X12516666Y88733334D01*
X12550000Y88700000D01*
X12583333Y88633334D01*
X12583333Y88366667D01*
X12550000Y89300000D02*
X12550000Y89066667D01*
X12916666Y89066667D02*
X12216666Y89066667D01*
X12216666Y89400000D01*
X12650000Y89666667D02*
X12650000Y90200000D01*
X12916666Y90933334D02*
X12583333Y90700000D01*
X12916666Y90533334D02*
X12216666Y90533334D01*
X12216666Y90800000D01*
X12250000Y90866667D01*
X12283333Y90900000D01*
X12350000Y90933334D01*
X12450000Y90933334D01*
X12516666Y90900000D01*
X12550000Y90866667D01*
X12583333Y90800000D01*
X12583333Y90533334D01*
X12550000Y91466667D02*
X12583333Y91566667D01*
X12616666Y91600000D01*
X12683333Y91633334D01*
X12783333Y91633334D01*
X12850000Y91600000D01*
X12883333Y91566667D01*
X12916666Y91500000D01*
X12916666Y91233334D01*
X12216666Y91233334D01*
X12216666Y91466667D01*
X12250000Y91533334D01*
X12283333Y91566667D01*
X12350000Y91600000D01*
X12416666Y91600000D01*
X12483333Y91566667D01*
X12516666Y91533334D01*
X12550000Y91466667D01*
X12550000Y91233334D01*
X12650000Y91933334D02*
X12650000Y92466667D01*
X12216666Y92933334D02*
X12216666Y93000000D01*
X12250000Y93066667D01*
X12283333Y93100000D01*
X12350000Y93133334D01*
X12483333Y93166667D01*
X12650000Y93166667D01*
X12783333Y93133334D01*
X12850000Y93100000D01*
X12883333Y93066667D01*
X12916666Y93000000D01*
X12916666Y92933334D01*
X12883333Y92866667D01*
X12850000Y92833334D01*
X12783333Y92800000D01*
X12650000Y92766667D01*
X12483333Y92766667D01*
X12350000Y92800000D01*
X12283333Y92833334D01*
X12250000Y92866667D01*
X12216666Y92933334D01*
X12916666Y93500000D02*
X12916666Y93633334D01*
X12883333Y93700000D01*
X12850000Y93733334D01*
X12750000Y93800000D01*
X12616666Y93833334D01*
X12350000Y93833334D01*
X12283333Y93800000D01*
X12250000Y93766667D01*
X12216666Y93700000D01*
X12216666Y93566667D01*
X12250000Y93500000D01*
X12283333Y93466667D01*
X12350000Y93433334D01*
X12516666Y93433334D01*
X12583333Y93466667D01*
X12616666Y93500000D01*
X12650000Y93566667D01*
X12650000Y93700000D01*
X12616666Y93766667D01*
X12583333Y93800000D01*
X12516666Y93833334D01*
X12216666Y94266667D02*
X12216666Y94333334D01*
X12250000Y94400000D01*
X12283333Y94433334D01*
X12350000Y94466667D01*
X12483333Y94500000D01*
X12650000Y94500000D01*
X12783333Y94466667D01*
X12850000Y94433334D01*
X12883333Y94400000D01*
X12916666Y94333334D01*
X12916666Y94266667D01*
X12883333Y94200000D01*
X12850000Y94166667D01*
X12783333Y94133334D01*
X12650000Y94100000D01*
X12483333Y94100000D01*
X12350000Y94133334D01*
X12283333Y94166667D01*
X12250000Y94200000D01*
X12216666Y94266667D01*
X12650000Y94800000D02*
X12650000Y95333334D01*
X12216666Y95600000D02*
X12216666Y96033334D01*
X12483333Y95800000D01*
X12483333Y95900000D01*
X12516666Y95966667D01*
X12550000Y96000000D01*
X12616666Y96033334D01*
X12783333Y96033334D01*
X12850000Y96000000D01*
X12883333Y95966667D01*
X12916666Y95900000D01*
X12916666Y95700000D01*
X12883333Y95633334D01*
X12850000Y95600000D01*
X12216666Y96466667D02*
X12216666Y96533334D01*
X12250000Y96600000D01*
X12283333Y96633334D01*
X12350000Y96666667D01*
X12483333Y96700000D01*
X12650000Y96700000D01*
X12783333Y96666667D01*
X12850000Y96633334D01*
X12883333Y96600000D01*
X12916666Y96533334D01*
X12916666Y96466667D01*
X12883333Y96400000D01*
X12850000Y96366667D01*
X12783333Y96333334D01*
X12650000Y96300000D01*
X12483333Y96300000D01*
X12350000Y96333334D01*
X12283333Y96366667D01*
X12250000Y96400000D01*
X12216666Y96466667D01*
X21383333Y85783334D02*
X21616666Y85083334D01*
X21850000Y85783334D01*
X22483333Y85083334D02*
X22250000Y85416667D01*
X22083333Y85083334D02*
X22083333Y85783334D01*
X22350000Y85783334D01*
X22416666Y85750000D01*
X22450000Y85716667D01*
X22483333Y85650000D01*
X22483333Y85550000D01*
X22450000Y85483334D01*
X22416666Y85450000D01*
X22350000Y85416667D01*
X22083333Y85416667D01*
X22750000Y85716667D02*
X22783333Y85750000D01*
X22850000Y85783334D01*
X23016666Y85783334D01*
X23083333Y85750000D01*
X23116666Y85716667D01*
X23150000Y85650000D01*
X23150000Y85583334D01*
X23116666Y85483334D01*
X22716666Y85083334D01*
X23150000Y85083334D01*
X766666Y88183334D02*
X1000000Y87483334D01*
X1233333Y88183334D01*
X1366666Y88183334D02*
X1766666Y88183334D01*
X1566666Y87483334D02*
X1566666Y88183334D01*
X2366666Y87483334D02*
X1966666Y87483334D01*
X2166666Y87483334D02*
X2166666Y88183334D01*
X2100000Y88083334D01*
X2033333Y88016667D01*
X1966666Y87983334D01*
X25666666Y50083334D02*
X25900000Y49383334D01*
X26133333Y50083334D01*
X26266666Y50083334D02*
X26666666Y50083334D01*
X26466666Y49383334D02*
X26466666Y50083334D01*
X26833333Y50083334D02*
X27266666Y50083334D01*
X27033333Y49816667D01*
X27133333Y49816667D01*
X27200000Y49783334D01*
X27233333Y49750000D01*
X27266666Y49683334D01*
X27266666Y49516667D01*
X27233333Y49450000D01*
X27200000Y49416667D01*
X27133333Y49383334D01*
X26933333Y49383334D01*
X26866666Y49416667D01*
X26833333Y49450000D01*
X21902000Y4049334D02*
X22368666Y3349334D01*
X22368666Y4049334D02*
X21902000Y3349334D01*
X22602000Y3382667D02*
X22702000Y3349334D01*
X22868666Y3349334D01*
X22935333Y3382667D01*
X22968666Y3416000D01*
X23002000Y3482667D01*
X23002000Y3549334D01*
X22968666Y3616000D01*
X22935333Y3649334D01*
X22868666Y3682667D01*
X22735333Y3716000D01*
X22668666Y3749334D01*
X22635333Y3782667D01*
X22602000Y3849334D01*
X22602000Y3916000D01*
X22635333Y3982667D01*
X22668666Y4016000D01*
X22735333Y4049334D01*
X22902000Y4049334D01*
X23002000Y4016000D01*
X23635333Y4049334D02*
X23302000Y4049334D01*
X23268666Y3716000D01*
X23302000Y3749334D01*
X23368666Y3782667D01*
X23535333Y3782667D01*
X23602000Y3749334D01*
X23635333Y3716000D01*
X23668666Y3649334D01*
X23668666Y3482667D01*
X23635333Y3416000D01*
X23602000Y3382667D01*
X23535333Y3349334D01*
X23368666Y3349334D01*
X23302000Y3382667D01*
X23268666Y3416000D01*
X34902000Y4049334D02*
X35368666Y3349334D01*
X35368666Y4049334D02*
X34902000Y3349334D01*
X35602000Y3382667D02*
X35702000Y3349334D01*
X35868666Y3349334D01*
X35935333Y3382667D01*
X35968666Y3416000D01*
X36002000Y3482667D01*
X36002000Y3549334D01*
X35968666Y3616000D01*
X35935333Y3649334D01*
X35868666Y3682667D01*
X35735333Y3716000D01*
X35668666Y3749334D01*
X35635333Y3782667D01*
X35602000Y3849334D01*
X35602000Y3916000D01*
X35635333Y3982667D01*
X35668666Y4016000D01*
X35735333Y4049334D01*
X35902000Y4049334D01*
X36002000Y4016000D01*
X36602000Y4049334D02*
X36468666Y4049334D01*
X36402000Y4016000D01*
X36368666Y3982667D01*
X36302000Y3882667D01*
X36268666Y3749334D01*
X36268666Y3482667D01*
X36302000Y3416000D01*
X36335333Y3382667D01*
X36402000Y3349334D01*
X36535333Y3349334D01*
X36602000Y3382667D01*
X36635333Y3416000D01*
X36668666Y3482667D01*
X36668666Y3649334D01*
X36635333Y3716000D01*
X36602000Y3749334D01*
X36535333Y3782667D01*
X36402000Y3782667D01*
X36335333Y3749334D01*
X36302000Y3716000D01*
X36268666Y3649334D01*
X27130333Y94683334D02*
X26897000Y95016667D01*
X26730333Y94683334D02*
X26730333Y95383334D01*
X26997000Y95383334D01*
X27063666Y95350000D01*
X27097000Y95316667D01*
X27130333Y95250000D01*
X27130333Y95150000D01*
X27097000Y95083334D01*
X27063666Y95050000D01*
X26997000Y95016667D01*
X26730333Y95016667D01*
X27797000Y94683334D02*
X27397000Y94683334D01*
X27597000Y94683334D02*
X27597000Y95383334D01*
X27530333Y95283334D01*
X27463666Y95216667D01*
X27397000Y95183334D01*
X8783333Y106283334D02*
X9016666Y105583334D01*
X9250000Y106283334D01*
X9483333Y105583334D02*
X9483333Y106283334D01*
X9650000Y106283334D01*
X9750000Y106250000D01*
X9816666Y106183334D01*
X9850000Y106116667D01*
X9883333Y105983334D01*
X9883333Y105883334D01*
X9850000Y105750000D01*
X9816666Y105683334D01*
X9750000Y105616667D01*
X9650000Y105583334D01*
X9483333Y105583334D01*
X10550000Y105583334D02*
X10150000Y105583334D01*
X10350000Y105583334D02*
X10350000Y106283334D01*
X10283333Y106183334D01*
X10216666Y106116667D01*
X10150000Y106083334D01*
X13516666Y64489667D02*
X13516666Y64889667D01*
X14216666Y64689667D02*
X13516666Y64689667D01*
X14216666Y65456334D02*
X14216666Y65123000D01*
X13516666Y65123000D01*
X13516666Y65823000D02*
X13516666Y65889667D01*
X13550000Y65956334D01*
X13583333Y65989667D01*
X13650000Y66023000D01*
X13783333Y66056334D01*
X13950000Y66056334D01*
X14083333Y66023000D01*
X14150000Y65989667D01*
X14183333Y65956334D01*
X14216666Y65889667D01*
X14216666Y65823000D01*
X14183333Y65756334D01*
X14150000Y65723000D01*
X14083333Y65689667D01*
X13950000Y65656334D01*
X13783333Y65656334D01*
X13650000Y65689667D01*
X13583333Y65723000D01*
X13550000Y65756334D01*
X13516666Y65823000D01*
X13516666Y66289667D02*
X13516666Y66756334D01*
X14216666Y66456334D01*
X13750000Y67323000D02*
X14216666Y67323000D01*
X13483333Y67156334D02*
X13983333Y66989667D01*
X13983333Y67423000D01*
X16183333Y75283334D02*
X16183333Y75983334D01*
X16350000Y75983334D01*
X16450000Y75950000D01*
X16516666Y75883334D01*
X16550000Y75816667D01*
X16583333Y75683334D01*
X16583333Y75583334D01*
X16550000Y75450000D01*
X16516666Y75383334D01*
X16450000Y75316667D01*
X16350000Y75283334D01*
X16183333Y75283334D01*
X16850000Y75483334D02*
X17183333Y75483334D01*
X16783333Y75283334D02*
X17016666Y75983334D01*
X17250000Y75283334D01*
X17850000Y75283334D02*
X17450000Y75283334D01*
X17650000Y75283334D02*
X17650000Y75983334D01*
X17583333Y75883334D01*
X17516666Y75816667D01*
X17450000Y75783334D01*
X29000000Y104583334D02*
X28600000Y104583334D01*
X28800000Y104583334D02*
X28800000Y105283334D01*
X28733333Y105183334D01*
X28666666Y105116667D01*
X28600000Y105083334D01*
X29300000Y104583334D02*
X29300000Y105283334D01*
X29700000Y104583334D01*
X29700000Y105283334D01*
X30333333Y105050000D02*
X30333333Y104583334D01*
X30166666Y105316667D02*
X30000000Y104816667D01*
X30433333Y104816667D01*
X30833333Y105283334D02*
X30900000Y105283334D01*
X30966666Y105250000D01*
X31000000Y105216667D01*
X31033333Y105150000D01*
X31066666Y105016667D01*
X31066666Y104850000D01*
X31033333Y104716667D01*
X31000000Y104650000D01*
X30966666Y104616667D01*
X30900000Y104583334D01*
X30833333Y104583334D01*
X30766666Y104616667D01*
X30733333Y104650000D01*
X30700000Y104716667D01*
X30666666Y104850000D01*
X30666666Y105016667D01*
X30700000Y105150000D01*
X30733333Y105216667D01*
X30766666Y105250000D01*
X30833333Y105283334D01*
X31500000Y105283334D02*
X31566666Y105283334D01*
X31633333Y105250000D01*
X31666666Y105216667D01*
X31700000Y105150000D01*
X31733333Y105016667D01*
X31733333Y104850000D01*
X31700000Y104716667D01*
X31666666Y104650000D01*
X31633333Y104616667D01*
X31566666Y104583334D01*
X31500000Y104583334D01*
X31433333Y104616667D01*
X31400000Y104650000D01*
X31366666Y104716667D01*
X31333333Y104850000D01*
X31333333Y105016667D01*
X31366666Y105150000D01*
X31400000Y105216667D01*
X31433333Y105250000D01*
X31500000Y105283334D01*
X32400000Y104583334D02*
X32000000Y104583334D01*
X32200000Y104583334D02*
X32200000Y105283334D01*
X32133333Y105183334D01*
X32066666Y105116667D01*
X32000000Y105083334D01*
X22383333Y104083334D02*
X22616666Y103383334D01*
X22850000Y104083334D01*
X23083333Y103383334D02*
X23083333Y104083334D01*
X23250000Y104083334D01*
X23350000Y104050000D01*
X23416666Y103983334D01*
X23450000Y103916667D01*
X23483333Y103783334D01*
X23483333Y103683334D01*
X23450000Y103550000D01*
X23416666Y103483334D01*
X23350000Y103416667D01*
X23250000Y103383334D01*
X23083333Y103383334D01*
X23716666Y104083334D02*
X24150000Y104083334D01*
X23916666Y103816667D01*
X24016666Y103816667D01*
X24083333Y103783334D01*
X24116666Y103750000D01*
X24150000Y103683334D01*
X24150000Y103516667D01*
X24116666Y103450000D01*
X24083333Y103416667D01*
X24016666Y103383334D01*
X23816666Y103383334D01*
X23750000Y103416667D01*
X23716666Y103450000D01*
X30300000Y92783334D02*
X29900000Y92783334D01*
X30100000Y92783334D02*
X30100000Y93483334D01*
X30033333Y93383334D01*
X29966666Y93316667D01*
X29900000Y93283334D01*
X30600000Y92783334D02*
X30600000Y93483334D01*
X31000000Y92783334D01*
X31000000Y93483334D01*
X31633333Y93250000D02*
X31633333Y92783334D01*
X31466666Y93516667D02*
X31300000Y93016667D01*
X31733333Y93016667D01*
X32133333Y93483334D02*
X32200000Y93483334D01*
X32266666Y93450000D01*
X32300000Y93416667D01*
X32333333Y93350000D01*
X32366666Y93216667D01*
X32366666Y93050000D01*
X32333333Y92916667D01*
X32300000Y92850000D01*
X32266666Y92816667D01*
X32200000Y92783334D01*
X32133333Y92783334D01*
X32066666Y92816667D01*
X32033333Y92850000D01*
X32000000Y92916667D01*
X31966666Y93050000D01*
X31966666Y93216667D01*
X32000000Y93350000D01*
X32033333Y93416667D01*
X32066666Y93450000D01*
X32133333Y93483334D01*
X32800000Y93483334D02*
X32866666Y93483334D01*
X32933333Y93450000D01*
X32966666Y93416667D01*
X33000000Y93350000D01*
X33033333Y93216667D01*
X33033333Y93050000D01*
X33000000Y92916667D01*
X32966666Y92850000D01*
X32933333Y92816667D01*
X32866666Y92783334D01*
X32800000Y92783334D01*
X32733333Y92816667D01*
X32700000Y92850000D01*
X32666666Y92916667D01*
X32633333Y93050000D01*
X32633333Y93216667D01*
X32666666Y93350000D01*
X32700000Y93416667D01*
X32733333Y93450000D01*
X32800000Y93483334D01*
X33700000Y92783334D02*
X33300000Y92783334D01*
X33500000Y92783334D02*
X33500000Y93483334D01*
X33433333Y93383334D01*
X33366666Y93316667D01*
X33300000Y93283334D01*
X31283333Y95483334D02*
X31516666Y94783334D01*
X31750000Y95483334D01*
X31983333Y94783334D02*
X31983333Y95483334D01*
X32150000Y95483334D01*
X32250000Y95450000D01*
X32316666Y95383334D01*
X32350000Y95316667D01*
X32383333Y95183334D01*
X32383333Y95083334D01*
X32350000Y94950000D01*
X32316666Y94883334D01*
X32250000Y94816667D01*
X32150000Y94783334D01*
X31983333Y94783334D01*
X32983333Y95250000D02*
X32983333Y94783334D01*
X32816666Y95516667D02*
X32650000Y95016667D01*
X33083333Y95016667D01*
X6416666Y77983334D02*
X6816666Y77983334D01*
X6616666Y77283334D02*
X6616666Y77983334D01*
X7050000Y77283334D02*
X7050000Y77983334D01*
X7316666Y77983334D01*
X7383333Y77950000D01*
X7416666Y77916667D01*
X7450000Y77850000D01*
X7450000Y77750000D01*
X7416666Y77683334D01*
X7383333Y77650000D01*
X7316666Y77616667D01*
X7050000Y77616667D01*
X8116666Y77283334D02*
X7716666Y77283334D01*
X7916666Y77283334D02*
X7916666Y77983334D01*
X7850000Y77883334D01*
X7783333Y77816667D01*
X7716666Y77783334D01*
X8616666Y77983334D02*
X9016666Y77983334D01*
X8816666Y77283334D02*
X8816666Y77983334D01*
X9250000Y77283334D02*
X9250000Y77983334D01*
X9516666Y77983334D01*
X9583333Y77950000D01*
X9616666Y77916667D01*
X9650000Y77850000D01*
X9650000Y77750000D01*
X9616666Y77683334D01*
X9583333Y77650000D01*
X9516666Y77616667D01*
X9250000Y77616667D01*
X9916666Y77916667D02*
X9950000Y77950000D01*
X10016666Y77983334D01*
X10183333Y77983334D01*
X10250000Y77950000D01*
X10283333Y77916667D01*
X10316666Y77850000D01*
X10316666Y77783334D01*
X10283333Y77683334D01*
X9883333Y77283334D01*
X10316666Y77283334D01*
X34716666Y47983334D02*
X35116666Y47983334D01*
X34916666Y47283334D02*
X34916666Y47983334D01*
X35350000Y47283334D02*
X35350000Y47983334D01*
X35616666Y47983334D01*
X35683333Y47950000D01*
X35716666Y47916667D01*
X35750000Y47850000D01*
X35750000Y47750000D01*
X35716666Y47683334D01*
X35683333Y47650000D01*
X35616666Y47616667D01*
X35350000Y47616667D01*
X35983333Y47983334D02*
X36416666Y47983334D01*
X36183333Y47716667D01*
X36283333Y47716667D01*
X36350000Y47683334D01*
X36383333Y47650000D01*
X36416666Y47583334D01*
X36416666Y47416667D01*
X36383333Y47350000D01*
X36350000Y47316667D01*
X36283333Y47283334D01*
X36083333Y47283334D01*
X36016666Y47316667D01*
X35983333Y47350000D01*
X33316666Y84583334D02*
X33716666Y84583334D01*
X33516666Y83883334D02*
X33516666Y84583334D01*
X33950000Y83883334D02*
X33950000Y84583334D01*
X34216666Y84583334D01*
X34283333Y84550000D01*
X34316666Y84516667D01*
X34350000Y84450000D01*
X34350000Y84350000D01*
X34316666Y84283334D01*
X34283333Y84250000D01*
X34216666Y84216667D01*
X33950000Y84216667D01*
X34983333Y84583334D02*
X34650000Y84583334D01*
X34616666Y84250000D01*
X34650000Y84283334D01*
X34716666Y84316667D01*
X34883333Y84316667D01*
X34950000Y84283334D01*
X34983333Y84250000D01*
X35016666Y84183334D01*
X35016666Y84016667D01*
X34983333Y83950000D01*
X34950000Y83916667D01*
X34883333Y83883334D01*
X34716666Y83883334D01*
X34650000Y83916667D01*
X34616666Y83950000D01*
X28616666Y74816667D02*
X28616666Y75216667D01*
X29316666Y75016667D02*
X28616666Y75016667D01*
X29316666Y75450000D02*
X28616666Y75450000D01*
X28616666Y75716667D01*
X28650000Y75783334D01*
X28683333Y75816667D01*
X28750000Y75850000D01*
X28850000Y75850000D01*
X28916666Y75816667D01*
X28950000Y75783334D01*
X28983333Y75716667D01*
X28983333Y75450000D01*
X28616666Y76083334D02*
X28616666Y76550000D01*
X29316666Y76250000D01*
X29016666Y70183334D02*
X29416666Y70183334D01*
X29216666Y69483334D02*
X29216666Y70183334D01*
X29650000Y69483334D02*
X29650000Y70183334D01*
X29916666Y70183334D01*
X29983333Y70150000D01*
X30016666Y70116667D01*
X30050000Y70050000D01*
X30050000Y69950000D01*
X30016666Y69883334D01*
X29983333Y69850000D01*
X29916666Y69816667D01*
X29650000Y69816667D01*
X30450000Y69883334D02*
X30383333Y69916667D01*
X30350000Y69950000D01*
X30316666Y70016667D01*
X30316666Y70050000D01*
X30350000Y70116667D01*
X30383333Y70150000D01*
X30450000Y70183334D01*
X30583333Y70183334D01*
X30650000Y70150000D01*
X30683333Y70116667D01*
X30716666Y70050000D01*
X30716666Y70016667D01*
X30683333Y69950000D01*
X30650000Y69916667D01*
X30583333Y69883334D01*
X30450000Y69883334D01*
X30383333Y69850000D01*
X30350000Y69816667D01*
X30316666Y69750000D01*
X30316666Y69616667D01*
X30350000Y69550000D01*
X30383333Y69516667D01*
X30450000Y69483334D01*
X30583333Y69483334D01*
X30650000Y69516667D01*
X30683333Y69550000D01*
X30716666Y69616667D01*
X30716666Y69750000D01*
X30683333Y69816667D01*
X30650000Y69850000D01*
X30583333Y69883334D01*
X34916666Y82983334D02*
X35316666Y82983334D01*
X35116666Y82283334D02*
X35116666Y82983334D01*
X35550000Y82283334D02*
X35550000Y82983334D01*
X35816666Y82983334D01*
X35883333Y82950000D01*
X35916666Y82916667D01*
X35950000Y82850000D01*
X35950000Y82750000D01*
X35916666Y82683334D01*
X35883333Y82650000D01*
X35816666Y82616667D01*
X35550000Y82616667D01*
X36283333Y82283334D02*
X36416666Y82283334D01*
X36483333Y82316667D01*
X36516666Y82350000D01*
X36583333Y82450000D01*
X36616666Y82583334D01*
X36616666Y82850000D01*
X36583333Y82916667D01*
X36550000Y82950000D01*
X36483333Y82983334D01*
X36350000Y82983334D01*
X36283333Y82950000D01*
X36250000Y82916667D01*
X36216666Y82850000D01*
X36216666Y82683334D01*
X36250000Y82616667D01*
X36283333Y82583334D01*
X36350000Y82550000D01*
X36483333Y82550000D01*
X36550000Y82583334D01*
X36583333Y82616667D01*
X36616666Y82683334D01*
X28383333Y80816667D02*
X28416666Y80850000D01*
X28483333Y80883334D01*
X28650000Y80883334D01*
X28716666Y80850000D01*
X28750000Y80816667D01*
X28783333Y80750000D01*
X28783333Y80683334D01*
X28750000Y80583334D01*
X28350000Y80183334D01*
X28783333Y80183334D01*
X29050000Y80816667D02*
X29083333Y80850000D01*
X29150000Y80883334D01*
X29316666Y80883334D01*
X29383333Y80850000D01*
X29416666Y80816667D01*
X29450000Y80750000D01*
X29450000Y80683334D01*
X29416666Y80583334D01*
X29016666Y80183334D01*
X29450000Y80183334D01*
X29750000Y80183334D02*
X29750000Y80883334D01*
X29816666Y80450000D02*
X30016666Y80183334D01*
X30016666Y80650000D02*
X29750000Y80383334D01*
X28850000Y81083334D02*
X28616666Y81416667D01*
X28450000Y81083334D02*
X28450000Y81783334D01*
X28716666Y81783334D01*
X28783333Y81750000D01*
X28816666Y81716667D01*
X28850000Y81650000D01*
X28850000Y81550000D01*
X28816666Y81483334D01*
X28783333Y81450000D01*
X28716666Y81416667D01*
X28450000Y81416667D01*
X29116666Y81716667D02*
X29150000Y81750000D01*
X29216666Y81783334D01*
X29383333Y81783334D01*
X29450000Y81750000D01*
X29483333Y81716667D01*
X29516666Y81650000D01*
X29516666Y81583334D01*
X29483333Y81483334D01*
X29083333Y81083334D01*
X29516666Y81083334D01*
X29916666Y81483334D02*
X29850000Y81516667D01*
X29816666Y81550000D01*
X29783333Y81616667D01*
X29783333Y81650000D01*
X29816666Y81716667D01*
X29850000Y81750000D01*
X29916666Y81783334D01*
X30050000Y81783334D01*
X30116666Y81750000D01*
X30150000Y81716667D01*
X30183333Y81650000D01*
X30183333Y81616667D01*
X30150000Y81550000D01*
X30116666Y81516667D01*
X30050000Y81483334D01*
X29916666Y81483334D01*
X29850000Y81450000D01*
X29816666Y81416667D01*
X29783333Y81350000D01*
X29783333Y81216667D01*
X29816666Y81150000D01*
X29850000Y81116667D01*
X29916666Y81083334D01*
X30050000Y81083334D01*
X30116666Y81116667D01*
X30150000Y81150000D01*
X30183333Y81216667D01*
X30183333Y81350000D01*
X30150000Y81416667D01*
X30116666Y81450000D01*
X30050000Y81483334D01*
X35250000Y52083334D02*
X35016666Y52416667D01*
X34850000Y52083334D02*
X34850000Y52783334D01*
X35116666Y52783334D01*
X35183333Y52750000D01*
X35216666Y52716667D01*
X35250000Y52650000D01*
X35250000Y52550000D01*
X35216666Y52483334D01*
X35183333Y52450000D01*
X35116666Y52416667D01*
X34850000Y52416667D01*
X35516666Y52716667D02*
X35550000Y52750000D01*
X35616666Y52783334D01*
X35783333Y52783334D01*
X35850000Y52750000D01*
X35883333Y52716667D01*
X35916666Y52650000D01*
X35916666Y52583334D01*
X35883333Y52483334D01*
X35483333Y52083334D01*
X35916666Y52083334D01*
X36516666Y52550000D02*
X36516666Y52083334D01*
X36350000Y52816667D02*
X36183333Y52316667D01*
X36616666Y52316667D01*
X35416666Y58250000D02*
X35416666Y58683334D01*
X35683333Y58450000D01*
X35683333Y58550000D01*
X35716666Y58616667D01*
X35750000Y58650000D01*
X35816666Y58683334D01*
X35983333Y58683334D01*
X36050000Y58650000D01*
X36083333Y58616667D01*
X36116666Y58550000D01*
X36116666Y58350000D01*
X36083333Y58283334D01*
X36050000Y58250000D01*
X35416666Y58916667D02*
X35416666Y59350000D01*
X35683333Y59116667D01*
X35683333Y59216667D01*
X35716666Y59283334D01*
X35750000Y59316667D01*
X35816666Y59350000D01*
X35983333Y59350000D01*
X36050000Y59316667D01*
X36083333Y59283334D01*
X36116666Y59216667D01*
X36116666Y59016667D01*
X36083333Y58950000D01*
X36050000Y58916667D01*
X36116666Y59650000D02*
X35416666Y59650000D01*
X35850000Y59716667D02*
X36116666Y59916667D01*
X35650000Y59916667D02*
X35916666Y59650000D01*
M02*
