M48
;DRILL file {KiCad (2016-08-20 BZR 7083)-product} date Mon Jan  2 06:37:47 2017
;FORMAT={3:3/ absolute / metric / suppress leading zeros}
FMAT,2
METRIC,TZ
T1C0.500
T2C0.700
T3C0.800
T4C0.900
T5C1.000
T6C1.100
T7C1.400
%
G90
G05
M71
T1
X800Y83900
X1000Y70100
X1200Y19100
X1300Y99800
X1700Y8700
X2200Y21900
X2400Y32900
X2500Y38900
X3000Y42300
X3300Y63700
X3300Y28600
X3400Y24300
X4100Y104100
X4100Y43900
X4500Y39700
X5000Y86400
X5300Y47700
X6600Y15900
X7400Y37600
X7600Y49600
X7900Y43000
X8400Y35800
X8400Y28600
X8500Y70100
X8800Y48600
X8800Y44200
X9000Y100800
X9200Y54300
X9200Y21400
X9400Y79900
X9400Y26100
X10100Y24700
X10300Y56800
X10300Y14800
X10700Y38000
X10700Y36500
X10900Y40700
X11600Y75300
X11600Y59700
X11900Y23400
X13000Y79900
X13200Y84000
X13300Y26100
X13300Y1800
X13600Y66100
X13600Y63000
X13800Y73700
X14100Y44100
X14200Y101100
X14400Y10300
X14700Y104500
X14800Y69100
X15000Y24700
X15500Y33700
X15800Y54100
X16200Y39000
X16200Y19900
X16300Y59700
X16400Y14700
X16900Y44000
X17900Y47100
X18100Y86400
X18400Y81300
X18700Y102200
X18900Y23200
X19200Y76600
X19300Y105300
X19300Y51400
X19700Y95000
X19800Y72300
X19900Y59800
X21000Y42400
X21100Y24400
X21500Y70600
X21800Y49700
X21900Y16900
X22400Y12400
X22500Y27300
X22600Y82700
X22600Y19500
X22800Y45400
X22900Y34100
X23400Y41000
X23700Y85900
X23900Y26100
X24000Y29800
X25100Y88900
X25200Y74300
X25200Y23700
X25300Y25100
X26000Y82100
X26100Y1900
X26200Y60500
X26900Y30600
X27400Y37100
X27500Y104900
X27800Y9200
X28400Y76800
X28700Y79600
X28700Y46100
X29000Y34500
X29200Y31900
X29200Y30400
X29200Y25000
X30100Y36600
X30100Y21100
X30100Y14900
X30200Y93000
X30800Y95900
X31300Y29200
X31400Y67500
X31400Y47000
X31500Y41900
X33000Y62000
X33100Y77100
X33400Y72600
X33800Y100400
X34000Y70300
X34100Y79300
X34400Y43800
X34800Y27100
X34800Y7700
X35400Y81900
X36900Y83300
X36900Y12400
X37300Y70900
X37300Y1800
X37700Y67300
X37700Y47000
X37900Y56600
X38100Y75800
T2
X1765Y91870
X1765Y89330
X3035Y90600
X7400Y63740
X7400Y58660
X20460Y66200
X25260Y42900
X25540Y66200
X27300Y85840
X27300Y80760
X27360Y66200
X28230Y48935
X29500Y47665
X30260Y71600
X30340Y42900
X30770Y48935
X32440Y66200
X32460Y87600
X32460Y85600
X35340Y71600
X37540Y87600
X37540Y85600
X37600Y105940
X37600Y100860
X37700Y50540
X37700Y45460
T3
X3600Y26100
X3600Y18500
X5230Y105500
X5600Y40700
X5600Y38600
X5600Y36500
X5600Y34400
X5900Y26100
X5900Y18500
X7500Y73700
X7500Y66100
X7770Y105500
X13200Y40700
X13200Y38600
X13200Y36500
X13200Y34400
X14750Y85650
X15550Y102850
X15800Y50700
X18500Y26100
X18500Y18500
X19850Y84750
X20650Y101950
X20900Y26100
X20900Y18500
X23400Y50700
X25300Y40800
X25300Y38700
X25300Y36600
X25300Y34500
X30600Y77500
X31626Y79974
X31626Y75026
X32900Y40800
X32900Y38700
X32900Y36600
X32900Y34500
X34100Y81000
X34100Y74000
X35300Y41900
X35300Y34300
X36574Y79974
X36574Y75026
X37600Y77500
T4
X7500Y76200
X9700Y76300
X10090Y73720
X10090Y71180
X10090Y68640
X10090Y66100
X10090Y63560
X10090Y61020
X10090Y58480
X12850Y76800
X15350Y76800
X17710Y73720
X17710Y71180
X17710Y68640
X17710Y66100
X17710Y63560
X17710Y61020
X17710Y58480
X28700Y98650
X28700Y96150
X29400Y73800
X29900Y68400
X32600Y83300
X33600Y48100
X35200Y98650
X35200Y96150
X37700Y82000
T5
X1250Y42810
X1250Y40270
X1250Y37730
X1250Y35190
X1900Y81500
X1900Y78000
X1900Y68000
X1900Y65400
X1900Y55400
X2000Y104300
X2000Y94300
X3500Y52400
X3500Y49300
X3500Y46000
X4900Y78000
X4900Y68000
X4900Y65400
X4900Y55400
X6700Y31900
X7330Y98680
X7330Y96140
X7330Y93600
X7330Y91060
X7330Y88520
X7700Y55500
X9870Y98680
X9870Y96140
X9870Y93600
X9870Y91060
X9870Y88520
X11900Y81500
X13000Y14500
X13000Y4500
X13500Y52400
X13500Y49300
X13500Y46000
X14300Y81500
X15800Y48100
X16700Y31900
X17000Y88000
X17700Y55500
X19500Y88000
X20800Y78400
X20800Y68400
X20800Y64100
X20800Y54100
X22000Y88000
X23800Y78400
X23800Y68400
X23800Y64100
X23800Y54100
X24000Y31900
X24300Y81500
X24920Y104900
X24920Y102000
X25500Y45400
X25800Y48100
X25800Y14700
X25800Y4700
X26800Y78400
X26800Y68400
X26800Y64100
X26800Y54100
X27020Y93100
X27020Y90100
X29800Y64100
X29800Y54100
X30000Y86300
X30000Y83300
X32800Y64100
X32800Y54100
X33300Y28800
X33300Y18800
X34000Y31900
X35080Y104900
X35080Y102000
X35500Y45400
X35800Y64100
X35800Y54100
X36300Y28900
X36300Y18900
X37180Y93100
X37180Y90100
X37750Y42810
X37750Y40270
X37750Y37730
X37750Y35190
T6
X6500Y13826
X6500Y5698
X6500Y2650
X12000Y28826
X12000Y20698
X12000Y17650
X19500Y43826
X19500Y35698
X19500Y32650
X19500Y13826
X19500Y5698
X19500Y2650
X27000Y28826
X27000Y20698
X27000Y17650
X32500Y13826
X32500Y5698
X32500Y2650
T7
X14500Y95000
X24500Y95000
T0
M30
