M48
;DRILL file {KiCad (2016-08-20 BZR 7083)-product} date Sun Jan  1 23:07:33 2017
;FORMAT={3:3/ absolute / metric / suppress leading zeros}
FMAT,2
METRIC,TZ
T1C0.500
T2C0.700
T3C0.900
T4C1.000
%
G90
G05
M71
T1
X1400Y27700
X1500Y3600
X2000Y8200
X5600Y3100
X7100Y20800
X7100Y14000
X10200Y3100
X10500Y10600
X10600Y24300
X10900Y15000
X12200Y28700
X12300Y6600
X13300Y17400
X13600Y21300
X13800Y1100
X16000Y26700
X18900Y22200
X19500Y17800
X19500Y11100
X22200Y28800
X22600Y23600
X25000Y21700
X25100Y16800
X30700Y13400
X30800Y17400
X32600Y23400
X36700Y8300
X37300Y1600
X37900Y28200
T2
X12560Y3800
X15060Y19700
X17060Y1800
X17640Y3800
X20140Y19700
X21860Y19700
X22140Y1800
X26940Y19700
X27060Y28100
X28160Y17100
X29565Y21870
X29565Y19330
X30835Y20600
X32140Y28100
X33240Y17100
X35200Y22740
X35200Y17660
X35200Y15940
X35200Y10860
T3
X7350Y26000
X9850Y26000
X12600Y8800
X14700Y22900
X15590Y17110
X15590Y14570
X15590Y12030
X15590Y9490
X23210Y17110
X23210Y14570
X23210Y12030
X23210Y9490
T4
X1250Y21810
X1250Y19270
X1250Y16730
X1250Y14190
X2600Y11100
X5000Y19300
X5000Y14300
X10000Y16800
X10100Y6300
X12600Y23600
X12600Y13600
X12600Y11100
X14400Y28200
X14400Y25200
X16900Y22200
X20100Y6300
X24400Y28200
X24400Y25200
X24420Y2200
X26200Y14900
X26200Y4900
X26900Y22200
X26920Y25200
X29200Y14900
X29200Y4900
X32200Y14900
X32200Y4900
X34580Y2200
X37080Y25200
X37750Y21810
X37750Y19270
X37750Y16730
X37750Y14190
T0
M30
