G04 #@! TF.FileFunction,Legend,Bot*
%FSLAX46Y46*%
G04 Gerber Fmt 4.6, Leading zero omitted, Abs format (unit mm)*
G04 Created by KiCad (PCBNEW (2016-08-20 BZR 7083)-product) date Sun Jan  1 23:07:31 2017*
%MOMM*%
%LPD*%
G01*
G04 APERTURE LIST*
%ADD10C,0.100000*%
%ADD11C,0.500000*%
%ADD12C,0.150000*%
G04 APERTURE END LIST*
D10*
D11*
X8428571Y6642858D02*
X6714285Y6642858D01*
X7571428Y3642858D02*
X7571428Y6642858D01*
X5142857Y6642858D02*
X4571428Y6642858D01*
X4285714Y6500000D01*
X4000000Y6214286D01*
X3857142Y5642858D01*
X3857142Y4642858D01*
X4000000Y4071429D01*
X4285714Y3785715D01*
X4571428Y3642858D01*
X5142857Y3642858D01*
X5428571Y3785715D01*
X5714285Y4071429D01*
X5857142Y4642858D01*
X5857142Y5642858D01*
X5714285Y6214286D01*
X5428571Y6500000D01*
X5142857Y6642858D01*
X2571428Y3642858D02*
X2571428Y6642858D01*
X1428571Y6642858D01*
X1142857Y6500000D01*
X1000000Y6357143D01*
X857142Y6071429D01*
X857142Y5642858D01*
X1000000Y5357143D01*
X1142857Y5214286D01*
X1428571Y5071429D01*
X2571428Y5071429D01*
D10*
X29450000Y20650000D02*
X29350000Y20616667D01*
X29316666Y20583334D01*
X29283333Y20516667D01*
X29283333Y20416667D01*
X29316666Y20350000D01*
X29350000Y20316667D01*
X29416666Y20283334D01*
X29683333Y20283334D01*
X29683333Y20983334D01*
X29450000Y20983334D01*
X29383333Y20950000D01*
X29350000Y20916667D01*
X29316666Y20850000D01*
X29316666Y20783334D01*
X29350000Y20716667D01*
X29383333Y20683334D01*
X29450000Y20650000D01*
X29683333Y20650000D01*
X30583333Y18950000D02*
X30616666Y18916667D01*
X30716666Y18883334D01*
X30783333Y18883334D01*
X30883333Y18916667D01*
X30950000Y18983334D01*
X30983333Y19050000D01*
X31016666Y19183334D01*
X31016666Y19283334D01*
X30983333Y19416667D01*
X30950000Y19483334D01*
X30883333Y19550000D01*
X30783333Y19583334D01*
X30716666Y19583334D01*
X30616666Y19550000D01*
X30583333Y19516667D01*
X30950000Y21950000D02*
X30716666Y21950000D01*
X30616666Y21583334D02*
X30950000Y21583334D01*
X30950000Y22283334D01*
X30616666Y22283334D01*
X31683333Y23000000D02*
X31650000Y22966667D01*
X31616666Y22900000D01*
X31616666Y22733334D01*
X31650000Y22666667D01*
X31683333Y22633334D01*
X31750000Y22600000D01*
X31816666Y22600000D01*
X31916666Y22633334D01*
X32316666Y23033334D01*
X32316666Y22600000D01*
X32316666Y22300000D02*
X31616666Y22300000D01*
X32316666Y21900000D01*
X31616666Y21900000D01*
X31616666Y21633334D02*
X31616666Y21200000D01*
X31883333Y21433334D01*
X31883333Y21333334D01*
X31916666Y21266667D01*
X31950000Y21233334D01*
X32016666Y21200000D01*
X32183333Y21200000D01*
X32250000Y21233334D01*
X32283333Y21266667D01*
X32316666Y21333334D01*
X32316666Y21533334D01*
X32283333Y21600000D01*
X32250000Y21633334D01*
X32316666Y20866667D02*
X32316666Y20733334D01*
X32283333Y20666667D01*
X32250000Y20633334D01*
X32150000Y20566667D01*
X32016666Y20533334D01*
X31750000Y20533334D01*
X31683333Y20566667D01*
X31650000Y20600000D01*
X31616666Y20666667D01*
X31616666Y20800000D01*
X31650000Y20866667D01*
X31683333Y20900000D01*
X31750000Y20933334D01*
X31916666Y20933334D01*
X31983333Y20900000D01*
X32016666Y20866667D01*
X32050000Y20800000D01*
X32050000Y20666667D01*
X32016666Y20600000D01*
X31983333Y20566667D01*
X31916666Y20533334D01*
X31616666Y20100000D02*
X31616666Y20033334D01*
X31650000Y19966667D01*
X31683333Y19933334D01*
X31750000Y19900000D01*
X31883333Y19866667D01*
X32050000Y19866667D01*
X32183333Y19900000D01*
X32250000Y19933334D01*
X32283333Y19966667D01*
X32316666Y20033334D01*
X32316666Y20100000D01*
X32283333Y20166667D01*
X32250000Y20200000D01*
X32183333Y20233334D01*
X32050000Y20266667D01*
X31883333Y20266667D01*
X31750000Y20233334D01*
X31683333Y20200000D01*
X31650000Y20166667D01*
X31616666Y20100000D01*
X31850000Y19266667D02*
X32316666Y19266667D01*
X31583333Y19433334D02*
X32083333Y19600000D01*
X32083333Y19166667D01*
D12*
X15728571Y1021429D02*
X15728571Y2521429D01*
X15490476Y2521429D01*
X15347619Y2450000D01*
X15252380Y2307143D01*
X15204761Y2164286D01*
X15157142Y1878572D01*
X15157142Y1664286D01*
X15204761Y1378572D01*
X15252380Y1235715D01*
X15347619Y1092858D01*
X15490476Y1021429D01*
X15728571Y1021429D01*
X14728571Y1021429D02*
X14728571Y2521429D01*
X14061904Y1735715D02*
X14061904Y1021429D01*
X14395238Y2521429D02*
X14061904Y1735715D01*
X13728571Y2521429D01*
X12633333Y1021429D02*
X12633333Y2521429D01*
X12300000Y1450000D01*
X11966666Y2521429D01*
X11966666Y1021429D01*
X11347619Y1021429D02*
X11442857Y1092858D01*
X11490476Y1164286D01*
X11538095Y1307143D01*
X11538095Y1735715D01*
X11490476Y1878572D01*
X11442857Y1950000D01*
X11347619Y2021429D01*
X11204761Y2021429D01*
X11109523Y1950000D01*
X11061904Y1878572D01*
X11014285Y1735715D01*
X11014285Y1307143D01*
X11061904Y1164286D01*
X11109523Y1092858D01*
X11204761Y1021429D01*
X11347619Y1021429D01*
X10157142Y1021429D02*
X10157142Y2521429D01*
X10157142Y1092858D02*
X10252380Y1021429D01*
X10442857Y1021429D01*
X10538095Y1092858D01*
X10585714Y1164286D01*
X10633333Y1307143D01*
X10633333Y1735715D01*
X10585714Y1878572D01*
X10538095Y1950000D01*
X10442857Y2021429D01*
X10252380Y2021429D01*
X10157142Y1950000D01*
X9252380Y2021429D02*
X9252380Y1021429D01*
X9680952Y2021429D02*
X9680952Y1235715D01*
X9633333Y1092858D01*
X9538095Y1021429D01*
X9395238Y1021429D01*
X9300000Y1092858D01*
X9252380Y1164286D01*
X8633333Y1021429D02*
X8728571Y1092858D01*
X8776190Y1235715D01*
X8776190Y2521429D01*
X7823809Y1021429D02*
X7823809Y1807143D01*
X7871428Y1950000D01*
X7966666Y2021429D01*
X8157142Y2021429D01*
X8252380Y1950000D01*
X7823809Y1092858D02*
X7919047Y1021429D01*
X8157142Y1021429D01*
X8252380Y1092858D01*
X8300000Y1235715D01*
X8300000Y1378572D01*
X8252380Y1521429D01*
X8157142Y1592858D01*
X7919047Y1592858D01*
X7823809Y1664286D01*
X7490476Y2021429D02*
X7109523Y2021429D01*
X7347619Y2521429D02*
X7347619Y1235715D01*
X7300000Y1092858D01*
X7204761Y1021429D01*
X7109523Y1021429D01*
X6633333Y1021429D02*
X6728571Y1092858D01*
X6776190Y1164286D01*
X6823809Y1307143D01*
X6823809Y1735715D01*
X6776190Y1878572D01*
X6728571Y1950000D01*
X6633333Y2021429D01*
X6490476Y2021429D01*
X6395238Y1950000D01*
X6347619Y1878572D01*
X6300000Y1735715D01*
X6300000Y1307143D01*
X6347619Y1164286D01*
X6395238Y1092858D01*
X6490476Y1021429D01*
X6633333Y1021429D01*
X5871428Y1021429D02*
X5871428Y2021429D01*
X5871428Y1735715D02*
X5823809Y1878572D01*
X5776190Y1950000D01*
X5680952Y2021429D01*
X5585714Y2021429D01*
X4490476Y1021429D02*
X4490476Y2521429D01*
X3919047Y1021429D01*
X3919047Y2521429D01*
X3300000Y1021429D02*
X3395238Y1092858D01*
X3442857Y1164286D01*
X3490476Y1307143D01*
X3490476Y1735715D01*
X3442857Y1878572D01*
X3395238Y1950000D01*
X3300000Y2021429D01*
X3157142Y2021429D01*
X3061904Y1950000D01*
X3014285Y1878572D01*
X2966666Y1735715D01*
X2966666Y1307143D01*
X3014285Y1164286D01*
X3061904Y1092858D01*
X3157142Y1021429D01*
X3300000Y1021429D01*
X2538095Y1021429D02*
X2538095Y2021429D01*
X2538095Y2521429D02*
X2585714Y2450000D01*
X2538095Y2378572D01*
X2490476Y2450000D01*
X2538095Y2521429D01*
X2538095Y2378572D01*
X2109523Y1092858D02*
X2014285Y1021429D01*
X1823809Y1021429D01*
X1728571Y1092858D01*
X1680952Y1235715D01*
X1680952Y1307143D01*
X1728571Y1450000D01*
X1823809Y1521429D01*
X1966666Y1521429D01*
X2061904Y1592858D01*
X2109523Y1735715D01*
X2109523Y1807143D01*
X2061904Y1950000D01*
X1966666Y2021429D01*
X1823809Y2021429D01*
X1728571Y1950000D01*
X871428Y1092858D02*
X966666Y1021429D01*
X1157142Y1021429D01*
X1252380Y1092858D01*
X1300000Y1235715D01*
X1300000Y1807143D01*
X1252380Y1950000D01*
X1157142Y2021429D01*
X966666Y2021429D01*
X871428Y1950000D01*
X823809Y1807143D01*
X823809Y1664286D01*
X1300000Y1521429D01*
D10*
X38050000Y11650000D02*
X38516666Y11516667D01*
X38183333Y11383334D01*
X38516666Y11250000D01*
X38050000Y11116667D01*
X38050000Y10916667D02*
X38516666Y10783334D01*
X38183333Y10650000D01*
X38516666Y10516667D01*
X38050000Y10383334D01*
X38050000Y10183334D02*
X38516666Y10050000D01*
X38183333Y9916667D01*
X38516666Y9783334D01*
X38050000Y9650000D01*
X38450000Y9383334D02*
X38483333Y9350000D01*
X38516666Y9383334D01*
X38483333Y9416667D01*
X38450000Y9383334D01*
X38516666Y9383334D01*
X38483333Y8783334D02*
X38516666Y8850000D01*
X38516666Y8983334D01*
X38483333Y9050000D01*
X38416666Y9083334D01*
X38150000Y9083334D01*
X38083333Y9050000D01*
X38050000Y8983334D01*
X38050000Y8850000D01*
X38083333Y8783334D01*
X38150000Y8750000D01*
X38216666Y8750000D01*
X38283333Y9083334D01*
X38516666Y8450000D02*
X38050000Y8450000D01*
X38183333Y8450000D02*
X38116666Y8416667D01*
X38083333Y8383334D01*
X38050000Y8316667D01*
X38050000Y8250000D01*
X38516666Y8016667D02*
X38050000Y8016667D01*
X37816666Y8016667D02*
X37850000Y8050000D01*
X37883333Y8016667D01*
X37850000Y7983334D01*
X37816666Y8016667D01*
X37883333Y8016667D01*
X38483333Y7383334D02*
X38516666Y7450000D01*
X38516666Y7583334D01*
X38483333Y7650000D01*
X38450000Y7683334D01*
X38383333Y7716667D01*
X38183333Y7716667D01*
X38116666Y7683334D01*
X38083333Y7650000D01*
X38050000Y7583334D01*
X38050000Y7450000D01*
X38083333Y7383334D01*
X38516666Y6783334D02*
X38150000Y6783334D01*
X38083333Y6816667D01*
X38050000Y6883334D01*
X38050000Y7016667D01*
X38083333Y7083334D01*
X38483333Y6783334D02*
X38516666Y6850000D01*
X38516666Y7016667D01*
X38483333Y7083334D01*
X38416666Y7116667D01*
X38350000Y7116667D01*
X38283333Y7083334D01*
X38250000Y7016667D01*
X38250000Y6850000D01*
X38216666Y6783334D01*
X38483333Y6483334D02*
X38516666Y6416667D01*
X38516666Y6283334D01*
X38483333Y6216667D01*
X38416666Y6183334D01*
X38383333Y6183334D01*
X38316666Y6216667D01*
X38283333Y6283334D01*
X38283333Y6383334D01*
X38250000Y6450000D01*
X38183333Y6483334D01*
X38150000Y6483334D01*
X38083333Y6450000D01*
X38050000Y6383334D01*
X38050000Y6283334D01*
X38083333Y6216667D01*
X38050000Y5950000D02*
X38516666Y5783334D01*
X38050000Y5616667D02*
X38516666Y5783334D01*
X38683333Y5850000D01*
X38716666Y5883334D01*
X38750000Y5950000D01*
X38050000Y5350000D02*
X38516666Y5350000D01*
X38116666Y5350000D02*
X38083333Y5316667D01*
X38050000Y5250000D01*
X38050000Y5150000D01*
X38083333Y5083334D01*
X38150000Y5050000D01*
X38516666Y5050000D01*
X38050000Y4816667D02*
X38050000Y4550000D01*
X37816666Y4716667D02*
X38416666Y4716667D01*
X38483333Y4683334D01*
X38516666Y4616667D01*
X38516666Y4550000D01*
X38516666Y4316667D02*
X37816666Y4316667D01*
X38516666Y4016667D02*
X38150000Y4016667D01*
X38083333Y4050000D01*
X38050000Y4116667D01*
X38050000Y4216667D01*
X38083333Y4283334D01*
X38116666Y4316667D01*
X38483333Y3716667D02*
X38516666Y3650000D01*
X38516666Y3516667D01*
X38483333Y3450000D01*
X38416666Y3416667D01*
X38383333Y3416667D01*
X38316666Y3450000D01*
X38283333Y3516667D01*
X38283333Y3616667D01*
X38250000Y3683334D01*
X38183333Y3716667D01*
X38150000Y3716667D01*
X38083333Y3683334D01*
X38050000Y3616667D01*
X38050000Y3516667D01*
X38083333Y3450000D01*
X38450000Y3116667D02*
X38483333Y3083334D01*
X38516666Y3116667D01*
X38483333Y3150000D01*
X38450000Y3116667D01*
X38516666Y3116667D01*
X38516666Y2683334D02*
X38483333Y2750000D01*
X38416666Y2783334D01*
X37816666Y2783334D01*
X38050000Y2483334D02*
X38516666Y2316667D01*
X38050000Y2150000D01*
D12*
X10376190Y8707143D02*
X10042857Y8707143D01*
X9900000Y7921429D02*
X10376190Y7921429D01*
X10376190Y9421429D01*
X9900000Y9421429D01*
X9471428Y7921429D02*
X9471428Y8921429D01*
X9471428Y8635715D02*
X9423809Y8778572D01*
X9376190Y8850000D01*
X9280952Y8921429D01*
X9185714Y8921429D01*
X8852380Y7921429D02*
X8852380Y8921429D01*
X8852380Y9421429D02*
X8900000Y9350000D01*
X8852380Y9278572D01*
X8804761Y9350000D01*
X8852380Y9421429D01*
X8852380Y9278572D01*
X7947619Y7992858D02*
X8042857Y7921429D01*
X8233333Y7921429D01*
X8328571Y7992858D01*
X8376190Y8064286D01*
X8423809Y8207143D01*
X8423809Y8635715D01*
X8376190Y8778572D01*
X8328571Y8850000D01*
X8233333Y8921429D01*
X8042857Y8921429D01*
X7947619Y8850000D01*
X7090476Y7921429D02*
X7090476Y8707143D01*
X7138095Y8850000D01*
X7233333Y8921429D01*
X7423809Y8921429D01*
X7519047Y8850000D01*
X7090476Y7992858D02*
X7185714Y7921429D01*
X7423809Y7921429D01*
X7519047Y7992858D01*
X7566666Y8135715D01*
X7566666Y8278572D01*
X7519047Y8421429D01*
X7423809Y8492858D01*
X7185714Y8492858D01*
X7090476Y8564286D01*
X5900000Y7992858D02*
X5757142Y7921429D01*
X5519047Y7921429D01*
X5423809Y7992858D01*
X5376190Y8064286D01*
X5328571Y8207143D01*
X5328571Y8350000D01*
X5376190Y8492858D01*
X5423809Y8564286D01*
X5519047Y8635715D01*
X5709523Y8707143D01*
X5804761Y8778572D01*
X5852380Y8850000D01*
X5900000Y8992858D01*
X5900000Y9135715D01*
X5852380Y9278572D01*
X5804761Y9350000D01*
X5709523Y9421429D01*
X5471428Y9421429D01*
X5328571Y9350000D01*
X4995238Y8921429D02*
X4757142Y7921429D01*
X4519047Y8921429D02*
X4757142Y7921429D01*
X4852380Y7564286D01*
X4900000Y7492858D01*
X4995238Y7421429D01*
X4138095Y8921429D02*
X4138095Y7921429D01*
X4138095Y8778572D02*
X4090476Y8850000D01*
X3995238Y8921429D01*
X3852380Y8921429D01*
X3757142Y8850000D01*
X3709523Y8707143D01*
X3709523Y7921429D01*
X3376190Y8921429D02*
X2995238Y8921429D01*
X3233333Y9421429D02*
X3233333Y8135715D01*
X3185714Y7992858D01*
X3090476Y7921429D01*
X2995238Y7921429D01*
X2661904Y7921429D02*
X2661904Y9421429D01*
X2233333Y7921429D02*
X2233333Y8707143D01*
X2280952Y8850000D01*
X2376190Y8921429D01*
X2519047Y8921429D01*
X2614285Y8850000D01*
X2661904Y8778572D01*
X1804761Y7992858D02*
X1709523Y7921429D01*
X1519047Y7921429D01*
X1423809Y7992858D01*
X1376190Y8135715D01*
X1376190Y8207143D01*
X1423809Y8350000D01*
X1519047Y8421429D01*
X1661904Y8421429D01*
X1757142Y8492858D01*
X1804761Y8635715D01*
X1804761Y8707143D01*
X1757142Y8850000D01*
X1661904Y8921429D01*
X1519047Y8921429D01*
X1423809Y8850000D01*
D10*
X35200000Y20400000D02*
X35200000Y21900000D01*
X35200000Y20000000D02*
X35200000Y18500000D01*
X34600000Y20000000D02*
X35800000Y20000000D01*
X34600000Y20400000D02*
X35800000Y20400000D01*
X34300000Y23500000D02*
X34300000Y16900000D01*
X34300000Y16900000D02*
X36100000Y16900000D01*
X36100000Y16900000D02*
X36100000Y23500000D01*
X36100000Y23500000D02*
X34300000Y23500000D01*
X35200000Y13200000D02*
X35200000Y11700000D01*
X35200000Y13600000D02*
X35200000Y15100000D01*
X35800000Y13600000D02*
X34600000Y13600000D01*
X35800000Y13200000D02*
X34600000Y13200000D01*
X36100000Y10100000D02*
X36100000Y16700000D01*
X36100000Y16700000D02*
X34300000Y16700000D01*
X34300000Y16700000D02*
X34300000Y10100000D01*
X34300000Y10100000D02*
X36100000Y10100000D01*
X29400000Y28100000D02*
X27900000Y28100000D01*
X29800000Y28100000D02*
X31300000Y28100000D01*
X29800000Y27500000D02*
X29800000Y28700000D01*
X29400000Y27500000D02*
X29400000Y28700000D01*
X26300000Y27200000D02*
X32900000Y27200000D01*
X32900000Y27200000D02*
X32900000Y29000000D01*
X32900000Y29000000D02*
X26300000Y29000000D01*
X26300000Y29000000D02*
X26300000Y27200000D01*
X19800000Y1800000D02*
X21300000Y1800000D01*
X19400000Y1800000D02*
X17900000Y1800000D01*
X19400000Y2400000D02*
X19400000Y1200000D01*
X19800000Y2400000D02*
X19800000Y1200000D01*
X22900000Y2700000D02*
X16300000Y2700000D01*
X16300000Y2700000D02*
X16300000Y900000D01*
X16300000Y900000D02*
X22900000Y900000D01*
X22900000Y900000D02*
X22900000Y2700000D01*
X6123500Y27968500D02*
X6123500Y24031500D01*
X11780710Y26000000D02*
G75*
G03X11780710Y26000000I-3180710J0D01*
G01*
X30900000Y17100000D02*
X32400000Y17100000D01*
X30500000Y17100000D02*
X29000000Y17100000D01*
X30500000Y17700000D02*
X30500000Y16500000D01*
X30900000Y17700000D02*
X30900000Y16500000D01*
X34000000Y18000000D02*
X27400000Y18000000D01*
X27400000Y18000000D02*
X27400000Y16200000D01*
X27400000Y16200000D02*
X34000000Y16200000D01*
X34000000Y16200000D02*
X34000000Y18000000D01*
X24600000Y19700000D02*
X26100000Y19700000D01*
X24200000Y19700000D02*
X22700000Y19700000D01*
X24200000Y20300000D02*
X24200000Y19100000D01*
X24600000Y20300000D02*
X24600000Y19100000D01*
X27700000Y20600000D02*
X21100000Y20600000D01*
X21100000Y20600000D02*
X21100000Y18800000D01*
X21100000Y18800000D02*
X27700000Y18800000D01*
X27700000Y18800000D02*
X27700000Y20600000D01*
X17800000Y19700000D02*
X19300000Y19700000D01*
X17400000Y19700000D02*
X15900000Y19700000D01*
X17400000Y20300000D02*
X17400000Y19100000D01*
X17800000Y20300000D02*
X17800000Y19100000D01*
X20900000Y20600000D02*
X14300000Y20600000D01*
X14300000Y20600000D02*
X14300000Y18800000D01*
X14300000Y18800000D02*
X20900000Y18800000D01*
X20900000Y18800000D02*
X20900000Y20600000D01*
X14900000Y3800000D02*
X13400000Y3800000D01*
X15300000Y3800000D02*
X16800000Y3800000D01*
X15300000Y3200000D02*
X15300000Y4400000D01*
X14900000Y3200000D02*
X14900000Y4400000D01*
X11800000Y2900000D02*
X18400000Y2900000D01*
X18400000Y2900000D02*
X18400000Y4700000D01*
X18400000Y4700000D02*
X11800000Y4700000D01*
X11800000Y4700000D02*
X11800000Y2900000D01*
X23908500Y18443500D02*
X24543500Y17808500D01*
X24543500Y17808500D02*
X24543500Y8156500D01*
X20098500Y18443500D02*
X23908500Y18443500D01*
X18701500Y18443500D02*
X14256500Y18443500D01*
X19400000Y17745000D02*
G75*
G02X18701500Y18443500I0J698500D01*
G01*
X20098500Y18443500D02*
G75*
G02X19400000Y17745000I-698500J0D01*
G01*
X14256500Y8156500D02*
X24543500Y8156500D01*
X14256500Y8156500D02*
X14256500Y18443500D01*
X35937000Y23803000D02*
X34667000Y23803000D01*
X34667000Y23803000D02*
X34667000Y24057000D01*
X34667000Y24057000D02*
X29333000Y24057000D01*
X29333000Y24057000D02*
X29333000Y23803000D01*
X29333000Y23803000D02*
X28063000Y23803000D01*
X28063000Y23803000D02*
X28063000Y24692000D01*
X35937000Y24692000D02*
X35937000Y23803000D01*
X35937000Y26597000D02*
X35937000Y25708000D01*
X35937000Y26597000D02*
X34667000Y26597000D01*
X34667000Y26597000D02*
X34667000Y26343000D01*
X34667000Y26343000D02*
X29333000Y26343000D01*
X29333000Y26343000D02*
X29333000Y26597000D01*
X29333000Y26597000D02*
X28063000Y26597000D01*
X28063000Y26597000D02*
X28063000Y25708000D01*
X33437000Y803000D02*
X32167000Y803000D01*
X32167000Y803000D02*
X32167000Y1057000D01*
X32167000Y1057000D02*
X26833000Y1057000D01*
X26833000Y1057000D02*
X26833000Y803000D01*
X26833000Y803000D02*
X25563000Y803000D01*
X25563000Y803000D02*
X25563000Y1692000D01*
X33437000Y1692000D02*
X33437000Y803000D01*
X33437000Y3597000D02*
X33437000Y2708000D01*
X33437000Y3597000D02*
X32167000Y3597000D01*
X32167000Y3597000D02*
X32167000Y3343000D01*
X32167000Y3343000D02*
X26833000Y3343000D01*
X26833000Y3343000D02*
X26833000Y3597000D01*
X26833000Y3597000D02*
X25563000Y3597000D01*
X25563000Y3597000D02*
X25563000Y2708000D01*
X16400000Y28200000D02*
X15600000Y28200000D01*
X22400000Y28200000D02*
X23200000Y28200000D01*
X16400000Y29600000D02*
X16400000Y26800000D01*
X16400000Y26800000D02*
X22400000Y26800000D01*
X22400000Y26800000D02*
X22400000Y29600000D01*
X22400000Y29600000D02*
X16400000Y29600000D01*
X22400000Y25200000D02*
X23200000Y25200000D01*
X16400000Y25200000D02*
X15600000Y25200000D01*
X22400000Y23800000D02*
X22400000Y26600000D01*
X22400000Y26600000D02*
X16400000Y26600000D01*
X16400000Y26600000D02*
X16400000Y23800000D01*
X16400000Y23800000D02*
X22400000Y23800000D01*
X32200000Y12900000D02*
X32200000Y13700000D01*
X32200000Y6900000D02*
X32200000Y6100000D01*
X33600000Y12900000D02*
X30800000Y12900000D01*
X30800000Y12900000D02*
X30800000Y6900000D01*
X30800000Y6900000D02*
X33600000Y6900000D01*
X33600000Y6900000D02*
X33600000Y12900000D01*
X29200000Y12900000D02*
X29200000Y13700000D01*
X29200000Y6900000D02*
X29200000Y6100000D01*
X30600000Y12900000D02*
X27800000Y12900000D01*
X27800000Y12900000D02*
X27800000Y6900000D01*
X27800000Y6900000D02*
X30600000Y6900000D01*
X30600000Y6900000D02*
X30600000Y12900000D01*
X26200000Y12900000D02*
X26200000Y13700000D01*
X26200000Y6900000D02*
X26200000Y6100000D01*
X27600000Y12900000D02*
X24800000Y12900000D01*
X24800000Y12900000D02*
X24800000Y6900000D01*
X24800000Y6900000D02*
X27600000Y6900000D01*
X27600000Y6900000D02*
X27600000Y12900000D01*
X18900000Y22200000D02*
X18100000Y22200000D01*
X24900000Y22200000D02*
X25700000Y22200000D01*
X18900000Y23600000D02*
X18900000Y20800000D01*
X18900000Y20800000D02*
X24900000Y20800000D01*
X24900000Y20800000D02*
X24900000Y23600000D01*
X24900000Y23600000D02*
X18900000Y23600000D01*
X12600000Y15600000D02*
X12600000Y14800000D01*
X12600000Y21600000D02*
X12600000Y22400000D01*
X11200000Y15600000D02*
X14000000Y15600000D01*
X14000000Y15600000D02*
X14000000Y21600000D01*
X14000000Y21600000D02*
X11200000Y21600000D01*
X11200000Y21600000D02*
X11200000Y15600000D01*
X12100000Y6300000D02*
X11300000Y6300000D01*
X18100000Y6300000D02*
X18900000Y6300000D01*
X12100000Y7700000D02*
X12100000Y4900000D01*
X12100000Y4900000D02*
X18100000Y4900000D01*
X18100000Y4900000D02*
X18100000Y7700000D01*
X18100000Y7700000D02*
X12100000Y7700000D01*
X4600000Y11100000D02*
X3800000Y11100000D01*
X10600000Y11100000D02*
X11400000Y11100000D01*
X4600000Y12500000D02*
X4600000Y9700000D01*
X4600000Y9700000D02*
X10600000Y9700000D01*
X10600000Y9700000D02*
X10600000Y12500000D01*
X10600000Y12500000D02*
X4600000Y12500000D01*
X10865500Y14768000D02*
X10865500Y18832000D01*
X3118500Y13434500D02*
X9532000Y13434500D01*
X9532000Y20165500D02*
X3118500Y20165500D01*
X10865500Y14768000D02*
G75*
G02X9532000Y13434500I-1333500J0D01*
G01*
X9532000Y20165500D02*
G75*
G02X10865500Y18832000I0J-1333500D01*
G01*
X3118500Y13434500D02*
X3118500Y20165500D01*
X31470000Y22505000D02*
X31470000Y18695000D01*
X31473983Y18697661D02*
G75*
G02X31470000Y22505000I-1273983J1902339D01*
G01*
D12*
X15650000Y22900000D02*
G75*
G03X15650000Y22900000I-950000J0D01*
G01*
X13550000Y8800000D02*
G75*
G03X13550000Y8800000I-950000J0D01*
G01*
D10*
X33416666Y23550000D02*
X33416666Y23483334D01*
X33450000Y23416667D01*
X33483333Y23383334D01*
X33550000Y23350000D01*
X33683333Y23316667D01*
X33850000Y23316667D01*
X33983333Y23350000D01*
X34050000Y23383334D01*
X34083333Y23416667D01*
X34116666Y23483334D01*
X34116666Y23550000D01*
X34083333Y23616667D01*
X34050000Y23650000D01*
X33983333Y23683334D01*
X33850000Y23716667D01*
X33683333Y23716667D01*
X33550000Y23683334D01*
X33483333Y23650000D01*
X33450000Y23616667D01*
X33416666Y23550000D01*
X34050000Y23016667D02*
X34083333Y22983334D01*
X34116666Y23016667D01*
X34083333Y23050000D01*
X34050000Y23016667D01*
X34116666Y23016667D01*
X34116666Y22316667D02*
X34116666Y22716667D01*
X34116666Y22516667D02*
X33416666Y22516667D01*
X33516666Y22583334D01*
X33583333Y22650000D01*
X33616666Y22716667D01*
X33650000Y21716667D02*
X34116666Y21716667D01*
X33650000Y22016667D02*
X34016666Y22016667D01*
X34083333Y21983334D01*
X34116666Y21916667D01*
X34116666Y21816667D01*
X34083333Y21750000D01*
X34050000Y21716667D01*
X33750000Y21150000D02*
X33750000Y21383334D01*
X34116666Y21383334D02*
X33416666Y21383334D01*
X33416666Y21050000D01*
X37116666Y23350000D02*
X37150000Y23316667D01*
X37250000Y23283334D01*
X37316666Y23283334D01*
X37416666Y23316667D01*
X37483333Y23383334D01*
X37516666Y23450000D01*
X37550000Y23583334D01*
X37550000Y23683334D01*
X37516666Y23816667D01*
X37483333Y23883334D01*
X37416666Y23950000D01*
X37316666Y23983334D01*
X37250000Y23983334D01*
X37150000Y23950000D01*
X37116666Y23916667D01*
X36516666Y23983334D02*
X36650000Y23983334D01*
X36716666Y23950000D01*
X36750000Y23916667D01*
X36816666Y23816667D01*
X36850000Y23683334D01*
X36850000Y23416667D01*
X36816666Y23350000D01*
X36783333Y23316667D01*
X36716666Y23283334D01*
X36583333Y23283334D01*
X36516666Y23316667D01*
X36483333Y23350000D01*
X36450000Y23416667D01*
X36450000Y23583334D01*
X36483333Y23650000D01*
X36516666Y23683334D01*
X36583333Y23716667D01*
X36716666Y23716667D01*
X36783333Y23683334D01*
X36816666Y23650000D01*
X36850000Y23583334D01*
X36950000Y9883334D02*
X36883333Y9883334D01*
X36816666Y9850000D01*
X36783333Y9816667D01*
X36750000Y9750000D01*
X36716666Y9616667D01*
X36716666Y9450000D01*
X36750000Y9316667D01*
X36783333Y9250000D01*
X36816666Y9216667D01*
X36883333Y9183334D01*
X36950000Y9183334D01*
X37016666Y9216667D01*
X37050000Y9250000D01*
X37083333Y9316667D01*
X37116666Y9450000D01*
X37116666Y9616667D01*
X37083333Y9750000D01*
X37050000Y9816667D01*
X37016666Y9850000D01*
X36950000Y9883334D01*
X36416666Y9250000D02*
X36383333Y9216667D01*
X36416666Y9183334D01*
X36450000Y9216667D01*
X36416666Y9250000D01*
X36416666Y9183334D01*
X35716666Y9183334D02*
X36116666Y9183334D01*
X35916666Y9183334D02*
X35916666Y9883334D01*
X35983333Y9783334D01*
X36050000Y9716667D01*
X36116666Y9683334D01*
X35116666Y9650000D02*
X35116666Y9183334D01*
X35416666Y9650000D02*
X35416666Y9283334D01*
X35383333Y9216667D01*
X35316666Y9183334D01*
X35216666Y9183334D01*
X35150000Y9216667D01*
X35116666Y9250000D01*
X34550000Y9550000D02*
X34783333Y9550000D01*
X34783333Y9183334D02*
X34783333Y9883334D01*
X34450000Y9883334D01*
X37016666Y11850000D02*
X37050000Y11816667D01*
X37150000Y11783334D01*
X37216666Y11783334D01*
X37316666Y11816667D01*
X37383333Y11883334D01*
X37416666Y11950000D01*
X37450000Y12083334D01*
X37450000Y12183334D01*
X37416666Y12316667D01*
X37383333Y12383334D01*
X37316666Y12450000D01*
X37216666Y12483334D01*
X37150000Y12483334D01*
X37050000Y12450000D01*
X37016666Y12416667D01*
X36783333Y12483334D02*
X36316666Y12483334D01*
X36616666Y11783334D01*
X35650000Y28483334D02*
X35583333Y28483334D01*
X35516666Y28450000D01*
X35483333Y28416667D01*
X35450000Y28350000D01*
X35416666Y28216667D01*
X35416666Y28050000D01*
X35450000Y27916667D01*
X35483333Y27850000D01*
X35516666Y27816667D01*
X35583333Y27783334D01*
X35650000Y27783334D01*
X35716666Y27816667D01*
X35750000Y27850000D01*
X35783333Y27916667D01*
X35816666Y28050000D01*
X35816666Y28216667D01*
X35783333Y28350000D01*
X35750000Y28416667D01*
X35716666Y28450000D01*
X35650000Y28483334D01*
X35116666Y27850000D02*
X35083333Y27816667D01*
X35116666Y27783334D01*
X35150000Y27816667D01*
X35116666Y27850000D01*
X35116666Y27783334D01*
X34416666Y27783334D02*
X34816666Y27783334D01*
X34616666Y27783334D02*
X34616666Y28483334D01*
X34683333Y28383334D01*
X34750000Y28316667D01*
X34816666Y28283334D01*
X33816666Y28250000D02*
X33816666Y27783334D01*
X34116666Y28250000D02*
X34116666Y27883334D01*
X34083333Y27816667D01*
X34016666Y27783334D01*
X33916666Y27783334D01*
X33850000Y27816667D01*
X33816666Y27850000D01*
X33250000Y28150000D02*
X33483333Y28150000D01*
X33483333Y27783334D02*
X33483333Y28483334D01*
X33150000Y28483334D01*
X34450000Y28750000D02*
X34483333Y28716667D01*
X34583333Y28683334D01*
X34650000Y28683334D01*
X34750000Y28716667D01*
X34816666Y28783334D01*
X34850000Y28850000D01*
X34883333Y28983334D01*
X34883333Y29083334D01*
X34850000Y29216667D01*
X34816666Y29283334D01*
X34750000Y29350000D01*
X34650000Y29383334D01*
X34583333Y29383334D01*
X34483333Y29350000D01*
X34450000Y29316667D01*
X33783333Y28683334D02*
X34183333Y28683334D01*
X33983333Y28683334D02*
X33983333Y29383334D01*
X34050000Y29283334D01*
X34116666Y29216667D01*
X34183333Y29183334D01*
X33350000Y29383334D02*
X33283333Y29383334D01*
X33216666Y29350000D01*
X33183333Y29316667D01*
X33150000Y29250000D01*
X33116666Y29116667D01*
X33116666Y28950000D01*
X33150000Y28816667D01*
X33183333Y28750000D01*
X33216666Y28716667D01*
X33283333Y28683334D01*
X33350000Y28683334D01*
X33416666Y28716667D01*
X33450000Y28750000D01*
X33483333Y28816667D01*
X33516666Y28950000D01*
X33516666Y29116667D01*
X33483333Y29250000D01*
X33450000Y29316667D01*
X33416666Y29350000D01*
X33350000Y29383334D01*
X22350000Y3483334D02*
X22283333Y3483334D01*
X22216666Y3450000D01*
X22183333Y3416667D01*
X22150000Y3350000D01*
X22116666Y3216667D01*
X22116666Y3050000D01*
X22150000Y2916667D01*
X22183333Y2850000D01*
X22216666Y2816667D01*
X22283333Y2783334D01*
X22350000Y2783334D01*
X22416666Y2816667D01*
X22450000Y2850000D01*
X22483333Y2916667D01*
X22516666Y3050000D01*
X22516666Y3216667D01*
X22483333Y3350000D01*
X22450000Y3416667D01*
X22416666Y3450000D01*
X22350000Y3483334D01*
X21816666Y2850000D02*
X21783333Y2816667D01*
X21816666Y2783334D01*
X21850000Y2816667D01*
X21816666Y2850000D01*
X21816666Y2783334D01*
X21116666Y2783334D02*
X21516666Y2783334D01*
X21316666Y2783334D02*
X21316666Y3483334D01*
X21383333Y3383334D01*
X21450000Y3316667D01*
X21516666Y3283334D01*
X20516666Y3250000D02*
X20516666Y2783334D01*
X20816666Y3250000D02*
X20816666Y2883334D01*
X20783333Y2816667D01*
X20716666Y2783334D01*
X20616666Y2783334D01*
X20550000Y2816667D01*
X20516666Y2850000D01*
X19950000Y3150000D02*
X20183333Y3150000D01*
X20183333Y2783334D02*
X20183333Y3483334D01*
X19850000Y3483334D01*
X21750000Y3750000D02*
X21783333Y3716667D01*
X21883333Y3683334D01*
X21950000Y3683334D01*
X22050000Y3716667D01*
X22116666Y3783334D01*
X22150000Y3850000D01*
X22183333Y3983334D01*
X22183333Y4083334D01*
X22150000Y4216667D01*
X22116666Y4283334D01*
X22050000Y4350000D01*
X21950000Y4383334D01*
X21883333Y4383334D01*
X21783333Y4350000D01*
X21750000Y4316667D01*
X21083333Y3683334D02*
X21483333Y3683334D01*
X21283333Y3683334D02*
X21283333Y4383334D01*
X21350000Y4283334D01*
X21416666Y4216667D01*
X21483333Y4183334D01*
X20416666Y3683334D02*
X20816666Y3683334D01*
X20616666Y3683334D02*
X20616666Y4383334D01*
X20683333Y4283334D01*
X20750000Y4216667D01*
X20816666Y4183334D01*
X7766666Y21883334D02*
X8166666Y21883334D01*
X7966666Y21883334D02*
X7966666Y22583334D01*
X8033333Y22483334D01*
X8100000Y22416667D01*
X8166666Y22383334D01*
X7166666Y22350000D02*
X7166666Y21883334D01*
X7466666Y22350000D02*
X7466666Y21983334D01*
X7433333Y21916667D01*
X7366666Y21883334D01*
X7266666Y21883334D01*
X7200000Y21916667D01*
X7166666Y21950000D01*
X6600000Y22250000D02*
X6833333Y22250000D01*
X6833333Y21883334D02*
X6833333Y22583334D01*
X6500000Y22583334D01*
X6300000Y21883334D02*
X5933333Y22350000D01*
X6300000Y22350000D02*
X5933333Y21883334D01*
X5700000Y22516667D02*
X5666666Y22550000D01*
X5600000Y22583334D01*
X5433333Y22583334D01*
X5366666Y22550000D01*
X5333333Y22516667D01*
X5300000Y22450000D01*
X5300000Y22383334D01*
X5333333Y22283334D01*
X5733333Y21883334D01*
X5300000Y21883334D01*
X4666666Y22583334D02*
X5000000Y22583334D01*
X5033333Y22250000D01*
X5000000Y22283334D01*
X4933333Y22316667D01*
X4766666Y22316667D01*
X4700000Y22283334D01*
X4666666Y22250000D01*
X4633333Y22183334D01*
X4633333Y22016667D01*
X4666666Y21950000D01*
X4700000Y21916667D01*
X4766666Y21883334D01*
X4933333Y21883334D01*
X5000000Y21916667D01*
X5033333Y21950000D01*
X4433333Y22583334D02*
X4200000Y21883334D01*
X3966666Y22583334D01*
X5550000Y23050000D02*
X5583333Y23016667D01*
X5683333Y22983334D01*
X5750000Y22983334D01*
X5850000Y23016667D01*
X5916666Y23083334D01*
X5950000Y23150000D01*
X5983333Y23283334D01*
X5983333Y23383334D01*
X5950000Y23516667D01*
X5916666Y23583334D01*
X5850000Y23650000D01*
X5750000Y23683334D01*
X5683333Y23683334D01*
X5583333Y23650000D01*
X5550000Y23616667D01*
X4883333Y22983334D02*
X5283333Y22983334D01*
X5083333Y22983334D02*
X5083333Y23683334D01*
X5150000Y23583334D01*
X5216666Y23516667D01*
X5283333Y23483334D01*
X4283333Y23450000D02*
X4283333Y22983334D01*
X4450000Y23716667D02*
X4616666Y23216667D01*
X4183333Y23216667D01*
X34050000Y18983334D02*
X33983333Y18983334D01*
X33916666Y18950000D01*
X33883333Y18916667D01*
X33850000Y18850000D01*
X33816666Y18716667D01*
X33816666Y18550000D01*
X33850000Y18416667D01*
X33883333Y18350000D01*
X33916666Y18316667D01*
X33983333Y18283334D01*
X34050000Y18283334D01*
X34116666Y18316667D01*
X34150000Y18350000D01*
X34183333Y18416667D01*
X34216666Y18550000D01*
X34216666Y18716667D01*
X34183333Y18850000D01*
X34150000Y18916667D01*
X34116666Y18950000D01*
X34050000Y18983334D01*
X33516666Y18350000D02*
X33483333Y18316667D01*
X33516666Y18283334D01*
X33550000Y18316667D01*
X33516666Y18350000D01*
X33516666Y18283334D01*
X32816666Y18283334D02*
X33216666Y18283334D01*
X33016666Y18283334D02*
X33016666Y18983334D01*
X33083333Y18883334D01*
X33150000Y18816667D01*
X33216666Y18783334D01*
X32216666Y18750000D02*
X32216666Y18283334D01*
X32516666Y18750000D02*
X32516666Y18383334D01*
X32483333Y18316667D01*
X32416666Y18283334D01*
X32316666Y18283334D01*
X32250000Y18316667D01*
X32216666Y18350000D01*
X31650000Y18650000D02*
X31883333Y18650000D01*
X31883333Y18283334D02*
X31883333Y18983334D01*
X31550000Y18983334D01*
X33850000Y19250000D02*
X33883333Y19216667D01*
X33983333Y19183334D01*
X34050000Y19183334D01*
X34150000Y19216667D01*
X34216666Y19283334D01*
X34250000Y19350000D01*
X34283333Y19483334D01*
X34283333Y19583334D01*
X34250000Y19716667D01*
X34216666Y19783334D01*
X34150000Y19850000D01*
X34050000Y19883334D01*
X33983333Y19883334D01*
X33883333Y19850000D01*
X33850000Y19816667D01*
X33183333Y19183334D02*
X33583333Y19183334D01*
X33383333Y19183334D02*
X33383333Y19883334D01*
X33450000Y19783334D01*
X33516666Y19716667D01*
X33583333Y19683334D01*
X32583333Y19883334D02*
X32716666Y19883334D01*
X32783333Y19850000D01*
X32816666Y19816667D01*
X32883333Y19716667D01*
X32916666Y19583334D01*
X32916666Y19316667D01*
X32883333Y19250000D01*
X32850000Y19216667D01*
X32783333Y19183334D01*
X32650000Y19183334D01*
X32583333Y19216667D01*
X32550000Y19250000D01*
X32516666Y19316667D01*
X32516666Y19483334D01*
X32550000Y19550000D01*
X32583333Y19583334D01*
X32650000Y19616667D01*
X32783333Y19616667D01*
X32850000Y19583334D01*
X32883333Y19550000D01*
X32916666Y19483334D01*
X26850000Y17983334D02*
X27250000Y17983334D01*
X27050000Y17983334D02*
X27050000Y18683334D01*
X27116666Y18583334D01*
X27183333Y18516667D01*
X27250000Y18483334D01*
X26416666Y18683334D02*
X26350000Y18683334D01*
X26283333Y18650000D01*
X26250000Y18616667D01*
X26216666Y18550000D01*
X26183333Y18416667D01*
X26183333Y18250000D01*
X26216666Y18116667D01*
X26250000Y18050000D01*
X26283333Y18016667D01*
X26350000Y17983334D01*
X26416666Y17983334D01*
X26483333Y18016667D01*
X26516666Y18050000D01*
X26550000Y18116667D01*
X26583333Y18250000D01*
X26583333Y18416667D01*
X26550000Y18550000D01*
X26516666Y18616667D01*
X26483333Y18650000D01*
X26416666Y18683334D01*
X25883333Y18450000D02*
X25883333Y17750000D01*
X25883333Y18416667D02*
X25816666Y18450000D01*
X25683333Y18450000D01*
X25616666Y18416667D01*
X25583333Y18383334D01*
X25550000Y18316667D01*
X25550000Y18116667D01*
X25583333Y18050000D01*
X25616666Y18016667D01*
X25683333Y17983334D01*
X25816666Y17983334D01*
X25883333Y18016667D01*
X25016666Y18350000D02*
X25250000Y18350000D01*
X25250000Y17983334D02*
X25250000Y18683334D01*
X24916666Y18683334D01*
X26550000Y17250000D02*
X26583333Y17216667D01*
X26683333Y17183334D01*
X26750000Y17183334D01*
X26850000Y17216667D01*
X26916666Y17283334D01*
X26950000Y17350000D01*
X26983333Y17483334D01*
X26983333Y17583334D01*
X26950000Y17716667D01*
X26916666Y17783334D01*
X26850000Y17850000D01*
X26750000Y17883334D01*
X26683333Y17883334D01*
X26583333Y17850000D01*
X26550000Y17816667D01*
X25883333Y17183334D02*
X26283333Y17183334D01*
X26083333Y17183334D02*
X26083333Y17883334D01*
X26150000Y17783334D01*
X26216666Y17716667D01*
X26283333Y17683334D01*
X25483333Y17583334D02*
X25550000Y17616667D01*
X25583333Y17650000D01*
X25616666Y17716667D01*
X25616666Y17750000D01*
X25583333Y17816667D01*
X25550000Y17850000D01*
X25483333Y17883334D01*
X25350000Y17883334D01*
X25283333Y17850000D01*
X25250000Y17816667D01*
X25216666Y17750000D01*
X25216666Y17716667D01*
X25250000Y17650000D01*
X25283333Y17616667D01*
X25350000Y17583334D01*
X25483333Y17583334D01*
X25550000Y17550000D01*
X25583333Y17516667D01*
X25616666Y17450000D01*
X25616666Y17316667D01*
X25583333Y17250000D01*
X25550000Y17216667D01*
X25483333Y17183334D01*
X25350000Y17183334D01*
X25283333Y17216667D01*
X25250000Y17250000D01*
X25216666Y17316667D01*
X25216666Y17450000D01*
X25250000Y17516667D01*
X25283333Y17550000D01*
X25350000Y17583334D01*
X10750000Y21483334D02*
X10683333Y21483334D01*
X10616666Y21450000D01*
X10583333Y21416667D01*
X10550000Y21350000D01*
X10516666Y21216667D01*
X10516666Y21050000D01*
X10550000Y20916667D01*
X10583333Y20850000D01*
X10616666Y20816667D01*
X10683333Y20783334D01*
X10750000Y20783334D01*
X10816666Y20816667D01*
X10850000Y20850000D01*
X10883333Y20916667D01*
X10916666Y21050000D01*
X10916666Y21216667D01*
X10883333Y21350000D01*
X10850000Y21416667D01*
X10816666Y21450000D01*
X10750000Y21483334D01*
X10216666Y20850000D02*
X10183333Y20816667D01*
X10216666Y20783334D01*
X10250000Y20816667D01*
X10216666Y20850000D01*
X10216666Y20783334D01*
X9516666Y20783334D02*
X9916666Y20783334D01*
X9716666Y20783334D02*
X9716666Y21483334D01*
X9783333Y21383334D01*
X9850000Y21316667D01*
X9916666Y21283334D01*
X8916666Y21250000D02*
X8916666Y20783334D01*
X9216666Y21250000D02*
X9216666Y20883334D01*
X9183333Y20816667D01*
X9116666Y20783334D01*
X9016666Y20783334D01*
X8950000Y20816667D01*
X8916666Y20850000D01*
X8350000Y21150000D02*
X8583333Y21150000D01*
X8583333Y20783334D02*
X8583333Y21483334D01*
X8250000Y21483334D01*
X15650000Y20850000D02*
X15683333Y20816667D01*
X15783333Y20783334D01*
X15850000Y20783334D01*
X15950000Y20816667D01*
X16016666Y20883334D01*
X16050000Y20950000D01*
X16083333Y21083334D01*
X16083333Y21183334D01*
X16050000Y21316667D01*
X16016666Y21383334D01*
X15950000Y21450000D01*
X15850000Y21483334D01*
X15783333Y21483334D01*
X15683333Y21450000D01*
X15650000Y21416667D01*
X14983333Y20783334D02*
X15383333Y20783334D01*
X15183333Y20783334D02*
X15183333Y21483334D01*
X15250000Y21383334D01*
X15316666Y21316667D01*
X15383333Y21283334D01*
X14650000Y20783334D02*
X14516666Y20783334D01*
X14450000Y20816667D01*
X14416666Y20850000D01*
X14350000Y20950000D01*
X14316666Y21083334D01*
X14316666Y21350000D01*
X14350000Y21416667D01*
X14383333Y21450000D01*
X14450000Y21483334D01*
X14583333Y21483334D01*
X14650000Y21450000D01*
X14683333Y21416667D01*
X14716666Y21350000D01*
X14716666Y21183334D01*
X14683333Y21116667D01*
X14650000Y21083334D01*
X14583333Y21050000D01*
X14450000Y21050000D01*
X14383333Y21083334D01*
X14350000Y21116667D01*
X14316666Y21183334D01*
X11650000Y3616667D02*
X11616666Y3650000D01*
X11550000Y3683334D01*
X11383333Y3683334D01*
X11316666Y3650000D01*
X11283333Y3616667D01*
X11250000Y3550000D01*
X11250000Y3483334D01*
X11283333Y3383334D01*
X11683333Y2983334D01*
X11250000Y2983334D01*
X10983333Y3616667D02*
X10950000Y3650000D01*
X10883333Y3683334D01*
X10716666Y3683334D01*
X10650000Y3650000D01*
X10616666Y3616667D01*
X10583333Y3550000D01*
X10583333Y3483334D01*
X10616666Y3383334D01*
X11016666Y2983334D01*
X10583333Y2983334D01*
X10283333Y3450000D02*
X10283333Y2983334D01*
X10283333Y3383334D02*
X10250000Y3416667D01*
X10183333Y3450000D01*
X10083333Y3450000D01*
X10016666Y3416667D01*
X9983333Y3350000D01*
X9983333Y2983334D01*
X9416666Y3350000D02*
X9650000Y3350000D01*
X9650000Y2983334D02*
X9650000Y3683334D01*
X9316666Y3683334D01*
X11150000Y3950000D02*
X11183333Y3916667D01*
X11283333Y3883334D01*
X11350000Y3883334D01*
X11450000Y3916667D01*
X11516666Y3983334D01*
X11550000Y4050000D01*
X11583333Y4183334D01*
X11583333Y4283334D01*
X11550000Y4416667D01*
X11516666Y4483334D01*
X11450000Y4550000D01*
X11350000Y4583334D01*
X11283333Y4583334D01*
X11183333Y4550000D01*
X11150000Y4516667D01*
X10883333Y4516667D02*
X10850000Y4550000D01*
X10783333Y4583334D01*
X10616666Y4583334D01*
X10550000Y4550000D01*
X10516666Y4516667D01*
X10483333Y4450000D01*
X10483333Y4383334D01*
X10516666Y4283334D01*
X10916666Y3883334D01*
X10483333Y3883334D01*
X9816666Y3883334D02*
X10216666Y3883334D01*
X10016666Y3883334D02*
X10016666Y4583334D01*
X10083333Y4483334D01*
X10150000Y4416667D01*
X10216666Y4383334D01*
X20883333Y13556334D02*
X20483333Y13556334D01*
X20683333Y12856334D02*
X20683333Y13556334D01*
X19916666Y12856334D02*
X20250000Y12856334D01*
X20250000Y13556334D01*
X19550000Y13556334D02*
X19483333Y13556334D01*
X19416666Y13523000D01*
X19383333Y13489667D01*
X19350000Y13423000D01*
X19316666Y13289667D01*
X19316666Y13123000D01*
X19350000Y12989667D01*
X19383333Y12923000D01*
X19416666Y12889667D01*
X19483333Y12856334D01*
X19550000Y12856334D01*
X19616666Y12889667D01*
X19650000Y12923000D01*
X19683333Y12989667D01*
X19716666Y13123000D01*
X19716666Y13289667D01*
X19683333Y13423000D01*
X19650000Y13489667D01*
X19616666Y13523000D01*
X19550000Y13556334D01*
X19083333Y13556334D02*
X18616666Y13556334D01*
X18916666Y12856334D01*
X18383333Y13489667D02*
X18350000Y13523000D01*
X18283333Y13556334D01*
X18116666Y13556334D01*
X18050000Y13523000D01*
X18016666Y13489667D01*
X17983333Y13423000D01*
X17983333Y13356334D01*
X18016666Y13256334D01*
X18416666Y12856334D01*
X17983333Y12856334D01*
X22916666Y7183334D02*
X22916666Y7883334D01*
X22750000Y7883334D01*
X22650000Y7850000D01*
X22583333Y7783334D01*
X22550000Y7716667D01*
X22516666Y7583334D01*
X22516666Y7483334D01*
X22550000Y7350000D01*
X22583333Y7283334D01*
X22650000Y7216667D01*
X22750000Y7183334D01*
X22916666Y7183334D01*
X22250000Y7383334D02*
X21916666Y7383334D01*
X22316666Y7183334D02*
X22083333Y7883334D01*
X21850000Y7183334D01*
X21650000Y7816667D02*
X21616666Y7850000D01*
X21550000Y7883334D01*
X21383333Y7883334D01*
X21316666Y7850000D01*
X21283333Y7816667D01*
X21250000Y7750000D01*
X21250000Y7683334D01*
X21283333Y7583334D01*
X21683333Y7183334D01*
X21250000Y7183334D01*
X32416666Y25583334D02*
X32283333Y25583334D01*
X32216666Y25550000D01*
X32150000Y25483334D01*
X32116666Y25350000D01*
X32116666Y25116667D01*
X32150000Y24983334D01*
X32216666Y24916667D01*
X32283333Y24883334D01*
X32416666Y24883334D01*
X32483333Y24916667D01*
X32550000Y24983334D01*
X32583333Y25116667D01*
X32583333Y25350000D01*
X32550000Y25483334D01*
X32483333Y25550000D01*
X32416666Y25583334D01*
X31416666Y24883334D02*
X31650000Y25216667D01*
X31816666Y24883334D02*
X31816666Y25583334D01*
X31550000Y25583334D01*
X31483333Y25550000D01*
X31450000Y25516667D01*
X31416666Y25450000D01*
X31416666Y25350000D01*
X31450000Y25283334D01*
X31483333Y25250000D01*
X31550000Y25216667D01*
X31816666Y25216667D01*
X36716666Y26783334D02*
X37050000Y26783334D01*
X37050000Y27483334D01*
X36550000Y27483334D02*
X36116666Y27483334D01*
X36350000Y27216667D01*
X36250000Y27216667D01*
X36183333Y27183334D01*
X36150000Y27150000D01*
X36116666Y27083334D01*
X36116666Y26916667D01*
X36150000Y26850000D01*
X36183333Y26816667D01*
X36250000Y26783334D01*
X36450000Y26783334D01*
X36516666Y26816667D01*
X36550000Y26850000D01*
X29916666Y2583334D02*
X29783333Y2583334D01*
X29716666Y2550000D01*
X29650000Y2483334D01*
X29616666Y2350000D01*
X29616666Y2116667D01*
X29650000Y1983334D01*
X29716666Y1916667D01*
X29783333Y1883334D01*
X29916666Y1883334D01*
X29983333Y1916667D01*
X30050000Y1983334D01*
X30083333Y2116667D01*
X30083333Y2350000D01*
X30050000Y2483334D01*
X29983333Y2550000D01*
X29916666Y2583334D01*
X28916666Y1883334D02*
X29150000Y2216667D01*
X29316666Y1883334D02*
X29316666Y2583334D01*
X29050000Y2583334D01*
X28983333Y2550000D01*
X28950000Y2516667D01*
X28916666Y2450000D01*
X28916666Y2350000D01*
X28950000Y2283334D01*
X28983333Y2250000D01*
X29050000Y2216667D01*
X29316666Y2216667D01*
X35116666Y3583334D02*
X35450000Y3583334D01*
X35450000Y4283334D01*
X34583333Y4050000D02*
X34583333Y3583334D01*
X34750000Y4316667D02*
X34916666Y3816667D01*
X34483333Y3816667D01*
X12450000Y28383334D02*
X12683333Y28716667D01*
X12850000Y28383334D02*
X12850000Y29083334D01*
X12583333Y29083334D01*
X12516666Y29050000D01*
X12483333Y29016667D01*
X12450000Y28950000D01*
X12450000Y28850000D01*
X12483333Y28783334D01*
X12516666Y28750000D01*
X12583333Y28716667D01*
X12850000Y28716667D01*
X11783333Y28383334D02*
X12183333Y28383334D01*
X11983333Y28383334D02*
X11983333Y29083334D01*
X12050000Y28983334D01*
X12116666Y28916667D01*
X12183333Y28883334D01*
X11516666Y29016667D02*
X11483333Y29050000D01*
X11416666Y29083334D01*
X11250000Y29083334D01*
X11183333Y29050000D01*
X11150000Y29016667D01*
X11116666Y28950000D01*
X11116666Y28883334D01*
X11150000Y28783334D01*
X11550000Y28383334D01*
X11116666Y28383334D01*
X20216666Y28350000D02*
X20216666Y27883334D01*
X20383333Y28616667D02*
X20550000Y28116667D01*
X20116666Y28116667D01*
X19916666Y28583334D02*
X19450000Y28583334D01*
X19750000Y27883334D01*
X19050000Y28583334D02*
X18983333Y28583334D01*
X18916666Y28550000D01*
X18883333Y28516667D01*
X18850000Y28450000D01*
X18816666Y28316667D01*
X18816666Y28150000D01*
X18850000Y28016667D01*
X18883333Y27950000D01*
X18916666Y27916667D01*
X18983333Y27883334D01*
X19050000Y27883334D01*
X19116666Y27916667D01*
X19150000Y27950000D01*
X19183333Y28016667D01*
X19216666Y28150000D01*
X19216666Y28316667D01*
X19183333Y28450000D01*
X19150000Y28516667D01*
X19116666Y28550000D01*
X19050000Y28583334D01*
X18516666Y27883334D02*
X18516666Y28583334D01*
X18450000Y28150000D02*
X18250000Y27883334D01*
X18250000Y28350000D02*
X18516666Y28083334D01*
X13450000Y26183334D02*
X13683333Y26516667D01*
X13850000Y26183334D02*
X13850000Y26883334D01*
X13583333Y26883334D01*
X13516666Y26850000D01*
X13483333Y26816667D01*
X13450000Y26750000D01*
X13450000Y26650000D01*
X13483333Y26583334D01*
X13516666Y26550000D01*
X13583333Y26516667D01*
X13850000Y26516667D01*
X12783333Y26183334D02*
X13183333Y26183334D01*
X12983333Y26183334D02*
X12983333Y26883334D01*
X13050000Y26783334D01*
X13116666Y26716667D01*
X13183333Y26683334D01*
X12183333Y26883334D02*
X12316666Y26883334D01*
X12383333Y26850000D01*
X12416666Y26816667D01*
X12483333Y26716667D01*
X12516666Y26583334D01*
X12516666Y26316667D01*
X12483333Y26250000D01*
X12450000Y26216667D01*
X12383333Y26183334D01*
X12250000Y26183334D01*
X12183333Y26216667D01*
X12150000Y26250000D01*
X12116666Y26316667D01*
X12116666Y26483334D01*
X12150000Y26550000D01*
X12183333Y26583334D01*
X12250000Y26616667D01*
X12383333Y26616667D01*
X12450000Y26583334D01*
X12483333Y26550000D01*
X12516666Y26483334D01*
X20216666Y25350000D02*
X20216666Y24883334D01*
X20383333Y25616667D02*
X20550000Y25116667D01*
X20116666Y25116667D01*
X19916666Y25583334D02*
X19450000Y25583334D01*
X19750000Y24883334D01*
X19050000Y25583334D02*
X18983333Y25583334D01*
X18916666Y25550000D01*
X18883333Y25516667D01*
X18850000Y25450000D01*
X18816666Y25316667D01*
X18816666Y25150000D01*
X18850000Y25016667D01*
X18883333Y24950000D01*
X18916666Y24916667D01*
X18983333Y24883334D01*
X19050000Y24883334D01*
X19116666Y24916667D01*
X19150000Y24950000D01*
X19183333Y25016667D01*
X19216666Y25150000D01*
X19216666Y25316667D01*
X19183333Y25450000D01*
X19150000Y25516667D01*
X19116666Y25550000D01*
X19050000Y25583334D01*
X18516666Y24883334D02*
X18516666Y25583334D01*
X18450000Y25150000D02*
X18250000Y24883334D01*
X18250000Y25350000D02*
X18516666Y25083334D01*
X31550000Y13083334D02*
X31783333Y13416667D01*
X31950000Y13083334D02*
X31950000Y13783334D01*
X31683333Y13783334D01*
X31616666Y13750000D01*
X31583333Y13716667D01*
X31550000Y13650000D01*
X31550000Y13550000D01*
X31583333Y13483334D01*
X31616666Y13450000D01*
X31683333Y13416667D01*
X31950000Y13416667D01*
X30883333Y13083334D02*
X31283333Y13083334D01*
X31083333Y13083334D02*
X31083333Y13783334D01*
X31150000Y13683334D01*
X31216666Y13616667D01*
X31283333Y13583334D01*
X30550000Y13083334D02*
X30416666Y13083334D01*
X30350000Y13116667D01*
X30316666Y13150000D01*
X30250000Y13250000D01*
X30216666Y13383334D01*
X30216666Y13650000D01*
X30250000Y13716667D01*
X30283333Y13750000D01*
X30350000Y13783334D01*
X30483333Y13783334D01*
X30550000Y13750000D01*
X30583333Y13716667D01*
X30616666Y13650000D01*
X30616666Y13483334D01*
X30583333Y13416667D01*
X30550000Y13383334D01*
X30483333Y13350000D01*
X30350000Y13350000D01*
X30283333Y13383334D01*
X30250000Y13416667D01*
X30216666Y13483334D01*
X32516666Y10316667D02*
X32516666Y10716667D01*
X32516666Y10516667D02*
X31816666Y10516667D01*
X31916666Y10583334D01*
X31983333Y10650000D01*
X32016666Y10716667D01*
X31816666Y9883334D02*
X31816666Y9816667D01*
X31850000Y9750000D01*
X31883333Y9716667D01*
X31950000Y9683334D01*
X32083333Y9650000D01*
X32250000Y9650000D01*
X32383333Y9683334D01*
X32450000Y9716667D01*
X32483333Y9750000D01*
X32516666Y9816667D01*
X32516666Y9883334D01*
X32483333Y9950000D01*
X32450000Y9983334D01*
X32383333Y10016667D01*
X32250000Y10050000D01*
X32083333Y10050000D01*
X31950000Y10016667D01*
X31883333Y9983334D01*
X31850000Y9950000D01*
X31816666Y9883334D01*
X32516666Y9350000D02*
X31816666Y9350000D01*
X32250000Y9283334D02*
X32516666Y9083334D01*
X32050000Y9083334D02*
X32316666Y9350000D01*
X28450000Y13083334D02*
X28683333Y13416667D01*
X28850000Y13083334D02*
X28850000Y13783334D01*
X28583333Y13783334D01*
X28516666Y13750000D01*
X28483333Y13716667D01*
X28450000Y13650000D01*
X28450000Y13550000D01*
X28483333Y13483334D01*
X28516666Y13450000D01*
X28583333Y13416667D01*
X28850000Y13416667D01*
X28183333Y13716667D02*
X28150000Y13750000D01*
X28083333Y13783334D01*
X27916666Y13783334D01*
X27850000Y13750000D01*
X27816666Y13716667D01*
X27783333Y13650000D01*
X27783333Y13583334D01*
X27816666Y13483334D01*
X28216666Y13083334D01*
X27783333Y13083334D01*
X27350000Y13783334D02*
X27283333Y13783334D01*
X27216666Y13750000D01*
X27183333Y13716667D01*
X27150000Y13650000D01*
X27116666Y13516667D01*
X27116666Y13350000D01*
X27150000Y13216667D01*
X27183333Y13150000D01*
X27216666Y13116667D01*
X27283333Y13083334D01*
X27350000Y13083334D01*
X27416666Y13116667D01*
X27450000Y13150000D01*
X27483333Y13216667D01*
X27516666Y13350000D01*
X27516666Y13516667D01*
X27483333Y13650000D01*
X27450000Y13716667D01*
X27416666Y13750000D01*
X27350000Y13783334D01*
X28883333Y10500000D02*
X28850000Y10466667D01*
X28816666Y10400000D01*
X28816666Y10233334D01*
X28850000Y10166667D01*
X28883333Y10133334D01*
X28950000Y10100000D01*
X29016666Y10100000D01*
X29116666Y10133334D01*
X29516666Y10533334D01*
X29516666Y10100000D01*
X29516666Y9800000D02*
X28816666Y9800000D01*
X29316666Y9566667D01*
X28816666Y9333334D01*
X29516666Y9333334D01*
X26550000Y16283334D02*
X26783333Y16616667D01*
X26950000Y16283334D02*
X26950000Y16983334D01*
X26683333Y16983334D01*
X26616666Y16950000D01*
X26583333Y16916667D01*
X26550000Y16850000D01*
X26550000Y16750000D01*
X26583333Y16683334D01*
X26616666Y16650000D01*
X26683333Y16616667D01*
X26950000Y16616667D01*
X26283333Y16916667D02*
X26250000Y16950000D01*
X26183333Y16983334D01*
X26016666Y16983334D01*
X25950000Y16950000D01*
X25916666Y16916667D01*
X25883333Y16850000D01*
X25883333Y16783334D01*
X25916666Y16683334D01*
X26316666Y16283334D01*
X25883333Y16283334D01*
X25616666Y16916667D02*
X25583333Y16950000D01*
X25516666Y16983334D01*
X25350000Y16983334D01*
X25283333Y16950000D01*
X25250000Y16916667D01*
X25216666Y16850000D01*
X25216666Y16783334D01*
X25250000Y16683334D01*
X25650000Y16283334D01*
X25216666Y16283334D01*
X26516666Y10316667D02*
X26516666Y10716667D01*
X26516666Y10516667D02*
X25816666Y10516667D01*
X25916666Y10583334D01*
X25983333Y10650000D01*
X26016666Y10716667D01*
X25816666Y9883334D02*
X25816666Y9816667D01*
X25850000Y9750000D01*
X25883333Y9716667D01*
X25950000Y9683334D01*
X26083333Y9650000D01*
X26250000Y9650000D01*
X26383333Y9683334D01*
X26450000Y9716667D01*
X26483333Y9750000D01*
X26516666Y9816667D01*
X26516666Y9883334D01*
X26483333Y9950000D01*
X26450000Y9983334D01*
X26383333Y10016667D01*
X26250000Y10050000D01*
X26083333Y10050000D01*
X25950000Y10016667D01*
X25883333Y9983334D01*
X25850000Y9950000D01*
X25816666Y9883334D01*
X26516666Y9350000D02*
X25816666Y9350000D01*
X26250000Y9283334D02*
X26516666Y9083334D01*
X26050000Y9083334D02*
X26316666Y9350000D01*
X29250000Y22883334D02*
X29483333Y23216667D01*
X29650000Y22883334D02*
X29650000Y23583334D01*
X29383333Y23583334D01*
X29316666Y23550000D01*
X29283333Y23516667D01*
X29250000Y23450000D01*
X29250000Y23350000D01*
X29283333Y23283334D01*
X29316666Y23250000D01*
X29383333Y23216667D01*
X29650000Y23216667D01*
X28983333Y23516667D02*
X28950000Y23550000D01*
X28883333Y23583334D01*
X28716666Y23583334D01*
X28650000Y23550000D01*
X28616666Y23516667D01*
X28583333Y23450000D01*
X28583333Y23383334D01*
X28616666Y23283334D01*
X29016666Y22883334D01*
X28583333Y22883334D01*
X28350000Y23583334D02*
X27916666Y23583334D01*
X28150000Y23316667D01*
X28050000Y23316667D01*
X27983333Y23283334D01*
X27950000Y23250000D01*
X27916666Y23183334D01*
X27916666Y23016667D01*
X27950000Y22950000D01*
X27983333Y22916667D01*
X28050000Y22883334D01*
X28250000Y22883334D01*
X28316666Y22916667D01*
X28350000Y22950000D01*
X22716666Y22350000D02*
X22716666Y21883334D01*
X22883333Y22616667D02*
X23050000Y22116667D01*
X22616666Y22116667D01*
X22416666Y22583334D02*
X21950000Y22583334D01*
X22250000Y21883334D01*
X21550000Y22583334D02*
X21483333Y22583334D01*
X21416666Y22550000D01*
X21383333Y22516667D01*
X21350000Y22450000D01*
X21316666Y22316667D01*
X21316666Y22150000D01*
X21350000Y22016667D01*
X21383333Y21950000D01*
X21416666Y21916667D01*
X21483333Y21883334D01*
X21550000Y21883334D01*
X21616666Y21916667D01*
X21650000Y21950000D01*
X21683333Y22016667D01*
X21716666Y22150000D01*
X21716666Y22316667D01*
X21683333Y22450000D01*
X21650000Y22516667D01*
X21616666Y22550000D01*
X21550000Y22583334D01*
X21016666Y21883334D02*
X21016666Y22583334D01*
X20950000Y22150000D02*
X20750000Y21883334D01*
X20750000Y22350000D02*
X21016666Y22083334D01*
X11750000Y21683334D02*
X11983333Y22016667D01*
X12150000Y21683334D02*
X12150000Y22383334D01*
X11883333Y22383334D01*
X11816666Y22350000D01*
X11783333Y22316667D01*
X11750000Y22250000D01*
X11750000Y22150000D01*
X11783333Y22083334D01*
X11816666Y22050000D01*
X11883333Y22016667D01*
X12150000Y22016667D01*
X11483333Y22316667D02*
X11450000Y22350000D01*
X11383333Y22383334D01*
X11216666Y22383334D01*
X11150000Y22350000D01*
X11116666Y22316667D01*
X11083333Y22250000D01*
X11083333Y22183334D01*
X11116666Y22083334D01*
X11516666Y21683334D01*
X11083333Y21683334D01*
X10850000Y22383334D02*
X10383333Y22383334D01*
X10683333Y21683334D01*
X12916666Y19016667D02*
X12916666Y19416667D01*
X12916666Y19216667D02*
X12216666Y19216667D01*
X12316666Y19283334D01*
X12383333Y19350000D01*
X12416666Y19416667D01*
X12216666Y18583334D02*
X12216666Y18516667D01*
X12250000Y18450000D01*
X12283333Y18416667D01*
X12350000Y18383334D01*
X12483333Y18350000D01*
X12650000Y18350000D01*
X12783333Y18383334D01*
X12850000Y18416667D01*
X12883333Y18450000D01*
X12916666Y18516667D01*
X12916666Y18583334D01*
X12883333Y18650000D01*
X12850000Y18683334D01*
X12783333Y18716667D01*
X12650000Y18750000D01*
X12483333Y18750000D01*
X12350000Y18716667D01*
X12283333Y18683334D01*
X12250000Y18650000D01*
X12216666Y18583334D01*
X12916666Y18050000D02*
X12216666Y18050000D01*
X12650000Y17983334D02*
X12916666Y17783334D01*
X12450000Y17783334D02*
X12716666Y18050000D01*
X22850000Y6183334D02*
X23083333Y6516667D01*
X23250000Y6183334D02*
X23250000Y6883334D01*
X22983333Y6883334D01*
X22916666Y6850000D01*
X22883333Y6816667D01*
X22850000Y6750000D01*
X22850000Y6650000D01*
X22883333Y6583334D01*
X22916666Y6550000D01*
X22983333Y6516667D01*
X23250000Y6516667D01*
X22616666Y6883334D02*
X22183333Y6883334D01*
X22416666Y6616667D01*
X22316666Y6616667D01*
X22250000Y6583334D01*
X22216666Y6550000D01*
X22183333Y6483334D01*
X22183333Y6316667D01*
X22216666Y6250000D01*
X22250000Y6216667D01*
X22316666Y6183334D01*
X22516666Y6183334D01*
X22583333Y6216667D01*
X22616666Y6250000D01*
X21750000Y6883334D02*
X21683333Y6883334D01*
X21616666Y6850000D01*
X21583333Y6816667D01*
X21550000Y6750000D01*
X21516666Y6616667D01*
X21516666Y6450000D01*
X21550000Y6316667D01*
X21583333Y6250000D01*
X21616666Y6216667D01*
X21683333Y6183334D01*
X21750000Y6183334D01*
X21816666Y6216667D01*
X21850000Y6250000D01*
X21883333Y6316667D01*
X21916666Y6450000D01*
X21916666Y6616667D01*
X21883333Y6750000D01*
X21850000Y6816667D01*
X21816666Y6850000D01*
X21750000Y6883334D01*
X15550000Y6683334D02*
X15883333Y6683334D01*
X15916666Y6350000D01*
X15883333Y6383334D01*
X15816666Y6416667D01*
X15650000Y6416667D01*
X15583333Y6383334D01*
X15550000Y6350000D01*
X15516666Y6283334D01*
X15516666Y6116667D01*
X15550000Y6050000D01*
X15583333Y6016667D01*
X15650000Y5983334D01*
X15816666Y5983334D01*
X15883333Y6016667D01*
X15916666Y6050000D01*
X14916666Y6683334D02*
X15050000Y6683334D01*
X15116666Y6650000D01*
X15150000Y6616667D01*
X15216666Y6516667D01*
X15250000Y6383334D01*
X15250000Y6116667D01*
X15216666Y6050000D01*
X15183333Y6016667D01*
X15116666Y5983334D01*
X14983333Y5983334D01*
X14916666Y6016667D01*
X14883333Y6050000D01*
X14850000Y6116667D01*
X14850000Y6283334D01*
X14883333Y6350000D01*
X14916666Y6383334D01*
X14983333Y6416667D01*
X15116666Y6416667D01*
X15183333Y6383334D01*
X15216666Y6350000D01*
X15250000Y6283334D01*
X14550000Y5983334D02*
X14550000Y6683334D01*
X14483333Y6250000D02*
X14283333Y5983334D01*
X14283333Y6450000D02*
X14550000Y6183334D01*
X1416666Y11450000D02*
X1083333Y11683334D01*
X1416666Y11850000D02*
X716666Y11850000D01*
X716666Y11583334D01*
X750000Y11516667D01*
X783333Y11483334D01*
X850000Y11450000D01*
X950000Y11450000D01*
X1016666Y11483334D01*
X1050000Y11516667D01*
X1083333Y11583334D01*
X1083333Y11850000D01*
X716666Y11216667D02*
X716666Y10783334D01*
X983333Y11016667D01*
X983333Y10916667D01*
X1016666Y10850000D01*
X1050000Y10816667D01*
X1116666Y10783334D01*
X1283333Y10783334D01*
X1350000Y10816667D01*
X1383333Y10850000D01*
X1416666Y10916667D01*
X1416666Y11116667D01*
X1383333Y11183334D01*
X1350000Y11216667D01*
X783333Y10516667D02*
X750000Y10483334D01*
X716666Y10416667D01*
X716666Y10250000D01*
X750000Y10183334D01*
X783333Y10150000D01*
X850000Y10116667D01*
X916666Y10116667D01*
X1016666Y10150000D01*
X1416666Y10550000D01*
X1416666Y10116667D01*
X8750000Y11416667D02*
X8716666Y11450000D01*
X8650000Y11483334D01*
X8483333Y11483334D01*
X8416666Y11450000D01*
X8383333Y11416667D01*
X8350000Y11350000D01*
X8350000Y11283334D01*
X8383333Y11183334D01*
X8783333Y10783334D01*
X8350000Y10783334D01*
X8083333Y11416667D02*
X8050000Y11450000D01*
X7983333Y11483334D01*
X7816666Y11483334D01*
X7750000Y11450000D01*
X7716666Y11416667D01*
X7683333Y11350000D01*
X7683333Y11283334D01*
X7716666Y11183334D01*
X8116666Y10783334D01*
X7683333Y10783334D01*
X7250000Y11483334D02*
X7183333Y11483334D01*
X7116666Y11450000D01*
X7083333Y11416667D01*
X7050000Y11350000D01*
X7016666Y11216667D01*
X7016666Y11050000D01*
X7050000Y10916667D01*
X7083333Y10850000D01*
X7116666Y10816667D01*
X7183333Y10783334D01*
X7250000Y10783334D01*
X7316666Y10816667D01*
X7350000Y10850000D01*
X7383333Y10916667D01*
X7416666Y11050000D01*
X7416666Y11216667D01*
X7383333Y11350000D01*
X7350000Y11416667D01*
X7316666Y11450000D01*
X7250000Y11483334D01*
X6716666Y10783334D02*
X6716666Y11483334D01*
X6650000Y11050000D02*
X6450000Y10783334D01*
X6450000Y11250000D02*
X6716666Y10983334D01*
X5050000Y20483334D02*
X5283333Y20816667D01*
X5450000Y20483334D02*
X5450000Y21183334D01*
X5183333Y21183334D01*
X5116666Y21150000D01*
X5083333Y21116667D01*
X5050000Y21050000D01*
X5050000Y20950000D01*
X5083333Y20883334D01*
X5116666Y20850000D01*
X5183333Y20816667D01*
X5450000Y20816667D01*
X4816666Y21183334D02*
X4383333Y21183334D01*
X4616666Y20916667D01*
X4516666Y20916667D01*
X4450000Y20883334D01*
X4416666Y20850000D01*
X4383333Y20783334D01*
X4383333Y20616667D01*
X4416666Y20550000D01*
X4450000Y20516667D01*
X4516666Y20483334D01*
X4716666Y20483334D01*
X4783333Y20516667D01*
X4816666Y20550000D01*
X3750000Y21183334D02*
X4083333Y21183334D01*
X4116666Y20850000D01*
X4083333Y20883334D01*
X4016666Y20916667D01*
X3850000Y20916667D01*
X3783333Y20883334D01*
X3750000Y20850000D01*
X3716666Y20783334D01*
X3716666Y20616667D01*
X3750000Y20550000D01*
X3783333Y20516667D01*
X3850000Y20483334D01*
X4016666Y20483334D01*
X4083333Y20516667D01*
X4116666Y20550000D01*
X31833333Y23783334D02*
X31600000Y23083334D01*
X31366666Y23783334D01*
X31233333Y23783334D02*
X30833333Y23783334D01*
X31033333Y23083334D02*
X31033333Y23783334D01*
X30633333Y23716667D02*
X30600000Y23750000D01*
X30533333Y23783334D01*
X30366666Y23783334D01*
X30300000Y23750000D01*
X30266666Y23716667D01*
X30233333Y23650000D01*
X30233333Y23583334D01*
X30266666Y23483334D01*
X30666666Y23083334D01*
X30233333Y23083334D01*
X15616666Y24983334D02*
X15616666Y24583334D01*
X16316666Y24783334D02*
X15616666Y24783334D01*
X16316666Y24350000D02*
X15616666Y24350000D01*
X15616666Y24083334D01*
X15650000Y24016667D01*
X15683333Y23983334D01*
X15750000Y23950000D01*
X15850000Y23950000D01*
X15916666Y23983334D01*
X15950000Y24016667D01*
X15983333Y24083334D01*
X15983333Y24350000D01*
X15850000Y23350000D02*
X16316666Y23350000D01*
X15583333Y23516667D02*
X16083333Y23683334D01*
X16083333Y23250000D01*
X10816666Y9583334D02*
X10816666Y9183334D01*
X11516666Y9383334D02*
X10816666Y9383334D01*
X11516666Y8950000D02*
X10816666Y8950000D01*
X10816666Y8683334D01*
X10850000Y8616667D01*
X10883333Y8583334D01*
X10950000Y8550000D01*
X11050000Y8550000D01*
X11116666Y8583334D01*
X11150000Y8616667D01*
X11183333Y8683334D01*
X11183333Y8950000D01*
X10816666Y7950000D02*
X10816666Y8083334D01*
X10850000Y8150000D01*
X10883333Y8183334D01*
X10983333Y8250000D01*
X11116666Y8283334D01*
X11383333Y8283334D01*
X11450000Y8250000D01*
X11483333Y8216667D01*
X11516666Y8150000D01*
X11516666Y8016667D01*
X11483333Y7950000D01*
X11450000Y7916667D01*
X11383333Y7883334D01*
X11216666Y7883334D01*
X11150000Y7916667D01*
X11116666Y7950000D01*
X11083333Y8016667D01*
X11083333Y8150000D01*
X11116666Y8216667D01*
X11150000Y8250000D01*
X11216666Y8283334D01*
M02*
