G04 #@! TF.FileFunction,Copper,L1,Top,Signal*
%FSLAX46Y46*%
G04 Gerber Fmt 4.6, Leading zero omitted, Abs format (unit mm)*
G04 Created by KiCad (PCBNEW (2016-08-20 BZR 7083)-product) date Sun Jan  1 23:07:31 2017*
%MOMM*%
%LPD*%
G01*
G04 APERTURE LIST*
%ADD10C,0.100000*%
%ADD11C,1.200000*%
%ADD12R,1.400000X1.400000*%
%ADD13C,1.400000*%
%ADD14R,2.200000X1.600000*%
%ADD15O,2.200000X1.600000*%
%ADD16C,2.000000*%
%ADD17C,1.600000*%
%ADD18R,1.600000X1.600000*%
%ADD19C,0.900000*%
%ADD20C,0.300000*%
%ADD21C,0.290000*%
G04 APERTURE END LIST*
D10*
D11*
X35200000Y22740000D03*
X35200000Y17660000D03*
X35200000Y10860000D03*
X35200000Y15940000D03*
X27060000Y28100000D03*
X32140000Y28100000D03*
X22140000Y1800000D03*
X17060000Y1800000D03*
D12*
X9850000Y26000000D03*
D13*
X7350000Y26000000D03*
D11*
X33240000Y17100000D03*
X28160000Y17100000D03*
X26940000Y19700000D03*
X21860000Y19700000D03*
X20140000Y19700000D03*
X15060000Y19700000D03*
X12560000Y3800000D03*
X17640000Y3800000D03*
D14*
X23210000Y17110000D03*
D15*
X23210000Y14570000D03*
X23210000Y12030000D03*
X23210000Y9490000D03*
X15590000Y9490000D03*
X15590000Y12030000D03*
X15590000Y14570000D03*
X15590000Y17110000D03*
D16*
X37080000Y25200000D03*
X26920000Y25200000D03*
X34580000Y2200000D03*
X24420000Y2200000D03*
X24400000Y28200000D03*
X14400000Y28200000D03*
X14400000Y25200000D03*
X24400000Y25200000D03*
X32200000Y4900000D03*
X32200000Y14900000D03*
X29200000Y4900000D03*
X29200000Y14900000D03*
X26200000Y4900000D03*
X26200000Y14900000D03*
X26900000Y22200000D03*
X16900000Y22200000D03*
X12600000Y23600000D03*
X12600000Y13600000D03*
X20100000Y6300000D03*
X10100000Y6300000D03*
X12600000Y11100000D03*
X2600000Y11100000D03*
D17*
X10000000Y16800000D03*
X5000000Y14300000D03*
X5000000Y19300000D03*
D11*
X30835000Y20600000D03*
X29565000Y21870000D03*
X29565000Y19330000D03*
D17*
X37750000Y14190000D03*
X37750000Y16730000D03*
D18*
X37750000Y21810000D03*
D17*
X37750000Y19270000D03*
X1250000Y14190000D03*
X1250000Y16730000D03*
D18*
X1250000Y21810000D03*
D17*
X1250000Y19270000D03*
X14700000Y22900000D03*
X12600000Y8800000D03*
D19*
X25000000Y21700000D03*
X25100000Y16800000D03*
X30800000Y17400000D03*
X12200000Y28700000D03*
X18900000Y22200000D03*
X22600000Y23600000D03*
X22200000Y28800000D03*
X16000000Y26700000D03*
X32600000Y23400000D03*
X37900000Y28200000D03*
X30700000Y13400000D03*
X36700000Y8300000D03*
X37300000Y1600000D03*
X19500000Y17800000D03*
X19500000Y11100000D03*
X10600000Y24300000D03*
X7100000Y20800000D03*
X13600000Y21300000D03*
X13300000Y17400000D03*
X12300000Y6600000D03*
X13800000Y1100000D03*
X10200000Y3100000D03*
X5600000Y3100000D03*
X1500000Y3600000D03*
X2000000Y8200000D03*
X10500000Y10600000D03*
X7100000Y14000000D03*
X10900000Y15000000D03*
X1400000Y27700000D03*
D20*
X25100000Y16800000D02*
X26700000Y18400000D01*
X24500000Y21700000D02*
X25000000Y21700000D01*
X22600000Y23600000D02*
X24500000Y21700000D01*
X29800000Y17400000D02*
X30800000Y17400000D01*
X28800000Y18400000D02*
X29800000Y17400000D01*
X26700000Y18400000D02*
X28800000Y18400000D01*
X12200000Y28700000D02*
X12200000Y27300000D01*
X10050000Y28700000D02*
X12200000Y28700000D01*
X7350000Y26000000D02*
X10050000Y28700000D01*
X22600000Y28400000D02*
X22600000Y23600000D01*
X22200000Y28800000D02*
X22600000Y28400000D01*
X12800000Y26700000D02*
X16000000Y26700000D01*
X12200000Y27300000D02*
X12800000Y26700000D01*
X32600000Y20260000D02*
X32600000Y23400000D01*
X35200000Y17660000D02*
X32600000Y20260000D01*
X29200000Y4900000D02*
X30700000Y6400000D01*
X30700000Y6400000D02*
X30700000Y13400000D01*
X32200000Y4900000D02*
X33300000Y3800000D01*
X38500000Y13440000D02*
X37750000Y14190000D01*
X38500000Y12500000D02*
X38500000Y13440000D01*
X36700000Y10700000D02*
X38500000Y12500000D01*
X36700000Y8300000D02*
X36700000Y10700000D01*
X35100000Y3800000D02*
X37300000Y1600000D01*
X33300000Y3800000D02*
X35100000Y3800000D01*
X19500000Y11100000D02*
X19500000Y17800000D01*
X13300000Y17400000D02*
X10900000Y15000000D01*
X10600000Y24300000D02*
X7100000Y20800000D01*
X13600000Y21300000D02*
X13600000Y17700000D01*
X13600000Y17700000D02*
X13300000Y17400000D01*
X14500000Y4400000D02*
X12300000Y6600000D01*
X14500000Y1800000D02*
X14500000Y4400000D01*
X13800000Y1100000D02*
X14500000Y1800000D01*
X5600000Y3100000D02*
X10200000Y3100000D01*
X1500000Y7700000D02*
X1500000Y3600000D01*
X2000000Y8200000D02*
X1500000Y7700000D01*
X7100000Y14000000D02*
X10500000Y10600000D01*
X1250000Y21810000D02*
X1250000Y27550000D01*
X1250000Y27550000D02*
X1400000Y27700000D01*
X27060000Y28100000D02*
X27060000Y25340000D01*
X20140000Y19700000D02*
X17700000Y19700000D01*
X16900000Y20500000D02*
X16900000Y22200000D01*
X17700000Y19700000D02*
X16900000Y20500000D01*
D21*
G36*
X38605000Y22950818D02*
X38550000Y22961758D01*
X36950000Y22961758D01*
X36815388Y22934982D01*
X36701270Y22858730D01*
X36625018Y22744612D01*
X36598242Y22610000D01*
X36598242Y21010000D01*
X36625018Y20875388D01*
X36701270Y20761270D01*
X36815388Y20685018D01*
X36950000Y20658242D01*
X38550000Y20658242D01*
X38605000Y20669182D01*
X38605000Y20132074D01*
X38565385Y20092459D01*
X38492079Y20299890D01*
X38041469Y20505475D01*
X37546487Y20522971D01*
X37082487Y20349714D01*
X37007921Y20299890D01*
X36934614Y20092457D01*
X37750000Y19277071D01*
X37764143Y19291213D01*
X37771214Y19284142D01*
X37757071Y19270000D01*
X37771214Y19255857D01*
X37764143Y19248786D01*
X37750000Y19262929D01*
X36934614Y18447543D01*
X37007921Y18240110D01*
X37458531Y18034525D01*
X37953513Y18017029D01*
X38417513Y18190286D01*
X38492079Y18240110D01*
X38565385Y18447541D01*
X38605000Y18407926D01*
X38605000Y17494196D01*
X38399437Y17700118D01*
X37978754Y17874801D01*
X37523245Y17875198D01*
X37102257Y17701250D01*
X36779882Y17379437D01*
X36605199Y16958754D01*
X36604802Y16503245D01*
X36778750Y16082257D01*
X37100563Y15759882D01*
X37521246Y15585199D01*
X37976755Y15584802D01*
X38397743Y15758750D01*
X38605000Y15965646D01*
X38605000Y15052074D01*
X38565385Y15012459D01*
X38492079Y15219890D01*
X38041469Y15425475D01*
X37546487Y15442971D01*
X37082487Y15269714D01*
X37007921Y15219890D01*
X36934614Y15012457D01*
X37750000Y14197071D01*
X37764143Y14211213D01*
X37771214Y14204142D01*
X37757071Y14190000D01*
X37771214Y14175857D01*
X37764143Y14168786D01*
X37750000Y14182929D01*
X36934614Y13367543D01*
X37007921Y13160110D01*
X37458531Y12954525D01*
X37953513Y12937029D01*
X38417513Y13110286D01*
X38492079Y13160110D01*
X38565385Y13367541D01*
X38605000Y13327926D01*
X38605000Y395000D01*
X395000Y395000D01*
X395000Y1121736D01*
X16388807Y1121736D01*
X16437783Y935085D01*
X16816135Y762811D01*
X17231613Y748439D01*
X17620965Y894158D01*
X17682217Y935085D01*
X17731193Y1121736D01*
X17060000Y1792929D01*
X16388807Y1121736D01*
X395000Y1121736D01*
X395000Y1628387D01*
X16008439Y1628387D01*
X16154158Y1239035D01*
X16195085Y1177783D01*
X16381736Y1128807D01*
X17052929Y1800000D01*
X17067071Y1800000D01*
X17738264Y1128807D01*
X17924915Y1177783D01*
X18097189Y1556135D01*
X18099150Y1612852D01*
X21194836Y1612852D01*
X21338401Y1265400D01*
X21604001Y999335D01*
X21951203Y855164D01*
X22327148Y854836D01*
X22674600Y998401D01*
X22940665Y1264001D01*
X23084836Y1611203D01*
X23085096Y1908640D01*
X23279100Y1439114D01*
X23657124Y1060429D01*
X24151289Y855234D01*
X24686363Y854767D01*
X25180886Y1059100D01*
X25559571Y1437124D01*
X25764766Y1931289D01*
X25764768Y1933637D01*
X33234767Y1933637D01*
X33439100Y1439114D01*
X33817124Y1060429D01*
X34311289Y855234D01*
X34846363Y854767D01*
X35340886Y1059100D01*
X35719571Y1437124D01*
X35924766Y1931289D01*
X35925233Y2466363D01*
X35720900Y2960886D01*
X35342876Y3339571D01*
X34848711Y3544766D01*
X34313637Y3545233D01*
X33819114Y3340900D01*
X33440429Y2962876D01*
X33235234Y2468711D01*
X33234767Y1933637D01*
X25764768Y1933637D01*
X25765233Y2466363D01*
X25560900Y2960886D01*
X25182876Y3339571D01*
X24688711Y3544766D01*
X24153637Y3545233D01*
X23659114Y3340900D01*
X23280429Y2962876D01*
X23075234Y2468711D01*
X23074836Y2012145D01*
X22941599Y2334600D01*
X22675999Y2600665D01*
X22328797Y2744836D01*
X21952852Y2745164D01*
X21605400Y2601599D01*
X21339335Y2335999D01*
X21195164Y1988797D01*
X21194836Y1612852D01*
X18099150Y1612852D01*
X18111561Y1971613D01*
X17965842Y2360965D01*
X17924915Y2422217D01*
X17738264Y2471193D01*
X17067071Y1800000D01*
X17052929Y1800000D01*
X16381736Y2471193D01*
X16195085Y2422217D01*
X16022811Y2043865D01*
X16008439Y1628387D01*
X395000Y1628387D01*
X395000Y2478264D01*
X16388807Y2478264D01*
X17060000Y1807071D01*
X17731193Y2478264D01*
X17682217Y2664915D01*
X17473060Y2760150D01*
X17811613Y2748439D01*
X18200965Y2894158D01*
X18262217Y2935085D01*
X18311193Y3121736D01*
X17640000Y3792929D01*
X16968807Y3121736D01*
X17017783Y2935085D01*
X17226940Y2839850D01*
X16888387Y2851561D01*
X16499035Y2705842D01*
X16437783Y2664915D01*
X16388807Y2478264D01*
X395000Y2478264D01*
X395000Y3612852D01*
X11614836Y3612852D01*
X11758401Y3265400D01*
X12024001Y2999335D01*
X12371203Y2855164D01*
X12747148Y2854836D01*
X13094600Y2998401D01*
X13360665Y3264001D01*
X13504836Y3611203D01*
X13504850Y3628387D01*
X16588439Y3628387D01*
X16734158Y3239035D01*
X16775085Y3177783D01*
X16961736Y3128807D01*
X17632929Y3800000D01*
X17647071Y3800000D01*
X18318264Y3128807D01*
X18504915Y3177783D01*
X18677189Y3556135D01*
X18690237Y3933350D01*
X25240421Y3933350D01*
X25338060Y3705136D01*
X25860926Y3466240D01*
X26435413Y3445620D01*
X26974061Y3646416D01*
X27061940Y3705136D01*
X27159579Y3933350D01*
X28240421Y3933350D01*
X28338060Y3705136D01*
X28860926Y3466240D01*
X29435413Y3445620D01*
X29974061Y3646416D01*
X30061940Y3705136D01*
X30159579Y3933350D01*
X31240421Y3933350D01*
X31338060Y3705136D01*
X31860926Y3466240D01*
X32435413Y3445620D01*
X32974061Y3646416D01*
X33061940Y3705136D01*
X33159579Y3933350D01*
X32200000Y4892929D01*
X31240421Y3933350D01*
X30159579Y3933350D01*
X29200000Y4892929D01*
X28240421Y3933350D01*
X27159579Y3933350D01*
X26200000Y4892929D01*
X25240421Y3933350D01*
X18690237Y3933350D01*
X18691561Y3971613D01*
X18545842Y4360965D01*
X18504915Y4422217D01*
X18318264Y4471193D01*
X17647071Y3800000D01*
X17632929Y3800000D01*
X16961736Y4471193D01*
X16775085Y4422217D01*
X16602811Y4043865D01*
X16588439Y3628387D01*
X13504850Y3628387D01*
X13505164Y3987148D01*
X13361599Y4334600D01*
X13218187Y4478264D01*
X16968807Y4478264D01*
X17640000Y3807071D01*
X18311193Y4478264D01*
X18262304Y4664587D01*
X24745620Y4664587D01*
X24946416Y4125939D01*
X25005136Y4038060D01*
X25233350Y3940421D01*
X26192929Y4900000D01*
X26207071Y4900000D01*
X27166650Y3940421D01*
X27394864Y4038060D01*
X27633760Y4560926D01*
X27637480Y4664587D01*
X27745620Y4664587D01*
X27946416Y4125939D01*
X28005136Y4038060D01*
X28233350Y3940421D01*
X29192929Y4900000D01*
X29207071Y4900000D01*
X30166650Y3940421D01*
X30394864Y4038060D01*
X30633760Y4560926D01*
X30637480Y4664587D01*
X30745620Y4664587D01*
X30946416Y4125939D01*
X31005136Y4038060D01*
X31233350Y3940421D01*
X32192929Y4900000D01*
X32207071Y4900000D01*
X33166650Y3940421D01*
X33394864Y4038060D01*
X33633760Y4560926D01*
X33654380Y5135413D01*
X33453584Y5674061D01*
X33394864Y5761940D01*
X33166650Y5859579D01*
X32207071Y4900000D01*
X32192929Y4900000D01*
X31233350Y5859579D01*
X31005136Y5761940D01*
X30766240Y5239074D01*
X30745620Y4664587D01*
X30637480Y4664587D01*
X30654380Y5135413D01*
X30453584Y5674061D01*
X30394864Y5761940D01*
X30166650Y5859579D01*
X29207071Y4900000D01*
X29192929Y4900000D01*
X28233350Y5859579D01*
X28005136Y5761940D01*
X27766240Y5239074D01*
X27745620Y4664587D01*
X27637480Y4664587D01*
X27654380Y5135413D01*
X27453584Y5674061D01*
X27394864Y5761940D01*
X27166650Y5859579D01*
X26207071Y4900000D01*
X26192929Y4900000D01*
X25233350Y5859579D01*
X25005136Y5761940D01*
X24766240Y5239074D01*
X24745620Y4664587D01*
X18262304Y4664587D01*
X18262217Y4664915D01*
X17883865Y4837189D01*
X17468387Y4851561D01*
X17079035Y4705842D01*
X17017783Y4664915D01*
X16968807Y4478264D01*
X13218187Y4478264D01*
X13095999Y4600665D01*
X12748797Y4744836D01*
X12372852Y4745164D01*
X12025400Y4601599D01*
X11759335Y4335999D01*
X11615164Y3988797D01*
X11614836Y3612852D01*
X395000Y3612852D01*
X395000Y6033637D01*
X8754767Y6033637D01*
X8959100Y5539114D01*
X9337124Y5160429D01*
X9831289Y4955234D01*
X10366363Y4954767D01*
X10860886Y5159100D01*
X11035440Y5333350D01*
X19140421Y5333350D01*
X19238060Y5105136D01*
X19760926Y4866240D01*
X20335413Y4845620D01*
X20874061Y5046416D01*
X20961940Y5105136D01*
X21059579Y5333350D01*
X20100000Y6292929D01*
X19140421Y5333350D01*
X11035440Y5333350D01*
X11239571Y5537124D01*
X11444766Y6031289D01*
X11444795Y6064587D01*
X18645620Y6064587D01*
X18846416Y5525939D01*
X18905136Y5438060D01*
X19133350Y5340421D01*
X20092929Y6300000D01*
X20107071Y6300000D01*
X21066650Y5340421D01*
X21294864Y5438060D01*
X21490685Y5866650D01*
X25240421Y5866650D01*
X26200000Y4907071D01*
X27159579Y5866650D01*
X28240421Y5866650D01*
X29200000Y4907071D01*
X30159579Y5866650D01*
X31240421Y5866650D01*
X32200000Y4907071D01*
X33159579Y5866650D01*
X33061940Y6094864D01*
X32539074Y6333760D01*
X31964587Y6354380D01*
X31425939Y6153584D01*
X31338060Y6094864D01*
X31240421Y5866650D01*
X30159579Y5866650D01*
X30061940Y6094864D01*
X29539074Y6333760D01*
X28964587Y6354380D01*
X28425939Y6153584D01*
X28338060Y6094864D01*
X28240421Y5866650D01*
X27159579Y5866650D01*
X27061940Y6094864D01*
X26539074Y6333760D01*
X25964587Y6354380D01*
X25425939Y6153584D01*
X25338060Y6094864D01*
X25240421Y5866650D01*
X21490685Y5866650D01*
X21533760Y5960926D01*
X21554380Y6535413D01*
X21353584Y7074061D01*
X21294864Y7161940D01*
X21066650Y7259579D01*
X20107071Y6300000D01*
X20092929Y6300000D01*
X19133350Y7259579D01*
X18905136Y7161940D01*
X18666240Y6639074D01*
X18645620Y6064587D01*
X11444795Y6064587D01*
X11445233Y6566363D01*
X11240900Y7060886D01*
X11035496Y7266650D01*
X19140421Y7266650D01*
X20100000Y6307071D01*
X21059579Y7266650D01*
X20961940Y7494864D01*
X20439074Y7733760D01*
X19864587Y7754380D01*
X19325939Y7553584D01*
X19238060Y7494864D01*
X19140421Y7266650D01*
X11035496Y7266650D01*
X10862876Y7439571D01*
X10368711Y7644766D01*
X9833637Y7645233D01*
X9339114Y7440900D01*
X8960429Y7062876D01*
X8755234Y6568711D01*
X8754767Y6033637D01*
X395000Y6033637D01*
X395000Y10833637D01*
X1254767Y10833637D01*
X1459100Y10339114D01*
X1837124Y9960429D01*
X2331289Y9755234D01*
X2866363Y9754767D01*
X3360886Y9959100D01*
X3739571Y10337124D01*
X3944766Y10831289D01*
X3945233Y11366363D01*
X3740900Y11860886D01*
X3362876Y12239571D01*
X2868711Y12444766D01*
X2333637Y12445233D01*
X1839114Y12240900D01*
X1460429Y11862876D01*
X1255234Y11368711D01*
X1254767Y10833637D01*
X395000Y10833637D01*
X395000Y13327926D01*
X434615Y13367541D01*
X507921Y13160110D01*
X958531Y12954525D01*
X1453513Y12937029D01*
X1917513Y13110286D01*
X1992079Y13160110D01*
X2065386Y13367543D01*
X1250000Y14182929D01*
X1235858Y14168786D01*
X1228787Y14175857D01*
X1242929Y14190000D01*
X1257071Y14190000D01*
X2072457Y13374614D01*
X2279890Y13447921D01*
X2485475Y13898531D01*
X2491650Y14073245D01*
X3854802Y14073245D01*
X4028750Y13652257D01*
X4350563Y13329882D01*
X4771246Y13155199D01*
X5226755Y13154802D01*
X5647743Y13328750D01*
X5652638Y13333637D01*
X11254767Y13333637D01*
X11459100Y12839114D01*
X11837124Y12460429D01*
X12103111Y12349982D01*
X11839114Y12240900D01*
X11460429Y11862876D01*
X11255234Y11368711D01*
X11254767Y10833637D01*
X11459100Y10339114D01*
X11837124Y9960429D01*
X12122908Y9841761D01*
X11952257Y9771250D01*
X11629882Y9449437D01*
X11455199Y9028754D01*
X11454802Y8573245D01*
X11628750Y8152257D01*
X11950563Y7829882D01*
X12371246Y7655199D01*
X12826755Y7654802D01*
X13247743Y7828750D01*
X13570118Y8150563D01*
X13744801Y8571246D01*
X13745198Y9026755D01*
X13636304Y9290302D01*
X14061120Y9290302D01*
X14137857Y9018178D01*
X14406117Y8613187D01*
X14808940Y8341683D01*
X15285000Y8245000D01*
X15585000Y8245000D01*
X15585000Y9485000D01*
X15595000Y9485000D01*
X15595000Y8245000D01*
X15895000Y8245000D01*
X16371060Y8341683D01*
X16773883Y8613187D01*
X17042143Y9018178D01*
X17118880Y9290302D01*
X17023739Y9485000D01*
X15595000Y9485000D01*
X15585000Y9485000D01*
X14156261Y9485000D01*
X14061120Y9290302D01*
X13636304Y9290302D01*
X13571250Y9447743D01*
X13529067Y9490000D01*
X21736691Y9490000D01*
X21823849Y9051827D01*
X22072054Y8680363D01*
X22443518Y8432158D01*
X22881691Y8345000D01*
X23538309Y8345000D01*
X23976482Y8432158D01*
X24347946Y8680363D01*
X24596151Y9051827D01*
X24683309Y9490000D01*
X24596151Y9928173D01*
X24347946Y10299637D01*
X23976482Y10547842D01*
X23538309Y10635000D01*
X22881691Y10635000D01*
X22443518Y10547842D01*
X22072054Y10299637D01*
X21823849Y9928173D01*
X21736691Y9490000D01*
X13529067Y9490000D01*
X13329717Y9689698D01*
X14061120Y9689698D01*
X14156261Y9495000D01*
X15585000Y9495000D01*
X15585000Y10735000D01*
X15595000Y10735000D01*
X15595000Y9495000D01*
X17023739Y9495000D01*
X17118880Y9689698D01*
X17042143Y9961822D01*
X16773883Y10366813D01*
X16371060Y10638317D01*
X16201013Y10672852D01*
X34254836Y10672852D01*
X34398401Y10325400D01*
X34664001Y10059335D01*
X35011203Y9915164D01*
X35387148Y9914836D01*
X35734600Y10058401D01*
X36000665Y10324001D01*
X36144836Y10671203D01*
X36145164Y11047148D01*
X36001599Y11394600D01*
X35735999Y11660665D01*
X35388797Y11804836D01*
X35012852Y11805164D01*
X34665400Y11661599D01*
X34399335Y11395999D01*
X34255164Y11048797D01*
X34254836Y10672852D01*
X16201013Y10672852D01*
X15895000Y10735000D01*
X15595000Y10735000D01*
X15585000Y10735000D01*
X15285000Y10735000D01*
X14808940Y10638317D01*
X14406117Y10366813D01*
X14137857Y9961822D01*
X14061120Y9689698D01*
X13329717Y9689698D01*
X13249437Y9770118D01*
X13076903Y9841760D01*
X13360886Y9959100D01*
X13739571Y10337124D01*
X13944766Y10831289D01*
X13945233Y11366363D01*
X13740900Y11860886D01*
X13572082Y12030000D01*
X14116691Y12030000D01*
X14203849Y11591827D01*
X14452054Y11220363D01*
X14823518Y10972158D01*
X15261691Y10885000D01*
X15918309Y10885000D01*
X16356482Y10972158D01*
X16727946Y11220363D01*
X16976151Y11591827D01*
X17063309Y12030000D01*
X21736691Y12030000D01*
X21823849Y11591827D01*
X22072054Y11220363D01*
X22443518Y10972158D01*
X22881691Y10885000D01*
X23538309Y10885000D01*
X23976482Y10972158D01*
X24347946Y11220363D01*
X24596151Y11591827D01*
X24683309Y12030000D01*
X24596151Y12468173D01*
X24347946Y12839637D01*
X23976482Y13087842D01*
X23538309Y13175000D01*
X22881691Y13175000D01*
X22443518Y13087842D01*
X22072054Y12839637D01*
X21823849Y12468173D01*
X21736691Y12030000D01*
X17063309Y12030000D01*
X16976151Y12468173D01*
X16727946Y12839637D01*
X16356482Y13087842D01*
X15918309Y13175000D01*
X15261691Y13175000D01*
X14823518Y13087842D01*
X14452054Y12839637D01*
X14203849Y12468173D01*
X14116691Y12030000D01*
X13572082Y12030000D01*
X13362876Y12239571D01*
X13096889Y12350018D01*
X13360886Y12459100D01*
X13739571Y12837124D01*
X13944766Y13331289D01*
X13945233Y13866363D01*
X13740900Y14360886D01*
X13532152Y14570000D01*
X14116691Y14570000D01*
X14203849Y14131827D01*
X14452054Y13760363D01*
X14823518Y13512158D01*
X15261691Y13425000D01*
X15918309Y13425000D01*
X16356482Y13512158D01*
X16727946Y13760363D01*
X16976151Y14131827D01*
X17063309Y14570000D01*
X21736691Y14570000D01*
X21823849Y14131827D01*
X22072054Y13760363D01*
X22443518Y13512158D01*
X22881691Y13425000D01*
X23538309Y13425000D01*
X23976482Y13512158D01*
X24347946Y13760363D01*
X24596151Y14131827D01*
X24683309Y14570000D01*
X24670651Y14633637D01*
X24854767Y14633637D01*
X25059100Y14139114D01*
X25437124Y13760429D01*
X25931289Y13555234D01*
X26466363Y13554767D01*
X26960886Y13759100D01*
X27339571Y14137124D01*
X27544766Y14631289D01*
X27544768Y14633637D01*
X27854767Y14633637D01*
X28059100Y14139114D01*
X28437124Y13760429D01*
X28931289Y13555234D01*
X29466363Y13554767D01*
X29960886Y13759100D01*
X30339571Y14137124D01*
X30544766Y14631289D01*
X30544768Y14633637D01*
X30854767Y14633637D01*
X31059100Y14139114D01*
X31437124Y13760429D01*
X31931289Y13555234D01*
X32466363Y13554767D01*
X32960886Y13759100D01*
X33188670Y13986487D01*
X36497029Y13986487D01*
X36670286Y13522487D01*
X36720110Y13447921D01*
X36927543Y13374614D01*
X37742929Y14190000D01*
X36927543Y15005386D01*
X36720110Y14932079D01*
X36514525Y14481469D01*
X36497029Y13986487D01*
X33188670Y13986487D01*
X33339571Y14137124D01*
X33544766Y14631289D01*
X33545233Y15166363D01*
X33505826Y15261736D01*
X34528807Y15261736D01*
X34577783Y15075085D01*
X34956135Y14902811D01*
X35371613Y14888439D01*
X35760965Y15034158D01*
X35822217Y15075085D01*
X35871193Y15261736D01*
X35200000Y15932929D01*
X34528807Y15261736D01*
X33505826Y15261736D01*
X33340900Y15660886D01*
X33233587Y15768387D01*
X34148439Y15768387D01*
X34294158Y15379035D01*
X34335085Y15317783D01*
X34521736Y15268807D01*
X35192929Y15940000D01*
X35207071Y15940000D01*
X35878264Y15268807D01*
X36064915Y15317783D01*
X36237189Y15696135D01*
X36251561Y16111613D01*
X36105842Y16500965D01*
X36064915Y16562217D01*
X35878264Y16611193D01*
X35207071Y15940000D01*
X35192929Y15940000D01*
X34521736Y16611193D01*
X34335085Y16562217D01*
X34162811Y16183865D01*
X34148439Y15768387D01*
X33233587Y15768387D01*
X32962876Y16039571D01*
X32468711Y16244766D01*
X31933637Y16245233D01*
X31439114Y16040900D01*
X31060429Y15662876D01*
X30855234Y15168711D01*
X30854767Y14633637D01*
X30544768Y14633637D01*
X30545233Y15166363D01*
X30340900Y15660886D01*
X29962876Y16039571D01*
X29468711Y16244766D01*
X28933637Y16245233D01*
X28439114Y16040900D01*
X28060429Y15662876D01*
X27855234Y15168711D01*
X27854767Y14633637D01*
X27544768Y14633637D01*
X27545233Y15166363D01*
X27340900Y15660886D01*
X26962876Y16039571D01*
X26468711Y16244766D01*
X25933637Y16245233D01*
X25439114Y16040900D01*
X25060429Y15662876D01*
X24855234Y15168711D01*
X24854767Y14633637D01*
X24670651Y14633637D01*
X24596151Y15008173D01*
X24347946Y15379637D01*
X23976482Y15627842D01*
X23538309Y15715000D01*
X22881691Y15715000D01*
X22443518Y15627842D01*
X22072054Y15379637D01*
X21823849Y15008173D01*
X21736691Y14570000D01*
X17063309Y14570000D01*
X16976151Y15008173D01*
X16727946Y15379637D01*
X16356482Y15627842D01*
X15918309Y15715000D01*
X15261691Y15715000D01*
X14823518Y15627842D01*
X14452054Y15379637D01*
X14203849Y15008173D01*
X14116691Y14570000D01*
X13532152Y14570000D01*
X13362876Y14739571D01*
X12868711Y14944766D01*
X12333637Y14945233D01*
X11839114Y14740900D01*
X11460429Y14362876D01*
X11255234Y13868711D01*
X11254767Y13333637D01*
X5652638Y13333637D01*
X5970118Y13650563D01*
X6144801Y14071246D01*
X6145198Y14526755D01*
X5971250Y14947743D01*
X5649437Y15270118D01*
X5228754Y15444801D01*
X4773245Y15445198D01*
X4352257Y15271250D01*
X4029882Y14949437D01*
X3855199Y14528754D01*
X3854802Y14073245D01*
X2491650Y14073245D01*
X2502971Y14393513D01*
X2329714Y14857513D01*
X2279890Y14932079D01*
X2072457Y15005386D01*
X1257071Y14190000D01*
X1242929Y14190000D01*
X1228787Y14204142D01*
X1235858Y14211213D01*
X1250000Y14197071D01*
X2065386Y15012457D01*
X1992079Y15219890D01*
X1541469Y15425475D01*
X1046487Y15442971D01*
X582487Y15269714D01*
X507921Y15219890D01*
X434615Y15012459D01*
X395000Y15052074D01*
X395000Y15867926D01*
X434615Y15907541D01*
X507921Y15700110D01*
X958531Y15494525D01*
X1453513Y15477029D01*
X1917513Y15650286D01*
X1992079Y15700110D01*
X2065386Y15907543D01*
X1250000Y16722929D01*
X1235858Y16708786D01*
X1228787Y16715857D01*
X1242929Y16730000D01*
X1257071Y16730000D01*
X2072457Y15914614D01*
X2279890Y15987921D01*
X2485475Y16438531D01*
X2487086Y16484127D01*
X5904724Y16484127D01*
X6147036Y15897685D01*
X6595325Y15448613D01*
X7181343Y15205277D01*
X7815873Y15204724D01*
X8402315Y15447036D01*
X8851387Y15895325D01*
X8993500Y16237570D01*
X9028750Y16152257D01*
X9350563Y15829882D01*
X9771246Y15655199D01*
X10226755Y15654802D01*
X10647743Y15828750D01*
X10970118Y16150563D01*
X11144801Y16571246D01*
X11145198Y17026755D01*
X11110803Y17110000D01*
X14116691Y17110000D01*
X14203849Y16671827D01*
X14452054Y16300363D01*
X14823518Y16052158D01*
X15261691Y15965000D01*
X15918309Y15965000D01*
X16356482Y16052158D01*
X16727946Y16300363D01*
X16976151Y16671827D01*
X17063309Y17110000D01*
X16976151Y17548173D01*
X16734386Y17910000D01*
X21758242Y17910000D01*
X21758242Y16310000D01*
X21785018Y16175388D01*
X21861270Y16061270D01*
X21975388Y15985018D01*
X22110000Y15958242D01*
X24310000Y15958242D01*
X24444612Y15985018D01*
X24558730Y16061270D01*
X24634982Y16175388D01*
X24661758Y16310000D01*
X24661758Y16912852D01*
X27214836Y16912852D01*
X27358401Y16565400D01*
X27624001Y16299335D01*
X27971203Y16155164D01*
X28347148Y16154836D01*
X28694600Y16298401D01*
X28960665Y16564001D01*
X29104836Y16911203D01*
X29104837Y16912852D01*
X32294836Y16912852D01*
X32438401Y16565400D01*
X32704001Y16299335D01*
X33051203Y16155164D01*
X33427148Y16154836D01*
X33774600Y16298401D01*
X34040665Y16564001D01*
X34184836Y16911203D01*
X34184897Y16981736D01*
X34528807Y16981736D01*
X34576493Y16800000D01*
X34528807Y16618264D01*
X35200000Y15947071D01*
X35871193Y16618264D01*
X35823507Y16800000D01*
X35871193Y16981736D01*
X35200000Y17652929D01*
X34528807Y16981736D01*
X34184897Y16981736D01*
X34185164Y17287148D01*
X34102014Y17488387D01*
X34148439Y17488387D01*
X34294158Y17099035D01*
X34335085Y17037783D01*
X34521736Y16988807D01*
X35192929Y17660000D01*
X35207071Y17660000D01*
X35878264Y16988807D01*
X36064915Y17037783D01*
X36237189Y17416135D01*
X36251561Y17831613D01*
X36105842Y18220965D01*
X36064915Y18282217D01*
X35878264Y18331193D01*
X35207071Y17660000D01*
X35192929Y17660000D01*
X34521736Y18331193D01*
X34335085Y18282217D01*
X34162811Y17903865D01*
X34148439Y17488387D01*
X34102014Y17488387D01*
X34041599Y17634600D01*
X33775999Y17900665D01*
X33428797Y18044836D01*
X33052852Y18045164D01*
X32705400Y17901599D01*
X32439335Y17635999D01*
X32295164Y17288797D01*
X32294836Y16912852D01*
X29104837Y16912852D01*
X29105164Y17287148D01*
X28961599Y17634600D01*
X28695999Y17900665D01*
X28348797Y18044836D01*
X27972852Y18045164D01*
X27625400Y17901599D01*
X27359335Y17635999D01*
X27215164Y17288797D01*
X27214836Y16912852D01*
X24661758Y16912852D01*
X24661758Y17910000D01*
X24634982Y18044612D01*
X24558730Y18158730D01*
X24444612Y18234982D01*
X24310000Y18261758D01*
X22110000Y18261758D01*
X21975388Y18234982D01*
X21861270Y18158730D01*
X21785018Y18044612D01*
X21758242Y17910000D01*
X16734386Y17910000D01*
X16727946Y17919637D01*
X16356482Y18167842D01*
X15918309Y18255000D01*
X15261691Y18255000D01*
X14823518Y18167842D01*
X14452054Y17919637D01*
X14203849Y17548173D01*
X14116691Y17110000D01*
X11110803Y17110000D01*
X10971250Y17447743D01*
X10649437Y17770118D01*
X10228754Y17944801D01*
X9773245Y17945198D01*
X9352257Y17771250D01*
X9029882Y17449437D01*
X8993577Y17362005D01*
X8852964Y17702315D01*
X8404675Y18151387D01*
X7954626Y18338264D01*
X34528807Y18338264D01*
X35200000Y17667071D01*
X35871193Y18338264D01*
X35822217Y18524915D01*
X35443865Y18697189D01*
X35028387Y18711561D01*
X34639035Y18565842D01*
X34577783Y18524915D01*
X34528807Y18338264D01*
X7954626Y18338264D01*
X7818657Y18394723D01*
X7184127Y18395276D01*
X6597685Y18152964D01*
X6148613Y17704675D01*
X5905277Y17118657D01*
X5904724Y16484127D01*
X2487086Y16484127D01*
X2502971Y16933513D01*
X2329714Y17397513D01*
X2279890Y17472079D01*
X2072457Y17545386D01*
X1257071Y16730000D01*
X1242929Y16730000D01*
X1228787Y16744142D01*
X1235858Y16751213D01*
X1250000Y16737071D01*
X2065386Y17552457D01*
X1992079Y17759890D01*
X1541469Y17965475D01*
X1046487Y17982971D01*
X582487Y17809714D01*
X507921Y17759890D01*
X434615Y17552459D01*
X395000Y17592074D01*
X395000Y18505804D01*
X600563Y18299882D01*
X1021246Y18125199D01*
X1476755Y18124802D01*
X1897743Y18298750D01*
X2220118Y18620563D01*
X2394801Y19041246D01*
X2394828Y19073245D01*
X3854802Y19073245D01*
X4028750Y18652257D01*
X4350563Y18329882D01*
X4771246Y18155199D01*
X5226755Y18154802D01*
X5647743Y18328750D01*
X5970118Y18650563D01*
X6144801Y19071246D01*
X6145185Y19512852D01*
X14114836Y19512852D01*
X14258401Y19165400D01*
X14524001Y18899335D01*
X14871203Y18755164D01*
X15247148Y18754836D01*
X15594600Y18898401D01*
X15860665Y19164001D01*
X16004836Y19511203D01*
X16005164Y19887148D01*
X15861599Y20234600D01*
X15595999Y20500665D01*
X15248797Y20644836D01*
X14872852Y20645164D01*
X14525400Y20501599D01*
X14259335Y20235999D01*
X14115164Y19888797D01*
X14114836Y19512852D01*
X6145185Y19512852D01*
X6145198Y19526755D01*
X5971250Y19947743D01*
X5649437Y20270118D01*
X5228754Y20444801D01*
X4773245Y20445198D01*
X4352257Y20271250D01*
X4029882Y19949437D01*
X3855199Y19528754D01*
X3854802Y19073245D01*
X2394828Y19073245D01*
X2395198Y19496755D01*
X2221250Y19917743D01*
X1899437Y20240118D01*
X1478754Y20414801D01*
X1023245Y20415198D01*
X602257Y20241250D01*
X395000Y20034354D01*
X395000Y20565000D01*
X1133750Y20565000D01*
X1245000Y20676250D01*
X1245000Y21805000D01*
X1255000Y21805000D01*
X1255000Y20676250D01*
X1366250Y20565000D01*
X2138516Y20565000D01*
X2302072Y20632747D01*
X2427253Y20757928D01*
X2495000Y20921484D01*
X2495000Y21693750D01*
X2383750Y21805000D01*
X1255000Y21805000D01*
X1245000Y21805000D01*
X1225000Y21805000D01*
X1225000Y21815000D01*
X1245000Y21815000D01*
X1245000Y22943750D01*
X1255000Y22943750D01*
X1255000Y21815000D01*
X2383750Y21815000D01*
X2495000Y21926250D01*
X2495000Y22698516D01*
X2427253Y22862072D01*
X2302072Y22987253D01*
X2138516Y23055000D01*
X1366250Y23055000D01*
X1255000Y22943750D01*
X1245000Y22943750D01*
X1133750Y23055000D01*
X395000Y23055000D01*
X395000Y23333637D01*
X11254767Y23333637D01*
X11459100Y22839114D01*
X11837124Y22460429D01*
X12331289Y22255234D01*
X12866363Y22254767D01*
X13360886Y22459100D01*
X13560819Y22658684D01*
X13728750Y22252257D01*
X14050563Y21929882D01*
X14471246Y21755199D01*
X14926755Y21754802D01*
X15347743Y21928750D01*
X15554943Y22135589D01*
X15554767Y21933637D01*
X15759100Y21439114D01*
X16137124Y21060429D01*
X16405000Y20949197D01*
X16405000Y20500000D01*
X16442680Y20310572D01*
X16549982Y20149982D01*
X17349982Y19349982D01*
X17510572Y19242680D01*
X17700000Y19205000D01*
X19322039Y19205000D01*
X19338401Y19165400D01*
X19604001Y18899335D01*
X19951203Y18755164D01*
X20327148Y18754836D01*
X20674600Y18898401D01*
X20940665Y19164001D01*
X20999968Y19306818D01*
X21058401Y19165400D01*
X21324001Y18899335D01*
X21671203Y18755164D01*
X22047148Y18754836D01*
X22394600Y18898401D01*
X22660665Y19164001D01*
X22804836Y19511203D01*
X22804837Y19512852D01*
X25994836Y19512852D01*
X26138401Y19165400D01*
X26404001Y18899335D01*
X26751203Y18755164D01*
X27127148Y18754836D01*
X27474600Y18898401D01*
X27740665Y19164001D01*
X27884836Y19511203D01*
X27885164Y19887148D01*
X27741599Y20234600D01*
X27475999Y20500665D01*
X27128797Y20644836D01*
X26752852Y20645164D01*
X26405400Y20501599D01*
X26139335Y20235999D01*
X25995164Y19888797D01*
X25994836Y19512852D01*
X22804837Y19512852D01*
X22805164Y19887148D01*
X22661599Y20234600D01*
X22395999Y20500665D01*
X22048797Y20644836D01*
X21672852Y20645164D01*
X21325400Y20501599D01*
X21059335Y20235999D01*
X21000032Y20093182D01*
X20941599Y20234600D01*
X20675999Y20500665D01*
X20328797Y20644836D01*
X19952852Y20645164D01*
X19605400Y20501599D01*
X19339335Y20235999D01*
X19322311Y20195000D01*
X17905036Y20195000D01*
X17395000Y20705036D01*
X17395000Y20949238D01*
X17660886Y21059100D01*
X18039571Y21437124D01*
X18244766Y21931289D01*
X18244768Y21933637D01*
X25554767Y21933637D01*
X25759100Y21439114D01*
X26137124Y21060429D01*
X26631289Y20855234D01*
X27166363Y20854767D01*
X27660886Y21059100D01*
X28039571Y21437124D01*
X28141606Y21682852D01*
X28619836Y21682852D01*
X28763401Y21335400D01*
X29029001Y21069335D01*
X29376203Y20925164D01*
X29752148Y20924836D01*
X29986936Y21021849D01*
X29890164Y20788797D01*
X29889836Y20412852D01*
X29986849Y20178064D01*
X29753797Y20274836D01*
X29377852Y20275164D01*
X29030400Y20131599D01*
X28764335Y19865999D01*
X28620164Y19518797D01*
X28619836Y19142852D01*
X28763401Y18795400D01*
X29029001Y18529335D01*
X29376203Y18385164D01*
X29752148Y18384836D01*
X30099600Y18528401D01*
X30365665Y18794001D01*
X30478811Y19066487D01*
X36497029Y19066487D01*
X36670286Y18602487D01*
X36720110Y18527921D01*
X36927543Y18454614D01*
X37742929Y19270000D01*
X36927543Y20085386D01*
X36720110Y20012079D01*
X36514525Y19561469D01*
X36497029Y19066487D01*
X30478811Y19066487D01*
X30509836Y19141203D01*
X30510164Y19517148D01*
X30413151Y19751936D01*
X30646203Y19655164D01*
X31022148Y19654836D01*
X31369600Y19798401D01*
X31635665Y20064001D01*
X31779836Y20411203D01*
X31780164Y20787148D01*
X31636599Y21134600D01*
X31370999Y21400665D01*
X31023797Y21544836D01*
X30647852Y21545164D01*
X30413064Y21448151D01*
X30509836Y21681203D01*
X30510164Y22057148D01*
X30366599Y22404600D01*
X30218607Y22552852D01*
X34254836Y22552852D01*
X34398401Y22205400D01*
X34664001Y21939335D01*
X35011203Y21795164D01*
X35387148Y21794836D01*
X35734600Y21938401D01*
X36000665Y22204001D01*
X36144836Y22551203D01*
X36145164Y22927148D01*
X36001599Y23274600D01*
X35735999Y23540665D01*
X35388797Y23684836D01*
X35012852Y23685164D01*
X34665400Y23541599D01*
X34399335Y23275999D01*
X34255164Y22928797D01*
X34254836Y22552852D01*
X30218607Y22552852D01*
X30100999Y22670665D01*
X29753797Y22814836D01*
X29377852Y22815164D01*
X29030400Y22671599D01*
X28764335Y22405999D01*
X28620164Y22058797D01*
X28619836Y21682852D01*
X28141606Y21682852D01*
X28244766Y21931289D01*
X28245233Y22466363D01*
X28040900Y22960886D01*
X27662876Y23339571D01*
X27168711Y23544766D01*
X26633637Y23545233D01*
X26139114Y23340900D01*
X25760429Y22962876D01*
X25555234Y22468711D01*
X25554767Y21933637D01*
X18244768Y21933637D01*
X18245233Y22466363D01*
X18040900Y22960886D01*
X17662876Y23339571D01*
X17168711Y23544766D01*
X16633637Y23545233D01*
X16139114Y23340900D01*
X15845129Y23047428D01*
X15845198Y23126755D01*
X15671250Y23547743D01*
X15349437Y23870118D01*
X15027273Y24003892D01*
X15160886Y24059100D01*
X15539571Y24437124D01*
X15744766Y24931289D01*
X15744768Y24933637D01*
X23054767Y24933637D01*
X23259100Y24439114D01*
X23637124Y24060429D01*
X24131289Y23855234D01*
X24666363Y23854767D01*
X25160886Y24059100D01*
X25539571Y24437124D01*
X25660043Y24727253D01*
X25779100Y24439114D01*
X26157124Y24060429D01*
X26651289Y23855234D01*
X27186363Y23854767D01*
X27680886Y24059100D01*
X28059571Y24437124D01*
X28264766Y24931289D01*
X28264768Y24933637D01*
X35734767Y24933637D01*
X35939100Y24439114D01*
X36317124Y24060429D01*
X36811289Y23855234D01*
X37346363Y23854767D01*
X37840886Y24059100D01*
X38219571Y24437124D01*
X38424766Y24931289D01*
X38425233Y25466363D01*
X38220900Y25960886D01*
X37842876Y26339571D01*
X37348711Y26544766D01*
X36813637Y26545233D01*
X36319114Y26340900D01*
X35940429Y25962876D01*
X35735234Y25468711D01*
X35734767Y24933637D01*
X28264768Y24933637D01*
X28265233Y25466363D01*
X28060900Y25960886D01*
X27682876Y26339571D01*
X27555000Y26392670D01*
X27555000Y27282039D01*
X27594600Y27298401D01*
X27718150Y27421736D01*
X31468807Y27421736D01*
X31517783Y27235085D01*
X31896135Y27062811D01*
X32311613Y27048439D01*
X32700965Y27194158D01*
X32762217Y27235085D01*
X32811193Y27421736D01*
X32140000Y28092929D01*
X31468807Y27421736D01*
X27718150Y27421736D01*
X27860665Y27564001D01*
X28004836Y27911203D01*
X28004850Y27928387D01*
X31088439Y27928387D01*
X31234158Y27539035D01*
X31275085Y27477783D01*
X31461736Y27428807D01*
X32132929Y28100000D01*
X32147071Y28100000D01*
X32818264Y27428807D01*
X33004915Y27477783D01*
X33177189Y27856135D01*
X33191561Y28271613D01*
X33045842Y28660965D01*
X33004915Y28722217D01*
X32818264Y28771193D01*
X32147071Y28100000D01*
X32132929Y28100000D01*
X31461736Y28771193D01*
X31275085Y28722217D01*
X31102811Y28343865D01*
X31088439Y27928387D01*
X28004850Y27928387D01*
X28005164Y28287148D01*
X27861599Y28634600D01*
X27718187Y28778264D01*
X31468807Y28778264D01*
X32140000Y28107071D01*
X32811193Y28778264D01*
X32762217Y28964915D01*
X32383865Y29137189D01*
X31968387Y29151561D01*
X31579035Y29005842D01*
X31517783Y28964915D01*
X31468807Y28778264D01*
X27718187Y28778264D01*
X27595999Y28900665D01*
X27248797Y29044836D01*
X26872852Y29045164D01*
X26525400Y28901599D01*
X26259335Y28635999D01*
X26115164Y28288797D01*
X26114836Y27912852D01*
X26258401Y27565400D01*
X26524001Y27299335D01*
X26565000Y27282311D01*
X26565000Y26508609D01*
X26159114Y26340900D01*
X25780429Y25962876D01*
X25659957Y25672747D01*
X25540900Y25960886D01*
X25162876Y26339571D01*
X24668711Y26544766D01*
X24133637Y26545233D01*
X23639114Y26340900D01*
X23260429Y25962876D01*
X23055234Y25468711D01*
X23054767Y24933637D01*
X15744768Y24933637D01*
X15745233Y25466363D01*
X15540900Y25960886D01*
X15162876Y26339571D01*
X14668711Y26544766D01*
X14133637Y26545233D01*
X13639114Y26340900D01*
X13260429Y25962876D01*
X13055234Y25468711D01*
X13054767Y24933637D01*
X13087749Y24853813D01*
X12868711Y24944766D01*
X12333637Y24945233D01*
X11839114Y24740900D01*
X11460429Y24362876D01*
X11255234Y23868711D01*
X11254767Y23333637D01*
X395000Y23333637D01*
X395000Y25249639D01*
X6606711Y25249639D01*
X6667852Y25052598D01*
X7082333Y24863667D01*
X7537564Y24847733D01*
X7964240Y25007222D01*
X8032148Y25052598D01*
X8093289Y25249639D01*
X7350000Y25992929D01*
X6606711Y25249639D01*
X395000Y25249639D01*
X395000Y25812436D01*
X6197733Y25812436D01*
X6357222Y25385760D01*
X6402598Y25317852D01*
X6599639Y25256711D01*
X7342929Y26000000D01*
X7357071Y26000000D01*
X8100361Y25256711D01*
X8297402Y25317852D01*
X8486333Y25732333D01*
X8502267Y26187564D01*
X8342778Y26614240D01*
X8297402Y26682148D01*
X8239870Y26700000D01*
X8798242Y26700000D01*
X8798242Y25300000D01*
X8825018Y25165388D01*
X8901270Y25051270D01*
X9015388Y24975018D01*
X9150000Y24948242D01*
X10550000Y24948242D01*
X10684612Y24975018D01*
X10798730Y25051270D01*
X10874982Y25165388D01*
X10901758Y25300000D01*
X10901758Y26700000D01*
X10874982Y26834612D01*
X10798730Y26948730D01*
X10684612Y27024982D01*
X10550000Y27051758D01*
X9150000Y27051758D01*
X9015388Y27024982D01*
X8901270Y26948730D01*
X8825018Y26834612D01*
X8798242Y26700000D01*
X8239870Y26700000D01*
X8100361Y26743289D01*
X7357071Y26000000D01*
X7342929Y26000000D01*
X6599639Y26743289D01*
X6402598Y26682148D01*
X6213667Y26267667D01*
X6197733Y25812436D01*
X395000Y25812436D01*
X395000Y26750361D01*
X6606711Y26750361D01*
X7350000Y26007071D01*
X8093289Y26750361D01*
X8032148Y26947402D01*
X7617667Y27136333D01*
X7162436Y27152267D01*
X6735760Y26992778D01*
X6667852Y26947402D01*
X6606711Y26750361D01*
X395000Y26750361D01*
X395000Y27933637D01*
X13054767Y27933637D01*
X13259100Y27439114D01*
X13637124Y27060429D01*
X14131289Y26855234D01*
X14666363Y26854767D01*
X15160886Y27059100D01*
X15539571Y27437124D01*
X15744766Y27931289D01*
X15744768Y27933637D01*
X23054767Y27933637D01*
X23259100Y27439114D01*
X23637124Y27060429D01*
X24131289Y26855234D01*
X24666363Y26854767D01*
X25160886Y27059100D01*
X25539571Y27437124D01*
X25744766Y27931289D01*
X25745233Y28466363D01*
X25540900Y28960886D01*
X25162876Y29339571D01*
X24668711Y29544766D01*
X24133637Y29545233D01*
X23639114Y29340900D01*
X23260429Y28962876D01*
X23055234Y28468711D01*
X23054767Y27933637D01*
X15744768Y27933637D01*
X15745233Y28466363D01*
X15540900Y28960886D01*
X15162876Y29339571D01*
X14668711Y29544766D01*
X14133637Y29545233D01*
X13639114Y29340900D01*
X13260429Y28962876D01*
X13055234Y28468711D01*
X13054767Y27933637D01*
X395000Y27933637D01*
X395000Y29605000D01*
X38605000Y29605000D01*
X38605000Y22950818D01*
X38605000Y22950818D01*
G37*
X38605000Y22950818D02*
X38550000Y22961758D01*
X36950000Y22961758D01*
X36815388Y22934982D01*
X36701270Y22858730D01*
X36625018Y22744612D01*
X36598242Y22610000D01*
X36598242Y21010000D01*
X36625018Y20875388D01*
X36701270Y20761270D01*
X36815388Y20685018D01*
X36950000Y20658242D01*
X38550000Y20658242D01*
X38605000Y20669182D01*
X38605000Y20132074D01*
X38565385Y20092459D01*
X38492079Y20299890D01*
X38041469Y20505475D01*
X37546487Y20522971D01*
X37082487Y20349714D01*
X37007921Y20299890D01*
X36934614Y20092457D01*
X37750000Y19277071D01*
X37764143Y19291213D01*
X37771214Y19284142D01*
X37757071Y19270000D01*
X37771214Y19255857D01*
X37764143Y19248786D01*
X37750000Y19262929D01*
X36934614Y18447543D01*
X37007921Y18240110D01*
X37458531Y18034525D01*
X37953513Y18017029D01*
X38417513Y18190286D01*
X38492079Y18240110D01*
X38565385Y18447541D01*
X38605000Y18407926D01*
X38605000Y17494196D01*
X38399437Y17700118D01*
X37978754Y17874801D01*
X37523245Y17875198D01*
X37102257Y17701250D01*
X36779882Y17379437D01*
X36605199Y16958754D01*
X36604802Y16503245D01*
X36778750Y16082257D01*
X37100563Y15759882D01*
X37521246Y15585199D01*
X37976755Y15584802D01*
X38397743Y15758750D01*
X38605000Y15965646D01*
X38605000Y15052074D01*
X38565385Y15012459D01*
X38492079Y15219890D01*
X38041469Y15425475D01*
X37546487Y15442971D01*
X37082487Y15269714D01*
X37007921Y15219890D01*
X36934614Y15012457D01*
X37750000Y14197071D01*
X37764143Y14211213D01*
X37771214Y14204142D01*
X37757071Y14190000D01*
X37771214Y14175857D01*
X37764143Y14168786D01*
X37750000Y14182929D01*
X36934614Y13367543D01*
X37007921Y13160110D01*
X37458531Y12954525D01*
X37953513Y12937029D01*
X38417513Y13110286D01*
X38492079Y13160110D01*
X38565385Y13367541D01*
X38605000Y13327926D01*
X38605000Y395000D01*
X395000Y395000D01*
X395000Y1121736D01*
X16388807Y1121736D01*
X16437783Y935085D01*
X16816135Y762811D01*
X17231613Y748439D01*
X17620965Y894158D01*
X17682217Y935085D01*
X17731193Y1121736D01*
X17060000Y1792929D01*
X16388807Y1121736D01*
X395000Y1121736D01*
X395000Y1628387D01*
X16008439Y1628387D01*
X16154158Y1239035D01*
X16195085Y1177783D01*
X16381736Y1128807D01*
X17052929Y1800000D01*
X17067071Y1800000D01*
X17738264Y1128807D01*
X17924915Y1177783D01*
X18097189Y1556135D01*
X18099150Y1612852D01*
X21194836Y1612852D01*
X21338401Y1265400D01*
X21604001Y999335D01*
X21951203Y855164D01*
X22327148Y854836D01*
X22674600Y998401D01*
X22940665Y1264001D01*
X23084836Y1611203D01*
X23085096Y1908640D01*
X23279100Y1439114D01*
X23657124Y1060429D01*
X24151289Y855234D01*
X24686363Y854767D01*
X25180886Y1059100D01*
X25559571Y1437124D01*
X25764766Y1931289D01*
X25764768Y1933637D01*
X33234767Y1933637D01*
X33439100Y1439114D01*
X33817124Y1060429D01*
X34311289Y855234D01*
X34846363Y854767D01*
X35340886Y1059100D01*
X35719571Y1437124D01*
X35924766Y1931289D01*
X35925233Y2466363D01*
X35720900Y2960886D01*
X35342876Y3339571D01*
X34848711Y3544766D01*
X34313637Y3545233D01*
X33819114Y3340900D01*
X33440429Y2962876D01*
X33235234Y2468711D01*
X33234767Y1933637D01*
X25764768Y1933637D01*
X25765233Y2466363D01*
X25560900Y2960886D01*
X25182876Y3339571D01*
X24688711Y3544766D01*
X24153637Y3545233D01*
X23659114Y3340900D01*
X23280429Y2962876D01*
X23075234Y2468711D01*
X23074836Y2012145D01*
X22941599Y2334600D01*
X22675999Y2600665D01*
X22328797Y2744836D01*
X21952852Y2745164D01*
X21605400Y2601599D01*
X21339335Y2335999D01*
X21195164Y1988797D01*
X21194836Y1612852D01*
X18099150Y1612852D01*
X18111561Y1971613D01*
X17965842Y2360965D01*
X17924915Y2422217D01*
X17738264Y2471193D01*
X17067071Y1800000D01*
X17052929Y1800000D01*
X16381736Y2471193D01*
X16195085Y2422217D01*
X16022811Y2043865D01*
X16008439Y1628387D01*
X395000Y1628387D01*
X395000Y2478264D01*
X16388807Y2478264D01*
X17060000Y1807071D01*
X17731193Y2478264D01*
X17682217Y2664915D01*
X17473060Y2760150D01*
X17811613Y2748439D01*
X18200965Y2894158D01*
X18262217Y2935085D01*
X18311193Y3121736D01*
X17640000Y3792929D01*
X16968807Y3121736D01*
X17017783Y2935085D01*
X17226940Y2839850D01*
X16888387Y2851561D01*
X16499035Y2705842D01*
X16437783Y2664915D01*
X16388807Y2478264D01*
X395000Y2478264D01*
X395000Y3612852D01*
X11614836Y3612852D01*
X11758401Y3265400D01*
X12024001Y2999335D01*
X12371203Y2855164D01*
X12747148Y2854836D01*
X13094600Y2998401D01*
X13360665Y3264001D01*
X13504836Y3611203D01*
X13504850Y3628387D01*
X16588439Y3628387D01*
X16734158Y3239035D01*
X16775085Y3177783D01*
X16961736Y3128807D01*
X17632929Y3800000D01*
X17647071Y3800000D01*
X18318264Y3128807D01*
X18504915Y3177783D01*
X18677189Y3556135D01*
X18690237Y3933350D01*
X25240421Y3933350D01*
X25338060Y3705136D01*
X25860926Y3466240D01*
X26435413Y3445620D01*
X26974061Y3646416D01*
X27061940Y3705136D01*
X27159579Y3933350D01*
X28240421Y3933350D01*
X28338060Y3705136D01*
X28860926Y3466240D01*
X29435413Y3445620D01*
X29974061Y3646416D01*
X30061940Y3705136D01*
X30159579Y3933350D01*
X31240421Y3933350D01*
X31338060Y3705136D01*
X31860926Y3466240D01*
X32435413Y3445620D01*
X32974061Y3646416D01*
X33061940Y3705136D01*
X33159579Y3933350D01*
X32200000Y4892929D01*
X31240421Y3933350D01*
X30159579Y3933350D01*
X29200000Y4892929D01*
X28240421Y3933350D01*
X27159579Y3933350D01*
X26200000Y4892929D01*
X25240421Y3933350D01*
X18690237Y3933350D01*
X18691561Y3971613D01*
X18545842Y4360965D01*
X18504915Y4422217D01*
X18318264Y4471193D01*
X17647071Y3800000D01*
X17632929Y3800000D01*
X16961736Y4471193D01*
X16775085Y4422217D01*
X16602811Y4043865D01*
X16588439Y3628387D01*
X13504850Y3628387D01*
X13505164Y3987148D01*
X13361599Y4334600D01*
X13218187Y4478264D01*
X16968807Y4478264D01*
X17640000Y3807071D01*
X18311193Y4478264D01*
X18262304Y4664587D01*
X24745620Y4664587D01*
X24946416Y4125939D01*
X25005136Y4038060D01*
X25233350Y3940421D01*
X26192929Y4900000D01*
X26207071Y4900000D01*
X27166650Y3940421D01*
X27394864Y4038060D01*
X27633760Y4560926D01*
X27637480Y4664587D01*
X27745620Y4664587D01*
X27946416Y4125939D01*
X28005136Y4038060D01*
X28233350Y3940421D01*
X29192929Y4900000D01*
X29207071Y4900000D01*
X30166650Y3940421D01*
X30394864Y4038060D01*
X30633760Y4560926D01*
X30637480Y4664587D01*
X30745620Y4664587D01*
X30946416Y4125939D01*
X31005136Y4038060D01*
X31233350Y3940421D01*
X32192929Y4900000D01*
X32207071Y4900000D01*
X33166650Y3940421D01*
X33394864Y4038060D01*
X33633760Y4560926D01*
X33654380Y5135413D01*
X33453584Y5674061D01*
X33394864Y5761940D01*
X33166650Y5859579D01*
X32207071Y4900000D01*
X32192929Y4900000D01*
X31233350Y5859579D01*
X31005136Y5761940D01*
X30766240Y5239074D01*
X30745620Y4664587D01*
X30637480Y4664587D01*
X30654380Y5135413D01*
X30453584Y5674061D01*
X30394864Y5761940D01*
X30166650Y5859579D01*
X29207071Y4900000D01*
X29192929Y4900000D01*
X28233350Y5859579D01*
X28005136Y5761940D01*
X27766240Y5239074D01*
X27745620Y4664587D01*
X27637480Y4664587D01*
X27654380Y5135413D01*
X27453584Y5674061D01*
X27394864Y5761940D01*
X27166650Y5859579D01*
X26207071Y4900000D01*
X26192929Y4900000D01*
X25233350Y5859579D01*
X25005136Y5761940D01*
X24766240Y5239074D01*
X24745620Y4664587D01*
X18262304Y4664587D01*
X18262217Y4664915D01*
X17883865Y4837189D01*
X17468387Y4851561D01*
X17079035Y4705842D01*
X17017783Y4664915D01*
X16968807Y4478264D01*
X13218187Y4478264D01*
X13095999Y4600665D01*
X12748797Y4744836D01*
X12372852Y4745164D01*
X12025400Y4601599D01*
X11759335Y4335999D01*
X11615164Y3988797D01*
X11614836Y3612852D01*
X395000Y3612852D01*
X395000Y6033637D01*
X8754767Y6033637D01*
X8959100Y5539114D01*
X9337124Y5160429D01*
X9831289Y4955234D01*
X10366363Y4954767D01*
X10860886Y5159100D01*
X11035440Y5333350D01*
X19140421Y5333350D01*
X19238060Y5105136D01*
X19760926Y4866240D01*
X20335413Y4845620D01*
X20874061Y5046416D01*
X20961940Y5105136D01*
X21059579Y5333350D01*
X20100000Y6292929D01*
X19140421Y5333350D01*
X11035440Y5333350D01*
X11239571Y5537124D01*
X11444766Y6031289D01*
X11444795Y6064587D01*
X18645620Y6064587D01*
X18846416Y5525939D01*
X18905136Y5438060D01*
X19133350Y5340421D01*
X20092929Y6300000D01*
X20107071Y6300000D01*
X21066650Y5340421D01*
X21294864Y5438060D01*
X21490685Y5866650D01*
X25240421Y5866650D01*
X26200000Y4907071D01*
X27159579Y5866650D01*
X28240421Y5866650D01*
X29200000Y4907071D01*
X30159579Y5866650D01*
X31240421Y5866650D01*
X32200000Y4907071D01*
X33159579Y5866650D01*
X33061940Y6094864D01*
X32539074Y6333760D01*
X31964587Y6354380D01*
X31425939Y6153584D01*
X31338060Y6094864D01*
X31240421Y5866650D01*
X30159579Y5866650D01*
X30061940Y6094864D01*
X29539074Y6333760D01*
X28964587Y6354380D01*
X28425939Y6153584D01*
X28338060Y6094864D01*
X28240421Y5866650D01*
X27159579Y5866650D01*
X27061940Y6094864D01*
X26539074Y6333760D01*
X25964587Y6354380D01*
X25425939Y6153584D01*
X25338060Y6094864D01*
X25240421Y5866650D01*
X21490685Y5866650D01*
X21533760Y5960926D01*
X21554380Y6535413D01*
X21353584Y7074061D01*
X21294864Y7161940D01*
X21066650Y7259579D01*
X20107071Y6300000D01*
X20092929Y6300000D01*
X19133350Y7259579D01*
X18905136Y7161940D01*
X18666240Y6639074D01*
X18645620Y6064587D01*
X11444795Y6064587D01*
X11445233Y6566363D01*
X11240900Y7060886D01*
X11035496Y7266650D01*
X19140421Y7266650D01*
X20100000Y6307071D01*
X21059579Y7266650D01*
X20961940Y7494864D01*
X20439074Y7733760D01*
X19864587Y7754380D01*
X19325939Y7553584D01*
X19238060Y7494864D01*
X19140421Y7266650D01*
X11035496Y7266650D01*
X10862876Y7439571D01*
X10368711Y7644766D01*
X9833637Y7645233D01*
X9339114Y7440900D01*
X8960429Y7062876D01*
X8755234Y6568711D01*
X8754767Y6033637D01*
X395000Y6033637D01*
X395000Y10833637D01*
X1254767Y10833637D01*
X1459100Y10339114D01*
X1837124Y9960429D01*
X2331289Y9755234D01*
X2866363Y9754767D01*
X3360886Y9959100D01*
X3739571Y10337124D01*
X3944766Y10831289D01*
X3945233Y11366363D01*
X3740900Y11860886D01*
X3362876Y12239571D01*
X2868711Y12444766D01*
X2333637Y12445233D01*
X1839114Y12240900D01*
X1460429Y11862876D01*
X1255234Y11368711D01*
X1254767Y10833637D01*
X395000Y10833637D01*
X395000Y13327926D01*
X434615Y13367541D01*
X507921Y13160110D01*
X958531Y12954525D01*
X1453513Y12937029D01*
X1917513Y13110286D01*
X1992079Y13160110D01*
X2065386Y13367543D01*
X1250000Y14182929D01*
X1235858Y14168786D01*
X1228787Y14175857D01*
X1242929Y14190000D01*
X1257071Y14190000D01*
X2072457Y13374614D01*
X2279890Y13447921D01*
X2485475Y13898531D01*
X2491650Y14073245D01*
X3854802Y14073245D01*
X4028750Y13652257D01*
X4350563Y13329882D01*
X4771246Y13155199D01*
X5226755Y13154802D01*
X5647743Y13328750D01*
X5652638Y13333637D01*
X11254767Y13333637D01*
X11459100Y12839114D01*
X11837124Y12460429D01*
X12103111Y12349982D01*
X11839114Y12240900D01*
X11460429Y11862876D01*
X11255234Y11368711D01*
X11254767Y10833637D01*
X11459100Y10339114D01*
X11837124Y9960429D01*
X12122908Y9841761D01*
X11952257Y9771250D01*
X11629882Y9449437D01*
X11455199Y9028754D01*
X11454802Y8573245D01*
X11628750Y8152257D01*
X11950563Y7829882D01*
X12371246Y7655199D01*
X12826755Y7654802D01*
X13247743Y7828750D01*
X13570118Y8150563D01*
X13744801Y8571246D01*
X13745198Y9026755D01*
X13636304Y9290302D01*
X14061120Y9290302D01*
X14137857Y9018178D01*
X14406117Y8613187D01*
X14808940Y8341683D01*
X15285000Y8245000D01*
X15585000Y8245000D01*
X15585000Y9485000D01*
X15595000Y9485000D01*
X15595000Y8245000D01*
X15895000Y8245000D01*
X16371060Y8341683D01*
X16773883Y8613187D01*
X17042143Y9018178D01*
X17118880Y9290302D01*
X17023739Y9485000D01*
X15595000Y9485000D01*
X15585000Y9485000D01*
X14156261Y9485000D01*
X14061120Y9290302D01*
X13636304Y9290302D01*
X13571250Y9447743D01*
X13529067Y9490000D01*
X21736691Y9490000D01*
X21823849Y9051827D01*
X22072054Y8680363D01*
X22443518Y8432158D01*
X22881691Y8345000D01*
X23538309Y8345000D01*
X23976482Y8432158D01*
X24347946Y8680363D01*
X24596151Y9051827D01*
X24683309Y9490000D01*
X24596151Y9928173D01*
X24347946Y10299637D01*
X23976482Y10547842D01*
X23538309Y10635000D01*
X22881691Y10635000D01*
X22443518Y10547842D01*
X22072054Y10299637D01*
X21823849Y9928173D01*
X21736691Y9490000D01*
X13529067Y9490000D01*
X13329717Y9689698D01*
X14061120Y9689698D01*
X14156261Y9495000D01*
X15585000Y9495000D01*
X15585000Y10735000D01*
X15595000Y10735000D01*
X15595000Y9495000D01*
X17023739Y9495000D01*
X17118880Y9689698D01*
X17042143Y9961822D01*
X16773883Y10366813D01*
X16371060Y10638317D01*
X16201013Y10672852D01*
X34254836Y10672852D01*
X34398401Y10325400D01*
X34664001Y10059335D01*
X35011203Y9915164D01*
X35387148Y9914836D01*
X35734600Y10058401D01*
X36000665Y10324001D01*
X36144836Y10671203D01*
X36145164Y11047148D01*
X36001599Y11394600D01*
X35735999Y11660665D01*
X35388797Y11804836D01*
X35012852Y11805164D01*
X34665400Y11661599D01*
X34399335Y11395999D01*
X34255164Y11048797D01*
X34254836Y10672852D01*
X16201013Y10672852D01*
X15895000Y10735000D01*
X15595000Y10735000D01*
X15585000Y10735000D01*
X15285000Y10735000D01*
X14808940Y10638317D01*
X14406117Y10366813D01*
X14137857Y9961822D01*
X14061120Y9689698D01*
X13329717Y9689698D01*
X13249437Y9770118D01*
X13076903Y9841760D01*
X13360886Y9959100D01*
X13739571Y10337124D01*
X13944766Y10831289D01*
X13945233Y11366363D01*
X13740900Y11860886D01*
X13572082Y12030000D01*
X14116691Y12030000D01*
X14203849Y11591827D01*
X14452054Y11220363D01*
X14823518Y10972158D01*
X15261691Y10885000D01*
X15918309Y10885000D01*
X16356482Y10972158D01*
X16727946Y11220363D01*
X16976151Y11591827D01*
X17063309Y12030000D01*
X21736691Y12030000D01*
X21823849Y11591827D01*
X22072054Y11220363D01*
X22443518Y10972158D01*
X22881691Y10885000D01*
X23538309Y10885000D01*
X23976482Y10972158D01*
X24347946Y11220363D01*
X24596151Y11591827D01*
X24683309Y12030000D01*
X24596151Y12468173D01*
X24347946Y12839637D01*
X23976482Y13087842D01*
X23538309Y13175000D01*
X22881691Y13175000D01*
X22443518Y13087842D01*
X22072054Y12839637D01*
X21823849Y12468173D01*
X21736691Y12030000D01*
X17063309Y12030000D01*
X16976151Y12468173D01*
X16727946Y12839637D01*
X16356482Y13087842D01*
X15918309Y13175000D01*
X15261691Y13175000D01*
X14823518Y13087842D01*
X14452054Y12839637D01*
X14203849Y12468173D01*
X14116691Y12030000D01*
X13572082Y12030000D01*
X13362876Y12239571D01*
X13096889Y12350018D01*
X13360886Y12459100D01*
X13739571Y12837124D01*
X13944766Y13331289D01*
X13945233Y13866363D01*
X13740900Y14360886D01*
X13532152Y14570000D01*
X14116691Y14570000D01*
X14203849Y14131827D01*
X14452054Y13760363D01*
X14823518Y13512158D01*
X15261691Y13425000D01*
X15918309Y13425000D01*
X16356482Y13512158D01*
X16727946Y13760363D01*
X16976151Y14131827D01*
X17063309Y14570000D01*
X21736691Y14570000D01*
X21823849Y14131827D01*
X22072054Y13760363D01*
X22443518Y13512158D01*
X22881691Y13425000D01*
X23538309Y13425000D01*
X23976482Y13512158D01*
X24347946Y13760363D01*
X24596151Y14131827D01*
X24683309Y14570000D01*
X24670651Y14633637D01*
X24854767Y14633637D01*
X25059100Y14139114D01*
X25437124Y13760429D01*
X25931289Y13555234D01*
X26466363Y13554767D01*
X26960886Y13759100D01*
X27339571Y14137124D01*
X27544766Y14631289D01*
X27544768Y14633637D01*
X27854767Y14633637D01*
X28059100Y14139114D01*
X28437124Y13760429D01*
X28931289Y13555234D01*
X29466363Y13554767D01*
X29960886Y13759100D01*
X30339571Y14137124D01*
X30544766Y14631289D01*
X30544768Y14633637D01*
X30854767Y14633637D01*
X31059100Y14139114D01*
X31437124Y13760429D01*
X31931289Y13555234D01*
X32466363Y13554767D01*
X32960886Y13759100D01*
X33188670Y13986487D01*
X36497029Y13986487D01*
X36670286Y13522487D01*
X36720110Y13447921D01*
X36927543Y13374614D01*
X37742929Y14190000D01*
X36927543Y15005386D01*
X36720110Y14932079D01*
X36514525Y14481469D01*
X36497029Y13986487D01*
X33188670Y13986487D01*
X33339571Y14137124D01*
X33544766Y14631289D01*
X33545233Y15166363D01*
X33505826Y15261736D01*
X34528807Y15261736D01*
X34577783Y15075085D01*
X34956135Y14902811D01*
X35371613Y14888439D01*
X35760965Y15034158D01*
X35822217Y15075085D01*
X35871193Y15261736D01*
X35200000Y15932929D01*
X34528807Y15261736D01*
X33505826Y15261736D01*
X33340900Y15660886D01*
X33233587Y15768387D01*
X34148439Y15768387D01*
X34294158Y15379035D01*
X34335085Y15317783D01*
X34521736Y15268807D01*
X35192929Y15940000D01*
X35207071Y15940000D01*
X35878264Y15268807D01*
X36064915Y15317783D01*
X36237189Y15696135D01*
X36251561Y16111613D01*
X36105842Y16500965D01*
X36064915Y16562217D01*
X35878264Y16611193D01*
X35207071Y15940000D01*
X35192929Y15940000D01*
X34521736Y16611193D01*
X34335085Y16562217D01*
X34162811Y16183865D01*
X34148439Y15768387D01*
X33233587Y15768387D01*
X32962876Y16039571D01*
X32468711Y16244766D01*
X31933637Y16245233D01*
X31439114Y16040900D01*
X31060429Y15662876D01*
X30855234Y15168711D01*
X30854767Y14633637D01*
X30544768Y14633637D01*
X30545233Y15166363D01*
X30340900Y15660886D01*
X29962876Y16039571D01*
X29468711Y16244766D01*
X28933637Y16245233D01*
X28439114Y16040900D01*
X28060429Y15662876D01*
X27855234Y15168711D01*
X27854767Y14633637D01*
X27544768Y14633637D01*
X27545233Y15166363D01*
X27340900Y15660886D01*
X26962876Y16039571D01*
X26468711Y16244766D01*
X25933637Y16245233D01*
X25439114Y16040900D01*
X25060429Y15662876D01*
X24855234Y15168711D01*
X24854767Y14633637D01*
X24670651Y14633637D01*
X24596151Y15008173D01*
X24347946Y15379637D01*
X23976482Y15627842D01*
X23538309Y15715000D01*
X22881691Y15715000D01*
X22443518Y15627842D01*
X22072054Y15379637D01*
X21823849Y15008173D01*
X21736691Y14570000D01*
X17063309Y14570000D01*
X16976151Y15008173D01*
X16727946Y15379637D01*
X16356482Y15627842D01*
X15918309Y15715000D01*
X15261691Y15715000D01*
X14823518Y15627842D01*
X14452054Y15379637D01*
X14203849Y15008173D01*
X14116691Y14570000D01*
X13532152Y14570000D01*
X13362876Y14739571D01*
X12868711Y14944766D01*
X12333637Y14945233D01*
X11839114Y14740900D01*
X11460429Y14362876D01*
X11255234Y13868711D01*
X11254767Y13333637D01*
X5652638Y13333637D01*
X5970118Y13650563D01*
X6144801Y14071246D01*
X6145198Y14526755D01*
X5971250Y14947743D01*
X5649437Y15270118D01*
X5228754Y15444801D01*
X4773245Y15445198D01*
X4352257Y15271250D01*
X4029882Y14949437D01*
X3855199Y14528754D01*
X3854802Y14073245D01*
X2491650Y14073245D01*
X2502971Y14393513D01*
X2329714Y14857513D01*
X2279890Y14932079D01*
X2072457Y15005386D01*
X1257071Y14190000D01*
X1242929Y14190000D01*
X1228787Y14204142D01*
X1235858Y14211213D01*
X1250000Y14197071D01*
X2065386Y15012457D01*
X1992079Y15219890D01*
X1541469Y15425475D01*
X1046487Y15442971D01*
X582487Y15269714D01*
X507921Y15219890D01*
X434615Y15012459D01*
X395000Y15052074D01*
X395000Y15867926D01*
X434615Y15907541D01*
X507921Y15700110D01*
X958531Y15494525D01*
X1453513Y15477029D01*
X1917513Y15650286D01*
X1992079Y15700110D01*
X2065386Y15907543D01*
X1250000Y16722929D01*
X1235858Y16708786D01*
X1228787Y16715857D01*
X1242929Y16730000D01*
X1257071Y16730000D01*
X2072457Y15914614D01*
X2279890Y15987921D01*
X2485475Y16438531D01*
X2487086Y16484127D01*
X5904724Y16484127D01*
X6147036Y15897685D01*
X6595325Y15448613D01*
X7181343Y15205277D01*
X7815873Y15204724D01*
X8402315Y15447036D01*
X8851387Y15895325D01*
X8993500Y16237570D01*
X9028750Y16152257D01*
X9350563Y15829882D01*
X9771246Y15655199D01*
X10226755Y15654802D01*
X10647743Y15828750D01*
X10970118Y16150563D01*
X11144801Y16571246D01*
X11145198Y17026755D01*
X11110803Y17110000D01*
X14116691Y17110000D01*
X14203849Y16671827D01*
X14452054Y16300363D01*
X14823518Y16052158D01*
X15261691Y15965000D01*
X15918309Y15965000D01*
X16356482Y16052158D01*
X16727946Y16300363D01*
X16976151Y16671827D01*
X17063309Y17110000D01*
X16976151Y17548173D01*
X16734386Y17910000D01*
X21758242Y17910000D01*
X21758242Y16310000D01*
X21785018Y16175388D01*
X21861270Y16061270D01*
X21975388Y15985018D01*
X22110000Y15958242D01*
X24310000Y15958242D01*
X24444612Y15985018D01*
X24558730Y16061270D01*
X24634982Y16175388D01*
X24661758Y16310000D01*
X24661758Y16912852D01*
X27214836Y16912852D01*
X27358401Y16565400D01*
X27624001Y16299335D01*
X27971203Y16155164D01*
X28347148Y16154836D01*
X28694600Y16298401D01*
X28960665Y16564001D01*
X29104836Y16911203D01*
X29104837Y16912852D01*
X32294836Y16912852D01*
X32438401Y16565400D01*
X32704001Y16299335D01*
X33051203Y16155164D01*
X33427148Y16154836D01*
X33774600Y16298401D01*
X34040665Y16564001D01*
X34184836Y16911203D01*
X34184897Y16981736D01*
X34528807Y16981736D01*
X34576493Y16800000D01*
X34528807Y16618264D01*
X35200000Y15947071D01*
X35871193Y16618264D01*
X35823507Y16800000D01*
X35871193Y16981736D01*
X35200000Y17652929D01*
X34528807Y16981736D01*
X34184897Y16981736D01*
X34185164Y17287148D01*
X34102014Y17488387D01*
X34148439Y17488387D01*
X34294158Y17099035D01*
X34335085Y17037783D01*
X34521736Y16988807D01*
X35192929Y17660000D01*
X35207071Y17660000D01*
X35878264Y16988807D01*
X36064915Y17037783D01*
X36237189Y17416135D01*
X36251561Y17831613D01*
X36105842Y18220965D01*
X36064915Y18282217D01*
X35878264Y18331193D01*
X35207071Y17660000D01*
X35192929Y17660000D01*
X34521736Y18331193D01*
X34335085Y18282217D01*
X34162811Y17903865D01*
X34148439Y17488387D01*
X34102014Y17488387D01*
X34041599Y17634600D01*
X33775999Y17900665D01*
X33428797Y18044836D01*
X33052852Y18045164D01*
X32705400Y17901599D01*
X32439335Y17635999D01*
X32295164Y17288797D01*
X32294836Y16912852D01*
X29104837Y16912852D01*
X29105164Y17287148D01*
X28961599Y17634600D01*
X28695999Y17900665D01*
X28348797Y18044836D01*
X27972852Y18045164D01*
X27625400Y17901599D01*
X27359335Y17635999D01*
X27215164Y17288797D01*
X27214836Y16912852D01*
X24661758Y16912852D01*
X24661758Y17910000D01*
X24634982Y18044612D01*
X24558730Y18158730D01*
X24444612Y18234982D01*
X24310000Y18261758D01*
X22110000Y18261758D01*
X21975388Y18234982D01*
X21861270Y18158730D01*
X21785018Y18044612D01*
X21758242Y17910000D01*
X16734386Y17910000D01*
X16727946Y17919637D01*
X16356482Y18167842D01*
X15918309Y18255000D01*
X15261691Y18255000D01*
X14823518Y18167842D01*
X14452054Y17919637D01*
X14203849Y17548173D01*
X14116691Y17110000D01*
X11110803Y17110000D01*
X10971250Y17447743D01*
X10649437Y17770118D01*
X10228754Y17944801D01*
X9773245Y17945198D01*
X9352257Y17771250D01*
X9029882Y17449437D01*
X8993577Y17362005D01*
X8852964Y17702315D01*
X8404675Y18151387D01*
X7954626Y18338264D01*
X34528807Y18338264D01*
X35200000Y17667071D01*
X35871193Y18338264D01*
X35822217Y18524915D01*
X35443865Y18697189D01*
X35028387Y18711561D01*
X34639035Y18565842D01*
X34577783Y18524915D01*
X34528807Y18338264D01*
X7954626Y18338264D01*
X7818657Y18394723D01*
X7184127Y18395276D01*
X6597685Y18152964D01*
X6148613Y17704675D01*
X5905277Y17118657D01*
X5904724Y16484127D01*
X2487086Y16484127D01*
X2502971Y16933513D01*
X2329714Y17397513D01*
X2279890Y17472079D01*
X2072457Y17545386D01*
X1257071Y16730000D01*
X1242929Y16730000D01*
X1228787Y16744142D01*
X1235858Y16751213D01*
X1250000Y16737071D01*
X2065386Y17552457D01*
X1992079Y17759890D01*
X1541469Y17965475D01*
X1046487Y17982971D01*
X582487Y17809714D01*
X507921Y17759890D01*
X434615Y17552459D01*
X395000Y17592074D01*
X395000Y18505804D01*
X600563Y18299882D01*
X1021246Y18125199D01*
X1476755Y18124802D01*
X1897743Y18298750D01*
X2220118Y18620563D01*
X2394801Y19041246D01*
X2394828Y19073245D01*
X3854802Y19073245D01*
X4028750Y18652257D01*
X4350563Y18329882D01*
X4771246Y18155199D01*
X5226755Y18154802D01*
X5647743Y18328750D01*
X5970118Y18650563D01*
X6144801Y19071246D01*
X6145185Y19512852D01*
X14114836Y19512852D01*
X14258401Y19165400D01*
X14524001Y18899335D01*
X14871203Y18755164D01*
X15247148Y18754836D01*
X15594600Y18898401D01*
X15860665Y19164001D01*
X16004836Y19511203D01*
X16005164Y19887148D01*
X15861599Y20234600D01*
X15595999Y20500665D01*
X15248797Y20644836D01*
X14872852Y20645164D01*
X14525400Y20501599D01*
X14259335Y20235999D01*
X14115164Y19888797D01*
X14114836Y19512852D01*
X6145185Y19512852D01*
X6145198Y19526755D01*
X5971250Y19947743D01*
X5649437Y20270118D01*
X5228754Y20444801D01*
X4773245Y20445198D01*
X4352257Y20271250D01*
X4029882Y19949437D01*
X3855199Y19528754D01*
X3854802Y19073245D01*
X2394828Y19073245D01*
X2395198Y19496755D01*
X2221250Y19917743D01*
X1899437Y20240118D01*
X1478754Y20414801D01*
X1023245Y20415198D01*
X602257Y20241250D01*
X395000Y20034354D01*
X395000Y20565000D01*
X1133750Y20565000D01*
X1245000Y20676250D01*
X1245000Y21805000D01*
X1255000Y21805000D01*
X1255000Y20676250D01*
X1366250Y20565000D01*
X2138516Y20565000D01*
X2302072Y20632747D01*
X2427253Y20757928D01*
X2495000Y20921484D01*
X2495000Y21693750D01*
X2383750Y21805000D01*
X1255000Y21805000D01*
X1245000Y21805000D01*
X1225000Y21805000D01*
X1225000Y21815000D01*
X1245000Y21815000D01*
X1245000Y22943750D01*
X1255000Y22943750D01*
X1255000Y21815000D01*
X2383750Y21815000D01*
X2495000Y21926250D01*
X2495000Y22698516D01*
X2427253Y22862072D01*
X2302072Y22987253D01*
X2138516Y23055000D01*
X1366250Y23055000D01*
X1255000Y22943750D01*
X1245000Y22943750D01*
X1133750Y23055000D01*
X395000Y23055000D01*
X395000Y23333637D01*
X11254767Y23333637D01*
X11459100Y22839114D01*
X11837124Y22460429D01*
X12331289Y22255234D01*
X12866363Y22254767D01*
X13360886Y22459100D01*
X13560819Y22658684D01*
X13728750Y22252257D01*
X14050563Y21929882D01*
X14471246Y21755199D01*
X14926755Y21754802D01*
X15347743Y21928750D01*
X15554943Y22135589D01*
X15554767Y21933637D01*
X15759100Y21439114D01*
X16137124Y21060429D01*
X16405000Y20949197D01*
X16405000Y20500000D01*
X16442680Y20310572D01*
X16549982Y20149982D01*
X17349982Y19349982D01*
X17510572Y19242680D01*
X17700000Y19205000D01*
X19322039Y19205000D01*
X19338401Y19165400D01*
X19604001Y18899335D01*
X19951203Y18755164D01*
X20327148Y18754836D01*
X20674600Y18898401D01*
X20940665Y19164001D01*
X20999968Y19306818D01*
X21058401Y19165400D01*
X21324001Y18899335D01*
X21671203Y18755164D01*
X22047148Y18754836D01*
X22394600Y18898401D01*
X22660665Y19164001D01*
X22804836Y19511203D01*
X22804837Y19512852D01*
X25994836Y19512852D01*
X26138401Y19165400D01*
X26404001Y18899335D01*
X26751203Y18755164D01*
X27127148Y18754836D01*
X27474600Y18898401D01*
X27740665Y19164001D01*
X27884836Y19511203D01*
X27885164Y19887148D01*
X27741599Y20234600D01*
X27475999Y20500665D01*
X27128797Y20644836D01*
X26752852Y20645164D01*
X26405400Y20501599D01*
X26139335Y20235999D01*
X25995164Y19888797D01*
X25994836Y19512852D01*
X22804837Y19512852D01*
X22805164Y19887148D01*
X22661599Y20234600D01*
X22395999Y20500665D01*
X22048797Y20644836D01*
X21672852Y20645164D01*
X21325400Y20501599D01*
X21059335Y20235999D01*
X21000032Y20093182D01*
X20941599Y20234600D01*
X20675999Y20500665D01*
X20328797Y20644836D01*
X19952852Y20645164D01*
X19605400Y20501599D01*
X19339335Y20235999D01*
X19322311Y20195000D01*
X17905036Y20195000D01*
X17395000Y20705036D01*
X17395000Y20949238D01*
X17660886Y21059100D01*
X18039571Y21437124D01*
X18244766Y21931289D01*
X18244768Y21933637D01*
X25554767Y21933637D01*
X25759100Y21439114D01*
X26137124Y21060429D01*
X26631289Y20855234D01*
X27166363Y20854767D01*
X27660886Y21059100D01*
X28039571Y21437124D01*
X28141606Y21682852D01*
X28619836Y21682852D01*
X28763401Y21335400D01*
X29029001Y21069335D01*
X29376203Y20925164D01*
X29752148Y20924836D01*
X29986936Y21021849D01*
X29890164Y20788797D01*
X29889836Y20412852D01*
X29986849Y20178064D01*
X29753797Y20274836D01*
X29377852Y20275164D01*
X29030400Y20131599D01*
X28764335Y19865999D01*
X28620164Y19518797D01*
X28619836Y19142852D01*
X28763401Y18795400D01*
X29029001Y18529335D01*
X29376203Y18385164D01*
X29752148Y18384836D01*
X30099600Y18528401D01*
X30365665Y18794001D01*
X30478811Y19066487D01*
X36497029Y19066487D01*
X36670286Y18602487D01*
X36720110Y18527921D01*
X36927543Y18454614D01*
X37742929Y19270000D01*
X36927543Y20085386D01*
X36720110Y20012079D01*
X36514525Y19561469D01*
X36497029Y19066487D01*
X30478811Y19066487D01*
X30509836Y19141203D01*
X30510164Y19517148D01*
X30413151Y19751936D01*
X30646203Y19655164D01*
X31022148Y19654836D01*
X31369600Y19798401D01*
X31635665Y20064001D01*
X31779836Y20411203D01*
X31780164Y20787148D01*
X31636599Y21134600D01*
X31370999Y21400665D01*
X31023797Y21544836D01*
X30647852Y21545164D01*
X30413064Y21448151D01*
X30509836Y21681203D01*
X30510164Y22057148D01*
X30366599Y22404600D01*
X30218607Y22552852D01*
X34254836Y22552852D01*
X34398401Y22205400D01*
X34664001Y21939335D01*
X35011203Y21795164D01*
X35387148Y21794836D01*
X35734600Y21938401D01*
X36000665Y22204001D01*
X36144836Y22551203D01*
X36145164Y22927148D01*
X36001599Y23274600D01*
X35735999Y23540665D01*
X35388797Y23684836D01*
X35012852Y23685164D01*
X34665400Y23541599D01*
X34399335Y23275999D01*
X34255164Y22928797D01*
X34254836Y22552852D01*
X30218607Y22552852D01*
X30100999Y22670665D01*
X29753797Y22814836D01*
X29377852Y22815164D01*
X29030400Y22671599D01*
X28764335Y22405999D01*
X28620164Y22058797D01*
X28619836Y21682852D01*
X28141606Y21682852D01*
X28244766Y21931289D01*
X28245233Y22466363D01*
X28040900Y22960886D01*
X27662876Y23339571D01*
X27168711Y23544766D01*
X26633637Y23545233D01*
X26139114Y23340900D01*
X25760429Y22962876D01*
X25555234Y22468711D01*
X25554767Y21933637D01*
X18244768Y21933637D01*
X18245233Y22466363D01*
X18040900Y22960886D01*
X17662876Y23339571D01*
X17168711Y23544766D01*
X16633637Y23545233D01*
X16139114Y23340900D01*
X15845129Y23047428D01*
X15845198Y23126755D01*
X15671250Y23547743D01*
X15349437Y23870118D01*
X15027273Y24003892D01*
X15160886Y24059100D01*
X15539571Y24437124D01*
X15744766Y24931289D01*
X15744768Y24933637D01*
X23054767Y24933637D01*
X23259100Y24439114D01*
X23637124Y24060429D01*
X24131289Y23855234D01*
X24666363Y23854767D01*
X25160886Y24059100D01*
X25539571Y24437124D01*
X25660043Y24727253D01*
X25779100Y24439114D01*
X26157124Y24060429D01*
X26651289Y23855234D01*
X27186363Y23854767D01*
X27680886Y24059100D01*
X28059571Y24437124D01*
X28264766Y24931289D01*
X28264768Y24933637D01*
X35734767Y24933637D01*
X35939100Y24439114D01*
X36317124Y24060429D01*
X36811289Y23855234D01*
X37346363Y23854767D01*
X37840886Y24059100D01*
X38219571Y24437124D01*
X38424766Y24931289D01*
X38425233Y25466363D01*
X38220900Y25960886D01*
X37842876Y26339571D01*
X37348711Y26544766D01*
X36813637Y26545233D01*
X36319114Y26340900D01*
X35940429Y25962876D01*
X35735234Y25468711D01*
X35734767Y24933637D01*
X28264768Y24933637D01*
X28265233Y25466363D01*
X28060900Y25960886D01*
X27682876Y26339571D01*
X27555000Y26392670D01*
X27555000Y27282039D01*
X27594600Y27298401D01*
X27718150Y27421736D01*
X31468807Y27421736D01*
X31517783Y27235085D01*
X31896135Y27062811D01*
X32311613Y27048439D01*
X32700965Y27194158D01*
X32762217Y27235085D01*
X32811193Y27421736D01*
X32140000Y28092929D01*
X31468807Y27421736D01*
X27718150Y27421736D01*
X27860665Y27564001D01*
X28004836Y27911203D01*
X28004850Y27928387D01*
X31088439Y27928387D01*
X31234158Y27539035D01*
X31275085Y27477783D01*
X31461736Y27428807D01*
X32132929Y28100000D01*
X32147071Y28100000D01*
X32818264Y27428807D01*
X33004915Y27477783D01*
X33177189Y27856135D01*
X33191561Y28271613D01*
X33045842Y28660965D01*
X33004915Y28722217D01*
X32818264Y28771193D01*
X32147071Y28100000D01*
X32132929Y28100000D01*
X31461736Y28771193D01*
X31275085Y28722217D01*
X31102811Y28343865D01*
X31088439Y27928387D01*
X28004850Y27928387D01*
X28005164Y28287148D01*
X27861599Y28634600D01*
X27718187Y28778264D01*
X31468807Y28778264D01*
X32140000Y28107071D01*
X32811193Y28778264D01*
X32762217Y28964915D01*
X32383865Y29137189D01*
X31968387Y29151561D01*
X31579035Y29005842D01*
X31517783Y28964915D01*
X31468807Y28778264D01*
X27718187Y28778264D01*
X27595999Y28900665D01*
X27248797Y29044836D01*
X26872852Y29045164D01*
X26525400Y28901599D01*
X26259335Y28635999D01*
X26115164Y28288797D01*
X26114836Y27912852D01*
X26258401Y27565400D01*
X26524001Y27299335D01*
X26565000Y27282311D01*
X26565000Y26508609D01*
X26159114Y26340900D01*
X25780429Y25962876D01*
X25659957Y25672747D01*
X25540900Y25960886D01*
X25162876Y26339571D01*
X24668711Y26544766D01*
X24133637Y26545233D01*
X23639114Y26340900D01*
X23260429Y25962876D01*
X23055234Y25468711D01*
X23054767Y24933637D01*
X15744768Y24933637D01*
X15745233Y25466363D01*
X15540900Y25960886D01*
X15162876Y26339571D01*
X14668711Y26544766D01*
X14133637Y26545233D01*
X13639114Y26340900D01*
X13260429Y25962876D01*
X13055234Y25468711D01*
X13054767Y24933637D01*
X13087749Y24853813D01*
X12868711Y24944766D01*
X12333637Y24945233D01*
X11839114Y24740900D01*
X11460429Y24362876D01*
X11255234Y23868711D01*
X11254767Y23333637D01*
X395000Y23333637D01*
X395000Y25249639D01*
X6606711Y25249639D01*
X6667852Y25052598D01*
X7082333Y24863667D01*
X7537564Y24847733D01*
X7964240Y25007222D01*
X8032148Y25052598D01*
X8093289Y25249639D01*
X7350000Y25992929D01*
X6606711Y25249639D01*
X395000Y25249639D01*
X395000Y25812436D01*
X6197733Y25812436D01*
X6357222Y25385760D01*
X6402598Y25317852D01*
X6599639Y25256711D01*
X7342929Y26000000D01*
X7357071Y26000000D01*
X8100361Y25256711D01*
X8297402Y25317852D01*
X8486333Y25732333D01*
X8502267Y26187564D01*
X8342778Y26614240D01*
X8297402Y26682148D01*
X8239870Y26700000D01*
X8798242Y26700000D01*
X8798242Y25300000D01*
X8825018Y25165388D01*
X8901270Y25051270D01*
X9015388Y24975018D01*
X9150000Y24948242D01*
X10550000Y24948242D01*
X10684612Y24975018D01*
X10798730Y25051270D01*
X10874982Y25165388D01*
X10901758Y25300000D01*
X10901758Y26700000D01*
X10874982Y26834612D01*
X10798730Y26948730D01*
X10684612Y27024982D01*
X10550000Y27051758D01*
X9150000Y27051758D01*
X9015388Y27024982D01*
X8901270Y26948730D01*
X8825018Y26834612D01*
X8798242Y26700000D01*
X8239870Y26700000D01*
X8100361Y26743289D01*
X7357071Y26000000D01*
X7342929Y26000000D01*
X6599639Y26743289D01*
X6402598Y26682148D01*
X6213667Y26267667D01*
X6197733Y25812436D01*
X395000Y25812436D01*
X395000Y26750361D01*
X6606711Y26750361D01*
X7350000Y26007071D01*
X8093289Y26750361D01*
X8032148Y26947402D01*
X7617667Y27136333D01*
X7162436Y27152267D01*
X6735760Y26992778D01*
X6667852Y26947402D01*
X6606711Y26750361D01*
X395000Y26750361D01*
X395000Y27933637D01*
X13054767Y27933637D01*
X13259100Y27439114D01*
X13637124Y27060429D01*
X14131289Y26855234D01*
X14666363Y26854767D01*
X15160886Y27059100D01*
X15539571Y27437124D01*
X15744766Y27931289D01*
X15744768Y27933637D01*
X23054767Y27933637D01*
X23259100Y27439114D01*
X23637124Y27060429D01*
X24131289Y26855234D01*
X24666363Y26854767D01*
X25160886Y27059100D01*
X25539571Y27437124D01*
X25744766Y27931289D01*
X25745233Y28466363D01*
X25540900Y28960886D01*
X25162876Y29339571D01*
X24668711Y29544766D01*
X24133637Y29545233D01*
X23639114Y29340900D01*
X23260429Y28962876D01*
X23055234Y28468711D01*
X23054767Y27933637D01*
X15744768Y27933637D01*
X15745233Y28466363D01*
X15540900Y28960886D01*
X15162876Y29339571D01*
X14668711Y29544766D01*
X14133637Y29545233D01*
X13639114Y29340900D01*
X13260429Y28962876D01*
X13055234Y28468711D01*
X13054767Y27933637D01*
X395000Y27933637D01*
X395000Y29605000D01*
X38605000Y29605000D01*
X38605000Y22950818D01*
M02*
