G04 #@! TF.FileFunction,Soldermask,Bot*
%FSLAX46Y46*%
G04 Gerber Fmt 4.6, Leading zero omitted, Abs format (unit mm)*
G04 Created by KiCad (PCBNEW (2016-08-20 BZR 7083)-product) date Sun Jan  1 23:07:31 2017*
%MOMM*%
%LPD*%
G01*
G04 APERTURE LIST*
%ADD10C,0.100000*%
%ADD11C,1.400000*%
%ADD12R,1.600000X1.600000*%
%ADD13C,1.600000*%
%ADD14R,2.400000X1.800000*%
%ADD15O,2.400000X1.800000*%
%ADD16C,2.200000*%
%ADD17C,1.800000*%
%ADD18C,2.700000*%
%ADD19R,1.800000X1.800000*%
G04 APERTURE END LIST*
D10*
D11*
X35200000Y22740000D03*
X35200000Y17660000D03*
X35200000Y10860000D03*
X35200000Y15940000D03*
X27060000Y28100000D03*
X32140000Y28100000D03*
X22140000Y1800000D03*
X17060000Y1800000D03*
D12*
X9850000Y26000000D03*
D13*
X7350000Y26000000D03*
D11*
X33240000Y17100000D03*
X28160000Y17100000D03*
X26940000Y19700000D03*
X21860000Y19700000D03*
X20140000Y19700000D03*
X15060000Y19700000D03*
X12560000Y3800000D03*
X17640000Y3800000D03*
D14*
X23210000Y17110000D03*
D15*
X23210000Y14570000D03*
X23210000Y12030000D03*
X23210000Y9490000D03*
X15590000Y9490000D03*
X15590000Y12030000D03*
X15590000Y14570000D03*
X15590000Y17110000D03*
D16*
X37080000Y25200000D03*
X26920000Y25200000D03*
X34580000Y2200000D03*
X24420000Y2200000D03*
X24400000Y28200000D03*
X14400000Y28200000D03*
X14400000Y25200000D03*
X24400000Y25200000D03*
X32200000Y4900000D03*
X32200000Y14900000D03*
X29200000Y4900000D03*
X29200000Y14900000D03*
X26200000Y4900000D03*
X26200000Y14900000D03*
X26900000Y22200000D03*
X16900000Y22200000D03*
X12600000Y23600000D03*
X12600000Y13600000D03*
X20100000Y6300000D03*
X10100000Y6300000D03*
X12600000Y11100000D03*
X2600000Y11100000D03*
D17*
X10000000Y16800000D03*
X5000000Y14300000D03*
X5000000Y19300000D03*
D18*
X7500000Y16800000D03*
D11*
X30835000Y20600000D03*
X29565000Y21870000D03*
X29565000Y19330000D03*
D17*
X37750000Y14190000D03*
X37750000Y16730000D03*
D19*
X37750000Y21810000D03*
D17*
X37750000Y19270000D03*
X1250000Y14190000D03*
X1250000Y16730000D03*
D19*
X1250000Y21810000D03*
D17*
X1250000Y19270000D03*
X14700000Y22900000D03*
X12600000Y8800000D03*
M02*
